<svg width="40" height="41" viewBox="0 0 40 41" fill="none" xmlns="http://www.w3.org/2000/svg">
<path d="M16.3327 13.3338L12.666 9.66718L8.99935 13.3338L12.666 17.0005L16.3327 13.3338Z" fill="#0A0A0A"/>
<path d="M31.0006 27.9999L27.334 24.3332L23.6673 27.9999L27.334 31.6665L31.0006 27.9999Z" fill="#0A0A0A"/>
<path d="M23.6667 13.3338L20 9.66718L16.3333 13.3338L20 17.0005L23.6667 13.3338Z" fill="#FF3800"/>
<path d="M31.0006 20.6659L27.334 16.9992L23.6673 20.6659L27.334 24.3325L31.0006 20.6659Z" fill="#FF3800"/>
<path d="M31.0006 13.3338L27.334 9.66718L23.6673 13.3338L27.334 17.0005L31.0006 13.3338Z" fill="#FF3800"/>
<path d="M23.6667 20.6659L20 16.9992L16.3333 20.6659L20 24.3325L23.6667 20.6659Z" fill="#0A0A0A"/>
<path d="M27.3327 16.9999L23.666 13.3332L19.9994 16.9999L23.666 20.6665L27.3327 16.9999Z" fill="#0A0A0A"/>
<path d="M16.3327 27.9999L12.666 24.3332L8.99935 27.9999L12.666 31.6665L16.3327 27.9999Z" fill="#0A0A0A"/>
<path d="M20.0006 24.3319L16.334 20.6652L12.6673 24.3319L16.334 27.9985L20.0006 24.3319Z" fill="#0A0A0A"/>
</svg>