<svg width="122" height="47" viewBox="0 0 122 47" fill="none" xmlns="http://www.w3.org/2000/svg">
<path d="M10.2891 36.0519V46.1602H20.4188V36.0519H10.2891Z" fill="#0A0A0A"/>
<path d="M48.1712 10.5645L58.3008 10.5645V0.456222L48.1712 0.456222V10.5645Z" fill="#0A0A0A"/>
<path d="M38.0384 10.5645L48.168 10.5645V0.456222L38.0384 0.456222V10.5645Z" fill="#0A0A0A"/>
<path d="M48.1595 36.0508H58.2891V25.9425H48.1595V36.0508Z" fill="#0A0A0A"/>
<path d="M38.0325 36.0508H48.1622V25.9425H38.0325V36.0508Z" fill="#0A0A0A"/>
<path d="M111.872 36.123H122.002V26.0148H111.872V36.123Z" fill="#0A0A0A"/>
<path d="M101.747 36.123H111.877V26.0148H101.747V36.123Z" fill="#0A0A0A"/>
<path d="M111.872 36.1113H101.742V46.2196H111.872V36.1113Z" fill="#0A0A0A"/>
<path d="M122.007 36.1113H111.877V46.2196H122.007V36.1113Z" fill="#0A0A0A"/>
<path d="M10.2891 25.9425V36.0508H20.4188V25.9425H10.2891Z" fill="#0A0A0A"/>
<path d="M10.2891 10.5851V20.6934H20.4188V10.5851H10.2891Z" fill="#0A0A0A"/>
<path d="M20.42 0.436689V10.5449H30.5496V0.436689H20.42Z" fill="#0A0A0A"/>
<path d="M6.10352e-05 0.436689L6.10352e-05 10.5449H10.1297V0.436689H6.10352e-05Z" fill="#0A0A0A"/>
<path d="M20.42 25.9445V36.0527H30.5496V25.9445H20.42Z" fill="#0A0A0A"/>
<path d="M73.9883 35.9914V46.0996H84.118V35.9914H73.9883Z" fill="#0A0A0A"/>
<path d="M73.9883 25.8859V35.9941H84.118V25.8859H73.9883Z" fill="#0A0A0A"/>
<path d="M63.8614 25.8859V35.9941H73.991V25.8859H63.8614Z" fill="#0A0A0A"/>
<path d="M84.1212 25.8859V35.9941H94.2508V25.8859H84.1212Z" fill="#0A0A0A"/>
</svg>
