<svg width="491" height="518" viewBox="0 0 491 518" fill="none" xmlns="http://www.w3.org/2000/svg">
<g clip-path="url(#clip0_754_2303)">
<path d="M72.5989 155.037L31.3809 171.205L47.5487 212.423L88.7668 196.255L72.5989 155.037Z" fill="#F8F8FF"/>
<path d="M113.808 138.877L72.5898 155.045L88.7577 196.263L129.976 180.095L113.808 138.877Z" fill="#FF3800"/>
<path d="M196.241 106.541L155.023 122.709L171.191 163.927L212.409 147.759L196.241 106.541Z" fill="#F8F8FF"/>
<path d="M278.659 74.213L237.441 90.3809L253.609 131.599L294.827 115.431L278.659 74.213Z" fill="#FF3800"/>
<path d="M319.879 58.045L278.661 74.2129L294.829 115.431L336.047 99.2631L319.879 58.045Z" fill="#F8F8FF"/>
<path d="M97.6419 97.6583L56.4238 113.826L72.5917 155.044L113.81 138.876L97.6419 97.6583Z" fill="#F8F8FF"/>
<path d="M138.856 81.4942L97.6377 97.6621L113.806 138.88L155.024 122.712L138.856 81.4942Z" fill="#F8F8FF"/>
<path d="M221.274 49.1622L180.056 65.3301L196.224 106.548L237.442 90.3803L221.274 49.1622Z" fill="#F8F8FF"/>
<path d="M262.493 32.9942L221.275 49.1621L237.443 90.3802L278.661 74.2123L262.493 32.9942Z" fill="#F8F8FF"/>
<path d="M47.5471 212.408L6.3291 228.576L22.497 269.794L63.715 253.626L47.5471 212.408Z" fill="#F8F8FF"/>
<path d="M88.76 196.244L47.542 212.412L63.7099 253.63L104.928 237.462L88.76 196.244Z" fill="#FF3800"/>
<path d="M336.04 99.2482L294.822 115.416L310.99 156.634L352.208 140.466L336.04 99.2482Z" fill="#FF3800"/>
<path d="M63.7132 253.627L22.4951 269.795L38.663 311.013L79.881 294.845L63.7132 253.627Z" fill="#F8F8FF"/>
<path d="M228.57 188.963L187.352 205.131L203.519 246.349L244.737 230.181L228.57 188.963Z" fill="#FF3800"/>
<path d="M121.099 278.678L79.8809 294.846L96.0487 336.064L137.267 319.896L121.099 278.678Z" fill="#F8F8FF"/>
<path d="M203.517 246.346L162.299 262.514L178.467 303.732L219.685 287.564L203.517 246.346Z" fill="#FF3800"/>
<path d="M244.736 230.182L203.518 246.35L219.685 287.568L260.903 271.4L244.736 230.182Z" fill="#F8F8FF"/>
<path d="M285.936 214.018L244.718 230.186L260.886 271.404L302.104 255.236L285.936 214.018Z" fill="#FF3800"/>
<path d="M368.374 181.682L327.156 197.85L343.324 239.068L384.542 222.9L368.374 181.682Z" fill="#F8F8FF"/>
<path d="M96.0413 336.045L54.8232 352.213L70.9911 393.431L112.209 377.263L96.0413 336.045Z" fill="#F8F8FF"/>
<path d="M260.903 271.381L219.685 287.549L235.852 328.767L277.07 312.599L260.903 271.381Z" fill="#FF3800"/>
<path d="M112.119 376.349L70.3916 392.717L87.214 435.604L128.942 419.236L112.119 376.349Z" fill="#F8F8FF"/>
<path d="M153.432 361.096L112.214 377.264L128.382 418.482L169.6 402.314L153.432 361.096Z" fill="#FF3800"/>
<path d="M400.702 264.104L359.484 280.271L375.652 321.49L416.87 305.322L400.702 264.104Z" fill="#FF3800"/>
<path d="M169.599 402.315L128.381 418.482L144.549 459.7L185.767 443.533L169.599 402.315Z" fill="#F8F8FF"/>
<path d="M210.798 386.154L169.58 402.322L185.748 443.54L226.966 427.372L210.798 386.154Z" fill="#FF3800"/>
<path d="M293.236 353.815L252.018 369.982L268.185 411.2L309.403 395.033L293.236 353.815Z" fill="#F8F8FF"/>
<path d="M375.659 321.49L334.441 337.658L350.609 378.876L391.827 362.708L375.659 321.49Z" fill="#FF3800"/>
<path d="M416.874 305.322L375.656 321.49L391.824 362.708L433.042 346.54L416.874 305.322Z" fill="#F8F8FF"/>
<path d="M226.96 427.354L185.742 443.521L201.91 484.74L243.128 468.572L226.96 427.354Z" fill="#F8F8FF"/>
<path d="M268.174 411.186L226.956 427.354L243.124 468.572L284.342 452.404L268.174 411.186Z" fill="#F8F8FF"/>
<path d="M350.598 378.858L309.38 395.025L325.548 436.243L366.766 420.076L350.598 378.858Z" fill="#F8F8FF"/>
<path d="M391.817 362.69L350.599 378.857L366.766 420.075L407.985 403.908L391.817 362.69Z" fill="#F8F8FF"/>
<path d="M377.245 83.0841L336.027 99.252L352.195 140.47L393.413 124.302L377.245 83.0841Z" fill="#F8F8FF"/>
<path d="M393.407 124.303L352.189 140.471L368.357 181.689L409.575 165.521L393.407 124.303Z" fill="#F8F8FF"/>
<path d="M425.741 206.721L384.522 222.889L400.69 264.107L441.908 247.939L425.741 206.721Z" fill="#F8F8FF"/>
<path d="M441.911 247.94L400.693 264.107L416.861 305.325L458.079 289.158L441.911 247.94Z" fill="#F8F8FF"/>
<rect x="45.6309" y="212.271" width="314.075" height="222.544" transform="rotate(-21.4177 45.6309 212.271)" fill="#F8F8FF"/>
<rect x="70.9414" y="152.471" width="222.544" height="317.664" transform="rotate(-21.4177 70.9414 152.471)" fill="#F8F8FF"/>
<path d="M118.612 285.103L110.755 265.074L127.279 258.591L135.136 278.62L131.353 280.104L124.882 263.608L115.924 267.122L122.396 283.618L118.612 285.103ZM147.801 274.133C145.798 274.919 143.897 275.162 142.1 274.861C140.311 274.557 138.716 273.776 137.313 272.518C135.919 271.257 134.815 269.587 134 267.51C133.185 265.433 132.86 263.458 133.024 261.586C133.197 259.71 133.836 258.052 134.941 256.613C136.055 255.17 137.613 254.056 139.616 253.27C141.619 252.484 143.515 252.243 145.303 252.548C147.101 252.848 148.696 253.629 150.09 254.891C151.493 256.149 152.602 257.816 153.417 259.893C154.232 261.97 154.552 263.947 154.379 265.823C154.215 267.696 153.576 269.353 152.462 270.796C151.357 272.235 149.804 273.348 147.801 274.133ZM146.404 270.573C147.681 270.093 148.631 269.405 149.253 268.508C149.875 267.611 150.191 266.562 150.201 265.36C150.22 264.154 149.957 262.855 149.411 261.465C148.865 260.074 148.179 258.952 147.353 258.099C146.535 257.243 145.594 256.697 144.528 256.463C143.462 256.228 142.29 256.351 141.013 256.831C139.735 257.311 138.785 257.999 138.164 258.895C137.542 259.792 137.221 260.843 137.202 262.049C137.192 263.251 137.46 264.548 138.006 265.939C138.551 267.33 139.233 268.453 140.05 269.31C140.877 270.162 141.823 270.706 142.889 270.941C143.955 271.175 145.126 271.053 146.404 270.573ZM159.776 272.806L157.08 265.935C157.683 265.699 158.135 265.35 158.435 264.89C158.742 264.416 158.922 263.854 158.977 263.201C159.027 262.539 158.986 261.806 158.853 261.003C158.719 260.199 158.519 259.347 158.251 258.446C157.907 257.297 157.561 256.17 157.213 255.065C156.862 253.951 156.496 252.8 156.116 251.612C155.731 250.415 155.32 249.121 154.882 247.731L168.19 242.542L174.661 259.038L176.191 258.438L178.887 265.309L175.103 266.793L173.794 263.455L162.249 267.984L163.559 271.322L159.776 272.806ZM162.727 263.72L170.878 260.522L165.792 247.559L159.717 249.91C160.012 250.854 160.288 251.719 160.543 252.507C160.808 253.291 161.067 254.088 161.321 254.898C161.574 255.708 161.846 256.618 162.135 257.628C162.424 258.639 162.646 259.477 162.801 260.144C162.952 260.802 163.021 261.4 163.008 261.94C163.005 262.477 162.911 263.07 162.727 263.72ZM180.632 260.772L172.775 240.743L180.787 237.6C182.215 237.04 183.482 236.875 184.588 237.104C185.691 237.324 186.616 237.785 187.362 238.487C188.108 239.19 188.654 239.981 189 240.862C189.44 241.984 189.55 243.016 189.331 243.958C189.122 244.896 188.626 245.663 187.843 246.259L187.57 245.564C188.924 245.332 190.088 245.545 191.062 246.2C192.045 246.852 192.755 247.735 193.192 248.848C193.661 250.044 193.851 251.183 193.763 252.267C193.683 253.346 193.296 254.322 192.6 255.194C191.901 256.057 190.869 256.756 189.506 257.291L180.632 260.772ZM183.074 255.705L187.72 253.883C188.23 253.683 188.643 253.398 188.958 253.028C189.269 252.649 189.46 252.221 189.529 251.745C189.605 251.255 189.537 250.741 189.326 250.204C189.14 249.731 188.878 249.347 188.537 249.052C188.197 248.758 187.786 248.582 187.303 248.525C186.827 248.456 186.296 248.535 185.712 248.764L181.066 250.587L183.074 255.705ZM179.68 247.054L183.798 245.439C184.224 245.272 184.575 245.048 184.851 244.769C185.126 244.49 185.302 244.159 185.376 243.776C185.447 243.385 185.386 242.943 185.194 242.452C184.953 241.84 184.562 241.4 184.018 241.132C183.474 240.863 182.84 240.871 182.117 241.155L178 242.77L179.68 247.054ZM198.623 253.714L190.765 233.686L194.549 232.201L202.406 252.23L198.623 253.714ZM206.576 250.594L198.719 230.566L202.557 229.06L207.796 242.412L211.264 225.644L215.103 224.138L222.961 244.167L219.122 245.673L213.884 232.32L210.415 249.088L206.576 250.594ZM206.187 225.71C205.371 226.03 204.551 226.122 203.727 225.985C202.903 225.848 202.16 225.524 201.5 225.013C200.839 224.502 200.349 223.838 200.028 223.022L202.949 221.876C203.113 222.293 203.397 222.594 203.801 222.778C204.21 222.949 204.623 222.953 205.041 222.789C205.458 222.625 205.754 222.343 205.929 221.943C206.109 221.53 206.117 221.115 205.954 220.698L208.875 219.552C209.195 220.368 209.286 221.188 209.149 222.012C209.013 222.836 208.689 223.578 208.177 224.239C207.666 224.899 207.003 225.39 206.187 225.71ZM231.487 240.822L225.016 224.326L218.701 226.803L217.315 223.27L233.728 216.831L235.114 220.364L228.799 222.841L235.271 239.338L231.487 240.822ZM243.82 235.983L235.963 215.954L249.038 210.825L250.424 214.358L241.132 218.003L242.813 222.287L250.435 219.297L251.821 222.83L244.199 225.82L246.218 230.966L255.509 227.321L256.895 230.854L243.82 235.983ZM265.798 227.362L257.94 207.333L265.952 204.19C267.38 203.63 268.647 203.464 269.754 203.694C270.856 203.914 271.781 204.375 272.527 205.077C273.274 205.779 273.82 206.571 274.165 207.452C274.605 208.574 274.716 209.606 274.497 210.548C274.287 211.486 273.791 212.253 273.008 212.849L272.735 212.154C274.089 211.922 275.253 212.134 276.227 212.79C277.211 213.442 277.92 214.324 278.357 215.437C278.826 216.633 279.017 217.773 278.928 218.856C278.849 219.936 278.461 220.912 277.765 221.784C277.066 222.647 276.035 223.346 274.672 223.88L265.798 227.362ZM268.24 222.295L272.885 220.473C273.395 220.273 273.808 219.988 274.123 219.618C274.434 219.239 274.625 218.811 274.695 218.334C274.77 217.845 274.702 217.331 274.491 216.793C274.306 216.32 274.043 215.937 273.703 215.642C273.363 215.347 272.951 215.172 272.469 215.115C271.992 215.045 271.462 215.125 270.877 215.354L266.232 217.177L268.24 222.295ZM264.846 213.644L268.963 212.029C269.389 211.861 269.741 211.638 270.016 211.359C270.292 211.079 270.467 210.748 270.542 210.366C270.613 209.974 270.552 209.533 270.359 209.041C270.119 208.429 269.727 207.989 269.183 207.721C268.639 207.453 268.006 207.461 267.282 207.745L263.165 209.36L264.846 213.644ZM282.119 220.959L280.382 198.529L286.029 196.314L300.006 213.942L296.112 215.47L283.729 199.944L284.453 199.66L286.014 219.431L282.119 220.959ZM284.154 215.346L282.768 211.813L293.339 207.666L294.725 211.199L284.154 215.346ZM302.499 212.964L294.642 192.935L298.425 191.451L304.896 207.947L310.627 205.699L304.155 189.203L307.939 187.718L314.41 204.215L320.141 201.966L313.669 185.47L317.452 183.986L325.31 204.015L302.499 212.964ZM329.481 202.379L321.624 182.35L325.407 180.866L333.265 200.894L329.481 202.379ZM173.559 298.995L165.702 278.966L182.226 272.484L190.083 292.513L186.3 293.997L179.828 277.501L170.871 281.015L177.342 297.511L173.559 298.995ZM193.988 290.981L186.131 270.952L194.587 267.635C194.782 267.558 195.045 267.466 195.377 267.357C195.715 267.235 196.022 267.147 196.3 267.091C197.569 266.807 198.702 266.818 199.699 267.122C200.705 267.423 201.569 267.961 202.29 268.738C203.009 269.504 203.588 270.449 204.028 271.571C204.468 272.693 204.683 273.786 204.672 274.849C204.667 275.9 204.398 276.877 203.864 277.782C203.341 278.683 202.522 279.459 201.407 280.11C201.162 280.249 200.876 280.393 200.55 280.543C200.223 280.692 199.967 280.803 199.782 280.876L195.109 282.709L197.771 289.497L193.988 290.981ZM193.723 279.177L198.229 277.409C198.424 277.332 198.633 277.239 198.858 277.13C199.083 277.02 199.281 276.9 199.454 276.768C199.91 276.428 200.213 276.042 200.364 275.608C200.511 275.165 200.557 274.725 200.503 274.286C200.454 273.834 200.359 273.428 200.217 273.066C200.075 272.704 199.87 272.346 199.602 271.991C199.34 271.623 199.007 271.331 198.601 271.116C198.192 270.891 197.705 270.809 197.141 270.87C196.924 270.891 196.696 270.937 196.457 271.01C196.218 271.082 196.001 271.157 195.806 271.233L191.3 273.001L193.723 279.177ZM220.84 280.929C218.837 281.714 216.937 281.957 215.139 281.656C213.351 281.352 211.755 280.571 210.352 279.313C208.958 278.052 207.854 276.383 207.039 274.306C206.224 272.228 205.899 270.254 206.063 268.381C206.237 266.505 206.876 264.847 207.98 263.408C209.094 261.965 210.652 260.851 212.655 260.065C214.658 259.279 216.554 259.039 218.342 259.343C220.14 259.643 221.736 260.424 223.129 261.686C224.532 262.944 225.641 264.611 226.456 266.688C227.271 268.765 227.592 270.742 227.418 272.618C227.254 274.491 226.615 276.149 225.501 277.591C224.397 279.03 222.843 280.143 220.84 280.929ZM219.443 277.368C220.721 276.888 221.671 276.2 222.293 275.303C222.914 274.407 223.23 273.357 223.24 272.155C223.259 270.949 222.996 269.651 222.45 268.26C221.905 266.869 221.219 265.747 220.392 264.894C219.574 264.038 218.633 263.493 217.567 263.258C216.501 263.023 215.33 263.146 214.052 263.626C212.775 264.106 211.825 264.794 211.203 265.691C210.581 266.587 210.26 267.639 210.241 268.844C210.231 270.047 210.499 271.343 211.045 272.734C211.591 274.125 212.272 275.249 213.09 276.105C213.916 276.958 214.862 277.501 215.928 277.736C216.994 277.97 218.166 277.848 219.443 277.368ZM232.815 279.601L230.119 272.73C230.722 272.494 231.174 272.145 231.475 271.685C231.781 271.212 231.962 270.649 232.016 269.996C232.067 269.334 232.025 268.602 231.892 267.798C231.759 266.994 231.558 266.142 231.29 265.241C230.946 264.092 230.601 262.965 230.253 261.861C229.901 260.747 229.535 259.595 229.155 258.407C228.771 257.21 228.359 255.916 227.921 254.526L241.229 249.337L247.7 265.833L249.23 265.233L251.926 272.104L248.143 273.588L246.833 270.25L235.289 274.779L236.598 278.117L232.815 279.601ZM235.766 270.515L243.917 267.317L238.832 254.354L232.756 256.705C233.052 257.649 233.327 258.515 233.583 259.302C233.847 260.087 234.107 260.884 234.36 261.694C234.614 262.504 234.885 263.414 235.174 264.424C235.464 265.434 235.686 266.272 235.84 266.939C235.991 267.597 236.06 268.196 236.047 268.736C236.044 269.272 235.95 269.865 235.766 270.515ZM252.281 268.113L250.543 245.683L256.19 243.468L270.168 261.096L266.273 262.624L253.891 247.098L254.614 246.815L256.175 266.585L252.281 268.113ZM254.316 262.5L252.93 258.967L263.501 254.82L264.887 258.353L254.316 262.5ZM270.992 260.773L274.102 247.836L263.663 240.536L268.142 238.779L277.33 245.511L273.816 236.553L277.6 235.069L281.114 244.026L283.275 232.843L287.753 231.086L285.062 243.537L296.139 250.907L291.494 252.73L281.987 246.252L285.457 255.098L281.674 256.582L278.203 247.736L275.637 258.95L270.992 260.773ZM298.638 249.927L290.781 229.898L294.564 228.414L302.421 248.443L298.638 249.927Z" fill="#0A0A0A"/>
<path d="M160.518 367.332L157.982 360.868L158.61 361.316C158.293 361.801 157.854 362.268 157.294 362.715C156.732 363.157 156.049 363.535 155.246 363.85C154.053 364.318 153.011 364.473 152.118 364.316C151.231 364.156 150.477 363.753 149.856 363.106C149.232 362.454 148.724 361.627 148.331 360.626L146.835 356.811L148.25 356.255L149.555 359.583C149.805 360.221 150.093 360.777 150.42 361.252C150.746 361.728 151.123 362.098 151.551 362.364C151.979 362.63 152.466 362.774 153.011 362.796C153.554 362.811 154.167 362.684 154.849 362.417C155.697 362.084 156.377 361.67 156.889 361.175C157.398 360.674 157.737 360.217 157.907 359.805L158.053 361.049L155.116 353.562L156.521 353.011L161.923 366.78L160.518 367.332ZM164.218 365.88L158.816 352.11L167.422 348.734L167.951 350.082L160.751 352.907L162.619 357.669L168.672 355.295L169.201 356.643L163.148 359.018L165.095 363.981L172.295 361.156L172.824 362.504L164.218 365.88ZM174.743 361.751L169.341 347.982L174.657 345.896C174.791 345.843 174.944 345.791 175.114 345.739C175.289 345.677 175.469 345.629 175.653 345.593C176.416 345.419 177.124 345.432 177.776 345.632C178.432 345.824 179.004 346.166 179.492 346.659C179.986 347.149 180.374 347.754 180.656 348.475C180.937 349.189 181.062 349.893 181.033 350.589C181.005 351.284 180.816 351.928 180.467 352.521C180.123 353.105 179.615 353.591 178.943 353.98C178.781 354.073 178.616 354.159 178.449 354.24C178.288 354.317 178.141 354.383 178.007 354.435L174.096 355.969L176.148 361.2L174.743 361.751ZM173.571 354.631L177.444 353.111C177.559 353.066 177.69 353.007 177.838 352.935C177.986 352.862 178.127 352.781 178.261 352.691C178.693 352.404 179.002 352.059 179.189 351.654C179.383 351.247 179.475 350.817 179.467 350.365C179.465 349.909 179.38 349.468 179.212 349.041C179.045 348.614 178.807 348.233 178.499 347.898C178.195 347.553 177.834 347.298 177.415 347.131C177.003 346.962 176.541 346.919 176.029 347.002C175.87 347.027 175.713 347.067 175.557 347.121C175.399 347.168 175.263 347.214 175.148 347.259L171.275 348.778L173.571 354.631ZM185.902 357.374L180.5 343.604L189.106 340.227L189.635 341.576L182.435 344.4L184.303 349.163L190.356 346.788L190.885 348.136L184.832 350.511L186.779 355.474L193.979 352.649L194.508 353.997L185.902 357.374ZM200.369 352.029C199.432 352.397 198.565 352.579 197.769 352.575C196.979 352.568 196.277 352.428 195.662 352.154C195.045 351.874 194.525 351.515 194.103 351.078L195.092 349.829C195.415 350.203 195.812 350.503 196.284 350.73C196.755 350.957 197.294 351.073 197.899 351.078C198.504 351.084 199.167 350.945 199.888 350.662C200.633 350.37 201.218 350.004 201.642 349.566C202.072 349.125 202.338 348.638 202.438 348.106C202.538 347.574 202.477 347.024 202.254 346.457C202.009 345.832 201.669 345.406 201.235 345.18C200.8 344.953 200.303 344.868 199.745 344.926C199.183 344.976 198.59 345.114 197.964 345.337C197.491 345.501 197.155 345.618 196.955 345.689C196.754 345.76 196.622 345.808 196.559 345.833C196.495 345.858 196.434 345.882 196.377 345.905L195.844 344.547C195.889 344.529 196.007 344.483 196.198 344.408C196.389 344.333 196.593 344.253 196.81 344.168C197.024 344.076 197.194 344.002 197.319 343.946C198.213 343.544 198.837 343.023 199.189 342.385C199.542 341.746 199.573 341.057 199.283 340.318C198.975 339.534 198.459 339.034 197.735 338.818C197.016 338.599 196.221 338.661 195.347 339.004C194.525 339.327 193.907 339.797 193.495 340.415C193.087 341.024 192.833 341.726 192.733 342.523L191.252 342.122C191.38 341.174 191.742 340.297 192.338 339.489C192.933 338.682 193.773 338.066 194.856 337.641C195.437 337.413 196.022 337.275 196.614 337.227C197.212 337.176 197.776 337.227 198.307 337.379C198.844 337.529 199.324 337.797 199.747 338.183C200.175 338.559 200.513 339.066 200.764 339.704C201.056 340.45 201.146 341.165 201.032 341.85C200.924 342.532 200.667 343.114 200.261 343.598C201.045 343.533 201.738 343.687 202.341 344.062C202.95 344.433 203.422 345.046 203.757 345.9C204.087 346.742 204.168 347.556 203.998 348.343C203.829 349.131 203.433 349.845 202.809 350.487C202.189 351.12 201.376 351.634 200.369 352.029ZM210.514 347.718L205.112 333.948L206.518 333.397L211.92 347.167L210.514 347.718ZM214.404 346.192L209.002 332.422L210.408 331.871L212.843 338.077L220.454 335.091L218.02 328.885L219.416 328.337L224.818 342.107L223.422 342.655L220.983 336.439L213.372 339.425L215.81 345.641L214.404 346.192ZM227.374 343.752L225.944 340.109C226.48 339.899 226.858 339.596 227.078 339.201C227.295 338.799 227.401 338.339 227.396 337.818C227.391 337.298 227.322 336.74 227.192 336.144C227.058 335.542 226.91 334.938 226.746 334.333C226.503 333.45 226.251 332.603 225.992 331.793C225.739 330.98 225.466 330.142 225.171 329.279C224.883 328.414 224.571 327.466 224.233 326.436L232.728 323.115L237.601 335.536L238.586 335.15L240.015 338.793L238.619 339.341L237.719 337.046L227.879 340.906L228.779 343.201L227.374 343.752ZM228.631 339.055L236.195 336.088L231.851 325.014L226.072 327.271C226.339 328.063 226.596 328.831 226.842 329.572C227.089 330.314 227.332 331.065 227.571 331.824C227.81 332.584 228.046 333.381 228.278 334.217C228.496 334.978 228.664 335.651 228.784 336.237C228.903 336.823 228.953 337.344 228.934 337.8C228.92 338.254 228.82 338.672 228.631 339.055ZM251.246 331.739L249.831 332.294L245.4 321.001L242.248 335.269L240.832 335.824L235.43 322.055L236.846 321.499L241.272 332.783L244.429 318.525L245.844 317.969L251.246 331.739ZM253.542 330.838L248.14 317.068L253.457 314.983C254.228 314.68 254.963 314.576 255.662 314.669C256.361 314.763 256.976 315.018 257.507 315.435C258.036 315.845 258.428 316.376 258.683 317.026C258.973 317.766 259.035 318.503 258.867 319.238C258.697 319.967 258.324 320.573 257.748 321.056L257.546 320.595C258.538 320.5 259.414 320.671 260.174 321.109C260.935 321.546 261.492 322.217 261.847 323.123C262.16 323.919 262.261 324.674 262.151 325.387C262.038 326.093 261.737 326.722 261.247 327.275C260.758 327.827 260.108 328.262 259.299 328.58L253.542 330.838ZM254.429 328.935L258.426 327.367C258.987 327.147 259.451 326.85 259.82 326.478C260.186 326.099 260.424 325.674 260.534 325.204C260.651 324.732 260.606 324.235 260.401 323.712C260.201 323.202 259.903 322.789 259.507 322.474C259.111 322.158 258.662 321.959 258.159 321.877C257.66 321.786 257.152 321.842 256.636 322.044L252.38 323.714L254.429 328.935ZM251.859 322.385L255.751 320.858C256.191 320.685 256.553 320.429 256.839 320.089C257.123 319.742 257.301 319.352 257.374 318.919C257.453 318.483 257.402 318.036 257.222 317.577C256.967 316.927 256.533 316.487 255.921 316.256C255.314 316.023 254.664 316.043 253.969 316.316L250.077 317.842L251.859 322.385ZM265.08 326.312L259.678 312.542L261.084 311.991L266.486 325.761L265.08 326.312ZM269.23 327.332L267.8 323.689C268.336 323.479 268.714 323.176 268.934 322.781C269.151 322.379 269.257 321.918 269.252 321.398C269.246 320.878 269.178 320.32 269.047 319.724C268.914 319.122 268.766 318.518 268.602 317.913C268.358 317.03 268.107 316.183 267.848 315.373C267.595 314.56 267.322 313.722 267.027 312.859C266.739 311.994 266.426 311.046 266.089 310.016L274.584 306.695L279.457 319.116L280.442 318.73L281.871 322.373L280.475 322.921L279.575 320.626L269.735 324.486L270.635 326.781L269.23 327.332ZM270.487 322.635L278.051 319.668L273.707 308.594L267.928 310.851C268.195 311.643 268.451 312.411 268.698 313.152C268.945 313.894 269.188 314.645 269.427 315.404C269.666 316.164 269.902 316.961 270.134 317.797C270.352 318.558 270.52 319.231 270.64 319.817C270.759 320.402 270.809 320.924 270.789 321.38C270.776 321.834 270.675 322.252 270.487 322.635ZM285.012 318.493L285.282 314.624L276.263 306.036L277.822 305.424L285.425 312.825L286.045 302.198L287.547 301.609L286.542 317.893L285.012 318.493ZM291.92 315.783L291.261 300.152L293.126 299.42L303.271 311.33L301.808 311.904L292.21 300.685L292.764 300.467L293.383 315.209L291.92 315.783ZM292.725 311.616L292.207 310.297L299.321 307.506L299.839 308.825L292.725 311.616ZM304.369 310.899L303.877 309.646C304.24 309.541 304.526 309.414 304.733 309.267C304.937 309.113 305.067 308.9 305.122 308.628C305.184 308.354 305.185 307.982 305.126 307.513C305.064 307.037 304.951 306.43 304.787 305.693C304.613 304.893 304.421 304.104 304.211 303.325C304.008 302.544 303.788 301.759 303.552 300.969C303.319 300.17 303.066 299.357 302.793 298.53C302.52 297.703 302.233 296.848 301.931 295.966L310.623 292.556L316.025 306.326L314.62 306.878L309.747 294.456L303.818 296.782C304.031 297.456 304.25 298.146 304.476 298.852C304.708 299.556 304.933 300.28 305.152 301.025C305.377 301.768 305.595 302.54 305.806 303.34C306.021 304.131 306.223 304.956 306.413 305.816C306.551 306.468 306.653 307.083 306.717 307.661C306.789 308.236 306.77 308.751 306.661 309.205C306.559 309.657 306.327 310.032 305.965 310.328C305.61 310.622 305.078 310.812 304.369 310.899ZM318.305 305.432L312.904 291.662L314.309 291.11L316.361 296.341L320.272 294.807C320.406 294.754 320.558 294.702 320.729 294.65C320.904 294.588 321.087 294.539 321.278 294.501C322.034 294.329 322.738 294.343 323.391 294.543C324.047 294.735 324.619 295.077 325.106 295.569C325.6 296.06 325.987 296.662 326.268 297.376C326.55 298.096 326.677 298.804 326.648 299.5C326.626 300.193 326.44 300.835 326.092 301.428C325.747 302.012 325.239 302.498 324.568 302.887C324.399 302.982 324.231 303.07 324.064 303.151C323.903 303.228 323.756 303.293 323.622 303.346L318.305 305.432ZM319.182 303.532L323.055 302.013C323.176 301.965 323.311 301.905 323.459 301.832C323.607 301.759 323.749 301.682 323.886 301.599C324.311 301.314 324.62 300.968 324.814 300.561C325.007 300.154 325.1 299.725 325.091 299.272C325.08 298.813 324.991 298.37 324.824 297.942C324.656 297.515 324.421 297.133 324.12 296.795C323.818 296.457 323.458 296.205 323.039 296.038C322.621 295.872 322.159 295.828 321.654 295.909C321.494 295.935 321.336 295.971 321.178 296.018C321.02 296.066 320.88 296.113 320.759 296.16L316.886 297.68L319.182 303.532ZM329.661 300.977L324.259 287.207L325.665 286.655L328.1 292.861L335.711 289.875L333.277 283.669L334.673 283.122L340.075 296.892L338.679 297.439L336.24 291.224L328.629 294.21L331.067 300.425L329.661 300.977ZM352.785 291.906L351.369 292.461L346.939 281.167L343.786 295.436L342.371 295.991L336.969 282.221L338.385 281.666L342.811 292.949L345.968 278.691L347.383 278.136L352.785 291.906ZM355.081 291.005L349.679 277.235L351.094 276.68L355.521 287.963L358.677 273.705L360.093 273.15L365.495 286.919L364.079 287.475L359.649 276.181L356.496 290.449L355.081 291.005ZM354.516 273.925C354.063 274.103 353.605 274.154 353.141 274.078C352.684 274 352.271 273.82 351.903 273.538C351.532 273.249 351.258 272.878 351.081 272.426L352.247 271.968C352.387 272.325 352.635 272.581 352.99 272.736C353.345 272.891 353.701 272.898 354.058 272.758C354.421 272.616 354.677 272.368 354.826 272.016C354.981 271.661 354.988 271.305 354.848 270.948L356.015 270.49C356.192 270.943 356.243 271.401 356.168 271.864C356.096 272.319 355.916 272.732 355.627 273.103C355.339 273.473 354.968 273.747 354.516 273.925ZM230.444 365.106L229.014 361.463C229.55 361.253 229.928 360.95 230.148 360.555C230.365 360.153 230.471 359.692 230.466 359.172C230.461 358.652 230.392 358.094 230.262 357.498C230.128 356.896 229.98 356.292 229.816 355.687C229.572 354.804 229.321 353.957 229.062 353.147C228.809 352.334 228.536 351.496 228.241 350.633C227.953 349.767 227.641 348.82 227.303 347.79L235.798 344.468L240.671 356.89L241.656 356.504L243.085 360.147L241.689 360.695L240.789 358.4L230.949 362.26L231.849 364.555L230.444 365.106ZM231.701 360.409L239.265 357.442L234.921 346.368L229.142 348.624C229.409 349.417 229.666 350.184 229.912 350.926C230.159 351.668 230.402 352.419 230.641 353.178C230.88 353.938 231.116 354.735 231.348 355.571C231.566 356.332 231.734 357.005 231.854 357.591C231.973 358.176 232.023 358.697 232.004 359.154C231.99 359.608 231.89 360.026 231.701 360.409ZM254.316 353.093L252.901 353.648L248.47 342.355L245.318 356.623L243.902 357.178L238.5 343.408L239.916 342.853L244.342 354.137L247.499 339.878L248.914 339.323L254.316 353.093ZM261.133 350.75C260.196 351.117 259.329 351.299 258.533 351.295C257.744 351.289 257.041 351.148 256.426 350.875C255.809 350.595 255.289 350.236 254.868 349.798L255.856 348.55C256.179 348.923 256.577 349.223 257.048 349.45C257.52 349.677 258.058 349.793 258.663 349.799C259.269 349.804 259.932 349.665 260.652 349.383C261.398 349.09 261.983 348.724 262.406 348.286C262.837 347.845 263.102 347.359 263.202 346.826C263.302 346.294 263.241 345.744 263.018 345.177C262.773 344.552 262.433 344.127 261.999 343.9C261.564 343.673 261.067 343.588 260.509 343.646C259.948 343.697 259.354 343.834 258.728 344.057C258.255 344.221 257.919 344.338 257.719 344.409C257.519 344.48 257.387 344.529 257.323 344.554C257.259 344.579 257.199 344.602 257.141 344.625L256.609 343.267C256.653 343.249 256.771 343.203 256.962 343.128C257.154 343.053 257.358 342.973 257.574 342.888C257.789 342.797 257.958 342.723 258.083 342.666C258.977 342.264 259.601 341.744 259.954 341.105C260.306 340.467 260.337 339.778 260.047 339.038C259.74 338.254 259.224 337.754 258.499 337.538C257.781 337.32 256.985 337.382 256.111 337.724C255.289 338.047 254.672 338.517 254.259 339.135C253.851 339.744 253.597 340.447 253.498 341.243L252.016 340.843C252.145 339.895 252.507 339.017 253.102 338.21C253.697 337.402 254.537 336.786 255.621 336.361C256.201 336.133 256.787 335.996 257.378 335.947C257.976 335.897 258.541 335.947 259.071 336.1C259.608 336.25 260.088 336.517 260.512 336.903C260.939 337.28 261.278 337.787 261.528 338.424C261.82 339.17 261.91 339.885 261.796 340.57C261.688 341.252 261.431 341.835 261.025 342.318C261.809 342.253 262.502 342.408 263.105 342.782C263.714 343.153 264.186 343.766 264.521 344.621C264.852 345.462 264.932 346.276 264.763 347.064C264.593 347.851 264.197 348.566 263.573 349.207C262.954 349.84 262.14 350.355 261.133 350.75ZM266.685 348.241L266.026 332.61L267.891 331.879L278.035 343.788L276.572 344.362L266.974 333.143L267.529 332.925L268.148 347.667L266.685 348.241ZM267.489 344.074L266.971 342.755L274.086 339.964L274.603 341.283L267.489 344.074ZM279.38 343.26L273.978 329.491L275.393 328.935L279.82 340.219L282.976 325.961L284.391 325.405L289.793 339.175L288.378 339.73L283.948 328.437L280.795 342.705L279.38 343.26ZM278.814 326.181C278.362 326.358 277.904 326.409 277.44 326.334C276.983 326.256 276.57 326.076 276.202 325.793C275.831 325.505 275.557 325.134 275.379 324.682L276.546 324.224C276.686 324.581 276.934 324.837 277.289 324.992C277.644 325.147 278 325.154 278.357 325.014C278.72 324.872 278.976 324.624 279.125 324.272C279.28 323.917 279.287 323.561 279.147 323.204L280.314 322.746C280.491 323.198 280.542 323.657 280.467 324.12C280.395 324.575 280.215 324.988 279.926 325.358C279.638 325.729 279.267 326.003 278.814 326.181ZM292.09 338.274L286.688 324.504L288.093 323.953L290.528 330.159L298.14 327.173L295.705 320.967L297.101 320.419L302.503 334.189L301.107 334.737L298.669 328.521L291.057 331.507L293.495 337.723L292.09 338.274Z" fill="#707070"/>
<path d="M137.392 399.87L123.482 405.326L118.027 391.417L131.936 385.961L137.392 399.87Z" fill="#0A0A0A"/>
<path d="M142.849 413.78L128.939 419.236L123.484 405.327L137.393 399.871L142.849 413.78Z" fill="#FF3800"/>
<path d="M156.759 408.323L142.85 413.779L137.394 399.87L151.303 394.414L156.759 408.323Z" fill="#0A0A0A"/>
<path d="M113.249 345.144L99.3398 350.6L104.796 364.509L118.705 359.053L113.249 345.144Z" fill="#0A0A0A"/>
<path d="M107.792 331.234L93.8828 336.689L99.3387 350.599L113.248 345.143L107.792 331.234Z" fill="#FF3800"/>
<path d="M121.702 325.777L107.793 331.232L113.249 345.142L127.158 339.686L121.702 325.777Z" fill="#0A0A0A"/>
<path d="M397.032 298.028L410.941 292.572L405.485 278.663L391.576 284.119L397.032 298.028Z" fill="#0A0A0A"/>
<path d="M402.488 311.938L416.397 306.482L410.942 292.573L397.032 298.029L402.488 311.938Z" fill="#FF3800"/>
<path d="M388.579 317.395L402.488 311.939L397.032 298.03L383.123 303.486L388.579 317.395Z" fill="#0A0A0A"/>
<path d="M377.529 241.482L391.438 236.026L396.894 249.935L382.985 255.391L377.529 241.482Z" fill="#0A0A0A"/>
<path d="M372.072 227.571L385.981 222.115L391.437 236.024L377.528 241.48L372.072 227.571Z" fill="#FF3800"/>
<path d="M358.162 233.028L372.071 227.572L377.527 241.481L363.618 246.937L358.162 233.028Z" fill="#0A0A0A"/>
</g>
<defs>
<clipPath id="clip0_754_2303">
<rect width="398.426" height="398.426" fill="white" transform="translate(-26 146.158) rotate(-21.4177)"/>
</clipPath>
</defs>
</svg>
