<svg width="324" height="185" viewBox="0 0 324 185" fill="none" xmlns="http://www.w3.org/2000/svg">
<path d="M142.362 180.392V161.992H129.482V147.088H158.738V180.392H142.362ZM0.957576 161.992V29.5122H17.3336V146.444H64.5296V29.5122H80.9056V146.444H128.102V29.5122H144.478V161.992H0.957576Z" fill="#0A0A0A"/>
<g clip-path="url(#clip0_963_14950)">
<path d="M202.494 46.166H185.269V63.3906H202.494V46.166Z" fill="#0A0A0A"/>
<path d="M219.71 46.166H202.486V63.3906H219.71V46.166Z" fill="#FF3800"/>
<path d="M254.162 46.166H236.937V63.3906H254.162V46.166Z" fill="#0A0A0A"/>
<path d="M288.601 46.166H271.376V63.3906H288.601V46.166Z" fill="#FF3800"/>
<path d="M305.826 46.166H288.601V63.3906H305.826V46.166Z" fill="#0A0A0A"/>
<path d="M219.71 28.9414H202.486V46.166H219.71V28.9414Z" fill="#0A0A0A"/>
<path d="M236.931 28.9414H219.706V46.166H236.931V28.9414Z" fill="#0A0A0A"/>
<path d="M254.162 28.9414H236.937V46.166H254.162V28.9414Z" fill="#FF3800"/>
<path d="M271.374 28.9414H254.15V46.166H271.374V28.9414Z" fill="#0A0A0A"/>
<path d="M288.601 28.9414H271.376V46.166H288.601V28.9414Z" fill="#0A0A0A"/>
<path d="M185.267 63.3848H168.042V80.6093H185.267V63.3848Z" fill="#0A0A0A"/>
<path d="M202.494 63.3848H185.269V80.6093H202.494V63.3848Z" fill="#FF3800"/>
<path d="M305.826 63.3848H288.601V80.6093H305.826V63.3848Z" fill="#FF3800"/>
<path d="M185.267 80.6094H168.042V97.8339H185.267V80.6094Z" fill="#0A0A0A"/>
<path d="M254.162 80.6074H236.937V97.832H254.162V80.6074Z" fill="#FF3800"/>
<path d="M185.267 97.834H168.042V115.059H185.267V97.834Z" fill="#FF3800"/>
<path d="M202.494 97.834H185.269V115.059H202.494V97.834Z" fill="#0A0A0A"/>
<path d="M236.931 97.834H219.706V115.059H236.931V97.834Z" fill="#FF3800"/>
<path d="M254.162 97.834H236.937V115.059H254.162V97.834Z" fill="#0A0A0A"/>
<path d="M271.374 97.834H254.15V115.059H271.374V97.834Z" fill="#FF3800"/>
<path d="M305.826 97.834H288.601V115.059H305.826V97.834Z" fill="#0A0A0A"/>
<path d="M185.267 115.049H168.042V132.273H185.267V115.049Z" fill="#0A0A0A"/>
<path d="M254.162 115.049H236.937V132.273H254.162V115.049Z" fill="#FF3800"/>
<path d="M185.267 132.275H168.042V149.5H185.267V132.275Z" fill="#0A0A0A"/>
<path d="M202.494 132.275H185.269V149.5H202.494V132.275Z" fill="#FF3800"/>
<path d="M305.826 132.275H288.601V149.5H305.826V132.275Z" fill="#FF3800"/>
<path d="M202.494 149.502H185.269V166.727H202.494V149.502Z" fill="#0A0A0A"/>
<path d="M219.71 149.502H202.486V166.727H219.71V149.502Z" fill="#FF3800"/>
<path d="M254.162 149.502H236.937V166.727H254.162V149.502Z" fill="#0A0A0A"/>
<path d="M288.601 149.502H271.376V166.727H288.601V149.502Z" fill="#FF3800"/>
<path d="M305.826 149.502H288.601V166.727H305.826V149.502Z" fill="#0A0A0A"/>
<path d="M219.71 166.717H202.486V183.941H219.71V166.717Z" fill="#0A0A0A"/>
<path d="M236.931 166.717H219.706V183.941H236.931V166.717Z" fill="#0A0A0A"/>
<path d="M254.162 166.717H236.937V183.941H254.162V166.717Z" fill="#FF3800"/>
<path d="M271.374 166.717H254.15V183.941H271.374V166.717Z" fill="#0A0A0A"/>
<path d="M288.601 166.717H271.376V183.941H288.601V166.717Z" fill="#0A0A0A"/>
<path d="M323.042 63.3848H305.818V80.6093H323.042V63.3848Z" fill="#0A0A0A"/>
<path d="M323.042 80.6074H305.818V97.832H323.042V80.6074Z" fill="#0A0A0A"/>
<path d="M323.042 97.834H305.818V115.059H323.042V97.834Z" fill="#FF3800"/>
<path d="M323.042 115.049H305.818V132.273H323.042V115.049Z" fill="#0A0A0A"/>
<path d="M323.042 132.275H305.818V149.5H323.042V132.275Z" fill="#0A0A0A"/>
</g>
<defs>
<clipPath id="clip0_963_14950">
<rect width="155" height="155" fill="white" transform="translate(168.042 28.9414)"/>
</clipPath>
</defs>
</svg>
