<svg  viewBox="0 0 1919 809" fill="none" xmlns="http://www.w3.org/2000/svg">
<path d="M367.173 651.899L424.528 804.177L577.238 746.659L519.882 594.381L367.173 651.899Z" fill="#F8F8FF"/>
<path d="M309.822 499.621L367.177 651.899L519.887 594.382L462.531 442.103L309.822 499.621Z" fill="#F8F8FF"/>
<path d="M222.665 268.233L280.021 420.512L432.73 362.994L375.375 210.716L222.665 268.233Z" fill="#F8F8FF"/>
<path d="M317.787 57.8487L375.142 210.127L527.852 152.609L470.496 0.330859L317.787 57.8487Z" fill="#F8F8FF"/>
<path d="M10.001 173.779L67.3564 326.058L220.066 268.54L162.711 116.262L10.001 173.779Z" fill="#F8F8FF"/>
<path d="M462.515 442.107L519.87 594.385L672.58 536.867L615.224 384.589L462.515 442.107Z" fill="#F8F8FF"/>
<path d="M1091.95 385.204L1220.25 486.037L1320.8 358.099L1192.5 257.265L1091.95 385.204Z" fill="#F8F8FF"/>
<path d="M963.638 284.356L1091.94 385.189L1192.49 257.251L1064.19 156.417L963.638 284.356Z" fill="#F8F8FF"/>
<path d="M838.29 707.684L966.591 808.518L1067.14 680.579L938.839 579.746L838.29 707.684Z" fill="#F8F8FF"/>
<path d="M709.997 606.86L838.297 707.693L938.846 579.755L810.545 478.921L709.997 606.86Z" fill="#F8F8FF"/>
<path d="M1413.19 644.839V807.561H1576.37V644.839H1413.19Z" fill="#F8F8FF"/>
<path d="M1413.19 482.113V644.834H1576.37V482.113H1413.19Z" fill="#F8F8FF"/>
<path d="M1250 482.112V644.834H1413.18V482.112H1250Z" fill="#F8F8FF"/>
<path d="M1576.36 482.112V644.834H1739.55V482.112H1576.36Z" fill="#F8F8FF"/>
<path d="M1677.7 233.577L1802.25 128.143L1697.11 3.94668L1572.56 109.381L1677.7 233.577Z" fill="#F8F8FF"/>
<path d="M1553.16 339.003L1677.71 233.568L1572.57 109.372L1448.02 214.807L1553.16 339.003Z" fill="#F8F8FF"/>
<path d="M1677.57 233.458L1553.03 338.893L1658.16 463.089L1782.71 357.654L1677.57 233.458Z" fill="#F8F8FF"/>
<path d="M1802.15 128.005L1677.6 233.439L1782.74 357.635L1907.28 252.201L1802.15 128.005Z" fill="#F8F8FF"/>
</svg>
