<svg width="491" height="517" viewBox="0 0 491 517" fill="none" xmlns="http://www.w3.org/2000/svg">
<g clip-path="url(#clip0_1187_1216)">
<path d="M98.7402 159.684L57.8054 176.556L74.6775 217.491L115.612 200.619L98.7402 159.684Z" fill="#F8F8FF"/>
<path d="M139.662 142.819L98.7268 159.691L115.599 200.626L156.534 183.754L139.662 142.819Z" fill="#FF3800"/>
<path d="M221.535 109.075L180.6 125.947L197.472 166.882L238.407 150.009L221.535 109.075Z" fill="#F8F8FF"/>
<path d="M303.382 75.3339L262.448 92.2061L279.32 133.141L320.254 116.269L303.382 75.3339Z" fill="#FF3800"/>
<path d="M344.315 58.4655L303.38 75.3376L320.252 116.272L361.187 99.4003L344.315 58.4655Z" fill="#F8F8FF"/>
<path d="M122.788 101.882L81.8535 118.754L98.7256 159.689L139.66 142.817L122.788 101.882Z" fill="#F8F8FF"/>
<path d="M163.719 85.0139L122.785 101.886L139.657 142.821L180.592 125.949L163.719 85.0139Z" fill="#F8F8FF"/>
<path d="M245.573 51.2771L204.638 68.1492L221.51 109.084L262.445 92.2119L245.573 51.2771Z" fill="#F8F8FF"/>
<path d="M286.51 34.401L245.575 51.2731L262.447 92.2079L303.382 75.3358L286.51 34.401Z" fill="#F8F8FF"/>
<path d="M74.6716 217.47L33.7368 234.342L50.6089 275.277L91.5437 258.404L74.6716 217.47Z" fill="#F8F8FF"/>
<path d="M115.609 200.601L74.6738 217.473L91.5459 258.408L132.481 241.536L115.609 200.601Z" fill="#FF3800"/>
<path d="M361.183 99.3829L320.248 116.255L337.12 157.19L378.055 140.318L361.183 99.3829Z" fill="#FF3800"/>
<path d="M91.54 258.407L50.6052 275.279L67.4773 316.214L108.412 299.342L91.54 258.407Z" fill="#F8F8FF"/>
<path d="M255.266 190.929L214.331 207.801L231.203 248.736L272.138 231.864L255.266 190.929Z" fill="#FF3800"/>
<path d="M149.349 282.471L108.415 299.343L125.287 340.278L166.221 323.406L149.349 282.471Z" fill="#F8F8FF"/>
<path d="M231.203 248.734L190.268 265.606L207.14 306.541L248.075 289.669L231.203 248.734Z" fill="#FF3800"/>
<path d="M272.139 231.862L231.204 248.734L248.076 289.669L289.011 272.797L272.139 231.862Z" fill="#F8F8FF"/>
<path d="M313.056 214.998L272.122 231.87L288.994 272.805L329.929 255.932L313.056 214.998Z" fill="#FF3800"/>
<path d="M394.928 181.253L353.994 198.125L370.866 239.06L411.801 222.188L394.928 181.253Z" fill="#F8F8FF"/>
<path d="M125.281 340.261L84.3459 357.133L101.218 398.068L142.153 381.196L125.281 340.261Z" fill="#F8F8FF"/>
<path d="M289.002 272.78L248.068 289.652L264.94 330.587L305.875 313.714L289.002 272.78Z" fill="#FF3800"/>
<path d="M142.048 380.282L100.607 397.363L118.162 439.955L159.603 422.874L142.048 380.282Z" fill="#F8F8FF"/>
<path d="M183.09 364.326L142.155 381.198L159.027 422.133L199.962 405.261L183.09 364.326Z" fill="#FF3800"/>
<path d="M428.665 263.104L387.73 279.976L404.603 320.911L445.537 304.038L428.665 263.104Z" fill="#FF3800"/>
<path d="M199.954 405.259L159.019 422.131L175.891 463.066L216.826 446.194L199.954 405.259Z" fill="#F8F8FF"/>
<path d="M240.881 388.394L199.946 405.266L216.818 446.201L257.753 429.329L240.881 388.394Z" fill="#FF3800"/>
<path d="M322.748 354.65L281.813 371.522L298.685 412.457L339.62 395.585L322.748 354.65Z" fill="#F8F8FF"/>
<path d="M404.602 320.909L363.667 337.781L380.539 378.716L421.474 361.844L404.602 320.909Z" fill="#FF3800"/>
<path d="M445.539 304.041L404.604 320.913L421.476 361.848L462.411 344.975L445.539 304.041Z" fill="#F8F8FF"/>
<path d="M257.748 429.312L216.813 446.184L233.686 487.119L274.62 470.247L257.748 429.312Z" fill="#F8F8FF"/>
<path d="M298.679 412.44L257.745 429.312L274.617 470.246L315.552 453.374L298.679 412.44Z" fill="#F8F8FF"/>
<path d="M380.529 378.707L339.594 395.579L356.466 436.514L397.401 419.641L380.529 378.707Z" fill="#F8F8FF"/>
<path d="M421.47 361.83L380.535 378.703L397.407 419.637L438.342 402.765L421.47 361.83Z" fill="#F8F8FF"/>
<path d="M402.099 82.5184L361.164 99.3905L378.036 140.325L418.971 123.453L402.099 82.5184Z" fill="#F8F8FF"/>
<path d="M418.972 123.451L378.038 140.324L394.91 181.258L435.845 164.386L418.972 123.451Z" fill="#F8F8FF"/>
<path d="M452.714 205.306L411.78 222.178L428.652 263.113L469.586 246.241L452.714 205.306Z" fill="#F8F8FF"/>
<path d="M469.583 246.239L428.648 263.111L445.52 304.046L486.455 287.174L469.583 246.239Z" fill="#F8F8FF"/>
<rect x="72.7568" y="217.368" width="314.075" height="222.544" transform="rotate(-22.4 72.7568 217.368)" fill="#F8F8FF"/>
<rect x="97.0334" y="157.145" width="222.544" height="317.664" transform="rotate(-22.4 97.0334 157.145)" fill="#F8F8FF"/>
<path d="M133.847 253.222L125.647 233.331L134.046 229.869C134.239 229.789 134.501 229.692 134.831 229.577C135.166 229.45 135.472 229.356 135.749 229.296C137.013 228.99 138.145 228.981 139.147 229.268C140.158 229.552 141.031 230.075 141.766 230.839C142.498 231.594 143.093 232.528 143.552 233.642C144.011 234.756 144.245 235.845 144.252 236.909C144.265 237.959 144.013 238.942 143.495 239.855C142.987 240.765 142.181 241.555 141.078 242.225C140.836 242.368 140.552 242.517 140.229 242.672C139.905 242.827 139.651 242.943 139.466 243.019L134.825 244.932L137.604 251.673L133.847 253.222ZM133.379 241.424L137.854 239.579C138.048 239.499 138.256 239.402 138.478 239.289C138.701 239.176 138.898 239.052 139.068 238.917C139.518 238.57 139.814 238.178 139.958 237.742C140.097 237.297 140.136 236.855 140.074 236.417C140.018 235.966 139.915 235.562 139.767 235.202C139.619 234.843 139.408 234.488 139.135 234.138C138.866 233.775 138.528 233.489 138.118 233.28C137.706 233.063 137.217 232.989 136.654 233.06C136.438 233.084 136.211 233.135 135.973 233.211C135.735 233.288 135.52 233.366 135.326 233.445L130.851 235.29L133.379 241.424ZM151.815 245.815L143.615 225.924L156.6 220.571L158.046 224.08L148.819 227.884L150.573 232.138L158.142 229.018L159.589 232.526L152.019 235.647L154.126 240.758L163.353 236.954L164.799 240.463L151.815 245.815ZM174.711 236.862C173.302 237.443 171.978 237.746 170.739 237.772C169.509 237.794 168.397 237.633 167.404 237.288C166.407 236.934 165.56 236.486 164.862 235.944L167.128 232.424C167.539 232.794 168.04 233.12 168.631 233.405C169.222 233.689 169.915 233.84 170.709 233.857C171.502 233.875 172.406 233.675 173.419 233.257C174.376 232.862 175.088 232.407 175.555 231.892C176.03 231.373 176.308 230.844 176.387 230.304C176.476 229.761 176.421 229.251 176.224 228.772C175.962 228.136 175.572 227.726 175.054 227.541C174.545 227.352 173.97 227.315 173.327 227.429C172.681 227.534 172.027 227.711 171.365 227.963C170.722 228.206 170.256 228.382 169.967 228.491C169.687 228.595 169.496 228.668 169.395 228.71C169.303 228.748 169.215 228.784 169.132 228.818L167.675 225.282C167.794 225.233 167.969 225.161 168.2 225.066C168.439 224.967 168.679 224.868 168.918 224.77C169.163 224.658 169.362 224.565 169.514 224.492C170.462 224.047 171.181 223.503 171.67 222.86C172.168 222.213 172.252 221.488 171.922 220.687C171.618 219.95 171.087 219.485 170.328 219.292C169.579 219.094 168.721 219.195 167.754 219.593C166.842 219.969 166.109 220.503 165.554 221.195C165.004 221.874 164.66 222.517 164.522 223.123L160.814 221.42C161.209 220.417 161.88 219.418 162.828 218.424C163.775 217.43 164.972 216.635 166.418 216.039C167.293 215.679 168.197 215.441 169.13 215.325C170.059 215.201 170.956 215.235 171.822 215.428C172.684 215.611 173.463 215.985 174.159 216.549C174.864 217.109 175.425 217.896 175.843 218.909C176.196 219.766 176.378 220.639 176.389 221.528C176.397 222.409 176.221 223.224 175.863 223.975C176.844 224.002 177.704 224.272 178.443 224.786C179.183 225.3 179.769 226.082 180.202 227.132C180.745 228.449 180.845 229.738 180.504 230.999C180.167 232.248 179.488 233.384 178.467 234.408C177.454 235.429 176.202 236.247 174.711 236.862ZM187.24 231.212L187.703 224.493L175.007 212.983L179.262 211.23L188.036 219.733L188.434 207.449L192.44 205.797L191.246 229.561L187.24 231.212ZM199.239 226.266L197.952 223.144C198.387 222.997 198.731 222.812 198.984 222.589C199.237 222.367 199.41 222.08 199.502 221.729C199.6 221.366 199.629 220.912 199.588 220.369C199.543 219.816 199.44 219.148 199.278 218.363C199.025 217.121 198.71 215.834 198.333 214.503C197.962 213.158 197.575 211.853 197.171 210.586C196.768 209.319 196.387 208.173 196.028 207.146C195.666 206.111 195.375 205.288 195.156 204.678L208.721 199.086L216.92 218.977L213.163 220.526L206.41 204.143L200.055 206.763C200.231 207.294 200.458 207.987 200.735 208.842C201.021 209.694 201.321 210.642 201.633 211.688C201.946 212.733 202.25 213.825 202.547 214.963C202.844 216.102 203.095 217.221 203.301 218.321C203.514 219.386 203.64 220.358 203.678 221.236C203.713 222.105 203.601 222.879 203.342 223.556C203.088 224.221 202.634 224.78 201.981 225.233C201.327 225.685 200.413 226.03 199.239 226.266ZM220.773 217.389L212.574 197.498L216.331 195.949L219.11 202.69L223.751 200.777C223.935 200.701 224.197 200.604 224.536 200.485C224.871 200.358 225.177 200.264 225.454 200.204C226.709 199.902 227.837 199.895 228.839 200.182C229.85 200.466 230.723 200.989 231.458 201.753C232.198 202.504 232.798 203.436 233.258 204.55C233.717 205.665 233.955 206.752 233.972 207.811C233.984 208.862 233.732 209.844 233.214 210.758C232.706 211.667 231.896 212.459 230.784 213.133C230.541 213.276 230.258 213.425 229.934 213.581C229.619 213.732 229.365 213.847 229.172 213.927L220.773 217.389ZM223.084 212.332L227.56 210.487C227.753 210.407 227.961 210.311 228.184 210.197C228.406 210.084 228.603 209.96 228.774 209.825C229.223 209.478 229.52 209.086 229.663 208.65C229.803 208.205 229.841 207.763 229.78 207.325C229.723 206.875 229.621 206.47 229.473 206.111C229.325 205.751 229.114 205.397 228.84 205.046C228.572 204.683 228.233 204.397 227.824 204.188C227.411 203.971 226.923 203.897 226.359 203.968C226.143 203.992 225.916 204.043 225.678 204.119C225.44 204.196 225.225 204.274 225.032 204.354L220.556 206.199L223.084 212.332ZM243.086 208.191L236.333 191.809L230.061 194.394L228.615 190.885L244.915 184.166L246.361 187.675L240.09 190.26L246.843 206.643L243.086 208.191ZM253.413 203.934L251.292 181.537L256.9 179.226L271.177 196.611L267.31 198.206L254.663 182.895L255.382 182.599L257.281 202.34L253.413 203.934ZM255.352 198.287L253.906 194.778L264.404 190.451L265.85 193.959L255.352 198.287ZM276.621 194.367L269.868 177.985L263.597 180.57L262.15 177.061L278.45 170.342L279.897 173.851L273.625 176.436L280.378 192.819L276.621 194.367ZM287.379 194.296L286.951 192.63C287.408 192.485 287.737 192.263 287.937 191.965C288.141 191.676 288.224 191.341 288.185 190.958C288.158 190.581 288.022 190.185 287.775 189.77L285.841 190.567L284.293 186.809L288.05 185.261L289.599 189.018C290.145 190.344 290.251 191.475 289.915 192.411C289.578 193.347 288.733 193.975 287.379 194.296ZM322.891 179.173L321.524 175.858L319.59 176.655L318.224 173.34L323.915 170.994L326.648 177.624L322.891 179.173ZM300.39 184.57L292.19 164.678L295.947 163.13L302.701 179.512L308.392 177.166L301.639 160.784L305.396 159.235L312.149 175.617L317.84 173.271L311.087 156.889L314.844 155.34L323.044 175.231L300.39 184.57ZM336.211 170.288C334.222 171.108 332.326 171.383 330.524 171.114C328.73 170.84 327.122 170.087 325.697 168.853C324.282 167.615 323.149 165.965 322.299 163.903C321.449 161.84 321.09 159.871 321.222 157.996C321.363 156.117 321.973 154.448 323.053 152.99C324.142 151.529 325.681 150.388 327.67 149.568C329.659 148.748 331.551 148.475 333.344 148.748C335.147 149.018 336.756 149.771 338.171 151.009C339.595 152.242 340.732 153.891 341.583 155.953C342.433 158.016 342.787 159.987 342.646 161.866C342.514 163.741 341.904 165.41 340.815 166.871C339.735 168.329 338.201 169.468 336.211 170.288ZM334.754 166.752C336.023 166.25 336.961 165.546 337.567 164.639C338.174 163.731 338.472 162.677 338.461 161.474C338.459 160.268 338.174 158.975 337.604 157.593C337.035 156.212 336.33 155.102 335.488 154.264C334.656 153.422 333.706 152.892 332.636 152.676C331.567 152.46 330.397 152.603 329.128 153.104C327.859 153.606 326.921 154.31 326.314 155.217C325.708 156.125 325.406 157.181 325.407 158.387C325.418 159.589 325.708 160.881 326.277 162.263C326.847 163.644 327.547 164.756 328.379 165.598C329.221 166.436 330.176 166.964 331.246 167.18C332.315 167.396 333.485 167.253 334.754 166.752ZM150.726 281.958L142.527 262.066L150.483 258.786C151.902 258.202 153.166 258.015 154.276 258.225C155.382 258.426 156.315 258.871 157.073 259.561C157.831 260.25 158.391 261.032 158.751 261.907C159.21 263.021 159.339 264.051 159.136 264.997C158.942 265.939 158.459 266.714 157.687 267.323L157.402 266.633C158.752 266.378 159.919 266.57 160.904 267.209C161.899 267.844 162.624 268.714 163.079 269.819C163.569 271.007 163.779 272.144 163.709 273.228C163.648 274.309 163.277 275.292 162.597 276.176C161.912 277.05 160.893 277.767 159.539 278.325L150.726 281.958ZM153.081 276.85L157.695 274.948C158.201 274.739 158.609 274.447 158.918 274.072C159.222 273.688 159.406 273.257 159.467 272.779C159.534 272.288 159.458 271.776 159.238 271.241C159.044 270.772 158.774 270.393 158.429 270.104C158.084 269.815 157.67 269.647 157.186 269.598C156.709 269.537 156.18 269.625 155.599 269.865L150.986 271.766L153.081 276.85ZM149.539 268.258L153.628 266.572C154.052 266.398 154.399 266.168 154.67 265.884C154.941 265.6 155.11 265.267 155.178 264.883C155.242 264.49 155.174 264.05 154.973 263.562C154.722 262.954 154.323 262.521 153.774 262.262C153.226 262.003 152.593 262.022 151.874 262.318L147.786 264.003L149.539 268.258ZM184.589 267.999L180.777 269.57L175.31 256.309L172.129 273.135L168.317 274.706L160.117 254.815L163.93 253.244L169.396 266.504L172.577 249.679L176.389 248.107L184.589 267.999ZM188.443 266.41L180.244 246.519L196.654 239.754L204.854 259.645L201.097 261.194L194.343 244.811L185.447 248.478L192.201 264.861L188.443 266.41ZM208.732 258.047L200.532 238.155L208.931 234.693C209.124 234.614 209.386 234.516 209.716 234.402C210.051 234.275 210.357 234.181 210.634 234.12C211.898 233.815 213.031 233.806 214.033 234.093C215.044 234.377 215.917 234.9 216.652 235.664C217.383 236.418 217.978 237.353 218.437 238.467C218.897 239.581 219.13 240.67 219.138 241.734C219.151 242.784 218.898 243.766 218.381 244.68C217.872 245.59 217.067 246.38 215.964 247.05C215.721 247.193 215.438 247.342 215.114 247.497C214.79 247.652 214.536 247.768 214.352 247.844L209.71 249.757L212.489 256.498L208.732 258.047ZM208.264 246.248L212.74 244.403C212.933 244.324 213.141 244.227 213.364 244.114C213.586 244 213.783 243.876 213.953 243.741C214.403 243.394 214.7 243.003 214.843 242.567C214.983 242.121 215.021 241.68 214.959 241.242C214.903 240.791 214.801 240.386 214.653 240.027C214.505 239.668 214.294 239.313 214.02 238.963C213.752 238.599 213.413 238.313 213.004 238.105C212.591 237.887 212.103 237.814 211.539 237.884C211.323 237.909 211.096 237.959 210.858 238.036C210.62 238.112 210.405 238.19 210.211 238.27L205.736 240.115L208.264 246.248ZM223.673 251.888L221.551 229.491L227.16 227.179L241.437 244.565L237.569 246.159L224.923 230.848L225.641 230.552L227.541 250.293L223.673 251.888ZM225.611 246.24L224.165 242.732L234.663 238.404L236.11 241.913L225.611 246.24ZM243.913 243.544L235.713 223.653L243.67 220.373C245.088 219.789 246.352 219.601 247.462 219.812C248.569 220.013 249.501 220.458 250.259 221.148C251.018 221.837 251.577 222.619 251.938 223.494C252.397 224.608 252.525 225.638 252.322 226.584C252.129 227.525 251.646 228.301 250.874 228.91L250.589 228.219C251.938 227.965 253.106 228.157 254.091 228.796C255.085 229.431 255.81 230.301 256.266 231.406C256.756 232.594 256.965 233.73 256.895 234.815C256.835 235.896 256.464 236.878 255.783 237.762C255.099 238.637 254.08 239.353 252.726 239.911L243.913 243.544ZM246.268 238.436L250.881 236.535C251.388 236.326 251.795 236.034 252.104 235.659C252.409 235.275 252.592 234.844 252.654 234.366C252.721 233.875 252.644 233.362 252.424 232.828C252.23 232.359 251.961 231.979 251.616 231.691C251.271 231.402 250.856 231.234 250.373 231.185C249.895 231.123 249.366 231.212 248.786 231.451L244.172 233.353L246.268 238.436ZM242.726 229.845L246.815 228.159C247.238 227.984 247.585 227.755 247.856 227.471C248.127 227.187 248.297 226.853 248.365 226.47C248.429 226.077 248.361 225.636 248.159 225.148C247.909 224.541 247.509 224.107 246.961 223.849C246.413 223.59 245.779 223.608 245.061 223.905L240.972 225.59L242.726 229.845ZM261.765 240.064L258.952 233.24C259.551 232.993 259.996 232.637 260.289 232.172C260.588 231.693 260.758 231.127 260.801 230.474C260.841 229.811 260.787 229.079 260.64 228.278C260.492 227.477 260.277 226.628 259.994 225.732C259.631 224.589 259.266 223.468 258.899 222.37C258.529 221.262 258.143 220.117 257.742 218.936C257.337 217.745 256.904 216.458 256.442 215.076L269.659 209.66L276.412 226.043L277.932 225.416L280.745 232.24L276.987 233.789L275.621 230.474L264.156 235.2L265.522 238.515L261.765 240.064ZM264.56 230.928L272.655 227.591L267.348 214.717L261.314 217.172C261.625 218.111 261.915 218.971 262.184 219.755C262.463 220.534 262.736 221.327 263.003 222.132C263.27 222.938 263.557 223.843 263.864 224.848C264.17 225.853 264.407 226.687 264.573 227.352C264.735 228.007 264.814 228.604 264.811 229.144C264.816 229.681 264.733 230.275 264.56 230.928ZM291.12 224.57C289.131 225.389 287.235 225.665 285.432 225.395C283.639 225.122 282.03 224.368 280.606 223.134C279.191 221.897 278.058 220.247 277.207 218.184C276.357 216.121 275.998 214.152 276.13 212.277C276.271 210.398 276.882 208.73 277.961 207.272C279.05 205.81 280.589 204.669 282.579 203.849C284.568 203.029 286.459 202.756 288.252 203.03C290.055 203.299 291.664 204.053 293.079 205.29C294.503 206.524 295.641 208.172 296.491 210.235C297.341 212.298 297.696 214.269 297.555 216.148C297.423 218.023 296.812 219.691 295.723 221.153C294.643 222.611 293.109 223.75 291.12 224.57ZM289.662 221.033C290.931 220.532 291.869 219.827 292.476 218.92C293.082 218.013 293.38 216.958 293.369 215.756C293.368 214.55 293.082 213.256 292.513 211.875C291.943 210.494 291.238 209.384 290.397 208.545C289.565 207.703 288.614 207.174 287.545 206.958C286.475 206.741 285.306 206.884 284.036 207.386C282.767 207.887 281.829 208.592 281.223 209.499C280.616 210.406 280.314 211.463 280.315 212.669C280.326 213.871 280.616 215.163 281.186 216.544C281.755 217.925 282.456 219.037 283.288 219.879C284.129 220.718 285.084 221.245 286.154 221.461C287.224 221.678 288.393 221.535 289.662 221.033ZM303.348 219.044L295.149 199.153L303.105 195.873C304.523 195.288 305.788 195.101 306.898 195.311C308.004 195.512 308.937 195.958 309.695 196.647C310.453 197.337 311.012 198.119 311.373 198.994C311.832 200.108 311.961 201.138 311.758 202.083C311.564 203.025 311.081 203.8 310.309 204.41L310.024 203.719C311.374 203.464 312.541 203.657 313.526 204.295C314.521 204.931 315.246 205.801 315.701 206.906C316.191 208.094 316.401 209.23 316.331 210.315C316.27 211.396 315.899 212.378 315.219 213.262C314.534 214.137 313.515 214.853 312.161 215.411L303.348 219.044ZM305.703 213.936L310.317 212.034C310.823 211.825 311.231 211.534 311.539 211.158C311.844 210.774 312.028 210.343 312.089 209.865C312.156 209.374 312.08 208.862 311.859 208.328C311.666 207.858 311.396 207.479 311.051 207.19C310.706 206.902 310.292 206.733 309.808 206.685C309.33 206.623 308.801 206.712 308.221 206.951L303.608 208.853L305.703 213.936ZM302.161 205.344L306.25 203.659C306.674 203.484 307.021 203.255 307.292 202.971C307.562 202.687 307.732 202.353 307.8 201.969C307.864 201.576 307.796 201.136 307.595 200.648C307.344 200.04 306.945 199.607 306.396 199.348C305.848 199.089 305.215 199.108 304.496 199.404L300.408 201.09L302.161 205.344ZM322.478 211.158L322.941 204.439L310.245 192.93L314.5 191.176L323.274 199.679L323.672 187.395L327.678 185.744L326.484 209.507L322.478 211.158ZM345.154 202.296C343.201 203.101 341.331 203.333 339.542 202.993C337.763 202.649 336.173 201.85 334.772 200.596C333.381 199.338 332.287 197.742 331.49 195.808C330.643 193.754 330.281 191.792 330.404 189.92C330.527 188.049 331.11 186.392 332.153 184.949C333.201 183.494 334.688 182.369 336.612 181.576C338.988 180.596 341.199 180.38 343.245 180.926C345.291 181.473 347.011 182.73 348.404 184.698L344.863 186.772C344.057 185.758 343.074 185.085 341.915 184.755C340.764 184.421 339.566 184.506 338.319 185.009C337.261 185.424 336.433 186.002 335.834 186.745C335.235 187.487 334.854 188.339 334.69 189.301C334.526 190.263 334.57 191.284 334.822 192.366L341.812 189.484L343.258 192.993L336.296 195.863C336.61 196.39 336.974 196.881 337.388 197.336C337.798 197.781 338.264 198.154 338.787 198.456C339.549 198.918 340.382 199.15 341.289 199.154C342.195 199.157 343.08 198.992 343.944 198.657C345.164 198.165 346.059 197.397 346.631 196.354C347.212 195.306 347.455 194.183 347.359 192.983L351.409 192.38C351.566 193.964 351.427 195.39 350.99 196.658C350.563 197.922 349.856 199.027 348.867 199.973C347.883 200.907 346.645 201.681 345.154 202.296ZM188.333 302.149L180.133 282.258L183.89 280.709L192.09 300.6L188.333 302.149ZM196.231 298.893L188.032 279.002L191.789 277.453L195.16 285.631L204.056 281.964L200.685 273.786L204.442 272.237L212.642 292.129L208.884 293.678L205.502 285.472L196.606 289.139L199.988 297.345L196.231 298.893ZM216.52 290.53L208.32 270.639L216.277 267.359C217.695 266.774 218.959 266.587 220.069 266.798C221.176 266.999 222.108 267.444 222.866 268.133C223.624 268.823 224.184 269.605 224.544 270.48C225.004 271.594 225.132 272.624 224.929 273.569C224.736 274.511 224.253 275.287 223.48 275.896L223.196 275.205C224.545 274.951 225.712 275.143 226.698 275.782C227.692 276.417 228.417 277.287 228.873 278.392C229.362 279.58 229.572 280.716 229.502 281.801C229.441 282.882 229.071 283.864 228.39 284.748C227.705 285.623 226.686 286.339 225.333 286.897L216.52 290.53ZM218.874 285.422L223.488 283.52C223.995 283.312 224.402 283.02 224.711 282.645C225.016 282.26 225.199 281.829 225.261 281.352C225.328 280.861 225.251 280.348 225.031 279.814C224.837 279.344 224.568 278.965 224.223 278.677C223.877 278.388 223.463 278.219 222.98 278.171C222.502 278.109 221.973 278.198 221.393 278.437L216.779 280.339L218.874 285.422ZM215.333 276.83L219.421 275.145C219.845 274.97 220.192 274.741 220.463 274.457C220.734 274.173 220.903 273.839 220.971 273.456C221.036 273.063 220.967 272.622 220.766 272.134C220.516 271.526 220.116 271.093 219.568 270.834C219.019 270.576 218.386 270.594 217.668 270.89L213.579 272.576L215.333 276.83ZM234.11 283.279L225.911 263.388L238.895 258.035L240.341 261.544L231.114 265.347L232.868 269.602L240.438 266.482L241.884 269.99L234.314 273.111L236.421 278.222L245.648 274.418L247.095 277.926L234.11 283.279ZM258.277 273.802C256.288 274.622 254.392 274.897 252.589 274.627C250.796 274.354 249.187 273.6 247.763 272.367C246.347 271.129 245.215 269.479 244.364 267.416C243.514 265.354 243.155 263.385 243.287 261.509C243.428 259.63 244.039 257.962 245.118 256.504C246.207 255.042 247.746 253.902 249.736 253.082C252.019 252.14 254.168 251.917 256.182 252.412C258.206 252.903 259.933 253.985 261.366 255.657L258.014 258.267C257.148 257.212 256.141 256.534 254.993 256.231C253.841 255.92 252.575 256.049 251.193 256.618C249.932 257.138 248.993 257.854 248.377 258.765C247.771 259.672 247.467 260.724 247.464 261.921C247.462 263.117 247.746 264.406 248.315 265.788C248.884 267.169 249.592 268.284 250.437 269.131C251.282 269.979 252.239 270.511 253.308 270.727C254.387 270.939 255.557 270.786 256.819 270.266C258.2 269.696 259.19 268.895 259.788 267.862C260.385 266.829 260.622 265.638 260.497 264.289L264.714 263.779C264.876 265.975 264.412 267.96 263.323 269.734C262.243 271.504 260.561 272.86 258.277 273.802ZM274.795 266.508L268.042 250.125L261.771 252.71L260.324 249.202L276.624 242.483L278.07 245.991L271.799 248.576L278.552 264.959L274.795 266.508ZM303.316 254.751L299.503 256.323L294.037 243.062L290.856 259.887L287.044 261.459L278.844 241.568L282.656 239.996L288.123 253.257L291.304 236.431L295.116 234.86L303.316 254.751ZM323.593 250.271L322.227 246.956L307.17 253.162L298.971 233.271L302.728 231.722L309.561 248.298L318.622 244.563L312.017 228.539L315.774 226.991L322.38 243.014L324.617 242.092L327.351 248.722L323.593 250.271ZM328.463 244.385L320.264 224.494L324.021 222.945L332.22 242.836L328.463 244.385ZM330.722 217.726L329.356 214.411L332.671 213.044L334.038 216.359L330.722 217.726ZM324.865 220.14L323.499 216.825L326.814 215.458L328.181 218.774L324.865 220.14ZM336.638 241.015L328.438 221.124L332.196 219.575L340.395 239.466L336.638 241.015Z" fill="#0A0A0A"/>
<path d="M177.555 353.101L171.918 339.425L180.465 335.902L181.017 337.241L173.866 340.189L178.951 352.525L177.555 353.101ZM185.927 349.65L185 334.033L186.852 333.27L197.199 345.003L195.746 345.602L185.957 334.549L186.508 334.322L187.38 349.051L185.927 349.65ZM186.659 345.47L186.119 344.16L193.184 341.247L193.725 342.558L186.659 345.47ZM198.534 344.453L192.897 330.778L198.177 328.601C198.31 328.546 198.461 328.491 198.631 328.436C198.805 328.372 198.984 328.32 199.168 328.282C199.927 328.094 200.635 328.095 201.291 328.284C201.95 328.464 202.528 328.796 203.024 329.281C203.526 329.763 203.925 330.361 204.22 331.077C204.512 331.786 204.65 332.488 204.633 333.184C204.616 333.88 204.438 334.527 204.1 335.126C203.765 335.715 203.266 336.21 202.601 336.61C202.44 336.706 202.277 336.795 202.112 336.879C201.952 336.959 201.806 337.027 201.673 337.082L197.789 338.683L199.93 343.877L198.534 344.453ZM197.241 337.353L201.087 335.768C201.201 335.721 201.331 335.66 201.478 335.584C201.625 335.509 201.764 335.425 201.897 335.334C202.324 335.039 202.627 334.688 202.807 334.281C202.994 333.871 203.079 333.439 203.063 332.987C203.053 332.532 202.96 332.092 202.786 331.668C202.611 331.243 202.366 330.866 202.053 330.537C201.743 330.198 201.377 329.948 200.956 329.789C200.541 329.627 200.078 329.591 199.568 329.683C199.409 329.712 199.252 329.754 199.098 329.81C198.941 329.86 198.805 329.909 198.691 329.956L194.845 331.541L197.241 337.353ZM208.296 340.429L207.37 324.812L209.222 324.048L219.569 335.782L218.116 336.381L208.327 325.328L208.878 325.101L209.749 339.83L208.296 340.429ZM209.029 336.249L208.489 334.939L215.554 332.026L216.095 333.337L209.029 336.249ZM220.904 335.232L215.267 321.556L216.663 320.981L219.204 327.144L226.763 324.028L224.222 317.865L225.609 317.293L231.246 330.968L229.86 331.54L227.315 325.367L219.756 328.483L222.3 334.656L220.904 335.232ZM237.164 328.529L232.079 316.193L227.302 318.162L226.75 316.823L237.699 312.309L238.251 313.648L233.475 315.617L238.56 327.954L237.164 328.529ZM246.787 324.562L246.991 320.689L237.826 312.257L239.374 311.619L247.104 318.887L247.541 308.252L249.032 307.637L248.307 323.936L246.787 324.562ZM261.027 319.026C259.678 319.581 258.405 319.736 257.207 319.489C256.009 319.242 254.947 318.68 254.023 317.802C253.098 316.924 252.374 315.815 251.851 314.475C251.286 313.049 251.023 311.702 251.063 310.434C251.109 309.163 251.469 308.04 252.142 307.067C252.821 306.091 253.825 305.329 255.155 304.781C256.693 304.146 258.157 304.024 259.548 304.414C260.938 304.804 262.113 305.678 263.074 307.038L261.735 307.834C261.028 306.837 260.151 306.184 259.105 305.874C258.059 305.565 256.948 305.645 255.771 306.115C254.778 306.51 254.026 307.064 253.513 307.779C253 308.494 252.71 309.318 252.642 310.249C252.581 311.178 252.725 312.156 253.074 313.182L258.088 311.115L258.64 312.454L253.626 314.521C253.908 315.116 254.247 315.669 254.643 316.18C255.036 316.684 255.541 317.12 256.16 317.488C256.821 317.889 257.528 318.094 258.28 318.103C259.035 318.102 259.786 317.956 260.532 317.663C261.626 317.227 262.44 316.543 262.975 315.612C263.516 314.678 263.718 313.624 263.582 312.45L265.108 312.243C265.249 313.267 265.178 314.218 264.896 315.097C264.618 315.968 264.15 316.738 263.493 317.409C262.836 318.08 262.014 318.618 261.027 319.026ZM268.408 315.65L262.771 301.974L264.053 301.446L274.168 310.731L274.774 297.026L276.075 296.49L281.709 310.156L280.379 310.704L276.03 300.153L275.511 312.721L274.609 313.093L265.394 304.537L269.747 315.098L268.408 315.65ZM289.652 307.226C288.291 307.787 287.018 307.96 285.833 307.745C284.645 307.523 283.59 306.976 282.668 306.105C281.746 305.233 280.996 304.098 280.42 302.699C279.843 301.299 279.574 299.966 279.615 298.697C279.655 297.429 280.019 296.301 280.708 295.313C281.395 294.319 282.419 293.542 283.78 292.981C285.147 292.417 286.422 292.247 287.603 292.471C288.788 292.686 289.841 293.23 290.764 294.101C291.692 294.97 292.445 296.105 293.022 297.504C293.598 298.903 293.864 300.238 293.817 301.509C293.777 302.777 293.414 303.908 292.727 304.902C292.045 305.888 291.019 306.662 289.652 307.226ZM289.1 305.887C290.17 305.446 290.962 304.834 291.477 304.051C291.991 303.269 292.247 302.371 292.244 301.358C292.245 300.335 292.01 299.254 291.54 298.114C291.07 296.975 290.476 296.046 289.758 295.327C289.046 294.606 288.232 294.149 287.315 293.956C286.399 293.764 285.404 293.885 284.332 294.32C283.262 294.761 282.473 295.371 281.965 296.151C281.457 296.931 281.202 297.832 281.201 298.854C281.204 299.868 281.438 300.946 281.901 302.088C282.364 303.23 282.952 304.162 283.664 304.883C284.38 305.595 285.198 306.051 286.117 306.25C287.033 306.442 288.027 306.321 289.1 305.887ZM300.785 302.303L295.148 288.628L300.428 286.451C300.561 286.397 300.712 286.342 300.882 286.286C301.056 286.222 301.234 286.171 301.418 286.132C302.178 285.945 302.886 285.945 303.541 286.134C304.201 286.314 304.778 286.647 305.274 287.131C305.777 287.613 306.175 288.211 306.47 288.927C306.762 289.636 306.9 290.338 306.883 291.034C306.866 291.73 306.689 292.377 306.351 292.976C306.016 293.566 305.516 294.061 304.851 294.461C304.691 294.556 304.528 294.646 304.362 294.729C304.203 294.809 304.057 294.877 303.924 294.932L300.039 296.533L302.181 301.728L300.785 302.303ZM299.491 295.203L303.338 293.618C303.452 293.571 303.582 293.51 303.729 293.435C303.875 293.359 304.015 293.276 304.148 293.184C304.574 292.89 304.878 292.539 305.058 292.131C305.244 291.721 305.329 291.29 305.313 290.837C305.303 290.382 305.211 289.942 305.036 289.518C304.861 289.094 304.617 288.717 304.303 288.387C303.993 288.048 303.628 287.799 303.206 287.639C302.791 287.477 302.329 287.442 301.818 287.534C301.66 287.562 301.503 287.604 301.348 287.661C301.191 287.711 301.056 287.759 300.942 287.806L297.096 289.391L299.491 295.203ZM312.058 297.656L306.421 283.981L307.817 283.406L313.454 297.081L312.058 297.656ZM315.921 296.064L310.284 282.389L311.68 281.813L316.765 294.149L321.95 292.012L316.865 279.676L318.261 279.1L323.346 291.436L328.541 289.295L323.456 276.959L324.842 276.387L330.479 290.063L315.921 296.064ZM332.754 289.125L327.117 275.45L335.664 271.926L336.216 273.265L329.065 276.213L331.014 280.943L337.026 278.465L337.578 279.804L331.566 282.282L333.598 287.21L340.749 284.263L341.301 285.602L332.754 289.125ZM343.206 284.816L337.569 271.141L338.965 270.566L341.506 276.729L349.065 273.613L346.524 267.449L347.911 266.878L353.548 280.553L352.162 281.125L349.617 274.952L342.058 278.068L344.602 284.241L343.206 284.816ZM355.829 279.613L350.191 265.938L351.587 265.362L354.128 271.526L361.688 268.41L359.147 262.246L360.533 261.675L366.171 275.35L364.784 275.921L362.239 269.749L354.68 272.865L357.225 279.038L355.829 279.613ZM377.767 270.57L376.381 271.141L374.24 265.946L369.691 267.822L369.159 267.907C368.065 268.129 367.09 267.972 366.232 267.436C365.374 266.901 364.733 266.117 364.307 265.085C364.012 264.37 363.873 263.664 363.89 262.968C363.907 262.273 364.083 261.63 364.418 261.04C364.756 260.441 365.257 259.942 365.922 259.542C366.086 259.437 366.25 259.348 366.412 259.274C366.571 259.193 366.717 259.126 366.85 259.071L372.13 256.894L377.767 270.57ZM369.486 273.983L367.881 274.645L368.339 267.345L369.889 267.306L369.486 273.983ZM373.691 264.617L371.296 258.805L367.44 260.394C367.332 260.439 367.202 260.5 367.049 260.578C366.9 260.647 366.759 260.727 366.626 260.819C366.199 261.113 365.893 261.465 365.706 261.875C365.526 262.283 365.446 262.716 365.464 263.175C365.481 263.628 365.576 264.066 365.751 264.49C365.926 264.914 366.167 265.293 366.474 265.625C366.782 265.958 367.143 266.205 367.558 266.367C367.979 266.527 368.445 266.561 368.955 266.469C369.114 266.441 369.272 266.402 369.429 266.352C369.593 266.299 369.728 266.251 369.836 266.206L373.691 264.617ZM380.682 271.69L380.481 270.962C380.742 270.876 380.905 270.75 380.97 270.583C381.034 270.416 381.037 270.225 380.979 270.012C380.921 269.799 380.837 269.578 380.728 269.349L379.864 269.705L379.037 267.702L380.661 267.032L381.644 269.416C381.884 269.998 381.915 270.497 381.738 270.91C381.567 271.322 381.215 271.582 380.682 271.69ZM195.867 368.266L194.481 368.838L192.339 363.643L187.79 365.518L187.259 365.604C186.165 365.825 185.189 365.668 184.332 365.133C183.474 364.598 182.833 363.814 182.407 362.782C182.112 362.067 181.973 361.361 181.99 360.665C182.007 359.97 182.183 359.327 182.517 358.737C182.856 358.138 183.357 357.639 184.022 357.239C184.186 357.134 184.349 357.045 184.511 356.971C184.671 356.89 184.817 356.823 184.95 356.768L190.23 354.591L195.867 368.266ZM187.586 371.68L185.981 372.342L186.439 365.042L187.989 365.003L187.586 371.68ZM191.791 362.314L189.395 356.502L185.54 358.091C185.432 358.136 185.302 358.197 185.149 358.275C184.999 358.344 184.859 358.424 184.726 358.516C184.299 358.81 183.993 359.162 183.806 359.572C183.626 359.98 183.545 360.413 183.564 360.872C183.58 361.325 183.676 361.763 183.851 362.187C184.026 362.611 184.267 362.99 184.574 363.322C184.882 363.655 185.243 363.902 185.658 364.064C186.079 364.224 186.545 364.258 187.055 364.166C187.214 364.138 187.372 364.099 187.529 364.049C187.692 363.996 187.828 363.948 187.936 363.903L191.791 362.314ZM198.153 367.324L192.516 353.649L193.912 353.073L196.574 359.531L200.151 350.501L201.937 349.765L198.285 358.992L208.096 363.225L206.273 363.977L196.731 359.911L199.549 366.749L198.153 367.324ZM209.241 362.754L203.603 349.078L204.999 348.503L210.637 362.178L209.241 362.754ZM216.526 359.75L210.889 346.075L221.364 341.757L227.001 355.432L225.605 356.008L220.52 343.672L212.837 346.839L217.922 359.175L216.526 359.75ZM229.279 354.494L223.642 340.818L228.922 338.642C229.055 338.587 229.206 338.532 229.376 338.477C229.549 338.413 229.728 338.361 229.912 338.322C230.672 338.135 231.38 338.136 232.035 338.325C232.695 338.505 233.272 338.837 233.768 339.321C234.271 339.803 234.669 340.402 234.964 341.117C235.256 341.826 235.394 342.529 235.377 343.225C235.36 343.92 235.183 344.568 234.844 345.166C234.51 345.756 234.01 346.251 233.345 346.651C233.185 346.747 233.022 346.836 232.856 346.919C232.697 347 232.551 347.067 232.418 347.122L228.533 348.723L230.675 353.918L229.279 354.494ZM227.985 347.394L231.832 345.808C231.945 345.761 232.076 345.7 232.223 345.625C232.369 345.55 232.509 345.466 232.641 345.375C233.068 345.08 233.372 344.729 233.552 344.322C233.738 343.911 233.823 343.48 233.807 343.027C233.797 342.572 233.705 342.133 233.53 341.708C233.355 341.284 233.111 340.907 232.797 340.577C232.487 340.238 232.121 339.989 231.7 339.83C231.285 339.667 230.822 339.632 230.312 339.724C230.154 339.752 229.997 339.795 229.842 339.851C229.685 339.901 229.55 339.949 229.436 339.996L225.59 341.582L227.985 347.394ZM239.041 350.469L238.114 334.852L239.966 334.089L250.314 345.823L248.861 346.422L239.072 335.369L239.622 335.142L240.494 349.87L239.041 350.469ZM239.774 346.29L239.233 344.979L246.299 342.067L246.839 343.377L239.774 346.29ZM263.074 342.64L262.342 340.864L251.649 345.272L246.011 331.597L247.408 331.022L252.512 343.405L260.357 340.172L255.303 327.911L256.699 327.336L261.753 339.596L263.206 338.997L264.47 342.065L263.074 342.64ZM264.883 339.817L259.246 326.141L260.642 325.566L263.175 331.71L266.898 330.176L267.469 331.562L263.746 333.097L266.279 339.241L264.883 339.817ZM275.039 335.964C274.133 336.337 273.259 336.479 272.415 336.39C271.577 336.298 270.796 336.02 270.071 335.556C269.344 335.086 268.686 334.468 268.096 333.704C267.513 332.937 267.022 332.069 266.623 331.1C266.221 330.125 265.958 329.163 265.834 328.215C265.716 327.263 265.75 326.368 265.937 325.528C266.121 324.681 266.479 323.93 267.008 323.275C267.544 322.617 268.265 322.101 269.171 321.728C270.082 321.352 270.957 321.21 271.795 321.302C272.639 321.391 273.424 321.671 274.152 322.141C274.876 322.606 275.529 323.218 276.109 323.979C276.696 324.737 277.19 325.604 277.592 326.579C278.004 327.579 278.272 328.561 278.395 329.525C278.522 330.48 278.492 331.377 278.305 332.217C278.116 333.051 277.75 333.791 277.209 334.436C276.674 335.079 275.95 335.588 275.039 335.964ZM274.487 334.625C275.158 334.348 275.678 333.956 276.046 333.449C276.421 332.939 276.664 332.35 276.774 331.682C276.89 331.012 276.887 330.295 276.764 329.531C276.646 328.757 276.428 327.977 276.11 327.189C275.793 326.402 275.405 325.695 274.947 325.069C274.496 324.44 273.992 323.929 273.438 323.536C272.889 323.14 272.3 322.897 271.671 322.808C271.046 322.711 270.398 322.8 269.726 323.077C269.062 323.351 268.542 323.743 268.167 324.253C267.796 324.754 267.552 325.34 267.436 326.01C267.326 326.677 267.329 327.395 267.445 328.161C267.567 328.926 267.787 329.702 268.105 330.489C268.422 331.277 268.808 331.988 269.262 332.623C269.714 333.252 270.217 333.763 270.772 334.156C271.326 334.55 271.917 334.795 272.542 334.893C273.174 334.988 273.822 334.899 274.487 334.625ZM281.939 332.786L276.302 319.111L277.698 318.535L280.23 324.68L283.953 323.145L284.525 324.532L280.802 326.066L283.335 332.211L281.939 332.786ZM292.094 328.933C291.189 329.306 290.314 329.448 289.47 329.359C288.632 329.268 287.851 328.99 287.126 328.526C286.399 328.055 285.741 327.438 285.152 326.673C284.569 325.906 284.078 325.038 283.679 324.069C283.277 323.094 283.014 322.133 282.889 321.184C282.771 320.233 282.806 319.337 282.993 318.497C283.177 317.651 283.534 316.9 284.064 316.244C284.6 315.586 285.321 315.071 286.226 314.698C287.138 314.322 288.012 314.18 288.85 314.271C289.694 314.36 290.48 314.64 291.207 315.111C291.932 315.575 292.584 316.187 293.165 316.948C293.751 317.706 294.245 318.573 294.647 319.548C295.06 320.548 295.327 321.53 295.451 322.494C295.578 323.449 295.548 324.347 295.361 325.187C295.171 326.02 294.806 326.76 294.264 327.405C293.729 328.048 293.006 328.557 292.094 328.933ZM291.542 327.594C292.213 327.317 292.733 326.925 293.102 326.418C293.477 325.908 293.719 325.319 293.829 324.652C293.945 323.981 293.942 323.264 293.82 322.5C293.701 321.727 293.483 320.946 293.166 320.159C292.849 319.371 292.461 318.664 292.003 318.038C291.551 317.41 291.048 316.899 290.493 316.505C289.945 316.109 289.356 315.867 288.727 315.778C288.101 315.68 287.453 315.769 286.782 316.046C286.117 316.32 285.597 316.712 285.222 317.222C284.851 317.723 284.608 318.309 284.491 318.979C284.381 319.647 284.384 320.364 284.5 321.131C284.623 321.895 284.843 322.671 285.16 323.459C285.477 324.246 285.863 324.958 286.317 325.593C286.769 326.221 287.272 326.732 287.827 327.126C288.382 327.519 288.972 327.765 289.597 327.863C290.229 327.958 290.877 327.868 291.542 327.594ZM302.261 324.409L297.175 312.073L292.398 314.042L291.846 312.703L302.796 308.189L303.348 309.528L298.571 311.497L303.657 323.834L302.261 324.409ZM309.567 321.397L303.93 307.722L305.326 307.147L307.467 312.341L311.351 310.74C311.484 310.685 311.636 310.63 311.805 310.575C311.979 310.511 312.161 310.458 312.351 310.417C313.105 310.232 313.809 310.234 314.465 310.423C315.124 310.603 315.702 310.935 316.198 311.42C316.7 311.902 317.097 312.497 317.39 313.206C317.685 313.922 317.824 314.627 317.807 315.323C317.796 316.016 317.622 316.662 317.283 317.261C316.949 317.851 316.449 318.345 315.784 318.745C315.618 318.844 315.451 318.935 315.286 319.018C315.126 319.098 314.98 319.166 314.847 319.221L309.567 321.397ZM310.411 319.483L314.257 317.897C314.377 317.848 314.511 317.785 314.658 317.71C314.804 317.635 314.945 317.554 315.081 317.469C315.501 317.177 315.804 316.826 315.991 316.416C316.177 316.006 316.262 315.574 316.246 315.122C316.227 314.663 316.131 314.222 315.956 313.797C315.781 313.373 315.54 312.995 315.232 312.662C314.925 312.33 314.56 312.084 314.139 311.924C313.718 311.764 313.255 311.729 312.751 311.818C312.593 311.847 312.435 311.886 312.278 311.936C312.12 311.986 311.982 312.036 311.861 312.085L308.015 313.671L310.411 319.483ZM324.267 315.337L318.63 301.662L320.026 301.087L322.567 307.25L330.126 304.134L327.586 297.971L328.972 297.399L334.609 311.074L333.223 311.646L330.678 305.473L323.119 308.589L325.663 314.762L324.267 315.337ZM335.94 310.526L335.013 294.909L336.865 294.145L347.213 305.879L345.76 306.478L335.971 295.425L336.521 295.198L337.393 309.927L335.94 310.526ZM336.673 306.346L336.132 305.036L343.198 302.123L343.738 303.434L336.673 306.346ZM351.97 303.918L346.333 290.243L351.613 288.066C352.379 287.75 353.113 287.633 353.813 287.715C354.513 287.796 355.132 288.041 355.671 288.449C356.207 288.85 356.608 289.374 356.874 290.019C357.177 290.754 357.25 291.49 357.095 292.228C356.938 292.96 356.575 293.572 356.008 294.065L355.797 293.607C356.788 293.495 357.667 293.651 358.435 294.076C359.202 294.5 359.771 295.162 360.142 296.061C360.468 296.852 360.582 297.605 360.484 298.319C360.384 299.028 360.093 299.662 359.613 300.223C359.133 300.784 358.491 301.23 357.687 301.561L351.97 303.918ZM352.824 301.999L356.794 300.363C357.351 300.133 357.81 299.829 358.173 299.45C358.532 299.065 358.763 298.636 358.865 298.165C358.973 297.691 358.92 297.194 358.706 296.675C358.497 296.168 358.192 295.761 357.791 295.452C357.39 295.143 356.937 294.952 356.433 294.879C355.932 294.796 355.425 294.861 354.912 295.072L350.686 296.814L352.824 301.999ZM350.142 295.494L354.007 293.901C354.444 293.721 354.803 293.458 355.083 293.113C355.36 292.762 355.531 292.369 355.597 291.935C355.669 291.498 355.61 291.051 355.423 290.595C355.156 289.95 354.715 289.517 354.098 289.297C353.488 289.074 352.838 289.105 352.148 289.39L348.283 290.983L350.142 295.494ZM362.289 299.664L361.362 284.047L363.214 283.284L373.562 295.017L372.109 295.616L362.32 284.564L362.87 284.337L363.742 299.065L362.289 299.664ZM363.022 295.485L362.481 294.174L369.547 291.262L370.087 292.572L363.022 295.485ZM374.897 294.467L369.26 280.792L370.656 280.216L375.741 292.553L380.926 290.415L375.841 278.079L377.237 277.503L382.322 289.84L387.517 287.698L382.431 275.362L383.818 274.791L389.455 288.466L374.897 294.467ZM264.303 362.77L258.666 349.095L267.108 345.615L267.66 346.954L260.614 349.859L262.254 353.838L266.138 352.237C266.271 352.182 266.422 352.127 266.592 352.072C266.766 352.007 266.943 351.953 267.125 351.908C267.866 351.713 268.564 351.707 269.217 351.89C269.876 352.07 270.457 352.4 270.959 352.882C271.468 353.361 271.866 353.949 272.153 354.646C272.44 355.342 272.572 356.04 272.549 356.738C272.532 357.434 272.353 358.078 272.012 358.67C271.677 359.26 271.178 359.747 270.515 360.132C270.352 360.221 270.187 360.308 270.021 360.391C269.862 360.471 269.716 360.539 269.583 360.594L264.303 362.77ZM265.147 360.856L268.993 359.27C269.107 359.223 269.237 359.162 269.384 359.087C269.531 359.012 269.672 358.931 269.807 358.846C270.452 358.417 270.83 357.869 270.94 357.201C271.054 356.525 270.98 355.87 270.719 355.237C270.455 354.597 270.046 354.081 269.491 353.687C268.943 353.291 268.289 353.168 267.529 353.319C267.37 353.347 267.213 353.39 267.059 353.446C266.902 353.496 266.766 353.544 266.652 353.591L262.806 355.177L265.147 360.856ZM275.576 358.123L269.938 344.448L271.334 343.873L276.972 357.548L275.576 358.123ZM283.934 355.011C283.004 355.395 282.14 355.591 281.344 355.601C280.555 355.608 279.85 355.48 279.231 355.217C278.608 354.947 278.083 354.597 277.653 354.167L278.621 352.902C278.95 353.27 279.352 353.563 279.828 353.782C280.303 354.001 280.844 354.108 281.449 354.102C282.054 354.097 282.714 353.947 283.43 353.652C284.171 353.347 284.749 352.972 285.165 352.526C285.588 352.078 285.845 351.587 285.936 351.053C286.027 350.519 285.956 349.97 285.724 349.407C285.468 348.787 285.121 348.367 284.683 348.147C284.244 347.928 283.746 347.852 283.188 347.919C282.628 347.98 282.037 348.127 281.415 348.361C280.945 348.533 280.611 348.656 280.412 348.73C280.213 348.805 280.082 348.855 280.019 348.881C279.955 348.907 279.895 348.932 279.838 348.956L279.282 347.607C279.327 347.589 279.444 347.541 279.634 347.462C279.824 347.384 280.026 347.3 280.242 347.212C280.454 347.117 280.623 347.04 280.747 346.981C281.634 346.564 282.248 346.033 282.59 345.388C282.931 344.744 282.951 344.054 282.648 343.32C282.327 342.541 281.802 342.05 281.074 341.847C280.352 341.64 279.558 341.716 278.69 342.074C277.873 342.41 277.264 342.891 276.863 343.516C276.465 344.132 276.223 344.839 276.137 345.637L274.649 345.262C274.761 344.312 275.108 343.428 275.69 342.611C276.271 341.793 277.1 341.163 278.176 340.719C278.752 340.482 279.336 340.334 279.927 340.275C280.524 340.214 281.089 340.255 281.622 340.399C282.161 340.539 282.646 340.799 283.076 341.177C283.51 341.546 283.857 342.048 284.118 342.681C284.423 343.421 284.525 344.135 284.423 344.822C284.327 345.505 284.08 346.092 283.682 346.582C284.464 346.504 285.16 346.647 285.769 347.011C286.385 347.372 286.867 347.976 287.217 348.825C287.562 349.66 287.656 350.473 287.5 351.263C287.345 352.054 286.96 352.775 286.348 353.427C285.739 354.071 284.935 354.599 283.934 355.011ZM290.392 352.016L284.755 338.341L286.151 337.765L288.692 343.928L296.251 340.812L293.71 334.649L295.097 334.077L300.734 347.753L299.347 348.324L296.803 342.151L289.243 345.267L291.788 351.44L290.392 352.016ZM303.014 346.813L297.377 333.137L305.924 329.614L306.476 330.953L299.325 333.901L301.275 338.63L307.286 336.152L307.838 337.491L301.827 339.969L303.859 344.898L311.01 341.95L311.562 343.289L303.014 346.813ZM318.546 340.744C317.185 341.305 315.912 341.478 314.727 341.262C313.539 341.041 312.484 340.494 311.562 339.623C310.64 338.751 309.89 337.616 309.313 336.216C308.737 334.817 308.468 333.484 308.508 332.215C308.549 330.947 308.913 329.819 309.602 328.831C310.289 327.837 311.313 327.06 312.674 326.498C314.263 325.843 315.729 325.717 317.072 326.119C318.413 326.514 319.552 327.318 320.489 328.532L319.218 329.49C318.48 328.527 317.604 327.884 316.59 327.562C315.575 327.239 314.454 327.331 313.226 327.838C312.156 328.279 311.367 328.889 310.859 329.669C310.35 330.449 310.096 331.35 310.095 332.372C310.098 333.386 310.328 334.465 310.785 335.61C311.249 336.752 311.837 337.684 312.549 338.405C313.267 339.123 314.086 339.582 315.005 339.781C315.928 339.971 316.924 339.846 317.994 339.405C319.222 338.898 320.082 338.173 320.575 337.23C321.065 336.28 321.233 335.206 321.081 334.01L322.658 333.793C322.848 335.315 322.608 336.691 321.938 337.923C321.266 339.148 320.135 340.088 318.546 340.744ZM325.428 337.573L324.758 335.949L326.382 335.28L327.052 336.904L325.428 337.573Z" fill="#707070"/>
<path d="M167.716 403.363L153.902 409.057L148.209 395.243L162.022 389.55L167.716 403.363Z" fill="#0A0A0A"/>
<path d="M173.413 417.18L159.599 422.873L153.905 409.06L167.719 403.366L173.413 417.18Z" fill="#FF3800"/>
<path d="M187.225 411.488L173.411 417.181L167.718 403.368L181.531 397.674L187.225 411.488Z" fill="#0A0A0A"/>
<path d="M142.647 349.063L128.833 354.757L134.527 368.57L148.341 362.877L142.647 349.063Z" fill="#0A0A0A"/>
<path d="M136.952 335.251L123.138 340.944L128.832 354.758L142.645 349.064L136.952 335.251Z" fill="#FF3800"/>
<path d="M150.765 329.555L136.951 335.249L142.644 349.062L156.458 343.369L150.765 329.555Z" fill="#0A0A0A"/>
<path d="M425.573 297.09L439.387 291.396L433.693 277.582L419.88 283.276L425.573 297.09Z" fill="#0A0A0A"/>
<path d="M431.269 310.902L445.083 305.208L439.389 291.395L425.576 297.088L431.269 310.902Z" fill="#FF3800"/>
<path d="M417.457 316.598L431.271 310.904L425.577 297.09L411.763 302.784L417.457 316.598Z" fill="#0A0A0A"/>
<path d="M405.107 240.887L418.92 235.194L424.614 249.007L410.8 254.701L405.107 240.887Z" fill="#0A0A0A"/>
<path d="M399.411 227.071L413.225 221.377L418.918 235.191L405.105 240.885L399.411 227.071Z" fill="#FF3800"/>
<path d="M385.599 232.767L399.412 227.073L405.106 240.887L391.292 246.58L385.599 232.767Z" fill="#0A0A0A"/>
</g>
<defs>
<clipPath id="clip0_1187_1216">
<rect width="398.426" height="398.426" fill="white" transform="translate(0 152.495) rotate(-22.4)"/>
</clipPath>
</defs>
</svg>
