<svg width="548" height="513" viewBox="0 0 548 513" fill="none" xmlns="http://www.w3.org/2000/svg">
<g clip-path="url(#clip0_1176_1274)">
<path d="M259.03 84.6022L221.078 61.7986L198.275 99.7502L236.226 122.554L259.03 84.6022Z" fill="#F8F8FF"/>
<path d="M296.971 107.399L259.019 84.5955L236.215 122.547L274.167 145.351L296.971 107.399Z" fill="#FF3800"/>
<path d="M372.874 153.008L334.923 130.205L312.119 168.156L350.071 190.96L372.874 153.008Z" fill="#F8F8FF"/>
<path d="M448.758 198.602L410.807 175.798L388.003 213.75L425.955 236.554L448.758 198.602Z" fill="#FF3800"/>
<path d="M486.712 221.407L448.76 198.603L425.957 236.555L463.908 259.358L486.712 221.407Z" fill="#F8F8FF"/>
<path d="M319.773 69.4457L281.822 46.6421L259.018 84.5937L296.97 107.397L319.773 69.4457Z" fill="#F8F8FF"/>
<path d="M357.723 92.2465L319.771 69.4429L296.967 107.394L334.919 130.198L357.723 92.2465Z" fill="#F8F8FF"/>
<path d="M433.607 137.848L395.655 115.044L372.852 152.996L410.803 175.8L433.607 137.848Z" fill="#F8F8FF"/>
<path d="M471.561 160.653L433.61 137.849L410.806 175.801L448.758 198.604L471.561 160.653Z" fill="#F8F8FF"/>
<path d="M198.288 99.7352L160.337 76.9316L137.533 114.883L175.485 137.687L198.288 99.7352Z" fill="#F8F8FF"/>
<path d="M236.238 122.54L198.286 99.7361L175.483 137.688L213.434 160.491L236.238 122.54Z" fill="#FF3800"/>
<path d="M463.92 259.34L425.968 236.537L403.164 274.488L441.116 297.292L463.92 259.34Z" fill="#FF3800"/>
<path d="M175.486 137.688L137.534 114.885L114.731 152.836L152.682 175.64L175.486 137.688Z" fill="#F8F8FF"/>
<path d="M327.273 228.891L289.321 206.088L266.518 244.039L304.469 266.843L327.273 228.891Z" fill="#FF3800"/>
<path d="M190.628 198.443L152.676 175.639L129.873 213.59L167.824 236.394L190.628 198.443Z" fill="#F8F8FF"/>
<path d="M266.517 244.04L228.565 221.237L205.762 259.188L243.713 281.992L266.517 244.04Z" fill="#FF3800"/>
<path d="M304.471 266.845L266.52 244.041L243.716 281.993L281.667 304.796L304.471 266.845Z" fill="#F8F8FF"/>
<path d="M342.406 289.638L304.454 266.834L281.65 304.786L319.602 327.589L342.406 289.638Z" fill="#FF3800"/>
<path d="M418.309 335.243L380.358 312.439L357.554 350.391L395.506 373.195L418.309 335.243Z" fill="#F8F8FF"/>
<path d="M129.88 213.579L91.9287 190.776L69.1251 228.727L107.077 251.531L129.88 213.579Z" fill="#F8F8FF"/>
<path d="M281.678 304.782L243.727 281.979L220.923 319.93L258.875 342.734L281.678 304.782Z" fill="#FF3800"/>
<path d="M107.751 250.896L69.3303 227.81L45.6035 267.298L84.0243 290.384L107.751 250.896Z" fill="#F8F8FF"/>
<path d="M145.031 274.333L107.08 251.53L84.276 289.481L122.228 312.285L145.031 274.333Z" fill="#FF3800"/>
<path d="M372.709 411.134L334.757 388.331L311.954 426.282L349.905 449.086L372.709 411.134Z" fill="#FF3800"/>
<path d="M122.225 312.279L84.2729 289.475L61.4693 327.427L99.4209 350.231L122.225 312.279Z" fill="#F8F8FF"/>
<path d="M160.164 335.08L122.213 312.276L99.409 350.228L137.361 373.031L160.164 335.08Z" fill="#FF3800"/>
<path d="M236.068 380.685L198.116 357.882L175.313 395.833L213.264 418.637L236.068 380.685Z" fill="#F8F8FF"/>
<path d="M311.957 426.283L274.005 403.479L251.202 441.431L289.153 464.234L311.957 426.283Z" fill="#FF3800"/>
<path d="M349.906 449.083L311.955 426.28L289.151 464.231L327.103 487.035L349.906 449.083Z" fill="#F8F8FF"/>
<path d="M137.371 373.017L99.4194 350.214L76.6158 388.165L114.567 410.969L137.371 373.017Z" fill="#F8F8FF"/>
<path d="M175.32 395.814L137.369 373.01L114.565 410.962L152.517 433.766L175.32 395.814Z" fill="#F8F8FF"/>
<path d="M251.209 441.412L213.258 418.608L190.454 456.56L228.406 479.364L251.209 441.412Z" fill="#F8F8FF"/>
<path d="M289.164 464.22L251.212 441.417L228.409 479.368L266.36 502.172L289.164 464.22Z" fill="#F8F8FF"/>
<path d="M501.854 282.137L463.903 259.334L441.099 297.285L479.051 320.089L501.854 282.137Z" fill="#F8F8FF"/>
<path d="M479.047 320.087L441.095 297.283L418.292 335.235L456.243 358.038L479.047 320.087Z" fill="#F8F8FF"/>
<path d="M433.451 395.978L395.5 373.174L372.696 411.126L410.648 433.929L433.451 395.978Z" fill="#F8F8FF"/>
<path d="M410.649 433.927L372.697 411.124L349.893 449.075L387.845 471.879L410.649 433.927Z" fill="#F8F8FF"/>
<rect x="197.227" y="98.1326" width="314.075" height="222.544" transform="rotate(31 197.227 98.1326)" fill="#F8F8FF"/>
<rect x="260.053" y="81.7224" width="222.544" height="317.664" transform="rotate(31 260.053 81.7224)" fill="#F8F8FF"/>
<path d="M189.926 203.937L201.006 185.494L216.221 194.636L205.141 213.078L201.657 210.985L210.783 195.796L202.535 190.84L193.409 206.03L189.926 203.937ZM207.455 214.469L224.171 199.412L229.371 202.536L223.926 224.364L220.34 222.21L225.091 202.928L225.757 203.328L211.041 216.623L207.455 214.469ZM213.145 212.658L215.099 209.405L224.833 215.253L222.878 218.506L213.145 212.658ZM226.221 225.743L237.301 207.301L245.088 211.979C245.267 212.087 245.501 212.239 245.79 212.436C246.092 212.629 246.35 212.819 246.563 213.005C247.562 213.837 248.245 214.741 248.612 215.717C248.987 216.698 249.087 217.711 248.912 218.756C248.743 219.793 248.347 220.828 247.727 221.861C247.106 222.894 246.371 223.731 245.522 224.371C244.686 225.008 243.747 225.391 242.705 225.52C241.671 225.654 240.557 225.478 239.361 224.993C239.102 224.883 238.813 224.744 238.495 224.577C238.178 224.409 237.934 224.274 237.763 224.172L233.46 221.586L229.705 227.836L226.221 225.743ZM235.414 218.333L239.564 220.826C239.743 220.934 239.944 221.043 240.168 221.155C240.392 221.266 240.609 221.35 240.819 221.406C241.365 221.56 241.856 221.565 242.292 221.42C242.733 221.266 243.111 221.034 243.425 220.723C243.753 220.409 244.017 220.086 244.218 219.753C244.418 219.42 244.577 219.039 244.695 218.61C244.827 218.178 244.854 217.736 244.778 217.283C244.706 216.822 244.474 216.386 244.081 215.976C243.933 215.817 243.757 215.665 243.554 215.519C243.351 215.374 243.159 215.248 242.98 215.14L238.83 212.647L235.414 218.333ZM247.158 238.322L256.284 223.133L250.469 219.64L252.424 216.386L267.536 225.466L265.582 228.719L259.768 225.226L250.642 240.415L247.158 238.322ZM258.514 245.145L269.595 226.703L273.078 228.796L268.523 236.378L276.771 241.333L281.326 233.751L284.81 235.844L273.729 254.286L270.246 252.193L274.816 244.586L266.569 239.631L261.998 247.238L258.514 245.145ZM277.325 256.447L288.405 238.004L300.444 245.237L298.49 248.49L289.934 243.35L287.564 247.295L294.583 251.511L292.628 254.765L285.61 250.548L282.763 255.287L291.318 260.427L289.364 263.68L277.325 256.447ZM292.434 265.524L303.514 247.081L311.301 251.76C311.48 251.868 311.714 252.02 312.002 252.216C312.305 252.41 312.563 252.599 312.776 252.786C313.775 253.618 314.458 254.522 314.824 255.498C315.199 256.479 315.3 257.492 315.125 258.537C314.955 259.574 314.56 260.609 313.939 261.642C313.318 262.675 312.583 263.512 311.734 264.152C310.898 264.788 309.959 265.171 308.917 265.3C307.884 265.435 306.769 265.259 305.574 264.773C305.314 264.664 305.026 264.525 304.708 264.358C304.39 264.19 304.146 264.055 303.975 263.952L299.672 261.367L295.917 267.617L292.434 265.524ZM301.627 258.114L305.776 260.607C305.955 260.715 306.157 260.824 306.381 260.935C306.604 261.046 306.821 261.13 307.031 261.187C307.578 261.341 308.069 261.345 308.505 261.2C308.945 261.047 309.323 260.815 309.638 260.504C309.966 260.19 310.23 259.867 310.43 259.534C310.63 259.201 310.789 258.82 310.907 258.391C311.039 257.959 311.067 257.516 310.99 257.064C310.919 256.602 310.686 256.167 310.294 255.757C310.145 255.598 309.969 255.445 309.766 255.3C309.563 255.155 309.372 255.028 309.193 254.921L305.043 252.427L301.627 258.114ZM316.777 280.672C314.933 279.564 313.581 278.206 312.723 276.599C311.873 274.996 311.519 273.255 311.66 271.376C311.81 269.502 312.459 267.609 313.609 265.696C314.758 263.784 316.124 262.321 317.708 261.309C319.301 260.302 321.004 259.798 322.819 259.795C324.641 259.798 326.475 260.354 328.319 261.462C330.436 262.734 331.897 264.326 332.7 266.238C333.512 268.155 333.674 270.187 333.186 272.334L329.092 271.199C329.423 269.875 329.367 268.662 328.925 267.56C328.489 266.45 327.63 265.51 326.349 264.74C325.179 264.037 324.045 263.711 322.947 263.759C321.857 263.813 320.831 264.196 319.869 264.908C318.907 265.62 318.041 266.616 317.271 267.897C316.502 269.178 316.029 270.41 315.852 271.594C315.676 272.777 315.819 273.863 316.283 274.851C316.756 275.843 317.577 276.691 318.747 277.394C320.028 278.163 321.261 278.48 322.446 278.344C323.632 278.208 324.729 277.688 325.737 276.783L328.662 279.865C326.995 281.304 325.125 282.115 323.051 282.298C320.986 282.487 318.894 281.945 316.777 280.672ZM328.178 286.999L339.258 268.557L342.742 270.65L338.987 276.9L343.29 279.485C343.461 279.588 343.695 279.74 343.992 279.942C344.294 280.135 344.552 280.325 344.766 280.511C345.756 281.338 346.434 282.24 346.801 283.216C347.176 284.196 347.276 285.209 347.102 286.255C346.94 287.297 346.55 288.334 345.929 289.367C345.308 290.4 344.577 291.24 343.736 291.885C342.901 292.521 341.962 292.904 340.92 293.034C339.886 293.168 338.767 292.99 337.563 292.499C337.304 292.389 337.015 292.251 336.698 292.083C336.388 291.921 336.144 291.786 335.965 291.678L328.178 286.999ZM333.616 285.839L337.766 288.332C337.945 288.44 338.147 288.55 338.37 288.661C338.594 288.772 338.811 288.856 339.021 288.912C339.567 289.066 340.059 289.071 340.494 288.926C340.935 288.772 341.313 288.54 341.627 288.23C341.955 287.916 342.22 287.592 342.42 287.259C342.62 286.926 342.779 286.545 342.897 286.116C343.029 285.684 343.056 285.242 342.98 284.789C342.908 284.328 342.676 283.892 342.283 283.482C342.135 283.323 341.959 283.171 341.756 283.026C341.553 282.88 341.361 282.754 341.182 282.646L337.033 280.153L333.616 285.839ZM345.088 297.159L356.169 278.717L359.652 280.81L354.543 289.314L366.671 285.026L370.923 287.581L357.749 292.042L360.329 306.316L355.923 303.669L353.62 290.851L348.572 299.252L345.088 297.159ZM360.842 306.624L377.558 291.567L382.757 294.691L377.312 316.519L373.726 314.365L378.478 295.083L379.144 295.484L364.428 308.779L360.842 306.624ZM366.532 304.813L368.486 301.56L378.22 307.408L376.265 310.661L366.532 304.813ZM200.513 249.319C198.669 248.211 197.318 246.853 196.459 245.245C195.61 243.642 195.255 241.901 195.397 240.022C195.546 238.148 196.196 236.255 197.345 234.342C198.494 232.43 199.86 230.968 201.445 229.955C203.037 228.949 204.741 228.444 206.555 228.442C208.378 228.444 210.211 229 212.055 230.108C214.173 231.38 215.633 232.972 216.437 234.884C217.249 236.801 217.411 238.833 216.922 240.98L212.828 239.845C213.159 238.522 213.103 237.309 212.661 236.207C212.225 235.096 211.366 234.156 210.085 233.386C208.916 232.684 207.782 232.357 206.683 232.406C205.593 232.46 204.567 232.843 203.605 233.554C202.643 234.266 201.777 235.262 201.008 236.543C200.238 237.824 199.765 239.056 199.588 240.24C199.412 241.423 199.556 242.509 200.02 243.497C200.492 244.489 201.313 245.337 202.483 246.04C203.764 246.81 204.997 247.126 206.183 246.99C207.368 246.854 208.465 246.334 209.474 245.429L212.398 248.511C210.732 249.95 208.861 250.761 206.788 250.944C204.722 251.133 202.631 250.591 200.513 249.319ZM211.94 255.661L223.02 237.219L238.235 246.36L227.155 264.802L223.671 262.709L232.797 247.52L224.549 242.565L215.424 257.754L211.94 255.661ZM231.007 267.116L242.087 248.674L245.571 250.767L234.49 269.209L231.007 267.116ZM238.33 271.516L249.41 253.074L256.787 257.506C258.102 258.296 259.006 259.199 259.499 260.216C259.997 261.224 260.196 262.238 260.094 263.258C259.993 264.278 259.699 265.193 259.211 266.004C258.591 267.037 257.84 267.754 256.96 268.155C256.089 268.561 255.178 268.636 254.229 268.379L254.613 267.739C255.622 268.67 256.164 269.722 256.239 270.894C256.322 272.071 256.055 273.172 255.44 274.196C254.778 275.298 253.991 276.144 253.078 276.734C252.174 277.33 251.165 277.618 250.049 277.599C248.939 277.571 247.756 277.179 246.501 276.425L238.33 271.516ZM243.835 270.361L248.112 272.931C248.582 273.213 249.059 273.367 249.544 273.391C250.035 273.406 250.49 273.297 250.91 273.061C251.344 272.822 251.71 272.455 252.008 271.96C252.269 271.524 252.413 271.082 252.439 270.633C252.465 270.184 252.353 269.751 252.104 269.334C251.868 268.913 251.482 268.541 250.944 268.218L246.666 265.648L243.835 270.361ZM248.621 262.395L252.412 264.673C252.804 264.909 253.195 265.051 253.585 265.099C253.974 265.147 254.343 265.084 254.692 264.91C255.046 264.727 255.358 264.41 255.63 263.957C255.969 263.394 256.079 262.815 255.959 262.22C255.84 261.626 255.448 261.128 254.782 260.728L250.991 258.451L248.621 262.395ZM254.639 281.315L265.719 262.872L280.934 272.014L269.854 290.456L266.371 288.363L275.496 273.174L267.249 268.218L258.123 283.408L254.639 281.315ZM273.45 292.616L284.53 274.174L292.317 278.852C292.496 278.96 292.73 279.112 293.019 279.309C293.321 279.502 293.579 279.692 293.792 279.878C294.791 280.711 295.474 281.615 295.841 282.59C296.216 283.571 296.316 284.584 296.141 285.629C295.971 286.666 295.576 287.701 294.955 288.734C294.335 289.767 293.6 290.604 292.75 291.244C291.915 291.881 290.976 292.264 289.934 292.393C288.9 292.527 287.786 292.352 286.59 291.866C286.33 291.756 286.042 291.618 285.724 291.45C285.407 291.282 285.162 291.147 284.992 291.045L280.688 288.459L276.933 294.709L273.45 292.616ZM282.643 285.206L286.792 287.699C286.972 287.807 287.173 287.917 287.397 288.028C287.621 288.139 287.838 288.223 288.048 288.279C288.594 288.433 289.085 288.438 289.521 288.293C289.962 288.139 290.339 287.907 290.654 287.597C290.982 287.283 291.246 286.959 291.446 286.626C291.646 286.293 291.805 285.912 291.924 285.483C292.055 285.051 292.083 284.609 292.006 284.156C291.935 283.695 291.703 283.259 291.31 282.849C291.162 282.69 290.986 282.538 290.783 282.393C290.579 282.247 290.388 282.121 290.209 282.013L286.059 279.52L282.643 285.206ZM287.303 300.939L304.018 285.882L309.218 289.006L303.773 310.835L300.187 308.68L304.939 289.399L305.605 289.799L290.889 303.094L287.303 300.939ZM292.992 299.128L294.947 295.875L304.68 301.723L302.726 304.976L292.992 299.128ZM318.181 323.675L320.028 320.601L306.068 312.214L317.149 293.771L320.632 295.864L311.399 311.233L319.8 316.281L328.726 301.424L332.21 303.517L323.284 318.374L325.358 319.62L321.665 325.768L318.181 323.675ZM339.13 332.077L335.646 329.984L339.401 323.734L335.098 321.149L333.623 320.123C332.137 318.882 331.339 317.484 331.227 315.93C331.12 314.367 331.531 312.812 332.46 311.267C333.08 310.234 333.809 309.399 334.644 308.762C335.494 308.122 336.435 307.735 337.469 307.601C338.502 307.466 339.621 307.645 340.825 308.136C341.098 308.242 341.387 308.38 341.691 308.551C342 308.714 342.244 308.849 342.423 308.957L350.21 313.635L339.13 332.077ZM328.731 325.829L324.786 323.459L333.706 317.663L336.877 320.509L328.731 325.829ZM341.356 320.481L344.772 314.795L340.623 312.302C340.443 312.194 340.242 312.085 340.018 311.974C339.795 311.862 339.578 311.779 339.368 311.722C338.821 311.568 338.327 311.568 337.886 311.721C337.451 311.866 337.069 312.096 336.741 312.41C336.426 312.72 336.169 313.042 335.969 313.375C335.769 313.708 335.603 314.091 335.471 314.523C335.353 314.952 335.33 315.397 335.401 315.858C335.478 316.311 335.712 316.742 336.105 317.152C336.254 317.311 336.429 317.463 336.633 317.609C336.836 317.754 337.027 317.881 337.206 317.988L341.356 320.481Z" fill="#0A0A0A"/>
<path d="M141.549 284.903L143.564 281.548C144.057 281.844 144.528 281.959 144.975 281.892C145.426 281.82 145.856 281.623 146.265 281.301C146.674 280.98 147.075 280.585 147.467 280.118C147.863 279.645 148.251 279.159 148.631 278.66C149.182 277.929 149.7 277.213 150.184 276.514C150.674 275.818 151.171 275.09 151.675 274.33C152.186 273.574 152.746 272.748 153.356 271.853L161.169 276.559L154.297 287.997L155.204 288.542L153.189 291.896L151.903 291.124L153.173 289.011L144.113 283.567L142.843 285.68L141.549 284.903ZM146.038 283.035L153.003 287.219L159.129 277.023L153.816 273.819C153.351 274.514 152.899 275.185 152.462 275.833C152.025 276.481 151.578 277.132 151.122 277.784C150.666 278.437 150.178 279.11 149.657 279.804C149.187 280.44 148.756 280.984 148.365 281.436C147.973 281.888 147.591 282.246 147.217 282.509C146.85 282.775 146.457 282.95 146.038 283.035ZM155.159 290.204L155.852 289.051C156.158 289.274 156.432 289.423 156.675 289.497C156.921 289.565 157.169 289.538 157.418 289.416C157.673 289.298 157.969 289.072 158.305 288.739C158.644 288.399 159.056 287.94 159.541 287.36C160.068 286.734 160.577 286.101 161.065 285.46C161.56 284.823 162.049 284.169 162.531 283.5C163.022 282.829 163.512 282.133 164.001 281.412C164.49 280.691 164.992 279.942 165.507 279.165L173.51 283.974L165.893 296.653L164.598 295.875L171.47 284.437L166.011 281.158C165.607 281.738 165.194 282.332 164.772 282.941C164.356 283.554 163.919 284.175 163.462 284.803C163.01 285.434 162.532 286.078 162.027 286.733C161.531 287.385 161 288.049 160.435 288.724C160.002 289.231 159.577 289.686 159.158 290.09C158.746 290.498 158.327 290.797 157.9 290.988C157.48 291.183 157.041 291.227 156.586 291.121C156.136 291.019 155.661 290.713 155.159 290.204ZM176.639 303.109L175.353 302.337L178.247 297.52L174.029 294.986L173.644 294.611C172.814 293.865 172.358 292.988 172.276 291.98C172.195 290.972 172.441 289.99 173.016 289.033C173.415 288.37 173.898 287.838 174.467 287.436C175.036 287.035 175.657 286.793 176.33 286.71C177.012 286.624 177.712 286.729 178.429 287.025C178.611 287.094 178.78 287.172 178.936 287.257C179.096 287.337 179.238 287.414 179.361 287.488L184.256 290.43L176.639 303.109ZM168.961 298.496L167.473 297.602L173.605 293.617L174.561 294.839L168.961 298.496ZM178.987 296.288L182.225 290.899L178.65 288.751C178.55 288.691 178.424 288.623 178.27 288.547C178.125 288.468 177.977 288.403 177.824 288.351C177.333 288.184 176.868 288.148 176.427 288.242C175.993 288.341 175.597 288.534 175.24 288.823C174.886 289.106 174.591 289.444 174.355 289.837C174.118 290.231 173.958 290.65 173.875 291.095C173.791 291.54 173.808 291.977 173.925 292.407C174.048 292.841 174.299 293.235 174.677 293.59C174.794 293.7 174.92 293.804 175.053 293.9C175.193 294 175.313 294.08 175.413 294.14L178.987 296.288ZM181.931 306.289L189.549 293.61L190.843 294.387L187.41 300.102L194.419 304.313L197.852 298.598L199.138 299.371L191.52 312.05L190.235 311.277L193.673 305.554L186.664 301.343L183.226 307.066L181.931 306.289ZM192.754 312.791L204.739 302.736L206.456 303.767L203.206 319.07L201.858 318.261L204.895 303.812L205.406 304.119L194.101 313.6L192.754 312.791ZM196.546 310.887L197.276 309.672L203.827 313.608L203.097 314.823L196.546 310.887ZM209.074 322.956C207.812 322.197 206.914 321.279 206.38 320.199C205.85 319.113 205.66 317.941 205.81 316.681C205.96 315.421 206.424 314.142 207.204 312.845C207.983 311.547 208.894 310.537 209.936 309.813C210.978 309.089 212.101 308.709 213.305 308.673C214.512 308.632 215.747 308.99 217.009 309.748C218.482 310.633 219.458 311.735 219.937 313.053C220.419 314.365 220.452 315.759 220.036 317.235L218.509 316.785C218.842 315.619 218.836 314.533 218.49 313.526C218.144 312.519 217.402 311.674 216.263 310.99C215.271 310.394 214.311 310.124 213.382 310.181C212.453 310.238 211.578 310.571 210.756 311.18C209.944 311.787 209.215 312.615 208.569 313.665C207.928 314.718 207.53 315.745 207.376 316.747C207.227 317.752 207.347 318.683 207.735 319.539C208.133 320.393 208.828 321.118 209.82 321.714C210.959 322.398 212.054 322.657 213.105 322.489C214.16 322.316 215.122 321.812 215.991 320.976L217.106 322.113C215.998 323.173 214.749 323.801 213.361 323.998C211.976 324.188 210.547 323.841 209.074 322.956ZM219.526 328.876L227.144 316.197L228.438 316.974L224.841 322.962L234.223 320.45L235.878 321.444L226.293 324.014L228.745 334.415L227.054 333.399L224.629 323.314L220.82 329.653L219.526 328.876ZM228.749 334.417L229.442 333.264C229.747 333.487 230.022 333.636 230.265 333.71C230.511 333.778 230.759 333.751 231.008 333.629C231.263 333.511 231.558 333.285 231.895 332.952C232.234 332.612 232.646 332.153 233.13 331.573C233.658 330.947 234.166 330.314 234.655 329.673C235.15 329.036 235.638 328.382 236.12 327.713C236.612 327.042 237.102 326.346 237.591 325.625C238.08 324.904 238.582 324.155 239.096 323.378L247.1 328.187L239.482 340.866L238.188 340.088L245.06 328.65L239.601 325.371C239.197 325.951 238.783 326.545 238.361 327.154C237.945 327.767 237.509 328.388 237.051 329.016C236.6 329.647 236.122 330.29 235.616 330.946C235.12 331.598 234.59 332.262 234.024 332.937C233.592 333.444 233.166 333.899 232.748 334.303C232.336 334.711 231.916 335.01 231.49 335.201C231.069 335.396 230.631 335.44 230.176 335.334C229.726 335.232 229.25 334.926 228.749 334.417ZM241.767 342.238L249.385 329.559L250.679 330.337L243.061 343.016L241.767 342.238ZM250.508 347.85C249.258 347.098 248.375 346.168 247.859 345.059C247.342 343.95 247.161 342.763 247.315 341.497C247.468 340.231 247.927 338.989 248.691 337.77C249.498 336.466 250.423 335.452 251.465 334.728C252.513 334.007 253.629 333.627 254.811 333.586C256 333.55 257.211 333.901 258.443 334.642C259.87 335.499 260.841 336.602 261.357 337.95C261.873 339.299 261.871 340.764 261.352 342.346L259.915 341.746C260.294 340.583 260.296 339.49 259.921 338.466C259.546 337.441 258.819 336.597 257.74 335.933C256.831 335.371 255.937 335.097 255.057 335.112C254.178 335.127 253.344 335.385 252.555 335.886C251.773 336.39 251.074 337.089 250.458 337.981L255.107 340.774L254.361 342.016L249.712 339.222C249.403 339.804 249.161 340.405 248.987 341.028C248.816 341.644 248.767 342.31 248.841 343.025C248.913 343.796 249.17 344.485 249.611 345.094C250.062 345.7 250.627 346.215 251.307 346.64C252.309 347.258 253.344 347.504 254.41 347.378C255.483 347.255 256.45 346.79 257.311 345.981L258.387 347.083C257.649 347.806 256.843 348.316 255.969 348.614C255.104 348.909 254.207 348.993 253.277 348.866C252.347 348.738 251.424 348.4 250.508 347.85ZM257.619 351.762L265.237 339.083L266.531 339.861L263.098 345.575L270.107 349.786L273.54 344.072L274.826 344.844L267.208 357.523L265.922 356.751L269.361 351.028L262.352 346.817L258.914 352.54L257.619 351.762ZM272.695 360.82L279.566 349.382L275.137 346.721L275.883 345.48L286.036 351.579L285.29 352.821L280.861 350.16L273.989 361.597L272.695 360.82ZM289.066 370.656L287.763 369.873L294.011 359.474L280.781 365.678L279.478 364.895L287.095 352.216L288.398 352.999L282.156 363.389L295.381 357.194L296.684 357.977L289.066 370.656ZM297.177 368.734L297.844 367.625L305.24 372.069L304.573 373.178L297.177 368.734ZM315.61 388.844L316.599 387.198L306.685 381.241L314.303 368.562L315.597 369.34L308.699 380.821L315.972 385.191L322.801 373.824L324.096 374.601L317.266 385.969L318.613 386.778L316.905 389.622L315.61 388.844ZM318.956 388.613L326.573 375.934L334.498 380.695L333.752 381.937L327.122 377.953L324.487 382.338L330.061 385.687L329.315 386.928L323.741 383.58L320.996 388.15L327.626 392.133L326.88 393.375L318.956 388.613ZM181.818 330.72L189.436 318.04L199.148 323.875L191.53 336.554L190.236 335.777L197.108 324.339L189.984 320.059L183.113 331.497L181.818 330.72ZM192.761 337.294L204.746 327.239L206.463 328.27L203.213 343.573L201.866 342.764L204.902 328.315L205.413 328.622L194.108 338.103L192.761 337.294ZM196.553 335.39L197.283 334.175L203.834 338.111L203.104 339.326L196.553 335.39ZM204.45 344.317L212.068 331.638L216.964 334.579C217.087 334.653 217.221 334.742 217.367 334.845C217.522 334.947 217.67 335.059 217.811 335.184C218.414 335.682 218.835 336.251 219.075 336.89C219.323 337.527 219.401 338.188 219.308 338.875C219.22 339.566 218.977 340.243 218.579 340.906C218.184 341.564 217.702 342.093 217.133 342.494C216.565 342.896 215.939 343.139 215.257 343.224C214.584 343.307 213.889 343.201 213.171 342.906C212.999 342.834 212.83 342.757 212.664 342.673C212.504 342.593 212.363 342.516 212.24 342.442L208.638 340.278L205.745 345.095L204.45 344.317ZM209.379 339.046L212.945 341.188C213.051 341.252 213.178 341.32 213.325 341.393C213.473 341.466 213.624 341.528 213.776 341.58C214.267 341.747 214.73 341.781 215.164 341.683C215.605 341.588 216.002 341.399 216.356 341.116C216.715 340.837 217.013 340.501 217.249 340.107C217.486 339.714 217.643 339.293 217.72 338.845C217.808 338.394 217.79 337.951 217.667 337.518C217.549 337.088 217.302 336.696 216.924 336.341C216.807 336.23 216.679 336.13 216.542 336.039C216.408 335.943 216.288 335.863 216.183 335.8L212.617 333.657L209.379 339.046ZM218.098 352.517L224.97 341.079L220.541 338.418L221.287 337.177L231.439 343.276L230.694 344.518L226.265 341.857L219.393 353.294L218.098 352.517ZM224.881 356.592L232.499 343.913L233.794 344.691L230.36 350.405L237.369 354.616L240.802 348.901L242.088 349.674L234.47 362.353L233.185 361.581L236.623 355.857L229.614 351.646L226.176 357.37L224.881 356.592ZM236.585 363.623L244.202 350.944L252.127 355.705L251.381 356.947L244.751 352.963L242.116 357.348L247.69 360.697L246.944 361.938L241.37 358.59L238.625 363.159L245.255 367.143L244.509 368.384L236.585 363.623ZM246.276 369.446L253.893 356.767L258.789 359.708C258.912 359.782 259.046 359.871 259.192 359.974C259.347 360.075 259.495 360.188 259.636 360.313C260.239 360.811 260.66 361.38 260.9 362.019C261.148 362.655 261.226 363.317 261.133 364.004C261.045 364.695 260.803 365.371 260.404 366.035C260.009 366.692 259.527 367.222 258.959 367.623C258.39 368.024 257.764 368.268 257.082 368.353C256.409 368.436 255.714 368.33 254.996 368.035C254.824 367.963 254.655 367.885 254.489 367.802C254.33 367.722 254.188 367.645 254.065 367.571L250.464 365.407L247.57 370.223L246.276 369.446ZM251.204 364.174L254.77 366.317C254.876 366.38 255.003 366.448 255.151 366.521C255.298 366.594 255.449 366.657 255.601 366.708C256.092 366.875 256.555 366.91 256.99 366.811C257.43 366.717 257.827 366.528 258.181 366.245C258.54 365.966 258.838 365.629 259.074 365.236C259.311 364.843 259.468 364.422 259.546 363.973C259.633 363.522 259.615 363.08 259.492 362.647C259.375 362.217 259.127 361.824 258.749 361.469C258.632 361.359 258.504 361.258 258.367 361.168C258.233 361.072 258.113 360.992 258.008 360.928L254.442 358.786L251.204 364.174ZM266.14 381.38L264.837 380.597L271.084 370.199L257.854 376.402L256.551 375.619L264.169 362.94L265.472 363.723L259.23 374.113L272.454 367.918L273.758 368.701L266.14 381.38Z" fill="#707070"/>
<path d="M104.524 285.274L91.7168 277.579L99.412 264.772L112.219 272.467L104.524 285.274Z" fill="#0A0A0A"/>
<path d="M96.826 298.078L84.019 290.383L91.7142 277.576L104.521 285.271L96.826 298.078Z" fill="#FF3800"/>
<path d="M109.635 305.774L96.8279 298.079L104.523 285.272L117.33 292.967L109.635 305.774Z" fill="#0A0A0A"/>
<path d="M133.167 232.761L120.36 225.066L112.665 237.873L125.472 245.568L133.167 232.761Z" fill="#0A0A0A"/>
<path d="M140.865 219.953L128.058 212.258L120.362 225.065L133.169 232.76L140.865 219.953Z" fill="#FF3800"/>
<path d="M153.674 227.649L140.867 219.954L133.172 232.761L145.979 240.456L153.674 227.649Z" fill="#0A0A0A"/>
<path d="M343.585 428.916L356.392 436.612L364.087 423.805L351.28 416.109L343.585 428.916Z" fill="#0A0A0A"/>
<path d="M335.887 441.72L348.694 449.416L356.389 436.609L343.582 428.913L335.887 441.72Z" fill="#FF3800"/>
<path d="M323.077 434.025L335.884 441.72L343.579 428.913L330.772 421.218L323.077 434.025Z" fill="#0A0A0A"/>
<path d="M376.496 378.97L389.303 386.665L381.608 399.472L368.801 391.777L376.496 378.97Z" fill="#0A0A0A"/>
<path d="M384.194 366.162L397 373.857L389.305 386.664L376.498 378.969L384.194 366.162Z" fill="#FF3800"/>
<path d="M371.384 358.466L384.191 366.161L376.495 378.968L363.689 371.273L371.384 358.466Z" fill="#0A0A0A"/>
</g>
<defs>
<clipPath id="clip0_1176_1274">
<rect width="399" height="399" fill="white" transform="translate(205.5 0.666626) rotate(31)"/>
</clipPath>
</defs>
</svg>
