<svg  viewBox="0 0 405 405" fill="none" xmlns="http://www.w3.org/2000/svg">
<g clip-path="url(#clip0_754_2187)">
<path d="M94.3063 45.8014L50.0352 45.1755L49.4093 89.4467L93.6804 90.0726L94.3063 45.8014Z" fill="#F8F8FF"/>
<path d="M138.555 46.4301L94.2842 45.8042L93.6583 90.0754L137.929 90.7012L138.555 46.4301Z" fill="#FF3800"/>
<path d="M227.103 47.6801L182.832 47.0542L182.206 91.3254L226.477 91.9512L227.103 47.6801Z" fill="#F8F8FF"/>
<path d="M315.626 48.9301L271.354 48.3042L270.729 92.5754L315 93.2012L315.626 48.9301Z" fill="#FF3800"/>
<path d="M359.898 49.5551L315.627 48.9292L315.001 93.2004L359.272 93.8262L359.898 49.5551Z" fill="#F8F8FF"/>
<path d="M139.188 2.15664L94.917 1.53076L94.2911 45.8019L138.562 46.4278L139.188 2.15664Z" fill="#F8F8FF"/>
<path d="M183.452 2.78555L139.181 2.15967L138.555 46.4308L182.826 47.0567L183.452 2.78555Z" fill="#F8F8FF"/>
<path d="M271.979 4.03555L227.708 3.40967L227.082 47.6808L271.353 48.3067L271.979 4.03555Z" fill="#F8F8FF"/>
<path d="M316.253 4.66055L271.981 4.03467L271.356 48.3058L315.627 48.9317L316.253 4.66055Z" fill="#F8F8FF"/>
<path d="M49.4108 89.4301L5.13965 88.8042L4.51377 133.075L48.7849 133.701L49.4108 89.4301Z" fill="#F8F8FF"/>
<path d="M93.6794 90.0551L49.4082 89.4292L48.7823 133.7L93.0535 134.326L93.6794 90.0551Z" fill="#FF3800"/>
<path d="M359.271 93.8087L315 93.1829L314.374 137.454L358.645 138.08L359.271 93.8087Z" fill="#FF3800"/>
<path d="M48.7829 133.7L4.51172 133.074L3.88584 177.345L48.157 177.971L48.7829 133.7Z" fill="#F8F8FF"/>
<path d="M225.852 136.207L181.581 135.582L180.955 179.853L225.226 180.479L225.852 136.207Z" fill="#FF3800"/>
<path d="M92.4294 178.594L48.1582 177.968L47.5323 222.239L91.8035 222.865L92.4294 178.594Z" fill="#F8F8FF"/>
<path d="M180.952 179.852L136.681 179.226L136.055 223.497L180.326 224.123L180.952 179.852Z" fill="#FF3800"/>
<path d="M225.225 180.473L180.954 179.847L180.328 224.118L224.599 224.744L225.225 180.473Z" fill="#F8F8FF"/>
<path d="M269.479 181.102L225.208 180.476L224.582 224.747L268.853 225.373L269.479 181.102Z" fill="#FF3800"/>
<path d="M358.021 182.352L313.75 181.726L313.124 225.997L357.395 226.623L358.021 182.352Z" fill="#F8F8FF"/>
<path d="M47.5339 222.223L3.2627 221.597L2.63682 265.868L46.908 266.494L47.5339 222.223Z" fill="#F8F8FF"/>
<path d="M224.598 224.727L180.327 224.101L179.701 268.372L223.972 268.998L224.598 224.727Z" fill="#FF3800"/>
<path d="M47.1622 265.618L2.34375 264.984L1.69253 311.047L46.511 311.681L47.1622 265.618Z" fill="#F8F8FF"/>
<path d="M91.1794 267.121L46.9082 266.496L46.2823 310.767L90.5535 311.393L91.1794 267.121Z" fill="#FF3800"/>
<path d="M356.766 270.875L312.495 270.25L311.869 314.521L356.14 315.147L356.766 270.875Z" fill="#FF3800"/>
<path d="M90.5475 311.395L46.2764 310.769L45.6505 355.04L89.9216 355.666L90.5475 311.395Z" fill="#F8F8FF"/>
<path d="M134.806 312.02L90.5352 311.394L89.9093 355.665L134.18 356.291L134.806 312.02Z" fill="#FF3800"/>
<path d="M223.347 313.27L179.076 312.644L178.45 356.915L222.721 357.541L223.347 313.27Z" fill="#F8F8FF"/>
<path d="M311.87 314.524L267.599 313.898L266.973 358.169L311.244 358.795L311.87 314.524Z" fill="#FF3800"/>
<path d="M356.144 315.149L311.873 314.523L311.247 358.794L355.518 359.42L356.144 315.149Z" fill="#F8F8FF"/>
<path d="M134.178 356.274L89.9072 355.648L89.2813 399.919L133.553 400.545L134.178 356.274Z" fill="#F8F8FF"/>
<path d="M178.447 356.895L134.176 356.269L133.55 400.54L177.821 401.166L178.447 356.895Z" fill="#F8F8FF"/>
<path d="M266.975 358.149L222.704 357.523L222.078 401.794L266.349 402.42L266.975 358.149Z" fill="#F8F8FF"/>
<path d="M311.243 358.774L266.972 358.148L266.346 402.419L310.617 403.045L311.243 358.774Z" fill="#F8F8FF"/>
<path d="M403.525 94.4379L359.254 93.812L358.628 138.083L402.899 138.709L403.525 94.4379Z" fill="#F8F8FF"/>
<path d="M402.902 138.704L358.631 138.078L358.005 182.349L402.276 182.975L402.902 138.704Z" fill="#F8F8FF"/>
<path d="M401.647 227.231L357.376 226.605L356.75 270.876L401.021 271.502L401.647 227.231Z" fill="#F8F8FF"/>
<path d="M401.025 271.504L356.754 270.878L356.128 315.15L400.399 315.775L401.025 271.504Z" fill="#F8F8FF"/>
<rect x="47.6914" y="88.5776" width="314.075" height="222.544" transform="rotate(0.809961 47.6914 88.5776)" fill="#F8F8FF"/>
<rect x="93.7344" y="42.7964" width="222.544" height="317.664" transform="rotate(0.809961 93.7344 42.7964)" fill="#F8F8FF"/>
<path d="M121.829 145.583C119.678 145.553 117.827 145.058 116.277 144.1C114.736 143.142 113.555 141.815 112.732 140.12C111.919 138.425 111.528 136.462 111.56 134.231C111.591 132 112.037 130.049 112.897 128.378C113.768 126.706 114.986 125.414 116.553 124.499C118.13 123.585 119.994 123.143 122.145 123.174C124.297 123.204 126.143 123.698 127.683 124.656C129.234 125.615 130.415 126.941 131.228 128.636C132.051 130.331 132.447 132.294 132.415 134.525C132.384 136.756 131.933 138.707 131.063 140.379C130.202 142.05 128.984 143.343 127.407 144.257C125.84 145.171 123.981 145.613 121.829 145.583ZM121.883 141.758C123.248 141.798 124.387 141.52 125.302 140.925C126.217 140.33 126.906 139.478 127.37 138.369C127.844 137.26 128.092 135.959 128.113 134.465C128.134 132.971 127.923 131.673 127.48 130.571C127.047 129.469 126.382 128.608 125.484 127.987C124.587 127.367 123.456 127.037 122.091 126.998C120.727 126.959 119.588 127.237 118.673 127.832C117.758 128.426 117.064 129.278 116.59 130.387C116.126 131.496 115.883 132.798 115.862 134.292C115.841 135.786 116.047 137.084 116.48 138.186C116.922 139.288 117.593 140.149 118.49 140.769C119.388 141.389 120.519 141.719 121.883 141.758ZM139.652 145.386L139.902 127.668L133.119 127.572L133.173 123.777L150.801 124.026L150.748 127.82L143.965 127.725L143.716 145.443L139.652 145.386ZM152.899 145.573L153.202 124.06L162.285 124.188C162.495 124.191 162.773 124.205 163.122 124.229C163.48 124.244 163.798 124.279 164.076 124.332C165.358 124.55 166.403 124.988 167.211 125.647C168.028 126.306 168.624 127.131 168.999 128.123C169.374 129.104 169.552 130.197 169.535 131.403C169.518 132.608 169.304 133.7 168.892 134.681C168.489 135.651 167.87 136.455 167.035 137.09C166.209 137.726 165.157 138.135 163.879 138.316C163.6 138.352 163.281 138.377 162.922 138.392C162.563 138.407 162.284 138.413 162.085 138.41L157.065 138.339L156.963 145.63L152.899 145.573ZM157.119 134.545L161.959 134.613C162.168 134.616 162.398 134.609 162.647 134.593C162.896 134.576 163.126 134.54 163.336 134.483C163.886 134.341 164.312 134.098 164.616 133.754C164.92 133.4 165.13 133.009 165.245 132.582C165.371 132.146 165.437 131.733 165.442 131.345C165.447 130.956 165.393 130.547 165.28 130.117C165.177 129.677 164.978 129.281 164.684 128.928C164.39 128.566 163.971 128.306 163.425 128.149C163.217 128.086 162.988 128.043 162.739 128.019C162.491 127.996 162.262 127.983 162.053 127.98L157.212 127.912L157.119 134.545ZM189.931 146.095L185.807 146.036L186.01 131.695L176.455 145.905L172.332 145.846L172.635 124.334L176.759 124.392L176.556 138.734L186.111 124.524L190.234 124.582L189.931 146.095ZM194.099 146.153L194.403 124.64L198.048 124.692L204.958 139.074L212.27 124.892L215.915 124.944L215.612 146.457L211.818 146.403L211.999 133.555L205.573 146.315L204.139 146.295L198.075 133.359L197.894 146.207L194.099 146.153ZM218.312 146.495L225.188 125.074L231.254 125.16L237.524 146.765L233.341 146.706L227.752 127.651L228.529 127.662L222.495 146.554L218.312 146.495ZM222.319 142.068L222.373 138.274L233.727 138.434L233.673 142.228L222.319 142.068ZM240.202 146.803L240.505 125.29L244.628 125.348L244.426 139.69L253.98 125.48L258.104 125.538L257.8 147.051L253.677 146.993L253.879 132.651L244.325 146.861L240.202 146.803ZM249.255 123.621C248.378 123.608 247.585 123.383 246.874 122.944C246.163 122.506 245.598 121.925 245.18 121.202C244.762 120.479 244.559 119.679 244.571 118.803L247.708 118.847C247.702 119.295 247.851 119.681 248.155 120.004C248.47 120.317 248.851 120.477 249.299 120.483C249.747 120.49 250.128 120.34 250.441 120.036C250.764 119.722 250.929 119.341 250.935 118.892L254.073 118.937C254.06 119.813 253.835 120.607 253.397 121.318C252.958 122.029 252.377 122.594 251.654 123.012C250.931 123.43 250.131 123.633 249.255 123.621ZM266.959 147.18L267.209 129.462L260.426 129.366L260.48 125.572L278.108 125.82L278.055 129.615L271.272 129.519L271.022 147.238L266.959 147.18ZM280.206 147.367L280.509 125.854L294.552 126.052L294.499 129.847L284.519 129.706L284.454 134.307L292.641 134.423L292.588 138.217L284.401 138.102L284.323 143.63L294.302 143.77L294.249 147.565L280.206 147.367ZM77.5175 177.513L77.8207 156L95.5689 156.251L95.2656 177.763L91.2021 177.706L91.4518 159.988L81.8308 159.852L81.581 177.571L77.5175 177.513ZM108.686 178.401C106.535 178.371 104.684 177.876 103.134 176.918C101.593 175.96 100.411 174.633 99.5885 172.938C98.7756 171.243 98.3849 169.28 98.4163 167.049C98.4478 164.818 98.8937 162.867 99.754 161.196C100.624 159.524 101.843 158.232 103.41 157.317C104.987 156.403 106.851 155.961 109.002 155.992C111.153 156.022 112.999 156.516 114.54 157.474C116.09 158.433 117.272 159.759 118.085 161.454C118.908 163.149 119.303 165.112 119.272 167.343C119.24 169.574 118.79 171.525 117.919 173.197C117.059 174.868 115.84 176.161 114.263 177.075C112.697 177.989 110.837 178.431 108.686 178.401ZM108.74 174.576C110.104 174.616 111.244 174.338 112.159 173.743C113.074 173.148 113.763 172.296 114.227 171.187C114.701 170.078 114.948 168.777 114.969 167.283C114.99 165.789 114.78 164.491 114.337 163.389C113.904 162.287 113.239 161.426 112.341 160.805C111.443 160.185 110.312 159.855 108.948 159.816C107.584 159.777 106.444 160.055 105.53 160.65C104.615 161.244 103.92 162.096 103.446 163.205C102.982 164.314 102.74 165.616 102.719 167.11C102.698 168.604 102.904 169.902 103.336 171.004C103.779 172.106 104.449 172.967 105.347 173.587C106.245 174.208 107.376 174.537 108.74 174.576ZM122.103 178.142L122.406 156.629L131.011 156.75C132.545 156.772 133.78 157.098 134.718 157.729C135.655 158.35 136.337 159.126 136.762 160.059C137.187 160.991 137.393 161.931 137.38 162.877C137.363 164.082 137.075 165.079 136.516 165.868C135.967 166.657 135.217 167.18 134.267 167.435L134.278 166.688C135.618 166.986 136.616 167.623 137.269 168.598C137.933 169.574 138.256 170.659 138.239 171.854C138.221 173.139 137.966 174.266 137.475 175.235C136.993 176.205 136.265 176.962 135.291 177.506C134.317 178.04 133.098 178.297 131.634 178.276L122.103 178.142ZM126.28 174.375L131.27 174.446C131.817 174.453 132.307 174.346 132.739 174.123C133.17 173.89 133.508 173.566 133.753 173.151C134.008 172.726 134.14 172.225 134.148 171.647C134.155 171.139 134.057 170.685 133.854 170.283C133.65 169.882 133.336 169.564 132.911 169.329C132.496 169.084 131.975 168.957 131.347 168.948L126.357 168.878L126.28 174.375ZM126.411 165.083L130.833 165.145C131.291 165.152 131.7 165.078 132.061 164.924C132.422 164.769 132.709 164.529 132.923 164.204C133.137 163.868 133.248 163.436 133.255 162.908C133.264 162.251 133.068 161.695 132.666 161.241C132.264 160.787 131.675 160.555 130.898 160.544L126.476 160.482L126.411 165.083ZM141.127 178.41L141.43 156.897L145.494 156.954L145.369 165.798L154.99 165.934L155.115 157.09L159.178 157.147L158.875 178.66L154.812 178.603L154.937 169.729L145.316 169.593L145.191 178.467L141.127 178.41ZM180.668 178.967L176.545 178.909L176.747 164.567L167.193 178.777L163.07 178.719L163.373 157.206L167.496 157.264L167.294 171.606L176.848 157.396L180.971 157.454L180.668 178.967ZM184.837 179.026L185.14 157.513L189.263 157.571L189.061 171.913L198.616 157.703L202.739 157.761L202.436 179.274L198.312 179.216L198.514 164.874L188.96 179.084L184.837 179.026ZM193.89 155.843C193.014 155.831 192.22 155.606 191.509 155.167C190.798 154.729 190.233 154.148 189.815 153.425C189.397 152.702 189.194 151.902 189.206 151.026L192.344 151.07C192.337 151.518 192.486 151.904 192.79 152.227C193.105 152.54 193.486 152.7 193.934 152.706C194.382 152.712 194.763 152.563 195.076 152.259C195.399 151.945 195.564 151.564 195.57 151.115L198.708 151.16C198.695 152.036 198.47 152.83 198.032 153.541C197.593 154.252 197.013 154.817 196.289 155.235C195.566 155.653 194.766 155.856 193.89 155.843ZM221.812 179.996C219.661 179.965 217.81 179.471 216.259 178.513C214.719 177.555 213.537 176.228 212.714 174.533C211.902 172.838 211.511 170.875 211.542 168.644C211.574 166.413 212.02 164.462 212.88 162.79C213.75 161.119 214.969 159.826 216.536 158.912C218.113 157.998 219.977 157.556 222.128 157.586C224.598 157.621 226.661 158.263 228.317 159.511C229.983 160.76 231.145 162.435 231.802 164.536L227.693 165.614C227.313 164.304 226.655 163.283 225.719 162.553C224.783 161.813 223.568 161.432 222.074 161.411C220.71 161.392 219.565 161.679 218.64 162.274C217.725 162.869 217.031 163.716 216.557 164.815C216.083 165.914 215.836 167.21 215.815 168.704C215.794 170.198 216.005 171.501 216.447 172.613C216.89 173.725 217.56 174.591 218.458 175.211C219.365 175.832 220.502 176.152 221.866 176.171C223.36 176.192 224.585 175.846 225.542 175.132C226.498 174.418 227.185 173.417 227.601 172.128L231.679 173.321C230.962 175.403 229.753 177.044 228.053 178.246C226.362 179.447 224.282 180.03 221.812 179.996ZM234.878 179.731L235.182 158.219L252.93 158.469L252.626 179.982L248.563 179.924L248.813 162.206L239.192 162.07L238.942 179.789L234.878 179.731ZM256.821 180.041L257.124 158.528L271.167 158.726L271.114 162.52L261.134 162.38L261.069 166.981L269.256 167.096L269.203 170.891L261.016 170.776L260.938 176.303L270.917 176.444L270.864 180.239L256.821 180.041ZM274.445 180.289L274.748 158.776L278.812 158.834L278.672 168.753L286.998 158.949L291.958 159.019L282.815 169.499L292.223 180.54L287.084 180.467L278.646 170.546L278.508 180.346L274.445 180.289ZM299.305 180.64L299.555 162.921L292.772 162.826L292.826 159.031L310.455 159.28L310.401 163.074L303.619 162.979L303.369 180.697L299.305 180.64ZM312.552 180.826L312.855 159.313L321.939 159.441C322.148 159.444 322.426 159.458 322.775 159.483C323.133 159.498 323.452 159.532 323.73 159.586C325.012 159.804 326.056 160.242 326.864 160.901C327.682 161.56 328.278 162.385 328.652 163.376C329.027 164.358 329.206 165.451 329.189 166.656C329.172 167.861 328.957 168.954 328.545 169.935C328.143 170.905 327.524 171.708 326.688 172.344C325.862 172.98 324.81 173.388 323.533 173.57C323.253 173.606 322.934 173.631 322.575 173.646C322.216 173.661 321.937 173.667 321.738 173.664L316.718 173.593L316.616 180.884L312.552 180.826ZM316.772 169.798L321.612 169.867C321.822 169.87 322.051 169.863 322.3 169.846C322.549 169.83 322.779 169.793 322.989 169.737C323.539 169.595 323.966 169.352 324.269 169.008C324.573 168.653 324.783 168.263 324.898 167.836C325.024 167.399 325.09 166.987 325.095 166.599C325.101 166.21 325.047 165.801 324.933 165.371C324.83 164.931 324.631 164.535 324.337 164.182C324.044 163.819 323.624 163.559 323.078 163.402C322.87 163.34 322.641 163.297 322.393 163.273C322.144 163.25 321.915 163.236 321.706 163.234L316.865 163.165L316.772 169.798ZM142.442 211.432L142.745 189.919L160.493 190.169L160.19 211.682L156.126 211.625L156.376 193.906L146.755 193.771L146.505 211.489L142.442 211.432ZM173.611 212.319C171.459 212.289 169.608 211.795 168.058 210.836C166.517 209.878 165.336 208.552 164.513 206.857C163.7 205.162 163.309 203.199 163.341 200.968C163.372 198.737 163.818 196.786 164.678 195.114C165.549 193.443 166.767 192.15 168.334 191.236C169.911 190.322 171.775 189.88 173.926 189.91C176.078 189.94 177.924 190.435 179.464 191.393C181.015 192.351 182.196 193.678 183.009 195.373C183.832 197.068 184.228 199.031 184.196 201.262C184.165 203.493 183.714 205.444 182.844 207.115C181.983 208.786 180.765 210.079 179.188 210.993C177.621 211.908 175.762 212.35 173.611 212.319ZM173.665 208.495C175.029 208.534 176.168 208.256 177.083 207.661C177.998 207.067 178.687 206.215 179.151 205.106C179.625 203.997 179.873 202.695 179.894 201.201C179.915 199.707 179.704 198.409 179.261 197.307C178.829 196.205 178.163 195.344 177.266 194.724C176.368 194.103 175.237 193.774 173.873 193.735C172.508 193.695 171.369 193.973 170.454 194.568C169.539 195.163 168.845 196.015 168.371 197.124C167.907 198.233 167.664 199.534 167.643 201.028C167.622 202.522 167.828 203.82 168.261 204.922C168.704 206.024 169.374 206.885 170.272 207.506C171.169 208.126 172.3 208.456 173.665 208.495ZM196.253 212.639C194.102 212.608 192.251 212.114 190.701 211.156C189.16 210.198 187.978 208.871 187.156 207.176C186.343 205.481 185.952 203.518 185.983 201.287C186.015 199.056 186.461 197.105 187.321 195.433C188.191 193.762 189.41 192.469 190.977 191.555C192.554 190.641 194.418 190.199 196.569 190.229C199.039 190.264 201.102 190.906 202.758 192.154C204.424 193.403 205.586 195.078 206.244 197.179L202.134 198.257C201.754 196.947 201.096 195.926 200.16 195.196C199.224 194.456 198.009 194.075 196.515 194.054C195.151 194.035 194.006 194.322 193.081 194.917C192.166 195.512 191.472 196.359 190.998 197.458C190.525 198.557 190.277 199.853 190.256 201.347C190.235 202.841 190.446 204.144 190.888 205.256C191.331 206.368 192.001 207.234 192.899 207.854C193.807 208.475 194.943 208.795 196.307 208.814C197.801 208.835 199.026 208.489 199.983 207.775C200.939 207.061 201.626 206.06 202.042 204.771L206.12 205.964C205.403 208.046 204.194 209.687 202.494 210.889C200.804 212.09 198.723 212.673 196.253 212.639ZM207.242 212.345L207.29 208.969C207.747 209.005 208.136 208.971 208.457 208.866C208.777 208.761 209.049 208.565 209.272 208.28C209.505 207.984 209.71 207.578 209.887 207.063C210.063 206.537 210.232 205.882 210.392 205.098C210.649 203.856 210.867 202.549 211.045 201.177C211.234 199.795 211.393 198.442 211.521 197.119C211.649 195.796 211.751 194.592 211.826 193.508C211.901 192.413 211.958 191.542 211.997 190.895L226.668 191.102L226.365 212.615L222.301 212.557L222.551 194.839L215.679 194.742C215.631 195.299 215.566 196.026 215.484 196.921C215.411 197.817 215.313 198.806 215.188 199.891C215.063 200.975 214.912 202.098 214.737 203.261C214.561 204.424 214.351 205.552 214.106 206.644C213.882 207.707 213.615 208.65 213.304 209.472C212.994 210.284 212.586 210.951 212.081 211.472C211.585 211.983 210.948 212.318 210.169 212.476C209.39 212.634 208.414 212.591 207.242 212.345ZM233.131 212.71L236.204 206.717L229.072 191.136L233.674 191.201L238.386 202.474L243.593 191.34L247.926 191.401L237.464 212.771L233.131 212.71ZM249.703 212.944L250.006 191.431L264.049 191.629L263.996 195.423L254.016 195.283L253.766 213.001L249.703 212.944Z" fill="#0A0A0A"/>
<path d="M104.695 272.706L104.903 257.916L110.614 257.996C111.442 258.008 112.162 258.189 112.774 258.541C113.385 258.892 113.858 259.361 114.192 259.947C114.526 260.527 114.689 261.167 114.679 261.865C114.668 262.659 114.445 263.365 114.012 263.982C113.579 264.592 113.004 265.012 112.289 265.242L112.275 264.738C113.23 265.026 113.977 265.516 114.515 266.208C115.053 266.901 115.315 267.733 115.301 268.705C115.289 269.561 115.097 270.298 114.726 270.916C114.354 271.527 113.837 271.996 113.175 272.322C112.513 272.648 111.747 272.805 110.878 272.793L104.695 272.706ZM106.235 271.279L110.528 271.34C111.131 271.348 111.673 271.25 112.156 271.044C112.638 270.832 113.019 270.529 113.299 270.136C113.585 269.743 113.732 269.265 113.74 268.704C113.748 268.156 113.628 267.661 113.381 267.219C113.134 266.778 112.793 266.424 112.358 266.157C111.931 265.884 111.439 265.744 110.885 265.736L106.314 265.671L106.235 271.279ZM106.334 264.244L110.515 264.303C110.987 264.309 111.42 264.209 111.813 264.002C112.207 263.789 112.519 263.495 112.75 263.122C112.988 262.749 113.111 262.315 113.118 261.822C113.128 261.124 112.893 260.552 112.413 260.107C111.94 259.662 111.33 259.434 110.583 259.424L106.403 259.365L106.334 264.244ZM117.087 272.881L117.296 258.091L118.806 258.112L118.597 272.902L117.087 272.881ZM120.542 275.395L120.598 271.482C121.173 271.49 121.637 271.353 121.99 271.07C122.344 270.78 122.616 270.394 122.808 269.91C123 269.427 123.148 268.884 123.252 268.283C123.357 267.675 123.447 267.06 123.525 266.438C123.633 265.529 123.721 264.65 123.788 263.801C123.861 262.953 123.925 262.074 123.979 261.164C124.04 260.254 124.109 259.258 124.186 258.177L133.306 258.316L133.118 271.658L134.176 271.673L134.121 275.586L132.621 275.565L132.656 273.1L122.087 272.951L122.052 275.416L120.542 275.395ZM123.484 271.522L131.608 271.637L131.776 259.743L125.572 259.645C125.519 260.48 125.467 261.288 125.415 262.068C125.363 262.848 125.304 263.634 125.238 264.428C125.172 265.221 125.088 266.049 124.987 266.91C124.901 267.697 124.802 268.384 124.691 268.971C124.58 269.559 124.429 270.06 124.238 270.475C124.054 270.89 123.803 271.239 123.484 271.522ZM139.907 273.202L140.116 258.412L141.625 258.434L141.417 273.224L139.907 273.202ZM143.362 275.717L143.418 271.803C143.993 271.811 144.457 271.674 144.81 271.392C145.164 271.102 145.436 270.715 145.628 270.232C145.82 269.748 145.968 269.206 146.072 268.605C146.176 267.997 146.267 267.382 146.345 266.76C146.453 265.85 146.541 264.971 146.608 264.123C146.681 263.275 146.745 262.396 146.799 261.486C146.86 260.576 146.929 259.58 147.005 258.499L156.126 258.638L155.938 271.98L156.996 271.995L156.941 275.908L155.441 275.887L155.476 273.422L144.907 273.273L144.872 275.738L143.362 275.717ZM146.304 271.844L154.428 271.959L154.596 260.065L148.392 259.967C148.339 260.802 148.287 261.609 148.235 262.389C148.183 263.169 148.124 263.956 148.058 264.75C147.992 265.543 147.908 266.371 147.807 267.232C147.72 268.019 147.622 268.705 147.511 269.293C147.4 269.88 147.249 270.381 147.058 270.797C146.874 271.212 146.623 271.561 146.304 271.844ZM158.82 273.469L159.029 258.679L168.272 258.809L168.252 260.257L160.518 260.148L160.446 265.263L166.947 265.355L166.927 266.803L160.425 266.711L160.35 272.042L168.084 272.151L168.064 273.599L158.82 273.469ZM172.459 256.701L172.482 255.057L174.125 255.08L174.102 256.724L172.459 256.701ZM168.546 256.645L168.569 255.002L170.212 255.025L170.189 256.669L168.546 256.645ZM170.33 273.631L170.538 258.841L172.048 258.862L171.84 273.652L170.33 273.631ZM177.487 276.198L177.542 272.284C178.117 272.292 178.581 272.155 178.935 271.873C179.288 271.583 179.56 271.197 179.752 270.713C179.944 270.229 180.092 269.687 180.196 269.086C180.301 268.478 180.392 267.863 180.469 267.241C180.578 266.331 180.665 265.452 180.732 264.604C180.806 263.756 180.869 262.877 180.923 261.967C180.984 261.057 181.053 260.061 181.13 258.98L190.25 259.119L190.062 272.461L191.12 272.476L191.065 276.389L189.565 276.368L189.6 273.903L179.031 273.754L178.997 276.219L177.487 276.198ZM180.428 272.325L188.552 272.44L188.72 260.546L182.516 260.448C182.464 261.283 182.411 262.09 182.359 262.87C182.307 263.65 182.248 264.437 182.182 265.231C182.116 266.024 182.032 266.852 181.931 267.713C181.845 268.5 181.746 269.186 181.635 269.774C181.524 270.361 181.373 270.863 181.182 271.278C180.998 271.693 180.747 272.042 180.428 272.325ZM198.928 274.343C197.456 274.322 196.218 273.979 195.213 273.314C194.209 272.643 193.455 271.725 192.951 270.56C192.447 269.395 192.206 268.057 192.227 266.543C192.248 265.03 192.527 263.699 193.064 262.549C193.601 261.399 194.38 260.506 195.403 259.87C196.426 259.227 197.673 258.915 199.145 258.936C200.624 258.957 201.862 259.303 202.86 259.975C203.864 260.639 204.618 261.554 205.122 262.719C205.633 263.883 205.878 265.222 205.856 266.735C205.835 268.249 205.553 269.58 205.009 270.73C204.472 271.88 203.693 272.776 202.67 273.419C201.654 274.056 200.407 274.363 198.928 274.343ZM198.948 272.894C200.106 272.911 201.075 272.661 201.856 272.144C202.637 271.628 203.226 270.903 203.623 269.971C204.026 269.031 204.237 267.945 204.254 266.713C204.272 265.48 204.092 264.392 203.715 263.449C203.344 262.505 202.776 261.764 202.01 261.226C201.243 260.688 200.282 260.407 199.125 260.384C197.968 260.368 197.002 260.618 196.227 261.135C195.453 261.651 194.864 262.379 194.461 263.318C194.064 264.251 193.853 265.334 193.829 266.566C193.805 267.798 193.978 268.886 194.348 269.83C194.725 270.766 195.297 271.507 196.063 272.052C196.83 272.591 197.791 272.871 198.948 272.894ZM215.83 274.581C214.824 274.567 213.953 274.407 213.217 274.102C212.489 273.797 211.892 273.402 211.426 272.916C210.961 272.423 210.615 271.894 210.39 271.33L211.778 270.548C211.936 271.016 212.19 271.444 212.541 271.833C212.891 272.221 213.346 272.532 213.904 272.766C214.462 273 215.128 273.122 215.902 273.133C216.703 273.145 217.383 273.027 217.941 272.782C218.506 272.536 218.936 272.186 219.23 271.732C219.524 271.277 219.675 270.745 219.684 270.136C219.693 269.464 219.54 268.942 219.223 268.568C218.906 268.193 218.479 267.927 217.94 267.769C217.401 267.604 216.8 267.506 216.136 267.476C215.636 267.449 215.281 267.43 215.068 267.42C214.856 267.41 214.716 267.405 214.647 267.404C214.579 267.403 214.514 267.402 214.452 267.401L214.473 265.943C214.521 265.943 214.647 265.945 214.853 265.948C215.058 265.951 215.277 265.954 215.51 265.957C215.743 265.954 215.928 265.949 216.065 265.945C217.045 265.91 217.819 265.664 218.387 265.207C218.955 264.749 219.245 264.123 219.256 263.329C219.268 262.487 218.979 261.828 218.39 261.354C217.808 260.881 217.047 260.637 216.109 260.624C215.226 260.611 214.477 260.813 213.861 261.229C213.253 261.638 212.752 262.193 212.358 262.893L211.139 261.961C211.616 261.132 212.283 260.457 213.14 259.935C213.996 259.413 215.007 259.16 216.171 259.176C216.794 259.185 217.388 259.279 217.954 259.458C218.527 259.637 219.03 259.898 219.464 260.24C219.904 260.581 220.247 261.011 220.493 261.528C220.746 262.038 220.868 262.636 220.858 263.321C220.847 264.122 220.659 264.818 220.295 265.408C219.937 265.999 219.479 266.441 218.92 266.735C219.67 266.971 220.253 267.377 220.67 267.951C221.093 268.525 221.298 269.271 221.286 270.189C221.273 271.093 221.039 271.877 220.585 272.542C220.13 273.207 219.493 273.718 218.673 274.076C217.86 274.428 216.912 274.596 215.83 274.581ZM221.919 274.358L227.222 259.64L229.224 259.668L234.11 274.53L232.539 274.508L227.898 260.492L228.494 260.5L223.49 274.381L221.919 274.358ZM224.239 270.806L224.259 269.388L231.901 269.496L231.881 270.914L224.239 270.806ZM235.554 274.551L235.763 259.76L247.091 259.92L246.883 274.71L245.373 274.689L245.561 261.347L237.252 261.23L237.064 274.572L235.554 274.551ZM251.842 274.78L253.555 271.301L248.456 259.939L250.13 259.963L254.369 269.69L258.963 260.088L260.575 260.11L253.485 274.803L251.842 274.78ZM266.895 275.301C265.423 275.28 264.185 274.937 263.18 274.272C262.176 273.601 261.422 272.683 260.918 271.518C260.414 270.354 260.173 269.015 260.194 267.501C260.215 265.988 260.494 264.657 261.031 263.507C261.568 262.357 262.347 261.464 263.37 260.828C264.393 260.185 265.64 259.873 267.112 259.894C268.831 259.918 270.228 260.38 271.304 261.278C272.381 262.17 273.111 263.359 273.494 264.843L271.947 265.222C271.649 264.047 271.097 263.111 270.292 262.415C269.487 261.719 268.42 261.361 267.092 261.342C265.934 261.326 264.969 261.576 264.194 262.093C263.42 262.609 262.831 263.337 262.427 264.276C262.031 265.209 261.817 266.292 261.786 267.524C261.762 268.756 261.935 269.844 262.305 270.788C262.682 271.731 263.254 272.476 264.02 273.021C264.793 273.559 265.758 273.836 266.915 273.852C268.244 273.871 269.32 273.544 270.145 272.871C270.969 272.19 271.547 271.271 271.879 270.111L273.414 270.533C272.989 272.007 272.226 273.177 271.125 274.045C270.023 274.906 268.614 275.325 266.895 275.301ZM275.205 275.11L275.413 260.319L276.923 260.341L276.825 267.325L283.671 260.436L285.602 260.463L278.61 267.504L285.958 275.261L283.986 275.233L276.819 267.736L276.715 275.131L275.205 275.11ZM289.486 275.311L291.2 271.832L286.1 260.47L287.774 260.494L292.013 270.22L296.607 260.618L298.22 260.641L291.13 275.334L289.486 275.311Z" fill="#707070"/>
<path d="M61.6631 296.949L46.7236 296.738L46.9348 281.798L61.8743 282.009L61.6631 296.949Z" fill="#0A0A0A"/>
<path d="M61.4542 311.89L46.5146 311.679L46.7259 296.74L61.6654 296.951L61.4542 311.89Z" fill="#FF3800"/>
<path d="M76.3907 312.101L61.4512 311.89L61.6624 296.951L76.6019 297.162L76.3907 312.101Z" fill="#0A0A0A"/>
<path d="M60.0235 237.152L45.084 236.941L44.8728 251.88L59.8123 252.092L60.0235 237.152Z" fill="#0A0A0A"/>
<path d="M60.2325 222.215L45.293 222.003L45.0818 236.943L60.0213 237.154L60.2325 222.215Z" fill="#FF3800"/>
<path d="M75.169 222.429L60.2295 222.218L60.0183 237.158L74.9578 237.369L75.169 222.429Z" fill="#0A0A0A"/>
<path d="M340.53 300.89L355.47 301.101L355.681 286.162L340.741 285.95L340.53 300.89Z" fill="#0A0A0A"/>
<path d="M340.321 315.831L355.261 316.042L355.472 301.103L340.532 300.892L340.321 315.831Z" fill="#FF3800"/>
<path d="M325.386 315.62L340.325 315.832L340.536 300.892L325.597 300.681L325.386 315.62Z" fill="#0A0A0A"/>
<path d="M343.872 241.167L358.811 241.378L358.6 256.318L343.661 256.106L343.872 241.167Z" fill="#0A0A0A"/>
<path d="M344.081 226.229L359.02 226.44L358.809 241.38L343.869 241.169L344.081 226.229Z" fill="#FF3800"/>
<path d="M329.139 226.019L344.079 226.23L343.868 241.169L328.928 240.958L329.139 226.019Z" fill="#0A0A0A"/>
</g>
<defs>
<clipPath id="clip0_754_2187">
<rect width="398.426" height="398.426" fill="white" transform="translate(6.38965 0.280762) rotate(0.809961)"/>
</clipPath>
</defs>
</svg>
