<svg viewBox="0 0 548 512" fill="none" xmlns="http://www.w3.org/2000/svg">
<g clip-path="url(#clip0_1176_1274)">
<path d="M259.03 84.2689L221.078 61.4653L198.275 99.4169L236.226 122.221L259.03 84.2689Z" fill="#F8F8FF"/>
<path d="M296.971 107.066L259.019 84.2622L236.215 122.214L274.167 145.017L296.971 107.066Z" fill="#FF3800"/>
<path d="M372.874 152.675L334.923 129.871L312.119 167.823L350.071 190.627L372.874 152.675Z" fill="#F8F8FF"/>
<path d="M448.758 198.269L410.807 175.465L388.003 213.417L425.955 236.22L448.758 198.269Z" fill="#FF3800"/>
<path d="M486.712 221.073L448.76 198.27L425.957 236.221L463.908 259.025L486.712 221.073Z" fill="#F8F8FF"/>
<path d="M319.773 69.1124L281.822 46.3088L259.018 84.2604L296.97 107.064L319.773 69.1124Z" fill="#F8F8FF"/>
<path d="M357.723 91.9132L319.771 69.1096L296.967 107.061L334.919 129.865L357.723 91.9132Z" fill="#F8F8FF"/>
<path d="M433.607 137.515L395.655 114.711L372.852 152.663L410.803 175.466L433.607 137.515Z" fill="#F8F8FF"/>
<path d="M471.561 160.319L433.61 137.516L410.806 175.467L448.758 198.271L471.561 160.319Z" fill="#F8F8FF"/>
<path d="M198.288 99.402L160.337 76.5984L137.533 114.55L175.485 137.354L198.288 99.402Z" fill="#F8F8FF"/>
<path d="M236.238 122.206L198.286 99.4028L175.483 137.354L213.434 160.158L236.238 122.206Z" fill="#FF3800"/>
<path d="M463.92 259.007L425.968 236.204L403.164 274.155L441.116 296.959L463.92 259.007Z" fill="#FF3800"/>
<path d="M175.486 137.355L137.534 114.552L114.731 152.503L152.682 175.307L175.486 137.355Z" fill="#F8F8FF"/>
<path d="M327.273 228.558L289.321 205.755L266.518 243.706L304.469 266.51L327.273 228.558Z" fill="#FF3800"/>
<path d="M190.628 198.109L152.676 175.306L129.873 213.257L167.824 236.061L190.628 198.109Z" fill="#F8F8FF"/>
<path d="M266.517 243.707L228.565 220.903L205.762 258.855L243.713 281.659L266.517 243.707Z" fill="#FF3800"/>
<path d="M304.471 266.512L266.52 243.708L243.716 281.66L281.667 304.463L304.471 266.512Z" fill="#F8F8FF"/>
<path d="M342.406 289.305L304.454 266.501L281.65 304.453L319.602 327.256L342.406 289.305Z" fill="#FF3800"/>
<path d="M418.309 334.91L380.358 312.106L357.554 350.058L395.506 372.861L418.309 334.91Z" fill="#F8F8FF"/>
<path d="M129.88 213.246L91.9287 190.443L69.1251 228.394L107.077 251.198L129.88 213.246Z" fill="#F8F8FF"/>
<path d="M281.678 304.449L243.727 281.646L220.923 319.597L258.875 342.401L281.678 304.449Z" fill="#FF3800"/>
<path d="M107.751 250.562L69.3303 227.477L45.6035 266.965L84.0243 290.05L107.751 250.562Z" fill="#F8F8FF"/>
<path d="M145.031 274L107.08 251.197L84.276 289.148L122.228 311.952L145.031 274Z" fill="#FF3800"/>
<path d="M372.709 410.801L334.757 387.997L311.954 425.949L349.905 448.752L372.709 410.801Z" fill="#FF3800"/>
<path d="M122.225 311.946L84.2729 289.142L61.4693 327.094L99.4209 349.897L122.225 311.946Z" fill="#F8F8FF"/>
<path d="M160.164 334.746L122.213 311.943L99.409 349.894L137.361 372.698L160.164 334.746Z" fill="#FF3800"/>
<path d="M236.068 380.352L198.116 357.548L175.313 395.5L213.264 418.304L236.068 380.352Z" fill="#F8F8FF"/>
<path d="M311.957 425.95L274.005 403.146L251.202 441.098L289.153 463.901L311.957 425.95Z" fill="#FF3800"/>
<path d="M349.906 448.75L311.955 425.947L289.151 463.898L327.103 486.702L349.906 448.75Z" fill="#F8F8FF"/>
<path d="M137.371 372.684L99.4194 349.881L76.6158 387.832L114.567 410.636L137.371 372.684Z" fill="#F8F8FF"/>
<path d="M175.32 395.481L137.369 372.677L114.565 410.629L152.517 433.432L175.32 395.481Z" fill="#F8F8FF"/>
<path d="M251.209 441.079L213.258 418.275L190.454 456.227L228.406 479.03L251.209 441.079Z" fill="#F8F8FF"/>
<path d="M289.164 463.887L251.212 441.083L228.409 479.035L266.36 501.839L289.164 463.887Z" fill="#F8F8FF"/>
<path d="M501.854 281.804L463.903 259L441.099 296.952L479.051 319.756L501.854 281.804Z" fill="#F8F8FF"/>
<path d="M479.047 319.754L441.095 296.95L418.292 334.902L456.243 357.705L479.047 319.754Z" fill="#F8F8FF"/>
<path d="M433.451 395.644L395.5 372.841L372.696 410.792L410.648 433.596L433.451 395.644Z" fill="#F8F8FF"/>
<path d="M410.649 433.594L372.697 410.79L349.893 448.742L387.845 471.545L410.649 433.594Z" fill="#F8F8FF"/>
<rect x="197.227" y="97.7993" width="314.075" height="222.544" transform="rotate(31 197.227 97.7993)" fill="#F8F8FF"/>
<rect x="260.053" y="81.3892" width="222.544" height="317.664" transform="rotate(31 260.053 81.3892)" fill="#F8F8FF"/>
<path d="M189.926 203.603L201.006 185.161L216.221 194.302L205.141 212.745L201.657 210.652L210.783 195.462L202.535 190.507L193.409 205.696L189.926 203.603ZM207.455 214.135L224.171 199.079L229.371 202.203L223.926 224.031L220.34 221.876L225.091 202.595L225.757 202.995L211.041 216.29L207.455 214.135ZM213.145 212.325L215.099 209.072L224.833 214.92L222.878 218.173L213.145 212.325ZM226.221 225.41L237.301 206.968L245.088 211.646C245.267 211.754 245.501 211.906 245.79 212.102C246.092 212.296 246.35 212.485 246.563 212.672C247.562 213.504 248.245 214.408 248.612 215.384C248.987 216.365 249.087 217.378 248.912 218.423C248.743 219.46 248.347 220.495 247.727 221.528C247.106 222.561 246.371 223.398 245.522 224.038C244.686 224.674 243.747 225.057 242.705 225.187C241.671 225.321 240.557 225.145 239.361 224.659C239.102 224.55 238.813 224.411 238.495 224.244C238.178 224.076 237.934 223.941 237.763 223.838L233.46 221.253L229.705 227.503L226.221 225.41ZM235.414 218L239.564 220.493C239.743 220.601 239.944 220.71 240.168 220.821C240.392 220.932 240.609 221.016 240.819 221.073C241.365 221.227 241.856 221.231 242.292 221.087C242.733 220.933 243.111 220.701 243.425 220.39C243.753 220.076 244.017 219.753 244.218 219.42C244.418 219.087 244.577 218.706 244.695 218.277C244.827 217.845 244.854 217.402 244.778 216.95C244.706 216.488 244.474 216.053 244.081 215.643C243.933 215.484 243.757 215.331 243.554 215.186C243.351 215.041 243.159 214.914 242.98 214.807L238.83 212.314L235.414 218ZM247.158 237.989L256.284 222.8L250.469 219.306L252.424 216.053L267.536 225.133L265.582 228.386L259.768 224.893L250.642 240.082L247.158 237.989ZM258.514 244.812L269.595 226.369L273.078 228.462L268.523 236.044L276.771 241L281.326 233.418L284.81 235.511L273.729 253.953L270.246 251.86L274.816 244.253L266.569 239.297L261.998 246.905L258.514 244.812ZM277.325 256.113L288.405 237.671L300.444 244.904L298.49 248.157L289.934 243.017L287.564 246.962L294.583 251.178L292.628 254.431L285.61 250.215L282.763 254.953L291.318 260.093L289.364 263.346L277.325 256.113ZM292.434 265.191L303.514 246.748L311.301 251.427C311.48 251.534 311.714 251.686 312.002 251.883C312.305 252.076 312.563 252.266 312.776 252.452C313.775 253.285 314.458 254.189 314.824 255.165C315.199 256.145 315.3 257.158 315.125 258.204C314.955 259.241 314.56 260.275 313.939 261.309C313.318 262.342 312.583 263.178 311.734 263.818C310.898 264.455 309.959 264.838 308.917 264.967C307.884 265.102 306.769 264.926 305.574 264.44C305.314 264.331 305.026 264.192 304.708 264.024C304.39 263.857 304.146 263.722 303.975 263.619L299.672 261.034L295.917 267.284L292.434 265.191ZM301.627 257.781L305.776 260.274C305.955 260.381 306.157 260.491 306.381 260.602C306.604 260.713 306.821 260.797 307.031 260.854C307.578 261.008 308.069 261.012 308.505 260.867C308.945 260.714 309.323 260.482 309.638 260.171C309.966 259.857 310.23 259.533 310.43 259.2C310.63 258.867 310.789 258.486 310.907 258.058C311.039 257.626 311.067 257.183 310.99 256.73C310.919 256.269 310.686 255.833 310.294 255.423C310.145 255.264 309.969 255.112 309.766 254.967C309.563 254.822 309.372 254.695 309.193 254.587L305.043 252.094L301.627 257.781ZM316.777 280.339C314.933 279.231 313.581 277.873 312.723 276.265C311.873 274.662 311.519 272.922 311.66 271.043C311.81 269.169 312.459 267.275 313.609 265.363C314.758 263.45 316.124 261.988 317.708 260.976C319.301 259.969 321.004 259.464 322.819 259.462C324.641 259.465 326.475 260.02 328.319 261.128C330.436 262.401 331.897 263.993 332.7 265.905C333.512 267.822 333.674 269.854 333.186 272.001L329.092 270.866C329.423 269.542 329.367 268.329 328.925 267.227C328.489 266.117 327.63 265.176 326.349 264.407C325.179 263.704 324.045 263.377 322.947 263.426C321.857 263.48 320.831 263.863 319.869 264.575C318.907 265.287 318.041 266.283 317.271 267.564C316.502 268.844 316.029 270.077 315.852 271.26C315.676 272.444 315.819 273.53 316.283 274.517C316.756 275.51 317.577 276.358 318.747 277.061C320.028 277.83 321.261 278.147 322.446 278.011C323.632 277.875 324.729 277.355 325.737 276.45L328.662 279.531C326.995 280.97 325.125 281.782 323.051 281.965C320.986 282.153 318.894 281.611 316.777 280.339ZM328.178 286.666L339.258 268.224L342.742 270.317L338.987 276.567L343.29 279.152C343.461 279.255 343.695 279.407 343.992 279.609C344.294 279.802 344.552 279.992 344.766 280.178C345.756 281.005 346.434 281.907 346.801 282.882C347.176 283.863 347.276 284.876 347.102 285.921C346.94 286.963 346.55 288.001 345.929 289.034C345.308 290.067 344.577 290.906 343.736 291.552C342.901 292.188 341.962 292.571 340.92 292.7C339.886 292.835 338.767 292.656 337.563 292.165C337.304 292.056 337.015 291.917 336.698 291.75C336.388 291.587 336.144 291.452 335.965 291.345L328.178 286.666ZM333.616 285.506L337.766 287.999C337.945 288.107 338.147 288.216 338.37 288.328C338.594 288.439 338.811 288.523 339.021 288.579C339.567 288.733 340.059 288.738 340.494 288.593C340.935 288.439 341.313 288.207 341.627 287.896C341.955 287.582 342.22 287.259 342.42 286.926C342.62 286.593 342.779 286.212 342.897 285.783C343.029 285.351 343.056 284.909 342.98 284.456C342.908 283.995 342.676 283.559 342.283 283.149C342.135 282.99 341.959 282.838 341.756 282.692C341.553 282.547 341.361 282.42 341.182 282.313L337.033 279.82L333.616 285.506ZM345.088 296.826L356.169 278.383L359.652 280.476L354.543 288.98L366.671 284.693L370.923 287.248L357.749 291.709L360.329 305.983L355.923 303.336L353.62 290.517L348.572 298.919L345.088 296.826ZM360.842 306.291L377.558 291.234L382.757 294.358L377.312 316.186L373.726 314.032L378.478 294.75L379.144 295.15L364.428 308.445L360.842 306.291ZM366.532 304.48L368.486 301.227L378.22 307.075L376.265 310.328L366.532 304.48ZM200.513 248.985C198.669 247.877 197.318 246.519 196.459 244.911C195.61 243.309 195.255 241.568 195.397 239.689C195.546 237.815 196.196 235.922 197.345 234.009C198.494 232.097 199.86 230.634 201.445 229.622C203.037 228.615 204.741 228.111 206.555 228.108C208.378 228.111 210.211 228.667 212.055 229.775C214.173 231.047 215.633 232.639 216.437 234.551C217.249 236.468 217.411 238.5 216.922 240.647L212.828 239.512C213.159 238.188 213.103 236.975 212.661 235.873C212.225 234.763 211.366 233.823 210.085 233.053C208.916 232.35 207.782 232.024 206.683 232.072C205.593 232.126 204.567 232.509 203.605 233.221C202.643 233.933 201.777 234.929 201.008 236.21C200.238 237.491 199.765 238.723 199.588 239.906C199.412 241.09 199.556 242.176 200.02 243.163C200.492 244.156 201.313 245.004 202.483 245.707C203.764 246.476 204.997 246.793 206.183 246.657C207.368 246.521 208.465 246.001 209.474 245.096L212.398 248.178C210.732 249.617 208.861 250.428 206.788 250.611C204.722 250.8 202.631 250.258 200.513 248.985ZM211.94 255.328L223.02 236.885L238.235 246.027L227.155 264.469L223.671 262.376L232.797 247.187L224.549 242.231L215.424 257.421L211.94 255.328ZM231.007 266.783L242.087 248.341L245.571 250.434L234.49 268.876L231.007 266.783ZM238.33 271.183L249.41 252.741L256.787 257.173C258.102 257.963 259.006 258.866 259.499 259.883C259.997 260.891 260.196 261.905 260.094 262.925C259.993 263.944 259.699 264.86 259.211 265.671C258.591 266.704 257.84 267.421 256.96 267.822C256.089 268.228 255.178 268.303 254.229 268.046L254.613 267.405C255.622 268.337 256.164 269.389 256.239 270.561C256.322 271.738 256.055 272.838 255.44 273.863C254.778 274.964 253.991 275.81 253.078 276.401C252.174 276.997 251.165 277.285 250.049 277.265C248.939 277.237 247.756 276.846 246.501 276.092L238.33 271.183ZM243.835 270.028L248.112 272.598C248.582 272.88 249.059 273.033 249.544 273.058C250.035 273.073 250.49 272.963 250.91 272.728C251.344 272.489 251.71 272.122 252.008 271.627C252.269 271.191 252.413 270.749 252.439 270.3C252.465 269.85 252.353 269.417 252.104 269C251.868 268.58 251.482 268.208 250.944 267.885L246.666 265.315L243.835 270.028ZM248.621 262.062L252.412 264.34C252.804 264.576 253.195 264.718 253.585 264.766C253.974 264.814 254.343 264.751 254.692 264.577C255.046 264.394 255.358 264.077 255.63 263.624C255.969 263.06 256.079 262.481 255.959 261.887C255.84 261.292 255.448 260.795 254.782 260.395L250.991 258.117L248.621 262.062ZM254.639 280.982L265.719 262.539L280.934 271.68L269.854 290.123L266.371 288.03L275.496 272.841L267.249 267.885L258.123 283.075L254.639 280.982ZM273.45 292.283L284.53 273.841L292.317 278.519C292.496 278.627 292.73 278.779 293.019 278.976C293.321 279.169 293.579 279.359 293.792 279.545C294.791 280.377 295.474 281.281 295.841 282.257C296.216 283.238 296.316 284.251 296.141 285.296C295.971 286.333 295.576 287.368 294.955 288.401C294.335 289.434 293.6 290.271 292.75 290.911C291.915 291.548 290.976 291.93 289.934 292.06C288.9 292.194 287.786 292.018 286.59 291.532C286.33 291.423 286.042 291.284 285.724 291.117C285.407 290.949 285.162 290.814 284.992 290.712L280.688 288.126L276.933 294.376L273.45 292.283ZM282.643 284.873L286.792 287.366C286.972 287.474 287.173 287.583 287.397 287.695C287.621 287.806 287.838 287.89 288.048 287.946C288.594 288.1 289.085 288.105 289.521 287.96C289.962 287.806 290.339 287.574 290.654 287.263C290.982 286.949 291.246 286.626 291.446 286.293C291.646 285.96 291.805 285.579 291.924 285.15C292.055 284.718 292.083 284.276 292.006 283.823C291.935 283.362 291.703 282.926 291.31 282.516C291.162 282.357 290.986 282.205 290.783 282.059C290.579 281.914 290.388 281.787 290.209 281.68L286.059 279.187L282.643 284.873ZM287.303 300.606L304.018 285.549L309.218 288.673L303.773 310.501L300.187 308.347L304.939 289.065L305.605 289.465L290.889 302.76L287.303 300.606ZM292.992 298.795L294.947 295.542L304.68 301.39L302.726 304.643L292.992 298.795ZM318.181 323.341L320.028 320.268L306.068 311.88L317.149 293.438L320.632 295.531L311.399 310.9L319.8 315.947L328.726 301.091L332.21 303.184L323.284 318.04L325.358 319.287L321.665 325.434L318.181 323.341ZM339.13 331.744L335.646 329.651L339.401 323.401L335.098 320.816L333.623 319.79C332.137 318.549 331.339 317.151 331.227 315.597C331.12 314.033 331.531 312.479 332.46 310.934C333.08 309.901 333.809 309.066 334.644 308.429C335.494 307.789 336.435 307.402 337.469 307.267C338.502 307.133 339.621 307.311 340.825 307.802C341.098 307.908 341.387 308.047 341.691 308.218C342 308.38 342.244 308.516 342.423 308.623L350.21 313.302L339.13 331.744ZM328.731 325.496L324.786 323.126L333.706 317.33L336.877 320.176L328.731 325.496ZM341.356 320.148L344.772 314.462L340.623 311.969C340.443 311.861 340.242 311.751 340.018 311.64C339.795 311.529 339.578 311.445 339.368 311.389C338.821 311.235 338.327 311.234 337.886 311.388C337.451 311.533 337.069 311.762 336.741 312.077C336.426 312.387 336.169 312.709 335.969 313.042C335.769 313.375 335.603 313.758 335.471 314.19C335.353 314.618 335.33 315.063 335.401 315.525C335.478 315.977 335.712 316.409 336.105 316.819C336.254 316.978 336.429 317.13 336.633 317.275C336.836 317.421 337.027 317.547 337.206 317.655L341.356 320.148Z" fill="#0A0A0A"/>
<path d="M141.549 284.569L143.564 281.215C144.057 281.511 144.528 281.626 144.975 281.559C145.426 281.487 145.856 281.29 146.265 280.968C146.674 280.646 147.075 280.252 147.467 279.785C147.863 279.312 148.251 278.826 148.631 278.327C149.182 277.596 149.7 276.88 150.184 276.18C150.674 275.484 151.171 274.756 151.675 273.997C152.186 273.241 152.746 272.415 153.356 271.519L161.169 276.226L154.297 287.663L155.204 288.208L153.189 291.563L151.903 290.791L153.173 288.677L144.113 283.234L142.843 285.347L141.549 284.569ZM146.038 282.701L153.003 286.886L159.129 276.69L153.816 273.486C153.351 274.181 152.899 274.852 152.462 275.5C152.025 276.148 151.578 276.798 151.122 277.451C150.666 278.104 150.178 278.777 149.657 279.471C149.187 280.107 148.756 280.651 148.365 281.103C147.973 281.555 147.591 281.912 147.217 282.175C146.85 282.442 146.457 282.617 146.038 282.701ZM155.159 289.871L155.852 288.717C156.158 288.941 156.432 289.089 156.675 289.164C156.921 289.232 157.169 289.205 157.418 289.083C157.673 288.965 157.969 288.739 158.305 288.405C158.644 288.066 159.056 287.607 159.541 287.027C160.068 286.401 160.577 285.768 161.065 285.127C161.56 284.489 162.049 283.836 162.531 283.167C163.022 282.496 163.512 281.799 164.001 281.079C164.49 280.358 164.992 279.609 165.507 278.832L173.51 283.64L165.893 296.319L164.598 295.542L171.47 284.104L166.011 280.824C165.607 281.404 165.194 281.999 164.772 282.608C164.356 283.221 163.919 283.841 163.462 284.469C163.01 285.101 162.532 285.744 162.027 286.399C161.531 287.052 161 287.716 160.435 288.391C160.002 288.898 159.577 289.353 159.158 289.757C158.746 290.164 158.327 290.463 157.9 290.655C157.48 290.849 157.041 290.894 156.586 290.788C156.136 290.685 155.661 290.38 155.159 289.871ZM176.639 302.776L175.353 302.003L178.247 297.187L174.029 294.653L173.644 294.278C172.814 293.531 172.358 292.654 172.276 291.647C172.195 290.639 172.441 289.657 173.016 288.7C173.415 288.037 173.898 287.504 174.467 287.103C175.036 286.702 175.657 286.46 176.33 286.377C177.012 286.291 177.712 286.396 178.429 286.691C178.611 286.761 178.78 286.838 178.936 286.924C179.096 287.004 179.238 287.081 179.361 287.155L184.256 290.097L176.639 302.776ZM168.961 298.163L167.473 297.269L173.605 293.284L174.561 294.505L168.961 298.163ZM178.987 295.954L182.225 290.566L178.65 288.418C178.55 288.358 178.424 288.29 178.27 288.213C178.125 288.135 177.977 288.069 177.824 288.018C177.333 287.85 176.868 287.814 176.427 287.909C175.993 288.008 175.597 288.201 175.24 288.49C174.886 288.773 174.591 289.111 174.355 289.504C174.118 289.897 173.958 290.317 173.875 290.762C173.791 291.207 173.808 291.644 173.925 292.074C174.048 292.507 174.299 292.902 174.677 293.256C174.794 293.367 174.92 293.47 175.053 293.567C175.193 293.667 175.313 293.747 175.413 293.807L178.987 295.954ZM181.931 305.956L189.549 293.276L190.843 294.054L187.41 299.768L194.419 303.979L197.852 298.265L199.138 299.037L191.52 311.716L190.235 310.944L193.673 305.221L186.664 301.01L183.226 306.733L181.931 305.956ZM192.754 312.458L204.739 302.403L206.456 303.434L203.206 318.737L201.858 317.928L204.895 303.479L205.406 303.786L194.101 313.267L192.754 312.458ZM196.546 310.554L197.276 309.339L203.827 313.275L203.097 314.49L196.546 310.554ZM209.074 322.622C207.812 321.864 206.914 320.945 206.38 319.866C205.85 318.78 205.66 317.607 205.81 316.347C205.96 315.087 206.424 313.809 207.204 312.511C207.983 311.214 208.894 310.203 209.936 309.479C210.978 308.755 212.101 308.376 213.305 308.34C214.512 308.298 215.747 308.657 217.009 309.415C218.482 310.3 219.458 311.402 219.937 312.72C220.419 314.032 220.452 315.426 220.036 316.902L218.509 316.452C218.842 315.286 218.836 314.199 218.49 313.193C218.144 312.186 217.402 311.341 216.263 310.656C215.271 310.06 214.311 309.791 213.382 309.848C212.453 309.905 211.578 310.238 210.756 310.847C209.944 311.454 209.215 312.282 208.569 313.331C207.928 314.384 207.53 315.412 207.376 316.413C207.227 317.419 207.347 318.349 207.735 319.206C208.133 320.06 208.828 320.785 209.82 321.381C210.959 322.065 212.054 322.324 213.105 322.156C214.16 321.983 215.122 321.479 215.991 320.643L217.106 321.78C215.998 322.84 214.749 323.468 213.361 323.664C211.976 323.855 210.547 323.508 209.074 322.622ZM219.526 328.543L227.144 315.863L228.438 316.641L224.841 322.628L234.223 320.117L235.878 321.111L226.293 323.681L228.745 334.081L227.054 333.066L224.629 322.981L220.82 329.32L219.526 328.543ZM228.749 334.084L229.442 332.93C229.747 333.154 230.022 333.302 230.265 333.377C230.511 333.445 230.759 333.418 231.008 333.296C231.263 333.178 231.558 332.952 231.895 332.618C232.234 332.279 232.646 331.82 233.13 331.24C233.658 330.614 234.166 329.981 234.655 329.34C235.15 328.702 235.638 328.049 236.12 327.38C236.612 326.709 237.102 326.012 237.591 325.292C238.08 324.571 238.582 323.822 239.096 323.045L247.1 327.853L239.482 340.532L238.188 339.755L245.06 328.317L239.601 325.037C239.197 325.617 238.783 326.212 238.361 326.821C237.945 327.434 237.509 328.054 237.051 328.682C236.6 329.314 236.122 329.957 235.616 330.612C235.12 331.265 234.59 331.929 234.024 332.604C233.592 333.111 233.166 333.566 232.748 333.97C232.336 334.377 231.916 334.676 231.49 334.868C231.069 335.062 230.631 335.107 230.176 335.001C229.726 334.898 229.25 334.593 228.749 334.084ZM241.767 341.905L249.385 329.226L250.679 330.003L243.061 342.683L241.767 341.905ZM250.508 347.516C249.258 346.765 248.375 345.835 247.859 344.726C247.342 343.617 247.161 342.43 247.315 341.164C247.468 339.898 247.927 338.656 248.691 337.437C249.498 336.133 250.423 335.119 251.465 334.395C252.513 333.674 253.629 333.294 254.811 333.253C256 333.216 257.211 333.568 258.443 334.309C259.87 335.166 260.841 336.269 261.357 337.617C261.873 338.966 261.871 340.431 261.352 342.012L259.915 341.413C260.294 340.25 260.296 339.157 259.921 338.132C259.546 337.108 258.819 336.264 257.74 335.6C256.831 335.038 255.937 334.764 255.057 334.779C254.178 334.794 253.344 335.052 252.555 335.553C251.773 336.057 251.074 336.755 250.458 337.648L255.107 340.441L254.361 341.682L249.712 338.889C249.403 339.47 249.161 340.072 248.987 340.694C248.816 341.311 248.767 341.977 248.841 342.692C248.913 343.462 249.17 344.152 249.611 344.761C250.062 345.367 250.627 345.882 251.307 346.307C252.309 346.925 253.344 347.171 254.41 347.045C255.483 346.922 256.45 346.456 257.311 345.648L258.387 346.749C257.649 347.472 256.843 347.983 255.969 348.281C255.104 348.576 254.207 348.66 253.277 348.533C252.347 348.405 251.424 348.066 250.508 347.516ZM257.619 351.429L265.237 338.75L266.531 339.528L263.098 345.242L270.107 349.453L273.54 343.738L274.826 344.511L267.208 357.19L265.922 356.418L269.361 350.694L262.352 346.484L258.914 352.207L257.619 351.429ZM272.695 360.486L279.566 349.049L275.137 346.388L275.883 345.146L286.036 351.246L285.29 352.487L280.861 349.826L273.989 361.264L272.695 360.486ZM289.066 370.323L287.763 369.54L294.011 359.141L280.781 365.345L279.478 364.562L287.095 351.883L288.398 352.665L282.156 363.055L295.381 356.861L296.684 357.643L289.066 370.323ZM297.177 368.401L297.844 367.292L305.24 371.735L304.573 372.845L297.177 368.401ZM315.61 388.511L316.599 386.865L306.685 380.908L314.303 368.229L315.597 369.007L308.699 380.488L315.972 384.858L322.801 373.491L324.096 374.268L317.266 385.635L318.613 386.445L316.905 389.289L315.61 388.511ZM318.956 388.28L326.573 375.601L334.498 380.362L333.752 381.604L327.122 377.62L324.487 382.005L330.061 385.354L329.315 386.595L323.741 383.247L320.996 387.816L327.626 391.8L326.88 393.041L318.956 388.28ZM181.818 330.386L189.436 317.707L199.148 323.542L191.53 336.221L190.236 335.444L197.108 324.006L189.984 319.726L183.113 331.164L181.818 330.386ZM192.761 336.961L204.746 326.906L206.463 327.937L203.213 343.24L201.866 342.431L204.902 327.982L205.413 328.289L194.108 337.77L192.761 336.961ZM196.553 335.057L197.283 333.842L203.834 337.778L203.104 338.993L196.553 335.057ZM204.45 343.984L212.068 331.305L216.964 334.246C217.087 334.32 217.221 334.409 217.367 334.512C217.522 334.613 217.67 334.726 217.811 334.851C218.414 335.349 218.835 335.918 219.075 336.557C219.323 337.193 219.401 337.855 219.308 338.542C219.22 339.233 218.977 339.91 218.579 340.573C218.184 341.23 217.702 341.76 217.133 342.161C216.565 342.562 215.939 342.806 215.257 342.891C214.584 342.974 213.889 342.868 213.171 342.573C212.999 342.501 212.83 342.423 212.664 342.34C212.504 342.26 212.363 342.183 212.24 342.109L208.638 339.945L205.745 344.761L204.45 343.984ZM209.379 338.712L212.945 340.855C213.051 340.918 213.178 340.987 213.325 341.059C213.473 341.132 213.624 341.195 213.776 341.246C214.267 341.414 214.73 341.448 215.164 341.349C215.605 341.255 216.002 341.066 216.356 340.783C216.715 340.504 217.013 340.167 217.249 339.774C217.486 339.381 217.643 338.96 217.72 338.511C217.808 338.06 217.79 337.618 217.667 337.185C217.549 336.755 217.302 336.362 216.924 336.008C216.807 335.897 216.679 335.797 216.542 335.706C216.408 335.61 216.288 335.53 216.183 335.466L212.617 333.324L209.379 338.712ZM218.098 352.184L224.97 340.746L220.541 338.085L221.287 336.844L231.439 342.943L230.694 344.184L226.265 341.524L219.393 352.961L218.098 352.184ZM224.881 356.259L232.499 343.58L233.794 344.357L230.36 350.072L237.369 354.283L240.802 348.568L242.088 349.341L234.47 362.02L233.185 361.247L236.623 355.524L229.614 351.313L226.176 357.036L224.881 356.259ZM236.585 363.29L244.202 350.611L252.127 355.372L251.381 356.613L244.751 352.63L242.116 357.015L247.69 360.364L246.944 361.605L241.37 358.256L238.625 362.826L245.255 366.81L244.509 368.051L236.585 363.29ZM246.276 369.112L253.893 356.433L258.789 359.375C258.912 359.449 259.046 359.537 259.192 359.641C259.347 359.742 259.495 359.855 259.636 359.979C260.239 360.478 260.66 361.046 260.9 361.685C261.148 362.322 261.226 362.984 261.133 363.671C261.045 364.361 260.803 365.038 260.404 365.702C260.009 366.359 259.527 366.888 258.959 367.29C258.39 367.691 257.764 367.934 257.082 368.02C256.409 368.103 255.714 367.996 254.996 367.701C254.824 367.63 254.655 367.552 254.489 367.468C254.33 367.389 254.188 367.311 254.065 367.237L250.464 365.074L247.57 369.89L246.276 369.112ZM251.204 363.841L254.77 365.984C254.876 366.047 255.003 366.115 255.151 366.188C255.298 366.261 255.449 366.323 255.601 366.375C256.092 366.542 256.555 366.577 256.99 366.478C257.43 366.383 257.827 366.194 258.181 365.912C258.54 365.632 258.838 365.296 259.074 364.903C259.311 364.509 259.468 364.088 259.546 363.64C259.633 363.189 259.615 362.747 259.492 362.313C259.375 361.883 259.127 361.491 258.749 361.136C258.632 361.026 258.504 360.925 258.367 360.835C258.233 360.738 258.113 360.658 258.008 360.595L254.442 358.452L251.204 363.841ZM266.14 381.047L264.837 380.264L271.084 369.865L257.854 376.069L256.551 375.286L264.169 362.607L265.472 363.39L259.23 373.78L272.454 367.585L273.758 368.368L266.14 381.047Z" fill="#707070"/>
<path d="M104.524 284.941L91.7168 277.246L99.412 264.439L112.219 272.134L104.524 284.941Z" fill="#0A0A0A"/>
<path d="M96.826 297.745L84.019 290.05L91.7142 277.243L104.521 284.938L96.826 297.745Z" fill="#FF3800"/>
<path d="M109.635 305.441L96.8279 297.746L104.523 284.939L117.33 292.634L109.635 305.441Z" fill="#0A0A0A"/>
<path d="M133.167 232.428L120.36 224.733L112.665 237.54L125.472 245.235L133.167 232.428Z" fill="#0A0A0A"/>
<path d="M140.865 219.62L128.058 211.925L120.362 224.732L133.169 232.427L140.865 219.62Z" fill="#FF3800"/>
<path d="M153.674 227.316L140.867 219.621L133.172 232.428L145.979 240.123L153.674 227.316Z" fill="#0A0A0A"/>
<path d="M343.585 428.583L356.392 436.278L364.087 423.471L351.28 415.776L343.585 428.583Z" fill="#0A0A0A"/>
<path d="M335.887 441.387L348.694 449.082L356.389 436.275L343.582 428.58L335.887 441.387Z" fill="#FF3800"/>
<path d="M323.077 433.691L335.884 441.386L343.579 428.58L330.772 420.884L323.077 433.691Z" fill="#0A0A0A"/>
<path d="M376.496 378.637L389.303 386.332L381.608 399.139L368.801 391.444L376.496 378.637Z" fill="#0A0A0A"/>
<path d="M384.194 365.829L397 373.524L389.305 386.331L376.498 378.636L384.194 365.829Z" fill="#FF3800"/>
<path d="M371.384 358.133L384.191 365.828L376.495 378.635L363.689 370.94L371.384 358.133Z" fill="#0A0A0A"/>
</g>
<defs>
<clipPath id="clip0_1176_1274">
<rect width="399" height="399" fill="white" transform="translate(205.5 0.333374) rotate(31)"/>
</clipPath>
</defs>
</svg>
