<svg width="282" height="282" viewBox="0 0 282 282" fill="none" xmlns="http://www.w3.org/2000/svg">
<g clip-path="url(#clip0_1490_1718)">
<path d="M93.3708 36.3555L67.1906 31.2666L62.1016 57.4469L88.2819 62.5358L93.3708 36.3555Z" fill="#F8F8FF"/>
<path d="M119.545 41.4444L93.3643 36.3555L88.2753 62.5357L114.456 67.6247L119.545 41.4444Z" fill="#FF3800"/>
<path d="M171.906 51.6223L145.725 46.5333L140.637 72.7136L166.817 77.8025L171.906 51.6223Z" fill="#F8F8FF"/>
<path d="M224.251 61.7962L198.071 56.7073L192.982 82.8875L219.162 87.9765L224.251 61.7962Z" fill="#FF3800"/>
<path d="M250.433 66.8871L224.252 61.7982L219.164 87.9785L245.344 93.0674L250.433 66.8871Z" fill="#F8F8FF"/>
<path d="M124.635 15.2648L98.4551 10.1759L93.3662 36.3562L119.546 41.4451L124.635 15.2648Z" fill="#F8F8FF"/>
<path d="M150.813 20.3537L124.633 15.2648L119.544 41.445L145.724 46.534L150.813 20.3537Z" fill="#F8F8FF"/>
<path d="M203.16 30.5297L176.98 25.4408L171.891 51.6211L198.072 56.71L203.16 30.5297Z" fill="#F8F8FF"/>
<path d="M229.344 35.6186L203.164 30.5297L198.075 56.7099L224.255 61.7989L229.344 35.6186Z" fill="#F8F8FF"/>
<path d="M62.1062 57.4383L35.9259 52.3494L30.837 78.5296L57.0172 83.6186L62.1062 57.4383Z" fill="#F8F8FF"/>
<path d="M88.2818 62.5292L62.1016 57.4403L57.0126 83.6206L83.1929 88.7095L88.2818 62.5292Z" fill="#FF3800"/>
<path d="M245.348 93.0588L219.167 87.9698L214.078 114.15L240.259 119.239L245.348 93.0588Z" fill="#FF3800"/>
<path d="M57.0172 83.6159L30.8369 78.527L25.748 104.707L51.9283 109.796L57.0172 83.6159Z" fill="#F8F8FF"/>
<path d="M161.728 103.974L135.547 98.8846L130.459 125.065L156.639 130.154L161.728 103.974Z" fill="#FF3800"/>
<path d="M78.1059 114.888L51.9257 109.799L46.8367 135.98L73.017 141.069L78.1059 114.888Z" fill="#F8F8FF"/>
<path d="M130.457 125.062L104.277 119.973L99.188 146.154L125.368 151.243L130.457 125.062Z" fill="#FF3800"/>
<path d="M156.637 130.151L130.457 125.062L125.368 151.243L151.548 156.332L156.637 130.151Z" fill="#F8F8FF"/>
<path d="M182.809 135.238L156.628 130.149L151.539 156.33L177.72 161.418L182.809 135.238Z" fill="#FF3800"/>
<path d="M235.17 145.416L208.99 140.327L203.901 166.507L230.081 171.596L235.17 145.416Z" fill="#F8F8FF"/>
<path d="M46.8413 135.969L20.661 130.88L15.5721 157.061L41.7523 162.15L46.8413 135.969Z" fill="#F8F8FF"/>
<path d="M151.554 156.323L125.374 151.234L120.285 177.414L146.465 182.503L151.554 156.323Z" fill="#FF3800"/>
<path d="M42.0011 161.654L15.4972 156.502L10.2022 183.742L36.7062 188.894L42.0011 161.654Z" fill="#F8F8FF"/>
<path d="M67.9342 167.238L41.7539 162.149L36.665 188.329L62.8452 193.418L67.9342 167.238Z" fill="#FF3800"/>
<path d="M224.99 197.765L198.81 192.677L193.721 218.857L219.901 223.946L224.99 197.765Z" fill="#FF3800"/>
<path d="M62.8431 193.419L36.6628 188.33L31.5739 214.511L57.7542 219.6L62.8431 193.419Z" fill="#F8F8FF"/>
<path d="M89.011 198.506L62.8307 193.417L57.7418 219.598L83.922 224.687L89.011 198.506Z" fill="#FF3800"/>
<path d="M141.376 208.682L115.196 203.593L110.107 229.774L136.287 234.862L141.376 208.682Z" fill="#F8F8FF"/>
<path d="M193.725 218.862L167.545 213.773L162.456 239.953L188.637 245.042L193.725 218.862Z" fill="#FF3800"/>
<path d="M219.905 223.949L193.725 218.86L188.636 245.04L214.816 250.129L219.905 223.949Z" fill="#F8F8FF"/>
<path d="M83.9278 224.672L57.7476 219.583L52.6586 245.764L78.8389 250.852L83.9278 224.672Z" fill="#F8F8FF"/>
<path d="M110.105 229.763L83.925 224.674L78.8361 250.854L105.016 255.943L110.105 229.763Z" fill="#F8F8FF"/>
<path d="M162.457 239.941L136.276 234.852L131.188 261.032L157.368 266.121L162.457 239.941Z" fill="#F8F8FF"/>
<path d="M188.638 245.028L162.458 239.939L157.369 266.119L183.549 271.208L188.638 245.028Z" fill="#F8F8FF"/>
<path d="M271.517 98.1458L245.337 93.0569L240.248 119.237L266.428 124.326L271.517 98.1458Z" fill="#F8F8FF"/>
<path d="M266.428 124.322L240.248 119.233L235.159 145.413L261.34 150.502L266.428 124.322Z" fill="#F8F8FF"/>
<path d="M256.254 176.675L230.074 171.586L224.985 197.766L251.166 202.855L256.254 176.675Z" fill="#F8F8FF"/>
<path d="M251.166 202.854L224.985 197.766L219.896 223.946L246.077 229.035L251.166 202.854Z" fill="#F8F8FF"/>
<rect x="61.1779" y="56.7506" width="189.189" height="134.054" transform="rotate(11 61.1779 56.7506)" fill="#F8F8FF"/>
<rect x="93.3568" y="34.5137" width="134.054" height="191.351" transform="rotate(11 93.3568 34.5137)" fill="#F8F8FF"/>
<path d="M69.23 105.354L71.9771 91.2187L83.6389 93.4851L80.8919 107.621L78.2218 107.102L80.4843 95.4595L74.1626 94.231L71.9001 105.873L69.23 105.354ZM89.6571 109.63C88.2435 109.355 87.0828 108.81 86.1749 107.995C85.2735 107.182 84.6522 106.168 84.3109 104.954C83.9761 103.741 83.9511 102.402 84.236 100.936C84.5209 99.4699 85.0457 98.2374 85.8103 97.2382C86.5815 96.2403 87.5373 95.533 88.6778 95.1163C89.8248 94.7008 91.105 94.6304 92.5186 94.9051C93.9322 95.1798 95.0896 95.7239 95.991 96.5375C96.8989 97.3523 97.5202 98.3661 97.855 99.5789C98.1963 100.793 98.2245 102.133 97.9397 103.599C97.6548 105.065 97.1267 106.297 96.3555 107.295C95.5909 108.294 94.6351 109.001 93.4881 109.417C92.3476 109.833 91.0706 109.904 89.6571 109.63ZM90.1454 107.117C91.0395 107.304 91.823 107.256 92.4961 106.972C93.1692 106.689 93.7243 106.209 94.1612 105.534C94.6047 104.859 94.9218 104.031 95.1125 103.05C95.3033 102.068 95.3181 101.188 95.157 100.409C95.0024 99.6324 94.6661 98.9864 94.1482 98.4715C93.6302 97.9565 92.9243 97.6054 92.0302 97.4181C91.1362 97.2308 90.3527 97.2788 89.6796 97.5623C89.0065 97.8458 88.4482 98.3247 88.0047 98.9992C87.5678 99.6749 87.2539 100.504 87.0631 101.485C86.8724 102.467 86.8543 103.346 87.0089 104.123C87.17 104.902 87.5096 105.548 88.0275 106.063C88.5454 106.578 89.2514 106.929 90.1454 107.117ZM96.8991 113.176L97.8415 108.327C98.2669 108.41 98.6472 108.375 98.9824 108.223C99.3254 108.065 99.6293 107.812 99.8941 107.463C100.16 107.107 100.4 106.678 100.613 106.176C100.826 105.674 101.018 105.121 101.19 104.516C101.408 103.743 101.617 102.982 101.817 102.234C102.018 101.478 102.224 100.696 102.436 99.8885C102.648 99.0741 102.88 98.1955 103.131 97.2528L112.512 99.0961L110.249 110.738L111.329 110.948L110.387 115.797L107.717 115.279L108.175 112.923L100.027 111.339L99.5692 113.695L96.8991 113.176ZM101.827 109.102L107.579 110.219L109.357 101.071L105.081 100.219C104.909 100.858 104.754 101.446 104.616 101.983C104.484 102.521 104.345 103.064 104.198 103.613C104.05 104.162 103.877 104.773 103.678 105.448C103.479 106.122 103.304 106.675 103.152 107.108C103.001 107.533 102.825 107.897 102.624 108.197C102.43 108.499 102.164 108.8 101.827 109.102ZM113.001 113.861L115.748 99.725L121.402 100.824C122.41 101.02 123.185 101.381 123.728 101.907C124.272 102.428 124.629 103.02 124.799 103.684C124.969 104.349 124.993 104.992 124.872 105.614C124.718 106.406 124.411 107.028 123.949 107.482C123.494 107.937 122.938 108.192 122.282 108.248L122.378 107.757C123.225 108.112 123.807 108.65 124.122 109.37C124.444 110.091 124.528 110.844 124.376 111.63C124.211 112.474 123.91 113.186 123.471 113.766C123.039 114.348 122.47 114.76 121.764 115.003C121.059 115.24 120.226 115.265 119.264 115.078L113.001 113.861ZM116.199 111.874L119.477 112.511C119.837 112.581 120.173 112.568 120.483 112.472C120.795 112.37 121.056 112.197 121.267 111.952C121.485 111.703 121.631 111.388 121.705 111.009C121.77 110.675 121.759 110.364 121.672 110.075C121.586 109.787 121.416 109.54 121.164 109.335C120.92 109.124 120.592 108.979 120.179 108.899L116.901 108.262L116.199 111.874ZM117.385 105.768L120.291 106.333C120.592 106.392 120.87 106.391 121.126 106.332C121.382 106.273 121.6 106.149 121.779 105.96C121.96 105.764 122.084 105.493 122.151 105.146C122.235 104.714 122.172 104.325 121.961 103.978C121.75 103.632 121.389 103.409 120.878 103.31L117.973 102.745L117.385 105.768ZM125.698 116.328L128.445 102.193L131.115 102.711L128.368 116.847L125.698 116.328ZM131.311 117.419L134.058 103.283L136.767 103.81L134.936 113.234L142.912 105.004L145.622 105.531L142.874 119.666L140.165 119.14L141.997 109.716L134.02 117.945L131.311 117.419ZM140.02 103.219C139.444 103.108 138.947 102.865 138.531 102.492C138.114 102.119 137.811 101.67 137.621 101.144C137.432 100.618 137.393 100.067 137.505 99.4912L139.566 99.8918C139.509 100.186 139.561 100.458 139.723 100.707C139.893 100.95 140.126 101.101 140.42 101.158C140.715 101.215 140.983 101.162 141.225 100.999C141.475 100.83 141.629 100.598 141.686 100.304L143.748 100.704C143.636 101.28 143.393 101.777 143.02 102.193C142.647 102.61 142.198 102.913 141.672 103.103C141.146 103.292 140.595 103.331 140.02 103.219ZM148.892 120.836L151.155 109.193L146.698 108.327L147.183 105.834L158.766 108.085L158.281 110.578L153.825 109.712L151.562 121.354L148.892 120.836ZM157.596 122.527L160.343 108.392L169.571 110.185L169.086 112.678L162.529 111.404L161.941 114.427L167.321 115.473L166.836 117.966L161.457 116.921L160.751 120.553L167.308 121.827L166.824 124.32L157.596 122.527ZM173.107 125.541L175.854 111.406L181.508 112.505C182.516 112.701 183.291 113.062 183.834 113.588C184.378 114.108 184.735 114.701 184.905 115.365C185.075 116.03 185.099 116.673 184.978 117.295C184.824 118.086 184.517 118.709 184.055 119.163C183.6 119.618 183.044 119.873 182.388 119.929L182.484 119.438C183.331 119.793 183.913 120.33 184.228 121.05C184.55 121.772 184.634 122.525 184.482 123.31C184.317 124.155 184.016 124.867 183.577 125.447C183.145 126.029 182.576 126.441 181.87 126.684C181.165 126.921 180.332 126.945 179.37 126.759L173.107 125.541ZM176.305 123.555L179.583 124.192C179.943 124.262 180.279 124.249 180.589 124.153C180.901 124.051 181.162 123.878 181.373 123.633C181.591 123.384 181.737 123.069 181.811 122.689C181.876 122.356 181.865 122.045 181.778 121.756C181.692 121.468 181.522 121.221 181.27 121.016C181.026 120.805 180.698 120.66 180.285 120.58L177.007 119.943L176.305 123.555ZM177.491 117.449L180.397 118.014C180.698 118.072 180.976 118.072 181.232 118.013C181.488 117.954 181.706 117.83 181.885 117.641C182.066 117.445 182.19 117.174 182.257 116.827C182.341 116.395 182.278 116.006 182.067 115.659C181.856 115.313 181.495 115.09 180.984 114.99L178.079 114.426L177.491 117.449ZM184.626 127.78L191.692 114.484L195.678 115.258L197.25 130.233L194.501 129.699L193.076 116.485L193.586 116.584L187.374 128.314L184.626 127.78ZM187.79 125.339L188.274 122.845L195.735 124.295L195.25 126.789L187.79 125.339ZM199.009 130.575L201.756 116.44L204.426 116.959L202.164 128.601L206.208 129.387L208.471 117.744L211.141 118.263L208.878 129.906L212.922 130.692L215.185 119.049L217.855 119.568L215.108 133.704L199.009 130.575ZM218.052 134.276L220.799 120.14L223.469 120.659L220.722 134.795L218.052 134.276ZM95.3066 132.834L98.0537 118.698L109.716 120.964L106.968 135.1L104.298 134.581L106.561 122.939L100.239 121.71L97.9767 133.352L95.3066 132.834ZM109.724 135.635L112.471 121.5L118.44 122.66C118.577 122.686 118.759 122.729 118.986 122.786C119.22 122.839 119.426 122.899 119.602 122.967C120.421 123.262 121.058 123.674 121.512 124.204C121.972 124.735 122.267 125.349 122.396 126.047C122.527 126.738 122.515 127.479 122.361 128.271C122.207 129.063 121.937 129.757 121.549 130.354C121.169 130.946 120.666 131.402 120.04 131.722C119.421 132.043 118.68 132.187 117.817 132.155C117.629 132.146 117.415 132.125 117.177 132.092C116.939 132.059 116.755 132.03 116.624 132.005L113.325 131.364L112.394 136.154L109.724 135.635ZM113.81 128.871L116.99 129.489C117.128 129.515 117.28 129.538 117.446 129.557C117.612 129.575 117.768 129.579 117.913 129.566C118.292 129.538 118.602 129.428 118.842 129.237C119.084 129.04 119.269 128.807 119.396 128.54C119.53 128.267 119.622 128.003 119.672 127.748C119.721 127.493 119.734 127.217 119.71 126.92C119.694 126.618 119.61 126.334 119.459 126.067C119.308 125.793 119.062 125.572 118.721 125.404C118.592 125.338 118.446 125.282 118.285 125.238C118.124 125.193 117.975 125.157 117.837 125.13L114.657 124.512L113.81 128.871ZM128.503 139.59C127.089 139.316 125.928 138.771 125.02 137.956C124.119 137.142 123.498 136.129 123.156 134.915C122.822 133.702 122.797 132.362 123.082 130.897C123.366 129.431 123.891 128.198 124.656 127.199C125.427 126.201 126.383 125.494 127.523 125.077C128.67 124.661 129.951 124.591 131.364 124.866C132.778 125.141 133.935 125.685 134.836 126.498C135.744 127.313 136.366 128.327 136.7 129.54C137.042 130.754 137.07 132.094 136.785 133.56C136.5 135.026 135.972 136.257 135.201 137.255C134.436 138.254 133.481 138.962 132.334 139.377C131.193 139.794 129.916 139.865 128.503 139.59ZM128.991 137.077C129.885 137.265 130.669 137.217 131.342 136.933C132.015 136.65 132.57 136.17 133.007 135.494C133.45 134.82 133.767 133.992 133.958 133.01C134.149 132.029 134.164 131.149 134.003 130.37C133.848 129.593 133.512 128.947 132.994 128.432C132.476 127.917 131.77 127.566 130.876 127.379C129.982 127.191 129.198 127.24 128.525 127.523C127.852 127.806 127.294 128.285 126.85 128.96C126.413 129.636 126.099 130.464 125.909 131.446C125.718 132.428 125.7 133.307 125.854 134.084C126.016 134.862 126.355 135.509 126.873 136.024C127.391 136.539 128.097 136.89 128.991 137.077ZM135.745 143.137L136.687 138.288C137.112 138.37 137.493 138.336 137.828 138.183C138.171 138.026 138.475 137.773 138.74 137.423C139.006 137.068 139.245 136.639 139.458 136.137C139.671 135.635 139.864 135.082 140.036 134.477C140.254 133.704 140.463 132.943 140.662 132.194C140.864 131.439 141.07 130.657 141.281 129.849C141.494 129.035 141.726 128.156 141.977 127.213L151.357 129.057L149.095 140.699L150.175 140.909L149.232 145.758L146.562 145.239L147.02 142.883L138.873 141.3L138.415 143.656L135.745 143.137ZM140.672 139.062L146.425 140.18L148.203 131.031L143.927 130.18C143.755 130.819 143.6 131.407 143.462 131.944C143.33 132.482 143.19 133.025 143.043 133.574C142.896 134.122 142.722 134.734 142.524 135.408C142.325 136.083 142.149 136.636 141.997 137.068C141.847 137.494 141.671 137.857 141.47 138.158C141.275 138.46 141.009 138.761 140.672 139.062ZM150.865 143.631L157.931 130.334L161.917 131.109L163.489 146.084L160.74 145.55L159.315 132.335L159.825 132.434L153.613 144.165L150.865 143.631ZM154.029 141.189L154.513 138.696L161.974 140.146L161.489 142.639L154.029 141.189ZM164.07 146.197L170.469 140.004L167.19 132.134L170.351 132.748L173.128 139.848L174.356 133.526L177.026 134.045L175.798 140.367L181.031 134.824L184.192 135.438L178.204 141.507L181.818 149.646L178.539 149.009L175.492 141.938L174.279 148.181L171.609 147.662L172.822 141.419L167.349 146.834L164.07 146.197ZM183.582 149.989L186.329 135.853L188.999 136.372L186.252 150.508L183.582 149.989Z" fill="#0A0A0A"/>
<path d="M120.206 167.216L121.238 161.907L121.464 162.465C121.052 162.651 120.569 162.774 120.014 162.835C119.46 162.89 118.853 162.854 118.194 162.726C117.215 162.535 116.464 162.202 115.943 161.726C115.427 161.251 115.099 160.671 114.961 159.987C114.823 159.297 114.834 158.541 114.994 157.719L115.603 154.586L116.765 154.812L116.234 157.545C116.132 158.068 116.089 158.554 116.106 159.003C116.122 159.451 116.215 159.853 116.385 160.206C116.555 160.56 116.815 160.858 117.165 161.099C117.516 161.336 117.971 161.509 118.531 161.618C119.228 161.753 119.847 161.765 120.391 161.653C120.935 161.536 121.349 161.377 121.632 161.177L121.209 162.056L122.404 155.907L123.558 156.132L121.36 167.44L120.206 167.216ZM123.245 167.806L125.443 156.498L132.51 157.872L132.295 158.979L126.382 157.83L125.622 161.741L130.593 162.707L130.378 163.814L125.407 162.848L124.615 166.924L130.528 168.073L130.313 169.18L123.245 167.806ZM131.888 169.486L134.086 158.178L138.452 159.026C138.562 159.048 138.684 159.077 138.818 159.114C138.959 159.146 139.097 159.19 139.233 159.243C139.807 159.447 140.267 159.751 140.613 160.155C140.964 160.555 141.197 161.019 141.312 161.546C141.432 162.075 141.435 162.635 141.32 163.226C141.206 163.813 140.994 164.329 140.685 164.774C140.375 165.219 139.983 165.564 139.506 165.808C139.035 166.048 138.498 166.155 137.895 166.13C137.749 166.124 137.605 166.112 137.461 166.095C137.323 166.079 137.199 166.06 137.089 166.039L133.877 165.415L133.043 169.711L131.888 169.486ZM134.091 164.315L137.272 164.934C137.366 164.952 137.477 164.968 137.604 164.982C137.732 164.996 137.859 165.001 137.984 164.999C138.388 164.99 138.736 164.892 139.028 164.704C139.325 164.518 139.565 164.274 139.748 163.972C139.937 163.672 140.066 163.347 140.134 162.996C140.202 162.645 140.205 162.295 140.142 161.946C140.086 161.593 139.955 161.274 139.749 160.99C139.549 160.706 139.263 160.485 138.892 160.326C138.777 160.277 138.657 160.237 138.532 160.207C138.409 160.172 138.3 160.146 138.206 160.127L135.025 159.509L134.091 164.315ZM141.053 171.267L143.251 159.959L150.318 161.332L150.103 162.44L144.19 161.29L143.43 165.201L148.401 166.167L148.186 167.275L143.215 166.309L142.423 170.384L148.336 171.534L148.121 172.641L141.053 171.267ZM152.795 173.794C152.026 173.644 151.38 173.402 150.858 173.067C150.342 172.733 149.939 172.348 149.649 171.911C149.36 171.469 149.168 171.016 149.073 170.552L150.245 170.144C150.301 170.525 150.437 170.888 150.652 171.234C150.868 171.58 151.173 171.881 151.569 172.137C151.965 172.394 152.458 172.579 153.05 172.694C153.662 172.813 154.199 172.817 154.661 172.706C155.128 172.595 155.506 172.386 155.794 172.078C156.082 171.77 156.271 171.383 156.362 170.917C156.461 170.404 156.416 169.982 156.224 169.652C156.033 169.321 155.742 169.058 155.351 168.863C154.961 168.662 154.513 168.504 154.008 168.39C153.629 168.3 153.359 168.237 153.198 168.2C153.037 168.163 152.93 168.14 152.877 168.129C152.825 168.119 152.775 168.11 152.728 168.1L152.945 166.985C152.982 166.992 153.078 167.011 153.235 167.042C153.393 167.072 153.56 167.105 153.738 167.139C153.917 167.169 154.059 167.191 154.165 167.206C154.921 167.315 155.548 167.233 156.047 166.96C156.545 166.688 156.853 166.248 156.971 165.641C157.097 164.997 156.966 164.452 156.58 164.008C156.199 163.564 155.649 163.273 154.932 163.134C154.257 163.002 153.655 163.054 153.126 163.288C152.603 163.518 152.142 163.874 151.744 164.356L150.938 163.474C151.418 162.904 152.022 162.478 152.751 162.196C153.479 161.914 154.289 161.859 155.179 162.032C155.655 162.125 156.098 162.279 156.507 162.494C156.921 162.711 157.271 162.98 157.556 163.301C157.847 163.624 158.051 164 158.168 164.431C158.292 164.857 158.303 165.332 158.201 165.855C158.082 166.468 157.842 166.975 157.481 167.378C157.126 167.781 156.714 168.057 156.245 168.205C156.787 168.49 157.178 168.881 157.418 169.379C157.664 169.877 157.718 170.477 157.582 171.179C157.448 171.87 157.161 172.439 156.721 172.886C156.281 173.333 155.722 173.637 155.044 173.799C154.372 173.956 153.623 173.954 152.795 173.794ZM68.2868 173.425L70.4845 162.117L71.6389 162.341L69.4412 173.65L68.2868 173.425ZM71.4814 174.046L73.6791 162.738L74.8335 162.962L73.843 168.059L80.0941 169.274L81.0845 164.177L82.2311 164.4L80.0334 175.708L78.8869 175.485L79.8789 170.381L73.6278 169.166L72.6358 174.271L71.4814 174.046ZM81.0268 177.857L81.6083 174.865C82.0481 174.951 82.4228 174.909 82.7326 174.741C83.0433 174.568 83.3055 174.309 83.5191 173.965C83.7327 173.621 83.9209 173.226 84.0837 172.779C84.2476 172.327 84.402 171.868 84.5469 171.402C84.7555 170.72 84.9438 170.059 85.1119 169.418C85.2852 168.777 85.4552 168.112 85.6219 167.422C85.7939 166.733 85.9838 165.979 86.1917 165.161L93.1637 166.524L91.1812 176.726L91.9901 176.883L91.4086 179.875L90.2621 179.652L90.6283 177.767L82.5475 176.197L82.1812 178.082L81.0268 177.857ZM83.815 175.294L90.0268 176.501L91.7941 167.407L87.0523 166.478C86.8968 167.11 86.7453 167.722 86.5979 168.313C86.4505 168.903 86.2969 169.498 86.137 170.098C85.9771 170.697 85.799 171.32 85.6027 171.966C85.4282 172.557 85.2578 173.07 85.0918 173.505C84.9258 173.94 84.7411 174.303 84.5376 174.595C84.3395 174.888 84.0986 175.121 83.815 175.294ZM101.737 179.926L100.575 179.7L102.378 170.426L94.3476 178.49L93.1854 178.264L95.383 166.956L96.5453 167.182L94.7444 176.448L102.773 168.392L103.935 168.618L101.737 179.926ZM103.623 180.293L105.821 168.984L110.187 169.833C110.821 169.956 111.348 170.194 111.768 170.547C112.188 170.901 112.486 171.325 112.661 171.821C112.838 172.312 112.874 172.824 112.77 173.358C112.652 173.965 112.384 174.476 111.967 174.889C111.551 175.297 111.053 175.54 110.473 175.617L110.532 175.23C111.224 175.581 111.729 176.06 112.046 176.665C112.363 177.27 112.449 177.944 112.305 178.687C112.178 179.342 111.929 179.88 111.559 180.303C111.19 180.72 110.729 181.008 110.177 181.167C109.624 181.326 109.016 181.341 108.351 181.211L103.623 180.293ZM105.001 179.411L108.283 180.049C108.744 180.139 109.173 180.138 109.571 180.047C109.97 179.95 110.304 179.771 110.573 179.508C110.846 179.246 111.025 178.9 111.108 178.471C111.19 178.052 111.166 177.656 111.037 177.284C110.909 176.911 110.696 176.593 110.4 176.329C110.11 176.06 109.753 175.885 109.329 175.803L105.834 175.123L105.001 179.411ZM106.046 174.032L109.242 174.653C109.604 174.723 109.949 174.706 110.279 174.602C110.61 174.492 110.89 174.31 111.119 174.056C111.353 173.803 111.506 173.487 111.579 173.111C111.683 172.576 111.582 172.106 111.275 171.699C110.974 171.292 110.538 171.034 109.967 170.923L106.771 170.302L106.046 174.032ZM113.098 182.134L115.296 170.826L116.451 171.05L114.253 182.358L113.098 182.134ZM115.401 184.537L115.982 181.545C116.422 181.631 116.797 181.589 117.106 181.421C117.417 181.248 117.679 180.99 117.893 180.645C118.106 180.301 118.295 179.906 118.458 179.459C118.621 179.008 118.776 178.549 118.921 178.082C119.129 177.4 119.318 176.739 119.486 176.098C119.659 175.458 119.829 174.792 119.996 174.102C120.168 173.413 120.358 172.659 120.565 171.841L127.537 173.205L125.555 183.406L126.364 183.563L125.782 186.555L124.636 186.332L125.002 184.447L116.921 182.877L116.555 184.762L115.401 184.537ZM118.189 181.974L124.401 183.181L126.168 174.087L121.426 173.158C121.271 173.79 121.119 174.402 120.972 174.993C120.824 175.584 120.671 176.179 120.511 176.778C120.351 177.377 120.173 178 119.977 178.646C119.802 179.237 119.632 179.75 119.466 180.185C119.3 180.62 119.115 180.983 118.911 181.275C118.713 181.568 118.472 181.801 118.189 181.974ZM129.467 185.315L131.26 182.884L128.917 173.473L130.197 173.721L132.106 181.761L136.95 175.034L138.183 175.273L130.724 185.559L129.467 185.315ZM135.141 186.418L141.234 175.866L142.765 176.164L144.463 188.229L143.261 187.996L141.635 176.612L142.09 176.701L136.343 186.651L135.141 186.418ZM137.409 184.014L137.62 182.931L143.463 184.066L143.252 185.15L137.409 184.014ZM145.364 188.404L145.564 187.376C145.847 187.458 146.087 187.494 146.285 187.483C146.484 187.467 146.658 187.382 146.808 187.226C146.963 187.072 147.119 186.827 147.276 186.494C147.434 186.155 147.613 185.709 147.813 185.156C148.032 184.557 148.236 183.959 148.423 183.359C148.615 182.761 148.799 182.153 148.973 181.535C149.154 180.912 149.327 180.272 149.493 179.615C149.659 178.957 149.827 178.275 149.996 177.569L157.135 178.956L154.937 190.265L153.783 190.04L155.765 179.839L150.896 178.893C150.755 179.425 150.611 179.97 150.464 180.529C150.323 181.088 150.169 181.658 150.001 182.24C149.839 182.822 149.661 183.421 149.465 184.035C149.276 184.644 149.065 185.271 148.831 185.916C148.649 186.402 148.459 186.849 148.261 187.256C148.067 187.664 147.84 187.995 147.579 188.248C147.323 188.503 147.014 188.652 146.652 188.696C146.296 188.74 145.867 188.643 145.364 188.404ZM156.81 190.629L159.007 179.32L160.162 179.545L159.327 183.84L162.539 184.464C162.649 184.486 162.771 184.515 162.905 184.552C163.045 184.585 163.186 184.628 163.328 184.683C163.897 184.886 164.354 185.189 164.699 185.593C165.051 185.993 165.284 186.457 165.399 186.984C165.519 187.513 165.522 188.07 165.408 188.657C165.293 189.248 165.081 189.767 164.771 190.212C164.467 190.658 164.077 191.003 163.6 191.248C163.13 191.488 162.593 191.595 161.989 191.57C161.838 191.563 161.691 191.55 161.548 191.533C161.41 191.517 161.286 191.499 161.176 191.477L156.81 190.629ZM158.179 189.746L161.36 190.364C161.459 190.383 161.573 190.4 161.7 190.414C161.828 190.428 161.954 190.436 162.079 190.438C162.477 190.429 162.825 190.331 163.122 190.144C163.419 189.957 163.659 189.713 163.843 189.412C164.027 189.106 164.154 188.777 164.222 188.426C164.29 188.076 164.295 187.726 164.238 187.378C164.181 187.03 164.049 186.714 163.844 186.429C163.638 186.145 163.353 185.924 162.987 185.766C162.871 185.716 162.752 185.674 162.628 185.639C162.505 185.604 162.393 185.577 162.294 185.558L159.113 184.94L158.179 189.746ZM166.136 192.441L168.333 181.133L169.488 181.357L168.497 186.454L174.748 187.668L175.739 182.572L176.885 182.795L174.688 194.103L173.541 193.88L174.533 188.776L168.282 187.561L167.29 192.665L166.136 192.441ZM185.125 196.132L183.963 195.906L185.766 186.631L177.736 194.695L176.573 194.47L178.771 183.161L179.933 183.387L178.133 192.654L186.161 184.597L187.323 184.823L185.125 196.132ZM187.011 196.498L189.209 185.19L190.371 185.415L188.57 194.682L196.599 186.626L197.761 186.852L195.563 198.16L194.401 197.934L196.203 188.66L188.174 196.724L187.011 196.498ZM193.771 185.033C193.399 184.961 193.076 184.803 192.803 184.56C192.535 184.317 192.339 184.027 192.215 183.687C192.092 183.343 192.066 182.985 192.138 182.613L193.096 182.799C193.039 183.092 193.095 183.364 193.264 183.614C193.433 183.864 193.664 184.018 193.957 184.075C194.255 184.133 194.527 184.077 194.772 183.907C195.022 183.739 195.175 183.508 195.232 183.214L196.19 183.401C196.118 183.772 195.96 184.095 195.717 184.368C195.48 184.637 195.189 184.833 194.845 184.956C194.5 185.08 194.142 185.105 193.771 185.033ZM98.049 197.465L98.6305 194.473C99.0702 194.558 99.445 194.517 99.7547 194.349C100.065 194.176 100.328 193.917 100.541 193.573C100.755 193.228 100.943 192.833 101.106 192.386C101.27 191.935 101.424 191.476 101.569 191.01C101.778 190.327 101.966 189.666 102.134 189.025C102.307 188.385 102.477 187.72 102.644 187.03C102.816 186.34 103.006 185.587 103.214 184.769L110.186 186.132L108.203 196.333L109.012 196.49L108.431 199.482L107.284 199.259L107.65 197.375L99.5697 195.804L99.2034 197.689L98.049 197.465ZM100.837 194.901L107.049 196.109L108.816 187.015L104.075 186.085C103.919 186.718 103.767 187.329 103.62 187.92C103.473 188.511 103.319 189.106 103.159 189.705C102.999 190.304 102.821 190.927 102.625 191.573C102.45 192.164 102.28 192.677 102.114 193.112C101.948 193.547 101.763 193.911 101.56 194.202C101.362 194.495 101.121 194.728 100.837 194.901ZM118.76 199.534L117.597 199.308L119.4 190.033L111.37 198.097L110.208 197.872L112.405 186.563L113.567 186.789L111.767 196.056L119.795 187.999L120.957 188.225L118.76 199.534ZM124.22 200.839C123.45 200.69 122.805 200.447 122.283 200.112C121.767 199.778 121.363 199.393 121.073 198.956C120.784 198.514 120.592 198.061 120.498 197.598L121.669 197.19C121.726 197.57 121.862 197.933 122.077 198.279C122.292 198.625 122.598 198.927 122.993 199.183C123.389 199.439 123.883 199.625 124.474 199.739C125.087 199.859 125.624 199.862 126.086 199.751C126.553 199.641 126.93 199.432 127.218 199.124C127.506 198.816 127.696 198.429 127.786 197.963C127.886 197.45 127.84 197.028 127.649 196.697C127.458 196.367 127.167 196.104 126.775 195.908C126.385 195.707 125.938 195.55 125.433 195.435C125.054 195.345 124.784 195.282 124.622 195.245C124.461 195.208 124.354 195.185 124.302 195.175C124.25 195.165 124.2 195.155 124.153 195.146L124.369 194.031C124.406 194.038 124.503 194.057 124.66 194.087C124.817 194.118 124.985 194.15 125.163 194.185C125.342 194.214 125.484 194.236 125.59 194.251C126.346 194.36 126.973 194.278 127.471 194.006C127.97 193.733 128.278 193.293 128.396 192.686C128.521 192.042 128.39 191.498 128.004 191.053C127.623 190.61 127.074 190.318 126.357 190.179C125.681 190.048 125.079 190.099 124.55 190.333C124.027 190.563 123.567 190.919 123.169 191.401L122.362 190.519C122.843 189.95 123.447 189.524 124.175 189.242C124.904 188.959 125.713 188.905 126.603 189.078C127.08 189.17 127.523 189.324 127.932 189.54C128.346 189.756 128.696 190.025 128.981 190.347C129.271 190.669 129.475 191.046 129.593 191.476C129.716 191.902 129.727 192.377 129.626 192.901C129.507 193.513 129.267 194.021 128.906 194.423C128.55 194.827 128.138 195.103 127.669 195.251C128.212 195.535 128.603 195.926 128.843 196.424C129.088 196.923 129.143 197.523 129.007 198.224C128.872 198.915 128.585 199.484 128.145 199.931C127.705 200.378 127.146 200.683 126.468 200.844C125.797 201.002 125.047 201 124.22 200.839ZM128.918 201.508L135.01 190.956L136.542 191.254L138.239 203.319L137.038 203.086L135.411 191.702L135.867 191.791L130.119 201.741L128.918 201.508ZM131.186 199.104L131.396 198.02L137.239 199.156L137.028 200.24L131.186 199.104ZM139.343 203.534L141.541 192.225L142.703 192.451L140.902 201.718L148.93 193.661L150.093 193.887L147.895 205.196L146.733 204.97L148.535 195.695L140.505 203.76L139.343 203.534ZM146.102 192.069C145.731 191.996 145.408 191.839 145.135 191.595C144.867 191.353 144.671 191.062 144.547 190.723C144.423 190.379 144.398 190.02 144.47 189.649L145.428 189.835C145.371 190.128 145.427 190.4 145.596 190.65C145.764 190.9 145.995 191.053 146.289 191.11C146.587 191.168 146.859 191.113 147.104 190.943C147.354 190.774 147.507 190.543 147.564 190.25L148.522 190.436C148.45 190.808 148.292 191.13 148.049 191.404C147.812 191.673 147.521 191.869 147.177 191.992C146.832 192.115 146.474 192.141 146.102 192.069ZM149.781 205.562L151.979 194.254L153.133 194.478L152.143 199.575L158.394 200.789L159.384 195.693L160.531 195.916L158.333 207.224L157.186 207.001L158.178 201.897L151.927 200.682L150.935 205.786L149.781 205.562Z" fill="#707070"/>
<path d="M47.2554 181.775L38.4208 180.058L40.1381 171.223L48.9727 172.94L47.2554 181.775Z" fill="#0A0A0A"/>
<path d="M45.5392 190.61L36.7046 188.893L38.4219 180.058L47.2565 181.775L45.5392 190.61Z" fill="#FF3800"/>
<path d="M54.374 192.326L45.5393 190.609L47.2566 181.774L56.0912 183.491L54.374 192.326Z" fill="#0A0A0A"/>
<path d="M52.6513 146.149L43.8167 144.432L42.0994 153.267L50.934 154.984L52.6513 146.149Z" fill="#0A0A0A"/>
<path d="M54.3694 137.314L45.5348 135.597L43.8175 144.432L52.6522 146.149L54.3694 137.314Z" fill="#FF3800"/>
<path d="M63.2042 139.031L54.3695 137.313L52.6522 146.148L61.4869 147.865L63.2042 139.031Z" fill="#0A0A0A"/>
<path d="M212.168 213.834L221.003 215.551L222.72 206.716L213.886 204.999L212.168 213.834Z" fill="#0A0A0A"/>
<path d="M210.452 222.668L219.287 224.386L221.004 215.551L212.169 213.834L210.452 222.668Z" fill="#FF3800"/>
<path d="M201.617 220.952L210.452 222.669L212.169 213.835L203.335 212.118L201.617 220.952Z" fill="#0A0A0A"/>
<path d="M220.512 178.779L229.347 180.497L227.63 189.331L218.795 187.614L220.512 178.779Z" fill="#0A0A0A"/>
<path d="M222.231 169.944L231.065 171.662L229.348 180.496L220.513 178.779L222.231 169.944Z" fill="#FF3800"/>
<path d="M213.396 168.226L222.23 169.944L220.513 178.778L211.678 177.061L213.396 168.226Z" fill="#0A0A0A"/>
</g>
<defs>
<clipPath id="clip0_1490_1718">
<rect width="240" height="240" fill="white" transform="translate(46.1018) rotate(11)"/>
</clipPath>
</defs>
</svg>
