<svg width="440" height="230" viewBox="0 0 440 230" fill="none" xmlns="http://www.w3.org/2000/svg">
<path d="M91.688 176.349L106.572 215.867L146.202 200.941L131.318 161.423L91.688 176.349Z" fill="#F8F8FF"/>
<path d="M76.8072 136.834L91.6915 176.352L131.321 161.425L116.437 121.907L76.8072 136.834Z" fill="#F8F8FF"/>
<path d="M59.3741 91.0691L89.584 120.574L119.173 90.2787L88.9628 60.7736L59.3741 91.0691Z" fill="#F8F8FF"/>
<path d="M58.6358 31.155L88.8457 60.6602L118.434 30.3647L88.2245 0.859483L58.6358 31.155Z" fill="#F8F8FF"/>
<path d="M-1.00095 92.2175L29.209 121.723L58.7977 91.4272L28.5878 61.922L-1.00095 92.2175Z" fill="#F8F8FF"/>
<path d="M116.432 121.908L131.316 161.426L170.946 146.499L156.062 106.982L116.432 121.908Z" fill="#F8F8FF"/>
<path d="M258.121 107.139L291.416 133.307L317.509 100.105L284.214 73.938L258.121 107.139Z" fill="#F8F8FF"/>
<path d="M224.82 80.9694L258.115 107.137L284.209 73.9354L250.913 47.768L224.82 80.9694Z" fill="#F8F8FF"/>
<path d="M192.294 190.825L225.59 216.992L251.683 183.791L218.388 157.624L192.294 190.825Z" fill="#F8F8FF"/>
<path d="M158.998 164.661L192.293 190.828L218.386 157.627L185.091 131.459L158.998 164.661Z" fill="#F8F8FF"/>
<path d="M339.35 174.518V216.746H381.697V174.518H339.35Z" fill="#F8F8FF"/>
<path d="M339.35 132.29V174.518H381.697V132.29H339.35Z" fill="#F8F8FF"/>
<path d="M297 132.29V174.518H339.348V132.29H297Z" fill="#F8F8FF"/>
<path d="M381.695 132.29V174.518H424.043V132.29H381.695Z" fill="#F8F8FF"/>
<path d="M377.38 67.791L409.701 40.4297L382.417 8.19959L350.096 35.5609L377.38 67.791Z" fill="#F8F8FF"/>
<path d="M345.061 95.1503L377.383 67.7891L350.099 35.559L317.777 62.9202L345.061 95.1503Z" fill="#F8F8FF"/>
<path d="M377.349 67.7599L345.027 95.1211L372.311 127.351L404.633 99.99L377.349 67.7599Z" fill="#F8F8FF"/>
<path d="M409.675 40.3926L377.354 67.7539L404.638 99.984L436.959 72.6227L409.675 40.3926Z" fill="#F8F8FF"/>
</svg>
