<svg width="1919" height="809" viewBox="0 0 1919 809" fill="none" xmlns="http://www.w3.org/2000/svg">
<path fill-rule="evenodd" clip-rule="evenodd" d="M317.787 58.1828L375.142 210.461L527.852 152.943L470.496 0.664991L317.787 58.1828ZM222.665 268.568L280.021 420.846L432.73 363.328L375.375 211.05L222.665 268.568ZM67.3566 326.392L10.0012 174.114L162.711 116.596L220.066 268.874L67.3566 326.392Z" fill="#F8F8FF"/>
<path fill-rule="evenodd" clip-rule="evenodd" d="M462.516 442.444L462.515 442.441L615.224 384.923L672.58 537.201L519.886 594.713L519.887 594.716L519.883 594.717L577.238 746.993L424.528 804.511L367.173 652.233L367.176 652.232L309.822 499.956L462.516 442.444Z" fill="#F8F8FF"/>
<path fill-rule="evenodd" clip-rule="evenodd" d="M1091.94 385.523L963.638 284.689L1064.19 156.751L1192.49 257.585L1091.94 385.523ZM1220.25 486.371L1091.95 385.537L1192.5 257.599L1320.8 358.432L1220.25 486.371Z" fill="#F8F8FF"/>
<path fill-rule="evenodd" clip-rule="evenodd" d="M838.299 708.025L966.591 808.852L1067.14 680.913L938.839 580.08L938.837 580.082L810.545 479.255L709.997 607.194L838.297 708.027L838.299 708.025Z" fill="#F8F8FF"/>
<path fill-rule="evenodd" clip-rule="evenodd" d="M1250 482.446V645.168H1413.18V482.446H1250ZM1413.19 645.168V482.446H1576.36V482.446H1739.55V645.168H1576.37H1576.36H1413.19ZM1413.19 807.894V645.173H1576.37V807.894H1413.19Z" fill="#F8F8FF"/>
<path fill-rule="evenodd" clip-rule="evenodd" d="M1677.71 233.902L1677.68 233.923L1782.71 357.988L1658.16 463.422L1553.03 339.226L1553.05 339.206L1448.02 215.14L1572.56 109.715L1572.56 109.715L1697.11 4.2803L1802.14 128.348L1802.15 128.339L1907.28 252.535L1782.74 357.969L1677.71 233.902Z" fill="#F8F8FF"/>
</svg>
