<svg viewBox="0 0 521 521" fill="none" xmlns="http://www.w3.org/2000/svg">
<g clip-path="url(#clip0_1187_1216)">
<path d="M98.7402 159.351L57.8054 176.223L74.6775 217.157L115.612 200.285L98.7402 159.351Z" fill="#F8F8FF"/>
<path d="M139.662 142.486L98.7268 159.358L115.599 200.293L156.534 183.421L139.662 142.486Z" fill="#FF3800"/>
<path d="M221.535 108.741L180.6 125.614L197.472 166.548L238.407 149.676L221.535 108.741Z" fill="#F8F8FF"/>
<path d="M303.382 75.0007L262.448 91.8728L279.32 132.808L320.254 115.936L303.382 75.0007Z" fill="#FF3800"/>
<path d="M344.315 58.1323L303.38 75.0044L320.252 115.939L361.187 99.0671L344.315 58.1323Z" fill="#F8F8FF"/>
<path d="M122.788 101.549L81.8535 118.421L98.7256 159.356L139.66 142.484L122.788 101.549Z" fill="#F8F8FF"/>
<path d="M163.719 84.6806L122.785 101.553L139.657 142.488L180.592 125.615L163.719 84.6806Z" fill="#F8F8FF"/>
<path d="M245.573 50.9438L204.638 67.8159L221.51 108.751L262.445 91.8786L245.573 50.9438Z" fill="#F8F8FF"/>
<path d="M286.51 34.0677L245.575 50.9398L262.447 91.8746L303.382 75.0025L286.51 34.0677Z" fill="#F8F8FF"/>
<path d="M74.6716 217.136L33.7368 234.009L50.6089 274.943L91.5437 258.071L74.6716 217.136Z" fill="#F8F8FF"/>
<path d="M115.609 200.268L74.6738 217.14L91.5459 258.075L132.481 241.203L115.609 200.268Z" fill="#FF3800"/>
<path d="M361.183 99.0496L320.248 115.922L337.12 156.857L378.055 139.984L361.183 99.0496Z" fill="#FF3800"/>
<path d="M91.54 258.073L50.6052 274.946L67.4773 315.88L108.412 299.008L91.54 258.073Z" fill="#F8F8FF"/>
<path d="M255.266 190.596L214.331 207.468L231.203 248.403L272.138 231.531L255.266 190.596Z" fill="#FF3800"/>
<path d="M149.349 282.138L108.415 299.01L125.287 339.945L166.221 323.073L149.349 282.138Z" fill="#F8F8FF"/>
<path d="M231.203 248.401L190.268 265.273L207.14 306.208L248.075 289.336L231.203 248.401Z" fill="#FF3800"/>
<path d="M272.139 231.529L231.204 248.401L248.076 289.336L289.011 272.464L272.139 231.529Z" fill="#F8F8FF"/>
<path d="M313.056 214.664L272.122 231.536L288.994 272.471L329.929 255.599L313.056 214.664Z" fill="#FF3800"/>
<path d="M394.928 180.92L353.994 197.792L370.866 238.727L411.801 221.855L394.928 180.92Z" fill="#F8F8FF"/>
<path d="M125.281 339.928L84.3459 356.8L101.218 397.735L142.153 380.863L125.281 339.928Z" fill="#F8F8FF"/>
<path d="M289.002 272.446L248.068 289.318L264.94 330.253L305.875 313.381L289.002 272.446Z" fill="#FF3800"/>
<path d="M142.048 379.949L100.607 397.03L118.162 439.622L159.603 422.541L142.048 379.949Z" fill="#F8F8FF"/>
<path d="M183.09 363.993L142.155 380.865L159.027 421.799L199.962 404.927L183.09 363.993Z" fill="#FF3800"/>
<path d="M428.665 262.77L387.73 279.642L404.603 320.577L445.537 303.705L428.665 262.77Z" fill="#FF3800"/>
<path d="M199.954 404.926L159.019 421.798L175.891 462.733L216.826 445.86L199.954 404.926Z" fill="#F8F8FF"/>
<path d="M240.881 388.061L199.946 404.933L216.818 445.868L257.753 428.996L240.881 388.061Z" fill="#FF3800"/>
<path d="M322.748 354.316L281.813 371.189L298.685 412.123L339.62 395.251L322.748 354.316Z" fill="#F8F8FF"/>
<path d="M404.602 320.576L363.667 337.448L380.539 378.383L421.474 361.511L404.602 320.576Z" fill="#FF3800"/>
<path d="M445.539 303.707L404.604 320.579L421.476 361.514L462.411 344.642L445.539 303.707Z" fill="#F8F8FF"/>
<path d="M257.748 428.979L216.813 445.851L233.686 486.786L274.62 469.913L257.748 428.979Z" fill="#F8F8FF"/>
<path d="M298.679 412.106L257.745 428.978L274.617 469.913L315.552 453.041L298.679 412.106Z" fill="#F8F8FF"/>
<path d="M380.529 378.373L339.594 395.245L356.466 436.18L397.401 419.308L380.529 378.373Z" fill="#F8F8FF"/>
<path d="M421.47 361.497L380.535 378.369L397.407 419.304L438.342 402.432L421.47 361.497Z" fill="#F8F8FF"/>
<path d="M402.099 82.1851L361.164 99.0573L378.036 139.992L418.971 123.12L402.099 82.1851Z" fill="#F8F8FF"/>
<path d="M418.972 123.118L378.038 139.99L394.91 180.925L435.845 164.053L418.972 123.118Z" fill="#F8F8FF"/>
<path d="M452.714 204.973L411.78 221.845L428.652 262.78L469.586 245.908L452.714 204.973Z" fill="#F8F8FF"/>
<path d="M469.583 245.906L428.648 262.778L445.52 303.713L486.455 286.841L469.583 245.906Z" fill="#F8F8FF"/>
<rect x="72.7568" y="217.035" width="314.075" height="222.544" transform="rotate(-22.4 72.7568 217.035)" fill="#F8F8FF"/>
<rect x="97.0334" y="156.811" width="222.544" height="317.664" transform="rotate(-22.4 97.0334 156.811)" fill="#F8F8FF"/>
<path d="M133.847 252.889L125.647 232.997L134.046 229.535C134.239 229.456 134.501 229.358 134.831 229.244C135.166 229.117 135.472 229.023 135.749 228.962C137.013 228.657 138.145 228.648 139.147 228.935C140.158 229.219 141.031 229.742 141.766 230.506C142.498 231.26 143.093 232.195 143.552 233.309C144.011 234.423 144.245 235.512 144.252 236.576C144.265 237.626 144.013 238.608 143.495 239.522C142.987 240.432 142.181 241.222 141.078 241.892C140.836 242.035 140.552 242.184 140.229 242.339C139.905 242.494 139.651 242.61 139.466 242.686L134.825 244.599L137.604 251.34L133.847 252.889ZM133.379 241.09L137.854 239.245C138.048 239.166 138.256 239.069 138.478 238.956C138.701 238.842 138.898 238.718 139.068 238.583C139.518 238.236 139.814 237.845 139.958 237.409C140.097 236.963 140.136 236.522 140.074 236.084C140.018 235.633 139.915 235.228 139.767 234.869C139.619 234.51 139.408 234.155 139.135 233.805C138.866 233.441 138.528 233.155 138.118 232.947C137.706 232.729 137.217 232.656 136.654 232.726C136.438 232.751 136.211 232.801 135.973 232.878C135.735 232.954 135.52 233.033 135.326 233.112L130.851 234.957L133.379 241.09ZM151.815 245.482L143.615 225.59L156.6 220.238L158.046 223.747L148.819 227.55L150.573 231.805L158.142 228.684L159.589 232.193L152.019 235.313L154.126 240.424L163.353 236.621L164.799 240.129L151.815 245.482ZM174.711 236.529C173.302 237.109 171.978 237.413 170.739 237.439C169.509 237.461 168.397 237.299 167.404 236.955C166.407 236.601 165.56 236.153 164.862 235.611L167.128 232.091C167.539 232.46 168.04 232.787 168.631 233.071C169.222 233.355 169.915 233.506 170.709 233.524C171.502 233.542 172.406 233.342 173.419 232.924C174.376 232.529 175.088 232.074 175.555 231.559C176.03 231.039 176.308 230.51 176.387 229.971C176.476 229.428 176.421 228.917 176.224 228.438C175.962 227.803 175.572 227.393 175.054 227.208C174.545 227.019 173.97 226.981 173.327 227.095C172.681 227.2 172.027 227.378 171.365 227.629C170.722 227.873 170.256 228.049 169.967 228.157C169.687 228.262 169.496 228.335 169.395 228.377C169.303 228.415 169.215 228.451 169.132 228.485L167.675 224.949C167.794 224.9 167.969 224.827 168.2 224.733C168.439 224.634 168.679 224.535 168.918 224.436C169.163 224.325 169.362 224.232 169.514 224.158C170.462 223.714 171.181 223.17 171.67 222.526C172.168 221.879 172.252 221.155 171.922 220.354C171.618 219.617 171.087 219.152 170.328 218.958C169.579 218.761 168.721 218.861 167.754 219.26C166.842 219.636 166.109 220.17 165.554 220.862C165.004 221.541 164.66 222.184 164.522 222.79L160.814 221.086C161.209 220.083 161.88 219.085 162.828 218.091C163.775 217.097 164.972 216.302 166.418 215.706C167.293 215.345 168.197 215.107 169.13 214.992C170.059 214.868 170.956 214.902 171.822 215.094C172.684 215.278 173.463 215.651 174.159 216.216C174.864 216.776 175.425 217.563 175.843 218.576C176.196 219.432 176.378 220.305 176.389 221.195C176.397 222.075 176.221 222.891 175.863 223.642C176.844 223.669 177.704 223.939 178.443 224.453C179.183 224.967 179.769 225.749 180.202 226.799C180.745 228.115 180.845 229.405 180.504 230.666C180.167 231.914 179.488 233.051 178.467 234.075C177.454 235.096 176.202 235.914 174.711 236.529ZM187.24 230.879L187.703 224.159L175.007 212.65L179.262 210.896L188.036 219.4L188.434 207.115L192.44 205.464L191.246 229.227L187.24 230.879ZM199.239 225.933L197.952 222.811C198.387 222.664 198.731 222.479 198.984 222.256C199.237 222.033 199.41 221.747 199.502 221.396C199.6 221.033 199.629 220.579 199.588 220.036C199.543 219.483 199.44 218.815 199.278 218.03C199.025 216.788 198.71 215.501 198.333 214.169C197.962 212.825 197.575 211.519 197.171 210.253C196.768 208.986 196.387 207.84 196.028 206.813C195.666 205.777 195.375 204.954 195.156 204.344L208.721 198.753L216.92 218.644L213.163 220.193L206.41 203.81L200.055 206.43C200.231 206.96 200.458 207.654 200.735 208.509C201.021 209.361 201.321 210.309 201.633 211.355C201.946 212.4 202.25 213.492 202.547 214.63C202.844 215.768 203.095 216.888 203.301 217.988C203.514 219.053 203.64 220.025 203.678 220.903C203.713 221.772 203.601 222.545 203.342 223.223C203.088 223.888 202.634 224.447 201.981 224.899C201.327 225.352 200.413 225.696 199.239 225.933ZM220.773 217.056L212.574 197.165L216.331 195.616L219.11 202.357L223.751 200.443C223.935 200.367 224.197 200.27 224.536 200.152C224.871 200.025 225.177 199.931 225.454 199.871C226.709 199.569 227.837 199.562 228.839 199.849C229.85 200.133 230.723 200.656 231.458 201.42C232.198 202.17 232.798 203.103 233.258 204.217C233.717 205.331 233.955 206.418 233.972 207.478C233.984 208.529 233.732 209.511 233.214 210.424C232.706 211.334 231.896 212.126 230.784 212.8C230.541 212.943 230.258 213.092 229.934 213.247C229.619 213.399 229.365 213.514 229.172 213.594L220.773 217.056ZM223.084 211.998L227.56 210.154C227.753 210.074 227.961 209.977 228.184 209.864C228.406 209.751 228.603 209.626 228.774 209.492C229.223 209.145 229.52 208.753 229.663 208.317C229.803 207.871 229.841 207.43 229.78 206.992C229.723 206.541 229.621 206.136 229.473 205.777C229.325 205.418 229.114 205.063 228.84 204.713C228.572 204.349 228.233 204.064 227.824 203.855C227.411 203.637 226.923 203.564 226.359 203.635C226.143 203.659 225.916 203.71 225.678 203.786C225.44 203.863 225.225 203.941 225.032 204.02L220.556 205.865L223.084 211.998ZM243.086 207.858L236.333 191.475L230.061 194.061L228.615 190.552L244.915 183.833L246.361 187.341L240.09 189.927L246.843 206.309L243.086 207.858ZM253.413 203.601L251.292 181.204L256.9 178.892L271.177 196.278L267.31 197.873L254.663 182.562L255.382 182.266L257.281 202.007L253.413 203.601ZM255.352 197.954L253.906 194.445L264.404 190.117L265.85 193.626L255.352 197.954ZM276.621 194.034L269.868 177.652L263.597 180.237L262.15 176.728L278.45 170.009L279.897 173.518L273.625 176.103L280.378 192.485L276.621 194.034ZM287.379 193.963L286.951 192.297C287.408 192.152 287.737 191.93 287.937 191.632C288.141 191.343 288.224 191.008 288.185 190.625C288.158 190.248 288.022 189.852 287.775 189.436L285.841 190.233L284.293 186.476L288.05 184.927L289.599 188.685C290.145 190.011 290.251 191.142 289.915 192.077C289.578 193.013 288.733 193.642 287.379 193.963ZM322.891 178.84L321.524 175.524L319.59 176.322L318.224 173.006L323.915 170.66L326.648 177.291L322.891 178.84ZM300.39 184.236L292.19 164.345L295.947 162.796L302.701 179.179L308.392 176.833L301.639 160.45L305.396 158.901L312.149 175.284L317.84 172.938L311.087 156.555L314.844 155.007L323.044 174.898L300.39 184.236ZM336.211 169.955C334.222 170.775 332.326 171.05 330.524 170.78C328.73 170.507 327.122 169.753 325.697 168.52C324.282 167.282 323.149 165.632 322.299 163.569C321.449 161.506 321.09 159.537 321.222 157.662C321.363 155.783 321.973 154.115 323.053 152.657C324.142 151.195 325.681 150.055 327.67 149.235C329.659 148.415 331.551 148.141 333.344 148.415C335.147 148.685 336.756 149.438 338.171 150.676C339.595 151.909 340.732 153.557 341.583 155.62C342.433 157.683 342.787 159.654 342.646 161.533C342.514 163.408 341.904 165.077 340.815 166.538C339.735 167.996 338.201 169.135 336.211 169.955ZM334.754 166.419C336.023 165.917 336.961 165.213 337.567 164.305C338.174 163.398 338.472 162.343 338.461 161.141C338.459 159.935 338.174 158.641 337.604 157.26C337.035 155.879 336.33 154.769 335.488 153.931C334.656 153.088 333.706 152.559 332.636 152.343C331.567 152.127 330.397 152.269 329.128 152.771C327.859 153.273 326.921 153.977 326.314 154.884C325.708 155.791 325.406 156.848 325.407 158.054C325.418 159.256 325.708 160.548 326.277 161.929C326.847 163.311 327.547 164.422 328.379 165.265C329.221 166.103 330.176 166.63 331.246 166.847C332.315 167.063 333.485 166.92 334.754 166.419ZM150.726 281.624L142.527 261.733L150.483 258.453C151.902 257.869 153.166 257.681 154.276 257.892C155.382 258.093 156.315 258.538 157.073 259.228C157.831 259.917 158.391 260.699 158.751 261.574C159.21 262.688 159.339 263.718 159.136 264.664C158.942 265.605 158.459 266.381 157.687 266.99L157.402 266.299C158.752 266.045 159.919 266.237 160.904 266.876C161.899 267.511 162.624 268.381 163.079 269.486C163.569 270.674 163.779 271.81 163.709 272.895C163.648 273.976 163.277 274.958 162.597 275.842C161.912 276.717 160.893 277.433 159.539 277.991L150.726 281.624ZM153.081 276.516L157.695 274.615C158.201 274.406 158.609 274.114 158.918 273.739C159.222 273.355 159.406 272.924 159.467 272.446C159.534 271.955 159.458 271.442 159.238 270.908C159.044 270.439 158.774 270.059 158.429 269.771C158.084 269.482 157.67 269.313 157.186 269.265C156.709 269.203 156.18 269.292 155.599 269.531L150.986 271.433L153.081 276.516ZM149.539 267.925L153.628 266.239C154.052 266.064 154.399 265.835 154.67 265.551C154.941 265.267 155.11 264.933 155.178 264.55C155.242 264.157 155.174 263.716 154.973 263.228C154.722 262.621 154.323 262.187 153.774 261.929C153.226 261.67 152.593 261.688 151.874 261.985L147.786 263.67L149.539 267.925ZM184.589 267.665L180.777 269.237L175.31 255.976L172.129 272.802L168.317 274.373L160.117 254.482L163.93 252.91L169.396 266.171L172.577 249.346L176.389 247.774L184.589 267.665ZM188.443 266.077L180.244 246.185L196.654 239.421L204.854 259.312L201.097 260.861L194.343 244.478L185.447 248.145L192.201 264.528L188.443 266.077ZM208.732 257.713L200.532 237.822L208.931 234.36C209.124 234.28 209.386 234.183 209.716 234.069C210.051 233.941 210.357 233.847 210.634 233.787C211.898 233.482 213.031 233.473 214.033 233.76C215.044 234.043 215.917 234.567 216.652 235.331C217.383 236.085 217.978 237.019 218.437 238.134C218.897 239.248 219.13 240.337 219.138 241.4C219.151 242.451 218.898 243.433 218.381 244.347C217.872 245.256 217.067 246.046 215.964 246.717C215.721 246.86 215.438 247.009 215.114 247.164C214.79 247.319 214.536 247.434 214.352 247.51L209.71 249.424L212.489 256.165L208.732 257.713ZM208.264 245.915L212.74 244.07C212.933 243.99 213.141 243.894 213.364 243.78C213.586 243.667 213.783 243.543 213.953 243.408C214.403 243.061 214.7 242.67 214.843 242.233C214.983 241.788 215.021 241.346 214.959 240.909C214.903 240.458 214.801 240.053 214.653 239.694C214.505 239.335 214.294 238.98 214.02 238.629C213.752 238.266 213.413 237.98 213.004 237.772C212.591 237.554 212.103 237.481 211.539 237.551C211.323 237.576 211.096 237.626 210.858 237.703C210.62 237.779 210.405 237.857 210.211 237.937L205.736 239.782L208.264 245.915ZM223.673 251.554L221.551 229.158L227.16 226.846L241.437 244.232L237.569 245.826L224.923 230.515L225.641 230.219L227.541 249.96L223.673 251.554ZM225.611 245.907L224.165 242.398L234.663 238.071L236.11 241.579L225.611 245.907ZM243.913 243.211L235.713 223.32L243.67 220.04C245.088 219.455 246.352 219.268 247.462 219.478C248.569 219.68 249.501 220.125 250.259 220.814C251.018 221.504 251.577 222.286 251.938 223.161C252.397 224.275 252.525 225.305 252.322 226.25C252.129 227.192 251.646 227.968 250.874 228.577L250.589 227.886C251.938 227.631 253.106 227.824 254.091 228.463C255.085 229.098 255.81 229.968 256.266 231.073C256.756 232.261 256.965 233.397 256.895 234.482C256.835 235.563 256.464 236.545 255.783 237.429C255.099 238.304 254.08 239.02 252.726 239.578L243.913 243.211ZM246.268 238.103L250.881 236.201C251.388 235.993 251.795 235.701 252.104 235.326C252.409 234.941 252.592 234.51 252.654 234.032C252.721 233.542 252.644 233.029 252.424 232.495C252.23 232.025 251.961 231.646 251.616 231.357C251.271 231.069 250.856 230.9 250.373 230.852C249.895 230.79 249.366 230.879 248.786 231.118L244.172 233.02L246.268 238.103ZM242.726 229.511L246.815 227.826C247.238 227.651 247.585 227.422 247.856 227.138C248.127 226.854 248.297 226.52 248.365 226.136C248.429 225.744 248.361 225.303 248.159 224.815C247.909 224.207 247.509 223.774 246.961 223.515C246.413 223.257 245.779 223.275 245.061 223.571L240.972 225.257L242.726 229.511ZM261.765 239.731L258.952 232.907C259.551 232.66 259.996 232.304 260.289 231.838C260.588 231.36 260.758 230.794 260.801 230.141C260.841 229.478 260.787 228.746 260.64 227.945C260.492 227.143 260.277 226.295 259.994 225.399C259.631 224.256 259.266 223.135 258.899 222.036C258.529 220.929 258.143 219.784 257.742 218.602C257.337 217.412 256.904 216.125 256.442 214.743L269.659 209.327L276.412 225.709L277.932 225.083L280.745 231.907L276.987 233.456L275.621 230.14L264.156 234.867L265.522 238.182L261.765 239.731ZM264.56 230.595L272.655 227.258L267.348 214.384L261.314 216.839C261.625 217.777 261.915 218.638 262.184 219.422C262.463 220.201 262.736 220.994 263.003 221.799C263.27 222.605 263.557 223.51 263.864 224.515C264.17 225.52 264.407 226.354 264.573 227.018C264.735 227.673 264.814 228.271 264.811 228.811C264.816 229.347 264.733 229.942 264.56 230.595ZM291.12 224.236C289.131 225.056 287.235 225.331 285.432 225.062C283.639 224.788 282.03 224.035 280.606 222.801C279.191 221.564 278.058 219.914 277.207 217.851C276.357 215.788 275.998 213.819 276.13 211.944C276.271 210.065 276.882 208.396 277.961 206.939C279.05 205.477 280.589 204.336 282.579 203.516C284.568 202.696 286.459 202.423 288.252 202.696C290.055 202.966 291.664 203.72 293.079 204.957C294.503 206.191 295.641 207.839 296.491 209.902C297.341 211.964 297.696 213.935 297.555 215.814C297.423 217.69 296.812 219.358 295.723 220.82C294.643 222.277 293.109 223.416 291.12 224.236ZM289.662 220.7C290.931 220.198 291.869 219.494 292.476 218.587C293.082 217.68 293.38 216.625 293.369 215.423C293.368 214.217 293.082 212.923 292.513 211.542C291.943 210.16 291.238 209.05 290.397 208.212C289.565 207.37 288.614 206.841 287.545 206.624C286.475 206.408 285.306 206.551 284.036 207.052C282.767 207.554 281.829 208.258 281.223 209.166C280.616 210.073 280.314 211.129 280.315 212.335C280.326 213.538 280.616 214.829 281.186 216.211C281.755 217.592 282.456 218.704 283.288 219.546C284.129 220.384 285.084 220.912 286.154 221.128C287.224 221.344 288.393 221.202 289.662 220.7ZM303.348 218.711L295.149 198.819L303.105 195.54C304.523 194.955 305.788 194.768 306.898 194.978C308.004 195.179 308.937 195.624 309.695 196.314C310.453 197.003 311.012 197.785 311.373 198.66C311.832 199.775 311.961 200.804 311.758 201.75C311.564 202.692 311.081 203.467 310.309 204.076L310.024 203.386C311.374 203.131 312.541 203.323 313.526 203.962C314.521 204.597 315.246 205.467 315.701 206.572C316.191 207.76 316.401 208.897 316.331 209.981C316.27 211.062 315.899 212.045 315.219 212.929C314.534 213.803 313.515 214.52 312.161 215.078L303.348 218.711ZM305.703 213.603L310.317 211.701C310.823 211.492 311.231 211.2 311.539 210.825C311.844 210.441 312.028 210.01 312.089 209.532C312.156 209.041 312.08 208.529 311.859 207.995C311.666 207.525 311.396 207.146 311.051 206.857C310.706 206.568 310.292 206.4 309.808 206.351C309.33 206.29 308.801 206.378 308.221 206.618L303.608 208.519L305.703 213.603ZM302.161 205.011L306.25 203.325C306.674 203.151 307.021 202.921 307.292 202.637C307.562 202.353 307.732 202.02 307.8 201.636C307.864 201.243 307.796 200.803 307.595 200.315C307.344 199.707 306.945 199.274 306.396 199.015C305.848 198.756 305.215 198.775 304.496 199.071L300.408 200.756L302.161 205.011ZM322.478 210.825L322.941 204.105L310.245 192.596L314.5 190.842L323.274 199.346L323.672 187.062L327.678 185.41L326.484 209.174L322.478 210.825ZM345.154 201.963C343.201 202.767 341.331 203 339.542 202.66C337.763 202.316 336.173 201.517 334.772 200.262C333.381 199.004 332.287 197.408 331.49 195.475C330.643 193.421 330.281 191.458 330.404 189.587C330.527 187.716 331.11 186.059 332.153 184.616C333.201 183.16 334.688 182.036 336.612 181.242C338.988 180.263 341.199 180.047 343.245 180.593C345.291 181.139 347.011 182.397 348.404 184.365L344.863 186.439C344.057 185.424 343.074 184.752 341.915 184.422C340.764 184.088 339.566 184.173 338.319 184.676C337.261 185.091 336.433 185.669 335.834 186.411C335.235 187.154 334.854 188.006 334.69 188.968C334.526 189.929 334.57 190.951 334.822 192.032L341.812 189.151L343.258 192.66L336.296 195.53C336.61 196.057 336.974 196.548 337.388 197.002C337.798 197.448 338.264 197.821 338.787 198.123C339.549 198.584 340.382 198.817 341.289 198.821C342.195 198.824 343.08 198.658 343.944 198.324C345.164 197.832 346.059 197.064 346.631 196.02C347.212 194.973 347.455 193.849 347.359 192.65L351.409 192.047C351.566 193.631 351.427 195.056 350.99 196.324C350.563 197.588 349.856 198.694 348.867 199.64C347.883 200.573 346.645 201.348 345.154 201.963ZM188.333 301.816L180.133 281.925L183.89 280.376L192.09 300.267L188.333 301.816ZM196.231 298.56L188.032 278.669L191.789 277.12L195.16 285.298L204.056 281.631L200.685 273.453L204.442 271.904L212.642 291.795L208.884 293.344L205.502 285.139L196.606 288.806L199.988 297.011L196.231 298.56ZM216.52 290.197L208.32 270.306L216.277 267.026C217.695 266.441 218.959 266.254 220.069 266.464C221.176 266.665 222.108 267.111 222.866 267.8C223.624 268.49 224.184 269.272 224.544 270.146C225.004 271.261 225.132 272.291 224.929 273.236C224.736 274.178 224.253 274.953 223.48 275.563L223.196 274.872C224.545 274.617 225.712 274.809 226.698 275.448C227.692 276.084 228.417 276.954 228.873 278.059C229.362 279.247 229.572 280.383 229.502 281.468C229.441 282.549 229.071 283.531 228.39 284.415C227.705 285.29 226.686 286.006 225.333 286.564L216.52 290.197ZM218.874 285.089L223.488 283.187C223.995 282.978 224.402 282.687 224.711 282.311C225.016 281.927 225.199 281.496 225.261 281.018C225.328 280.527 225.251 280.015 225.031 279.481C224.837 279.011 224.568 278.632 224.223 278.343C223.877 278.055 223.463 277.886 222.98 277.838C222.502 277.776 221.973 277.865 221.393 278.104L216.779 280.006L218.874 285.089ZM215.333 276.497L219.421 274.812C219.845 274.637 220.192 274.408 220.463 274.124C220.734 273.84 220.903 273.506 220.971 273.122C221.036 272.729 220.967 272.289 220.766 271.801C220.516 271.193 220.116 270.76 219.568 270.501C219.019 270.242 218.386 270.261 217.668 270.557L213.579 272.243L215.333 276.497ZM234.11 282.946L225.911 263.054L238.895 257.702L240.341 261.211L231.114 265.014L232.868 269.269L240.438 266.148L241.884 269.657L234.314 272.777L236.421 277.888L245.648 274.085L247.095 277.593L234.11 282.946ZM258.277 273.469C256.288 274.289 254.392 274.564 252.589 274.294C250.796 274.021 249.187 273.267 247.763 272.033C246.347 270.796 245.215 269.146 244.364 267.083C243.514 265.02 243.155 263.051 243.287 261.176C243.428 259.297 244.039 257.629 245.118 256.171C246.207 254.709 247.746 253.568 249.736 252.748C252.019 251.807 254.168 251.584 256.182 252.079C258.206 252.57 259.933 253.651 261.366 255.323L258.014 257.933C257.148 256.879 256.141 256.2 254.993 255.898C253.841 255.586 252.575 255.715 251.193 256.285C249.932 256.805 248.993 257.52 248.377 258.431C247.771 259.338 247.467 260.39 247.464 261.587C247.462 262.784 247.746 264.073 248.315 265.455C248.884 266.836 249.592 267.95 250.437 268.798C251.282 269.645 252.239 270.177 253.308 270.394C254.387 270.606 255.557 270.452 256.819 269.932C258.2 269.363 259.19 268.562 259.788 267.529C260.385 266.496 260.622 265.305 260.497 263.956L264.714 263.446C264.876 265.642 264.412 267.627 263.323 269.401C262.243 271.171 260.561 272.527 258.277 273.469ZM274.795 266.175L268.042 249.792L261.771 252.377L260.324 248.868L276.624 242.149L278.07 245.658L271.799 248.243L278.552 264.626L274.795 266.175ZM303.316 254.418L299.503 255.989L294.037 242.729L290.856 259.554L287.044 261.126L278.844 241.234L282.656 239.663L288.123 252.924L291.304 236.098L295.116 234.527L303.316 254.418ZM323.593 249.938L322.227 246.622L307.17 252.829L298.971 232.938L302.728 231.389L309.561 247.965L318.622 244.23L312.017 228.206L315.774 226.657L322.38 242.681L324.617 241.758L327.351 248.389L323.593 249.938ZM328.463 244.052L320.264 224.16L324.021 222.611L332.22 242.503L328.463 244.052ZM330.722 217.393L329.356 214.077L332.671 212.711L334.038 216.026L330.722 217.393ZM324.865 219.807L323.499 216.492L326.814 215.125L328.181 218.44L324.865 219.807ZM336.638 240.682L328.438 220.791L332.196 219.242L340.395 239.133L336.638 240.682Z" fill="#0A0A0A"/>
<path d="M177.555 352.767L171.918 339.092L180.465 335.569L181.017 336.908L173.866 339.856L178.951 352.192L177.555 352.767ZM185.927 349.317L185 333.7L186.852 332.936L197.199 344.67L195.746 345.269L185.957 334.216L186.508 333.989L187.38 348.718L185.927 349.317ZM186.659 345.137L186.119 343.827L193.184 340.914L193.725 342.225L186.659 345.137ZM198.534 344.12L192.897 330.444L198.177 328.268C198.31 328.213 198.461 328.158 198.631 328.103C198.805 328.039 198.984 327.987 199.168 327.948C199.927 327.761 200.635 327.762 201.291 327.951C201.95 328.131 202.528 328.463 203.024 328.947C203.526 329.429 203.925 330.028 204.22 330.743C204.512 331.452 204.65 332.155 204.633 332.851C204.616 333.546 204.438 334.194 204.1 334.792C203.765 335.382 203.266 335.877 202.601 336.277C202.44 336.373 202.277 336.462 202.112 336.545C201.952 336.626 201.806 336.693 201.673 336.748L197.789 338.349L199.93 343.544L198.534 344.12ZM197.241 337.02L201.087 335.434C201.201 335.387 201.331 335.326 201.478 335.251C201.625 335.176 201.764 335.092 201.897 335.001C202.324 334.706 202.627 334.355 202.807 333.948C202.994 333.537 203.079 333.106 203.063 332.653C203.053 332.198 202.96 331.759 202.786 331.334C202.611 330.91 202.366 330.533 202.053 330.203C201.743 329.864 201.377 329.615 200.956 329.456C200.541 329.293 200.078 329.258 199.568 329.35C199.409 329.378 199.252 329.421 199.098 329.477C198.941 329.527 198.805 329.575 198.691 329.622L194.845 331.208L197.241 337.02ZM208.296 340.095L207.37 324.478L209.222 323.715L219.569 335.449L218.116 336.048L208.327 324.995L208.878 324.768L209.749 339.496L208.296 340.095ZM209.029 335.916L208.489 334.605L215.554 331.693L216.095 333.003L209.029 335.916ZM220.904 334.898L215.267 321.223L216.663 320.648L219.204 326.811L226.763 323.695L224.222 317.531L225.609 316.96L231.246 330.635L229.86 331.207L227.315 325.034L219.756 328.15L222.3 334.323L220.904 334.898ZM237.164 328.196L232.079 315.859L227.302 317.829L226.75 316.49L237.699 311.976L238.251 313.315L233.475 315.284L238.56 327.62L237.164 328.196ZM246.787 324.229L246.991 320.356L237.826 311.924L239.374 311.285L247.104 318.554L247.541 307.919L249.032 307.304L248.307 323.602L246.787 324.229ZM261.027 318.692C259.678 319.248 258.405 319.403 257.207 319.156C256.009 318.909 254.947 318.347 254.023 317.469C253.098 316.591 252.374 315.482 251.851 314.142C251.286 312.716 251.023 311.369 251.063 310.1C251.109 308.829 251.469 307.707 252.142 306.734C252.821 305.757 253.825 304.995 255.155 304.447C256.693 303.813 258.157 303.691 259.548 304.081C260.938 304.471 262.113 305.345 263.074 306.705L261.735 307.501C261.028 306.504 260.151 305.85 259.105 305.541C258.059 305.231 256.948 305.312 255.771 305.782C254.778 306.176 254.026 306.731 253.513 307.446C253 308.161 252.71 308.984 252.642 309.916C252.581 310.845 252.725 311.823 253.074 312.849L258.088 310.782L258.64 312.121L253.626 314.188C253.908 314.783 254.247 315.336 254.643 315.846C255.036 316.351 255.541 316.787 256.16 317.154C256.821 317.556 257.528 317.761 258.28 317.769C259.035 317.769 259.786 317.622 260.532 317.33C261.626 316.894 262.44 316.21 262.975 315.278C263.516 314.344 263.718 313.291 263.582 312.117L265.108 311.91C265.249 312.934 265.178 313.885 264.896 314.764C264.618 315.634 264.15 316.405 263.493 317.076C262.836 317.746 262.014 318.285 261.027 318.692ZM268.408 315.316L262.771 301.641L264.053 301.113L274.168 310.397L274.774 296.693L276.075 296.157L281.709 309.822L280.379 310.37L276.03 299.82L275.511 312.388L274.609 312.76L265.394 304.204L269.747 314.764L268.408 315.316ZM289.652 306.892C288.291 307.454 287.018 307.626 285.833 307.411C284.645 307.19 283.59 306.643 282.668 305.772C281.746 304.9 280.996 303.765 280.42 302.365C279.843 300.966 279.574 299.632 279.615 298.364C279.655 297.096 280.019 295.968 280.708 294.98C281.395 293.986 282.419 293.208 283.78 292.647C285.147 292.084 286.422 291.914 287.603 292.138C288.788 292.353 289.841 292.897 290.764 293.768C291.692 294.637 292.445 295.771 293.022 297.171C293.598 298.57 293.864 299.905 293.817 301.176C293.777 302.444 293.414 303.575 292.727 304.569C292.045 305.554 291.019 306.329 289.652 306.892ZM289.1 305.553C290.17 305.112 290.962 304.501 291.477 303.718C291.991 302.936 292.247 302.038 292.244 301.024C292.245 300.002 292.01 298.921 291.54 297.781C291.07 296.642 290.476 295.713 289.758 294.994C289.046 294.273 288.232 293.816 287.315 293.623C286.399 293.431 285.404 293.552 284.332 293.986C283.262 294.427 282.473 295.038 281.965 295.818C281.457 296.597 281.202 297.499 281.201 298.521C281.204 299.535 281.438 300.612 281.901 301.755C282.364 302.897 282.952 303.829 283.664 304.55C284.38 305.262 285.198 305.718 286.117 305.917C287.033 306.109 288.027 305.988 289.1 305.553ZM300.785 301.97L295.148 288.295L300.428 286.118C300.561 286.063 300.712 286.008 300.882 285.953C301.056 285.889 301.234 285.837 301.418 285.799C302.178 285.611 302.886 285.612 303.541 285.801C304.201 285.981 304.778 286.313 305.274 286.798C305.777 287.28 306.175 287.878 306.47 288.594C306.762 289.303 306.9 290.005 306.883 290.701C306.866 291.397 306.689 292.044 306.351 292.643C306.016 293.233 305.516 293.727 304.851 294.127C304.691 294.223 304.528 294.313 304.362 294.396C304.203 294.476 304.057 294.544 303.924 294.599L300.039 296.2L302.181 301.394L300.785 301.97ZM299.491 294.87L303.338 293.285C303.452 293.238 303.582 293.177 303.729 293.101C303.875 293.026 304.015 292.943 304.148 292.851C304.574 292.556 304.878 292.205 305.058 291.798C305.244 291.388 305.329 290.956 305.313 290.504C305.303 290.049 305.211 289.609 305.036 289.185C304.861 288.761 304.617 288.384 304.303 288.054C303.993 287.715 303.628 287.466 303.206 287.306C302.791 287.144 302.329 287.109 301.818 287.2C301.66 287.229 301.503 287.271 301.348 287.327C301.191 287.377 301.056 287.426 300.942 287.473L297.096 289.058L299.491 294.87ZM312.058 297.323L306.421 283.648L307.817 283.072L313.454 296.748L312.058 297.323ZM315.921 295.731L310.284 282.055L311.68 281.48L316.765 293.816L321.95 291.679L316.865 279.342L318.261 278.767L323.346 291.103L328.541 288.962L323.456 276.626L324.842 276.054L330.479 289.729L315.921 295.731ZM332.754 288.792L327.117 275.116L335.664 271.593L336.216 272.932L329.065 275.88L331.014 280.609L337.026 278.131L337.578 279.47L331.566 281.948L333.598 286.877L340.749 283.929L341.301 285.268L332.754 288.792ZM343.206 284.483L337.569 270.808L338.965 270.232L341.506 276.396L349.065 273.28L346.524 267.116L347.911 266.545L353.548 280.22L352.162 280.791L349.617 274.619L342.058 277.735L344.602 283.908L343.206 284.483ZM355.829 279.28L350.191 265.605L351.587 265.029L354.128 271.192L361.688 268.076L359.147 261.913L360.533 261.341L366.171 275.017L364.784 275.588L362.239 269.415L354.68 272.531L357.225 278.704L355.829 279.28ZM377.767 270.236L376.381 270.808L374.24 265.613L369.691 267.488L369.159 267.574C368.065 267.795 367.09 267.638 366.232 267.103C365.374 266.568 364.733 265.784 364.307 264.752C364.012 264.037 363.873 263.331 363.89 262.635C363.907 261.939 364.083 261.297 364.418 260.707C364.756 260.108 365.257 259.609 365.922 259.209C366.086 259.104 366.25 259.015 366.412 258.941C366.571 258.86 366.717 258.792 366.85 258.738L372.13 256.561L377.767 270.236ZM369.486 273.65L367.881 274.311L368.339 267.012L369.889 266.973L369.486 273.65ZM373.691 264.284L371.296 258.472L367.44 260.061C367.332 260.105 367.202 260.166 367.049 260.244C366.9 260.313 366.759 260.394 366.626 260.485C366.199 260.78 365.893 261.132 365.706 261.542C365.526 261.95 365.446 262.383 365.464 262.842C365.481 263.294 365.576 263.733 365.751 264.157C365.926 264.581 366.167 264.96 366.474 265.292C366.782 265.625 367.143 265.872 367.558 266.034C367.979 266.194 368.445 266.228 368.955 266.136C369.114 266.108 369.272 266.068 369.429 266.018C369.593 265.966 369.728 265.917 369.836 265.873L373.691 264.284ZM380.682 271.357L380.481 270.629C380.742 270.543 380.905 270.417 380.97 270.25C381.034 270.082 381.037 269.892 380.979 269.679C380.921 269.466 380.837 269.245 380.728 269.016L379.864 269.372L379.037 267.368L380.661 266.699L381.644 269.083C381.884 269.665 381.915 270.163 381.738 270.577C381.567 270.988 381.215 271.248 380.682 271.357ZM195.867 367.933L194.481 368.505L192.339 363.31L187.79 365.185L187.259 365.271C186.165 365.492 185.189 365.335 184.332 364.8C183.474 364.265 182.833 363.481 182.407 362.449C182.112 361.734 181.973 361.028 181.99 360.332C182.007 359.636 182.183 358.994 182.517 358.404C182.856 357.805 183.357 357.306 184.022 356.906C184.186 356.801 184.349 356.712 184.511 356.638C184.671 356.557 184.817 356.489 184.95 356.435L190.23 354.258L195.867 367.933ZM187.586 371.347L185.981 372.008L186.439 364.709L187.989 364.67L187.586 371.347ZM191.791 361.981L189.395 356.169L185.54 357.758C185.432 357.802 185.302 357.863 185.149 357.941C184.999 358.01 184.859 358.091 184.726 358.182C184.299 358.477 183.993 358.829 183.806 359.239C183.626 359.647 183.545 360.08 183.564 360.539C183.58 360.991 183.676 361.43 183.851 361.854C184.026 362.278 184.267 362.656 184.574 362.989C184.882 363.322 185.243 363.569 185.658 363.731C186.079 363.891 186.545 363.925 187.055 363.833C187.214 363.804 187.372 363.765 187.529 363.715C187.692 363.663 187.828 363.614 187.936 363.57L191.791 361.981ZM198.153 366.991L192.516 353.316L193.912 352.74L196.574 359.198L200.151 350.168L201.937 349.432L198.285 358.659L208.096 362.892L206.273 363.644L196.731 359.578L199.549 366.415L198.153 366.991ZM209.241 362.42L203.603 348.745L204.999 348.17L210.637 361.845L209.241 362.42ZM216.526 359.417L210.889 345.742L221.364 341.424L227.001 355.099L225.605 355.675L220.52 343.338L212.837 346.505L217.922 358.842L216.526 359.417ZM229.279 354.16L223.642 340.485L228.922 338.308C229.055 338.254 229.206 338.199 229.376 338.143C229.549 338.079 229.728 338.028 229.912 337.989C230.672 337.802 231.38 337.803 232.035 337.992C232.695 338.172 233.272 338.504 233.768 338.988C234.271 339.47 234.669 340.069 234.964 340.784C235.256 341.493 235.394 342.196 235.377 342.891C235.36 343.587 235.183 344.234 234.844 344.833C234.51 345.423 234.01 345.918 233.345 346.318C233.185 346.413 233.022 346.503 232.856 346.586C232.697 346.667 232.551 346.734 232.418 346.789L228.533 348.39L230.675 353.585L229.279 354.16ZM227.985 347.061L231.832 345.475C231.945 345.428 232.076 345.367 232.223 345.292C232.369 345.216 232.509 345.133 232.641 345.041C233.068 344.747 233.372 344.396 233.552 343.988C233.738 343.578 233.823 343.147 233.807 342.694C233.797 342.239 233.705 341.799 233.53 341.375C233.355 340.951 233.111 340.574 232.797 340.244C232.487 339.905 232.121 339.656 231.7 339.496C231.285 339.334 230.822 339.299 230.312 339.391C230.154 339.419 229.997 339.461 229.842 339.518C229.685 339.568 229.55 339.616 229.436 339.663L225.59 341.249L227.985 347.061ZM239.041 350.136L238.114 334.519L239.966 333.756L250.314 345.489L248.861 346.088L239.072 335.036L239.622 334.809L240.494 349.537L239.041 350.136ZM239.774 345.957L239.233 344.646L246.299 341.734L246.839 343.044L239.774 345.957ZM263.074 342.307L262.342 340.531L251.649 344.939L246.011 331.264L247.408 330.688L252.512 343.072L260.357 339.838L255.303 327.578L256.699 327.003L261.753 339.263L263.206 338.664L264.47 341.731L263.074 342.307ZM264.883 339.483L259.246 325.808L260.642 325.233L263.175 331.377L266.898 329.843L267.469 331.229L263.746 332.764L266.279 338.908L264.883 339.483ZM275.039 335.631C274.133 336.004 273.259 336.146 272.415 336.057C271.577 335.965 270.796 335.687 270.071 335.223C269.344 334.752 268.686 334.135 268.096 333.37C267.513 332.603 267.022 331.735 266.623 330.767C266.221 329.792 265.958 328.83 265.834 327.881C265.716 326.93 265.75 326.034 265.937 325.194C266.121 324.348 266.479 323.597 267.008 322.942C267.544 322.284 268.265 321.768 269.171 321.395C270.082 321.019 270.957 320.877 271.795 320.969C272.639 321.058 273.424 321.338 274.152 321.808C274.876 322.272 275.529 322.885 276.109 323.646C276.696 324.404 277.19 325.27 277.592 326.245C278.004 327.246 278.272 328.228 278.395 329.192C278.522 330.147 278.492 331.044 278.305 331.884C278.116 332.718 277.75 333.457 277.209 334.103C276.674 334.745 275.95 335.255 275.039 335.631ZM274.487 334.291C275.158 334.015 275.678 333.623 276.046 333.115C276.421 332.605 276.664 332.016 276.774 331.349C276.89 330.679 276.887 329.962 276.764 329.197C276.646 328.424 276.428 327.644 276.11 326.856C275.793 326.068 275.405 325.361 274.947 324.736C274.496 324.107 273.992 323.596 273.438 323.202C272.889 322.806 272.3 322.564 271.671 322.475C271.046 322.377 270.398 322.467 269.726 322.743C269.062 323.018 268.542 323.41 268.167 323.92C267.796 324.421 267.552 325.006 267.436 325.677C267.326 326.344 267.329 327.061 267.445 327.828C267.567 328.592 267.787 329.368 268.105 330.156C268.422 330.944 268.808 331.655 269.262 332.29C269.714 332.919 270.217 333.43 270.772 333.823C271.326 334.217 271.917 334.462 272.542 334.56C273.174 334.655 273.822 334.566 274.487 334.291ZM281.939 332.453L276.302 318.778L277.698 318.202L280.23 324.347L283.953 322.812L284.525 324.198L280.802 325.733L283.335 331.877L281.939 332.453ZM292.094 328.6C291.189 328.973 290.314 329.115 289.47 329.026C288.632 328.934 287.851 328.657 287.126 328.192C286.399 327.722 285.741 327.104 285.152 326.34C284.569 325.573 284.078 324.705 283.679 323.736C283.277 322.761 283.014 321.799 282.889 320.851C282.771 319.899 282.806 319.004 282.993 318.164C283.177 317.317 283.534 316.567 284.064 315.911C284.6 315.253 285.321 314.738 286.226 314.364C287.138 313.989 288.012 313.846 288.85 313.938C289.694 314.027 290.48 314.307 291.207 314.778C291.932 315.242 292.584 315.854 293.165 316.615C293.751 317.373 294.245 318.24 294.647 319.215C295.06 320.215 295.327 321.197 295.451 322.161C295.578 323.116 295.548 324.014 295.361 324.854C295.171 325.687 294.806 326.427 294.264 327.072C293.729 327.715 293.006 328.224 292.094 328.6ZM291.542 327.261C292.213 326.984 292.733 326.592 293.102 326.085C293.477 325.575 293.719 324.986 293.829 324.318C293.945 323.648 293.942 322.931 293.82 322.167C293.701 321.393 293.483 320.613 293.166 319.825C292.849 319.038 292.461 318.331 292.003 317.705C291.551 317.076 291.048 316.565 290.493 316.172C289.945 315.776 289.356 315.533 288.727 315.445C288.101 315.347 287.453 315.436 286.782 315.713C286.117 315.987 285.597 316.379 285.222 316.889C284.851 317.39 284.608 317.976 284.491 318.646C284.381 319.313 284.384 320.031 284.5 320.798C284.623 321.562 284.843 322.338 285.16 323.125C285.477 323.913 285.863 324.624 286.317 325.259C286.769 325.888 287.272 326.399 287.827 326.792C288.382 327.186 288.972 327.432 289.597 327.529C290.229 327.624 290.877 327.535 291.542 327.261ZM302.261 324.076L297.175 311.74L292.398 313.709L291.846 312.37L302.796 307.856L303.348 309.195L298.571 311.164L303.657 323.5L302.261 324.076ZM309.567 321.064L303.93 307.389L305.326 306.813L307.467 312.008L311.351 310.407C311.484 310.352 311.636 310.297 311.805 310.242C311.979 310.178 312.161 310.125 312.351 310.084C313.105 309.899 313.809 309.901 314.465 310.09C315.124 310.27 315.702 310.602 316.198 311.087C316.7 311.568 317.097 312.164 317.39 312.873C317.685 313.588 317.824 314.294 317.807 314.99C317.796 315.683 317.622 316.329 317.283 316.928C316.949 317.517 316.449 318.012 315.784 318.412C315.618 318.511 315.451 318.601 315.286 318.684C315.126 318.765 314.98 318.833 314.847 318.887L309.567 321.064ZM310.411 319.15L314.257 317.564C314.377 317.514 314.511 317.452 314.658 317.377C314.804 317.301 314.945 317.221 315.081 317.136C315.501 316.844 315.804 316.493 315.991 316.083C316.177 315.673 316.262 315.241 316.246 314.789C316.227 314.33 316.131 313.888 315.956 313.464C315.781 313.04 315.54 312.662 315.232 312.329C314.925 311.997 314.56 311.75 314.139 311.591C313.718 311.431 313.255 311.396 312.751 311.485C312.593 311.514 312.435 311.553 312.278 311.603C312.12 311.653 311.982 311.702 311.861 311.752L308.015 313.338L310.411 319.15ZM324.267 315.004L318.63 301.329L320.026 300.753L322.567 306.917L330.126 303.801L327.586 297.637L328.972 297.066L334.609 310.741L333.223 311.313L330.678 305.14L323.119 308.256L325.663 314.429L324.267 315.004ZM335.94 310.192L335.013 294.576L336.865 293.812L347.213 305.546L345.76 306.145L335.971 295.092L336.521 294.865L337.393 309.594L335.94 310.192ZM336.673 306.013L336.132 304.702L343.198 301.79L343.738 303.1L336.673 306.013ZM351.97 303.585L346.333 289.909L351.613 287.733C352.379 287.417 353.113 287.3 353.813 287.382C354.513 287.463 355.132 287.708 355.671 288.116C356.207 288.517 356.608 289.04 356.874 289.686C357.177 290.421 357.25 291.157 357.095 291.895C356.938 292.626 356.575 293.239 356.008 293.732L355.797 293.274C356.788 293.162 357.667 293.318 358.435 293.742C359.202 294.167 359.771 294.828 360.142 295.727C360.468 296.519 360.582 297.272 360.484 297.986C360.384 298.694 360.093 299.329 359.613 299.89C359.133 300.45 358.491 300.896 357.687 301.228L351.97 303.585ZM352.824 301.666L356.794 300.03C357.351 299.8 357.81 299.496 358.173 299.117C358.532 298.732 358.763 298.303 358.865 297.832C358.973 297.357 358.92 296.861 358.706 296.341C358.497 295.835 358.192 295.427 357.791 295.119C357.39 294.81 356.937 294.619 356.433 294.546C355.932 294.463 355.425 294.527 354.912 294.739L350.686 296.481L352.824 301.666ZM350.142 295.161L354.007 293.568C354.444 293.388 354.803 293.125 355.083 292.78C355.36 292.429 355.531 292.036 355.597 291.601C355.669 291.164 355.61 290.718 355.423 290.262C355.156 289.616 354.715 289.184 354.098 288.964C353.488 288.741 352.838 288.772 352.148 289.057L348.283 290.65L350.142 295.161ZM362.289 299.331L361.362 283.714L363.214 282.951L373.562 294.684L372.109 295.283L362.32 284.23L362.87 284.003L363.742 298.732L362.289 299.331ZM363.022 295.151L362.481 293.841L369.547 290.928L370.087 292.239L363.022 295.151ZM374.897 294.134L369.26 280.459L370.656 279.883L375.741 292.219L380.926 290.082L375.841 277.746L377.237 277.17L382.322 289.506L387.517 287.365L382.431 275.029L383.818 274.457L389.455 288.133L374.897 294.134ZM264.303 362.437L258.666 348.762L267.108 345.282L267.66 346.621L260.614 349.525L262.254 353.504L266.138 351.903C266.271 351.849 266.422 351.794 266.592 351.738C266.766 351.674 266.943 351.62 267.125 351.574C267.866 351.38 268.564 351.374 269.217 351.556C269.876 351.736 270.457 352.067 270.959 352.549C271.468 353.028 271.866 353.616 272.153 354.312C272.44 355.009 272.572 355.706 272.549 356.405C272.532 357.1 272.353 357.745 272.012 358.337C271.677 358.927 271.178 359.414 270.515 359.799C270.352 359.888 270.187 359.974 270.021 360.057C269.862 360.138 269.716 360.206 269.583 360.26L264.303 362.437ZM265.147 360.523L268.993 358.937C269.107 358.89 269.237 358.829 269.384 358.754C269.531 358.678 269.672 358.598 269.807 358.513C270.452 358.084 270.83 357.535 270.94 356.868C271.054 356.191 270.98 355.537 270.719 354.904C270.455 354.264 270.046 353.748 269.491 353.354C268.943 352.958 268.289 352.835 267.529 352.986C267.37 353.014 267.213 353.056 267.059 353.113C266.902 353.163 266.766 353.211 266.652 353.258L262.806 354.843L265.147 360.523ZM275.576 357.79L269.938 344.115L271.334 343.539L276.972 357.215L275.576 357.79ZM283.934 354.678C283.004 355.061 282.14 355.258 281.344 355.268C280.555 355.275 279.85 355.147 279.231 354.884C278.608 354.614 278.083 354.264 277.653 353.834L278.621 352.568C278.95 352.936 279.352 353.23 279.828 353.449C280.303 353.667 280.844 353.774 281.449 353.769C282.054 353.764 282.714 353.614 283.43 353.319C284.171 353.014 284.749 352.638 285.165 352.193C285.588 351.744 285.845 351.253 285.936 350.72C286.027 350.186 285.956 349.637 285.724 349.074C285.468 348.453 285.121 348.033 284.683 347.814C284.244 347.595 283.746 347.519 283.188 347.586C282.628 347.646 282.037 347.794 281.415 348.028C280.945 348.199 280.611 348.322 280.412 348.397C280.213 348.472 280.082 348.522 280.019 348.548C279.955 348.574 279.895 348.599 279.838 348.622L279.282 347.274C279.327 347.256 279.444 347.207 279.634 347.129C279.824 347.051 280.026 346.967 280.242 346.878C280.454 346.783 280.623 346.707 280.747 346.648C281.634 346.231 282.248 345.699 282.59 345.055C282.931 344.41 282.951 343.721 282.648 342.987C282.327 342.208 281.802 341.717 281.074 341.513C280.352 341.307 279.558 341.383 278.69 341.74C277.873 342.077 277.264 342.558 276.863 343.183C276.465 343.799 276.223 344.506 276.137 345.304L274.649 344.928C274.761 343.979 275.108 343.095 275.69 342.277C276.271 341.46 277.1 340.829 278.176 340.386C278.752 340.148 279.336 340 279.927 339.942C280.524 339.881 281.089 339.922 281.622 340.065C282.161 340.206 282.646 340.465 283.076 340.844C283.51 341.213 283.857 341.714 284.118 342.347C284.423 343.088 284.525 343.802 284.423 344.488C284.327 345.172 284.08 345.759 283.682 346.249C284.464 346.171 285.16 346.314 285.769 346.677C286.385 347.038 286.867 347.643 287.217 348.492C287.562 349.327 287.656 350.14 287.5 350.93C287.345 351.72 286.96 352.442 286.348 353.094C285.739 353.738 284.935 354.265 283.934 354.678ZM290.392 351.683L284.755 338.007L286.151 337.432L288.692 343.595L296.251 340.479L293.71 334.316L295.097 333.744L300.734 347.419L299.347 347.991L296.803 341.818L289.243 344.934L291.788 351.107L290.392 351.683ZM303.014 346.479L297.377 332.804L305.924 329.281L306.476 330.62L299.325 333.568L301.275 338.297L307.286 335.819L307.838 337.158L301.827 339.636L303.859 344.565L311.01 341.617L311.562 342.956L303.014 346.479ZM318.546 340.41C317.185 340.971 315.912 341.144 314.727 340.929C313.539 340.708 312.484 340.161 311.562 339.289C310.64 338.418 309.89 337.282 309.313 335.883C308.737 334.484 308.468 333.15 308.508 331.882C308.549 330.614 308.913 329.486 309.602 328.498C310.289 327.504 311.313 326.726 312.674 326.165C314.263 325.51 315.729 325.384 317.072 325.785C318.413 326.181 319.552 326.985 320.489 328.199L319.218 329.156C318.48 328.194 317.604 327.551 316.59 327.229C315.575 326.906 314.454 326.998 313.226 327.504C312.156 327.945 311.367 328.556 310.859 329.336C310.35 330.115 310.096 331.016 310.095 332.039C310.098 333.052 310.328 334.132 310.785 335.276C311.249 336.419 311.837 337.35 312.549 338.072C313.267 338.79 314.086 339.249 315.005 339.448C315.928 339.638 316.924 339.512 317.994 339.071C319.222 338.565 320.082 337.84 320.575 336.896C321.065 335.946 321.233 334.873 321.081 333.677L322.658 333.46C322.848 334.981 322.608 336.358 321.938 337.59C321.266 338.815 320.135 339.755 318.546 340.41ZM325.428 337.24L324.758 335.616L326.382 334.947L327.052 336.571L325.428 337.24Z" fill="#707070"/>
<path d="M167.716 403.03L153.902 408.724L148.209 394.91L162.022 389.216L167.716 403.03Z" fill="#0A0A0A"/>
<path d="M173.413 416.846L159.599 422.54L153.905 408.726L167.719 403.033L173.413 416.846Z" fill="#FF3800"/>
<path d="M187.225 411.155L173.411 416.848L167.718 403.035L181.531 397.341L187.225 411.155Z" fill="#0A0A0A"/>
<path d="M142.647 348.73L128.833 354.424L134.527 368.237L148.341 362.544L142.647 348.73Z" fill="#0A0A0A"/>
<path d="M136.952 334.918L123.138 340.611L128.832 354.425L142.645 348.731L136.952 334.918Z" fill="#FF3800"/>
<path d="M150.765 329.222L136.951 334.916L142.644 348.729L156.458 343.036L150.765 329.222Z" fill="#0A0A0A"/>
<path d="M425.573 296.756L439.387 291.063L433.693 277.249L419.88 282.943L425.573 296.756Z" fill="#0A0A0A"/>
<path d="M431.269 310.569L445.083 304.875L439.389 291.061L425.576 296.755L431.269 310.569Z" fill="#FF3800"/>
<path d="M417.457 316.264L431.271 310.571L425.577 296.757L411.763 302.451L417.457 316.264Z" fill="#0A0A0A"/>
<path d="M405.107 240.554L418.92 234.86L424.614 248.674L410.8 254.368L405.107 240.554Z" fill="#0A0A0A"/>
<path d="M399.411 226.738L413.225 221.044L418.918 234.858L405.105 240.551L399.411 226.738Z" fill="#FF3800"/>
<path d="M385.599 232.433L399.412 226.74L405.106 240.553L391.292 246.247L385.599 232.433Z" fill="#0A0A0A"/>
</g>
<defs>
<clipPath id="clip0_1187_1216">
<rect width="398.426" height="398.426" fill="white" transform="translate(0 152.162) rotate(-22.4)"/>
</clipPath>
</defs>
</svg>
