<svg viewBox="0 0 491 517" fill="none" xmlns="http://www.w3.org/2000/svg">
<g clip-path="url(#clip0_754_2303)">
<path d="M72.5989 154.371L31.3809 170.538L47.5487 211.756L88.7668 195.589L72.5989 154.371Z" fill="#F8F8FF"/>
<path d="M113.808 138.21L72.5898 154.378L88.7577 195.596L129.976 179.428L113.808 138.21Z" fill="#FF3800"/>
<path d="M196.241 105.874L155.023 122.042L171.191 163.26L212.409 147.093L196.241 105.874Z" fill="#F8F8FF"/>
<path d="M278.659 73.5464L237.441 89.7142L253.609 130.932L294.827 114.764L278.659 73.5464Z" fill="#FF3800"/>
<path d="M319.879 57.3784L278.661 73.5463L294.829 114.764L336.047 98.5964L319.879 57.3784Z" fill="#F8F8FF"/>
<path d="M97.6419 96.9917L56.4238 113.16L72.5917 154.378L113.81 138.21L97.6419 96.9917Z" fill="#F8F8FF"/>
<path d="M138.856 80.8276L97.6377 96.9955L113.806 138.214L155.024 122.046L138.856 80.8276Z" fill="#F8F8FF"/>
<path d="M221.274 48.4956L180.056 64.6635L196.224 105.881L237.442 89.7136L221.274 48.4956Z" fill="#F8F8FF"/>
<path d="M262.493 32.3276L221.275 48.4955L237.443 89.7135L278.661 73.5457L262.493 32.3276Z" fill="#F8F8FF"/>
<path d="M47.5471 211.742L6.3291 227.91L22.497 269.128L63.715 252.96L47.5471 211.742Z" fill="#F8F8FF"/>
<path d="M88.76 195.578L47.542 211.745L63.7099 252.964L104.928 236.796L88.76 195.578Z" fill="#FF3800"/>
<path d="M336.04 98.5815L294.822 114.749L310.99 155.967L352.208 139.8L336.04 98.5815Z" fill="#FF3800"/>
<path d="M63.7132 252.96L22.4951 269.128L38.663 310.346L79.881 294.178L63.7132 252.96Z" fill="#F8F8FF"/>
<path d="M228.57 188.296L187.352 204.464L203.519 245.682L244.737 229.514L228.57 188.296Z" fill="#FF3800"/>
<path d="M121.099 278.011L79.8809 294.179L96.0487 335.397L137.267 319.229L121.099 278.011Z" fill="#F8F8FF"/>
<path d="M203.517 245.679L162.299 261.847L178.467 303.065L219.685 286.897L203.517 245.679Z" fill="#FF3800"/>
<path d="M244.736 229.515L203.518 245.683L219.685 286.901L260.903 270.733L244.736 229.515Z" fill="#F8F8FF"/>
<path d="M285.936 213.351L244.718 229.519L260.886 270.737L302.104 254.569L285.936 213.351Z" fill="#FF3800"/>
<path d="M368.374 181.015L327.156 197.183L343.324 238.401L384.542 222.233L368.374 181.015Z" fill="#F8F8FF"/>
<path d="M96.0413 335.379L54.8232 351.546L70.9911 392.764L112.209 376.597L96.0413 335.379Z" fill="#F8F8FF"/>
<path d="M260.903 270.714L219.685 286.882L235.852 328.1L277.07 311.932L260.903 270.714Z" fill="#FF3800"/>
<path d="M112.119 375.683L70.3916 392.05L87.214 434.937L128.942 418.569L112.119 375.683Z" fill="#F8F8FF"/>
<path d="M153.432 360.429L112.214 376.597L128.382 417.815L169.6 401.647L153.432 360.429Z" fill="#FF3800"/>
<path d="M400.702 263.437L359.484 279.605L375.652 320.823L416.87 304.655L400.702 263.437Z" fill="#FF3800"/>
<path d="M169.599 401.648L128.381 417.816L144.549 459.034L185.767 442.866L169.599 401.648Z" fill="#F8F8FF"/>
<path d="M210.798 385.488L169.58 401.656L185.748 442.874L226.966 426.706L210.798 385.488Z" fill="#FF3800"/>
<path d="M293.236 353.148L252.018 369.316L268.185 410.534L309.403 394.366L293.236 353.148Z" fill="#F8F8FF"/>
<path d="M375.659 320.824L334.441 336.991L350.609 378.21L391.827 362.042L375.659 320.824Z" fill="#FF3800"/>
<path d="M416.874 304.656L375.656 320.824L391.824 362.042L433.042 345.874L416.874 304.656Z" fill="#F8F8FF"/>
<path d="M226.96 426.687L185.742 442.855L201.91 484.073L243.128 467.905L226.96 426.687Z" fill="#F8F8FF"/>
<path d="M268.174 410.519L226.956 426.687L243.124 467.905L284.342 451.737L268.174 410.519Z" fill="#F8F8FF"/>
<path d="M350.598 378.191L309.38 394.359L325.548 435.577L366.766 419.409L350.598 378.191Z" fill="#F8F8FF"/>
<path d="M391.817 362.023L350.599 378.191L366.766 419.409L407.985 403.241L391.817 362.023Z" fill="#F8F8FF"/>
<path d="M377.245 82.4175L336.027 98.5853L352.195 139.803L393.413 123.636L377.245 82.4175Z" fill="#F8F8FF"/>
<path d="M393.407 123.636L352.189 139.804L368.357 181.022L409.575 164.854L393.407 123.636Z" fill="#F8F8FF"/>
<path d="M425.741 206.054L384.522 222.222L400.69 263.44L441.908 247.272L425.741 206.054Z" fill="#F8F8FF"/>
<path d="M441.911 247.273L400.693 263.441L416.861 304.659L458.079 288.491L441.911 247.273Z" fill="#F8F8FF"/>
<rect x="45.6309" y="211.605" width="314.075" height="222.544" transform="rotate(-21.4177 45.6309 211.605)" fill="#F8F8FF"/>
<rect x="70.9414" y="151.804" width="222.544" height="317.664" transform="rotate(-21.4177 70.9414 151.804)" fill="#F8F8FF"/>
<path d="M118.612 284.436L110.755 264.407L127.279 257.925L135.136 277.954L131.353 279.438L124.882 262.942L115.924 266.456L122.396 282.952L118.612 284.436ZM147.801 273.467C145.798 274.253 143.897 274.495 142.1 274.195C140.311 273.891 138.716 273.11 137.313 271.852C135.919 270.59 134.815 268.921 134 266.844C133.185 264.767 132.86 262.792 133.024 260.919C133.197 259.043 133.836 257.385 134.941 255.946C136.055 254.503 137.613 253.389 139.616 252.603C141.619 251.818 143.515 251.577 145.303 251.881C147.101 252.182 148.696 252.963 150.09 254.224C151.493 255.482 152.602 257.15 153.417 259.227C154.232 261.304 154.552 263.28 154.379 265.157C154.215 267.029 153.576 268.687 152.462 270.13C151.357 271.569 149.804 272.681 147.801 273.467ZM146.404 269.906C147.681 269.426 148.631 268.738 149.253 267.842C149.875 266.945 150.191 265.895 150.201 264.693C150.22 263.487 149.957 262.189 149.411 260.798C148.865 259.407 148.179 258.285 147.353 257.433C146.535 256.576 145.594 256.031 144.528 255.796C143.462 255.562 142.29 255.684 141.013 256.164C139.735 256.644 138.785 257.332 138.164 258.229C137.542 259.126 137.221 260.177 137.202 261.383C137.192 262.585 137.46 263.881 138.006 265.272C138.551 266.663 139.233 267.787 140.05 268.643C140.877 269.496 141.823 270.039 142.889 270.274C143.955 270.509 145.126 270.386 146.404 269.906ZM159.776 272.14L157.08 265.269C157.683 265.032 158.135 264.684 158.435 264.223C158.742 263.75 158.922 263.187 158.977 262.534C159.027 261.873 158.986 261.14 158.853 260.336C158.719 259.533 158.519 258.68 158.251 257.78C157.907 256.631 157.561 255.504 157.213 254.399C156.862 253.285 156.496 252.134 156.116 250.946C155.731 249.748 155.32 248.454 154.882 247.064L168.19 241.876L174.661 258.372L176.191 257.771L178.887 264.642L175.103 266.127L173.794 262.788L162.249 267.317L163.559 270.655L159.776 272.14ZM162.727 263.053L170.878 259.856L165.792 246.893L159.717 249.244C160.012 250.187 160.288 251.053 160.543 251.841C160.808 252.625 161.067 253.422 161.321 254.232C161.574 255.042 161.846 255.952 162.135 256.962C162.424 257.972 162.646 258.81 162.801 259.477C162.952 260.135 163.021 260.734 163.008 261.274C163.005 261.81 162.911 262.403 162.727 263.053ZM180.632 260.106L172.775 240.077L180.787 236.934C182.215 236.374 183.482 236.208 184.588 236.437C185.691 236.657 186.616 237.119 187.362 237.821C188.108 238.523 188.654 239.315 189 240.196C189.44 241.318 189.55 242.35 189.331 243.292C189.122 244.23 188.626 244.997 187.843 245.593L187.57 244.897C188.924 244.666 190.088 244.878 191.062 245.534C192.045 246.186 192.755 247.068 193.192 248.181C193.661 249.377 193.851 250.517 193.763 251.6C193.683 252.68 193.296 253.656 192.6 254.528C191.901 255.391 190.869 256.09 189.506 256.624L180.632 260.106ZM183.074 255.039L187.72 253.216C188.23 253.016 188.643 252.732 188.958 252.362C189.269 251.983 189.46 251.555 189.529 251.078C189.605 250.589 189.537 250.075 189.326 249.537C189.14 249.064 188.878 248.68 188.537 248.386C188.197 248.091 187.786 247.916 187.303 247.859C186.827 247.789 186.296 247.869 185.712 248.098L181.066 249.92L183.074 255.039ZM179.68 246.388L183.798 244.772C184.224 244.605 184.575 244.382 184.851 244.102C185.126 243.823 185.302 243.492 185.376 243.11C185.447 242.718 185.386 242.277 185.194 241.785C184.953 241.173 184.562 240.733 184.018 240.465C183.474 240.197 182.84 240.205 182.117 240.488L178 242.104L179.68 246.388ZM198.623 253.048L190.765 233.019L194.549 231.535L202.406 251.564L198.623 253.048ZM206.576 249.928L198.719 229.899L202.557 228.393L207.796 241.746L211.264 224.977L215.103 223.471L222.961 243.5L219.122 245.006L213.884 231.654L210.415 248.422L206.576 249.928ZM206.187 225.043C205.371 225.363 204.551 225.455 203.727 225.318C202.903 225.181 202.16 224.857 201.5 224.346C200.839 223.835 200.349 223.171 200.028 222.355L202.949 221.21C203.113 221.627 203.397 221.927 203.801 222.111C204.21 222.282 204.623 222.286 205.041 222.122C205.458 221.959 205.754 221.677 205.929 221.277C206.109 220.863 206.117 220.448 205.954 220.031L208.875 218.885C209.195 219.701 209.286 220.521 209.149 221.345C209.013 222.169 208.689 222.912 208.177 223.572C207.666 224.233 207.003 224.723 206.187 225.043ZM231.487 240.155L225.016 223.659L218.701 226.136L217.315 222.604L233.728 216.165L235.114 219.698L228.799 222.175L235.271 238.671L231.487 240.155ZM243.82 235.317L235.963 215.288L249.038 210.159L250.424 213.692L241.132 217.337L242.813 221.621L250.435 218.631L251.821 222.163L244.199 225.154L246.218 230.3L255.509 226.655L256.895 230.188L243.82 235.317ZM265.798 226.695L257.94 206.666L265.952 203.523C267.38 202.963 268.647 202.798 269.754 203.027C270.856 203.247 271.781 203.708 272.527 204.411C273.274 205.113 273.82 205.904 274.165 206.785C274.605 207.907 274.716 208.939 274.497 209.881C274.287 210.819 273.791 211.587 273.008 212.182L272.735 211.487C274.089 211.256 275.253 211.468 276.227 212.123C277.211 212.776 277.92 213.658 278.357 214.771C278.826 215.967 279.017 217.107 278.928 218.19C278.849 219.27 278.461 220.245 277.765 221.118C277.066 221.98 276.035 222.679 274.672 223.214L265.798 226.695ZM268.24 221.629L272.885 219.806C273.395 219.606 273.808 219.321 274.123 218.951C274.434 218.572 274.625 218.145 274.695 217.668C274.77 217.178 274.702 216.664 274.491 216.127C274.306 215.654 274.043 215.27 273.703 214.975C273.363 214.681 272.951 214.505 272.469 214.448C271.992 214.379 271.462 214.458 270.877 214.688L266.232 216.51L268.24 221.629ZM264.846 212.977L268.963 211.362C269.389 211.195 269.741 210.971 270.016 210.692C270.292 210.413 270.467 210.082 270.542 209.699C270.613 209.308 270.552 208.866 270.359 208.375C270.119 207.763 269.727 207.323 269.183 207.055C268.639 206.787 268.006 206.794 267.282 207.078L263.165 208.693L264.846 212.977ZM282.119 220.292L280.382 197.863L286.029 195.647L300.006 213.275L296.112 214.803L283.729 199.278L284.453 198.994L286.014 218.765L282.119 220.292ZM284.154 214.679L282.768 211.146L293.339 206.999L294.725 210.532L284.154 214.679ZM302.499 212.297L294.642 192.268L298.425 190.784L304.896 207.28L310.627 205.032L304.155 188.536L307.939 187.052L314.41 203.548L320.141 201.3L313.669 184.804L317.452 183.32L325.31 203.349L302.499 212.297ZM329.481 201.712L321.624 181.683L325.407 180.199L333.265 200.228L329.481 201.712ZM173.559 298.329L165.702 278.3L182.226 271.818L190.083 291.847L186.3 293.331L179.828 276.835L170.871 280.349L177.342 296.845L173.559 298.329ZM193.988 290.315L186.131 270.286L194.587 266.968C194.782 266.892 195.045 266.799 195.377 266.69C195.715 266.569 196.022 266.48 196.3 266.425C197.569 266.141 198.702 266.151 199.699 266.456C200.705 266.756 201.569 267.295 202.29 268.071C203.009 268.838 203.588 269.782 204.028 270.904C204.468 272.026 204.683 273.119 204.672 274.183C204.667 275.233 204.398 276.211 203.864 277.115C203.341 278.016 202.522 278.792 201.407 279.444C201.162 279.582 200.876 279.727 200.55 279.876C200.223 280.026 199.967 280.137 199.782 280.21L195.109 282.043L197.771 288.831L193.988 290.315ZM193.723 278.51L198.229 276.742C198.424 276.666 198.633 276.573 198.858 276.463C199.083 276.354 199.281 276.233 199.454 276.101C199.91 275.762 200.213 275.375 200.364 274.942C200.511 274.499 200.557 274.058 200.503 273.619C200.454 273.168 200.359 272.761 200.217 272.399C200.075 272.038 199.87 271.679 199.602 271.324C199.34 270.956 199.007 270.665 198.601 270.449C198.192 270.225 197.705 270.143 197.141 270.204C196.924 270.224 196.696 270.271 196.457 270.343C196.218 270.416 196.001 270.49 195.806 270.567L191.3 272.334L193.723 278.51ZM220.84 280.262C218.837 281.048 216.937 281.29 215.139 280.99C213.351 280.686 211.755 279.905 210.352 278.647C208.958 277.385 207.854 275.716 207.039 273.639C206.224 271.562 205.899 269.587 206.063 267.714C206.237 265.838 206.876 264.18 207.98 262.741C209.094 261.299 210.652 260.184 212.655 259.399C214.658 258.613 216.554 258.372 218.342 258.676C220.14 258.977 221.736 259.758 223.129 261.019C224.532 262.277 225.641 263.945 226.456 266.022C227.271 268.099 227.592 270.076 227.418 271.952C227.254 273.824 226.615 275.482 225.501 276.925C224.397 278.364 222.843 279.476 220.84 280.262ZM219.443 276.701C220.721 276.222 221.671 275.533 222.293 274.637C222.914 273.74 223.23 272.691 223.24 271.488C223.259 270.283 222.996 268.984 222.45 267.593C221.905 266.202 221.219 265.081 220.392 264.228C219.574 263.372 218.633 262.826 217.567 262.592C216.501 262.357 215.33 262.48 214.052 262.959C212.775 263.439 211.825 264.127 211.203 265.024C210.581 265.921 210.26 266.972 210.241 268.178C210.231 269.38 210.499 270.677 211.045 272.068C211.591 273.458 212.272 274.582 213.09 275.438C213.916 276.291 214.862 276.835 215.928 277.069C216.994 277.304 218.166 277.181 219.443 276.701ZM232.815 278.935L230.119 272.064C230.722 271.827 231.174 271.479 231.475 271.018C231.781 270.545 231.962 269.982 232.016 269.33C232.067 268.668 232.025 267.935 231.892 267.131C231.759 266.328 231.558 265.476 231.29 264.575C230.946 263.426 230.601 262.299 230.253 261.194C229.901 260.08 229.535 258.929 229.155 257.741C228.771 256.543 228.359 255.249 227.921 253.859L241.229 248.671L247.7 265.167L249.23 264.567L251.926 271.438L248.143 272.922L246.833 269.584L235.289 274.112L236.598 277.451L232.815 278.935ZM235.766 269.848L243.917 266.651L238.832 253.688L232.756 256.039C233.052 256.982 233.327 257.848 233.583 258.636C233.847 259.42 234.107 260.217 234.36 261.027C234.614 261.837 234.885 262.747 235.174 263.757C235.464 264.767 235.686 265.606 235.84 266.273C235.991 266.93 236.06 267.529 236.047 268.069C236.044 268.605 235.95 269.199 235.766 269.848ZM252.281 267.446L250.543 245.017L256.19 242.801L270.168 260.429L266.273 261.957L253.891 246.432L254.614 246.148L256.175 265.919L252.281 267.446ZM254.316 261.833L252.93 258.3L263.501 254.153L264.887 257.686L254.316 261.833ZM270.992 260.106L274.102 247.17L263.663 239.87L268.142 238.113L277.33 244.844L273.816 235.887L277.6 234.402L281.114 243.36L283.275 232.176L287.753 230.419L285.062 242.87L296.139 250.241L291.494 252.063L281.987 245.585L285.457 254.431L281.674 255.916L278.203 247.069L275.637 258.284L270.992 260.106ZM298.638 249.261L290.781 229.232L294.564 227.747L302.421 247.776L298.638 249.261Z" fill="#0A0A0A"/>
<path d="M160.518 366.665L157.982 360.201L158.61 360.65C158.293 361.135 157.854 361.601 157.294 362.049C156.732 362.49 156.049 362.868 155.246 363.183C154.053 363.651 153.011 363.806 152.118 363.649C151.231 363.489 150.477 363.086 149.856 362.44C149.232 361.787 148.724 360.96 148.331 359.959L146.835 356.144L148.25 355.589L149.555 358.916C149.805 359.554 150.093 360.11 150.42 360.586C150.746 361.061 151.123 361.431 151.551 361.698C151.979 361.964 152.466 362.107 153.011 362.129C153.554 362.144 154.167 362.018 154.849 361.75C155.697 361.417 156.377 361.004 156.889 360.508C157.398 360.007 157.737 359.55 157.907 359.138L158.053 360.383L155.116 352.895L156.521 352.344L161.923 366.114L160.518 366.665ZM164.218 365.214L158.816 351.444L167.422 348.067L167.951 349.416L160.751 352.24L162.619 357.003L168.672 354.628L169.201 355.976L163.148 358.351L165.095 363.314L172.295 360.489L172.824 361.837L164.218 365.214ZM174.743 361.085L169.341 347.315L174.657 345.229C174.791 345.177 174.944 345.124 175.114 345.072C175.289 345.011 175.469 344.962 175.653 344.927C176.416 344.752 177.124 344.765 177.776 344.966C178.432 345.157 179.004 345.499 179.492 345.992C179.986 346.482 180.374 347.087 180.656 347.808C180.937 348.522 181.062 349.227 181.033 349.922C181.005 350.617 180.816 351.261 180.467 351.854C180.123 352.438 179.615 352.924 178.943 353.313C178.781 353.406 178.616 353.493 178.449 353.573C178.288 353.651 178.141 353.716 178.007 353.768L174.096 355.303L176.148 360.533L174.743 361.085ZM173.571 353.964L177.444 352.445C177.559 352.4 177.69 352.341 177.838 352.268C177.986 352.195 178.127 352.114 178.261 352.025C178.693 351.738 179.002 351.392 179.189 350.987C179.383 350.581 179.475 350.151 179.467 349.698C179.465 349.243 179.38 348.801 179.212 348.374C179.045 347.947 178.807 347.566 178.499 347.231C178.195 346.887 177.834 346.631 177.415 346.464C177.003 346.295 176.541 346.252 176.029 346.335C175.87 346.361 175.713 346.4 175.557 346.454C175.399 346.501 175.263 346.547 175.148 346.592L171.275 348.112L173.571 353.964ZM185.902 356.707L180.5 342.937L189.106 339.561L189.635 340.909L182.435 343.734L184.303 348.496L190.356 346.121L190.885 347.47L184.832 349.844L186.779 354.807L193.979 351.982L194.508 353.331L185.902 356.707ZM200.369 351.363C199.432 351.73 198.565 351.912 197.769 351.908C196.979 351.901 196.277 351.761 195.662 351.488C195.045 351.208 194.525 350.849 194.103 350.411L195.092 349.162C195.415 349.536 195.812 349.836 196.284 350.063C196.755 350.29 197.294 350.406 197.899 350.411C198.504 350.417 199.167 350.278 199.888 349.996C200.633 349.703 201.218 349.337 201.642 348.899C202.072 348.458 202.338 347.971 202.438 347.439C202.538 346.907 202.477 346.357 202.254 345.79C202.009 345.165 201.669 344.74 201.235 344.513C200.8 344.286 200.303 344.201 199.745 344.259C199.183 344.31 198.59 344.447 197.964 344.67C197.491 344.834 197.155 344.951 196.955 345.022C196.754 345.093 196.622 345.141 196.559 345.167C196.495 345.192 196.434 345.215 196.377 345.238L195.844 343.88C195.889 343.862 196.007 343.816 196.198 343.741C196.389 343.666 196.593 343.586 196.81 343.501C197.024 343.41 197.194 343.336 197.319 343.279C198.213 342.877 198.837 342.357 199.189 341.718C199.542 341.08 199.573 340.39 199.283 339.651C198.975 338.867 198.459 338.367 197.735 338.151C197.016 337.933 196.221 337.995 195.347 338.337C194.525 338.66 193.907 339.13 193.495 339.748C193.087 340.357 192.833 341.06 192.733 341.856L191.252 341.455C191.38 340.508 191.742 339.63 192.338 338.823C192.933 338.015 193.773 337.399 194.856 336.974C195.437 336.746 196.022 336.608 196.614 336.56C197.212 336.51 197.776 336.56 198.307 336.713C198.844 336.862 199.324 337.13 199.747 337.516C200.175 337.893 200.513 338.4 200.764 339.037C201.056 339.783 201.146 340.498 201.032 341.183C200.924 341.865 200.667 342.448 200.261 342.931C201.045 342.866 201.738 343.021 202.341 343.395C202.95 343.766 203.422 344.379 203.757 345.233C204.087 346.075 204.168 346.889 203.998 347.677C203.829 348.464 203.433 349.179 202.809 349.82C202.189 350.453 201.376 350.967 200.369 351.363ZM210.514 347.051L205.112 333.282L206.518 332.73L211.92 346.5L210.514 347.051ZM214.404 345.525L209.002 331.756L210.408 331.204L212.843 337.41L220.454 334.424L218.02 328.218L219.416 327.67L224.818 341.44L223.422 341.988L220.983 335.772L213.372 338.758L215.81 344.974L214.404 345.525ZM227.374 343.086L225.944 339.442C226.48 339.232 226.858 338.93 227.078 338.534C227.295 338.133 227.401 337.672 227.396 337.152C227.391 336.631 227.322 336.073 227.192 335.477C227.058 334.875 226.91 334.271 226.746 333.666C226.503 332.783 226.251 331.937 225.992 331.126C225.739 330.313 225.466 329.475 225.171 328.612C224.883 327.747 224.571 326.799 224.233 325.77L232.728 322.448L237.601 334.87L238.586 334.483L240.015 338.126L238.619 338.674L237.719 336.379L227.879 340.239L228.779 342.534L227.374 343.086ZM228.631 338.388L236.195 335.421L231.851 324.348L226.072 326.604C226.339 327.397 226.596 328.164 226.842 328.906C227.089 329.647 227.332 330.398 227.571 331.158C227.81 331.917 228.046 332.715 228.278 333.55C228.496 334.311 228.664 334.984 228.784 335.57C228.903 336.156 228.953 336.677 228.934 337.133C228.92 337.587 228.82 338.005 228.631 338.388ZM251.246 331.072L249.831 331.628L245.4 320.334L242.248 334.602L240.832 335.158L235.43 321.388L236.846 320.833L241.272 332.116L244.429 317.858L245.844 317.303L251.246 331.072ZM253.542 330.172L248.14 316.402L253.457 314.316C254.228 314.013 254.963 313.909 255.662 314.003C256.361 314.096 256.976 314.351 257.507 314.768C258.036 315.179 258.428 315.709 258.683 316.359C258.973 317.099 259.035 317.836 258.867 318.571C258.697 319.3 258.324 319.906 257.748 320.389L257.546 319.928C258.538 319.833 259.414 320.004 260.174 320.442C260.935 320.879 261.492 321.551 261.847 322.456C262.16 323.253 262.261 324.007 262.151 324.72C262.038 325.426 261.737 326.056 261.247 326.608C260.758 327.161 260.108 327.596 259.299 327.913L253.542 330.172ZM254.429 328.268L258.426 326.7C258.987 326.48 259.451 326.184 259.82 325.811C260.186 325.432 260.424 325.007 260.534 324.538C260.651 324.065 260.606 323.568 260.401 323.045C260.201 322.535 259.903 322.122 259.507 321.807C259.111 321.491 258.662 321.293 258.159 321.21C257.66 321.119 257.152 321.175 256.636 321.378L252.38 323.047L254.429 328.268ZM251.859 321.718L255.751 320.191C256.191 320.018 256.553 319.762 256.839 319.422C257.123 319.075 257.301 318.686 257.374 318.252C257.453 317.817 257.402 317.369 257.222 316.91C256.967 316.26 256.533 315.82 255.921 315.589C255.314 315.356 254.664 315.376 253.969 315.649L250.077 317.176L251.859 321.718ZM265.08 325.645L259.678 311.875L261.084 311.324L266.486 325.094L265.08 325.645ZM269.23 326.666L267.8 323.022C268.336 322.812 268.714 322.51 268.934 322.114C269.151 321.713 269.257 321.252 269.252 320.732C269.246 320.211 269.178 319.653 269.047 319.057C268.914 318.455 268.766 317.851 268.602 317.246C268.358 316.363 268.107 315.517 267.848 314.706C267.595 313.893 267.322 313.055 267.027 312.192C266.739 311.327 266.426 310.379 266.089 309.35L274.584 306.028L279.457 318.449L280.442 318.063L281.871 321.706L280.475 322.254L279.575 319.959L269.735 323.819L270.635 326.114L269.23 326.666ZM270.487 321.968L278.051 319.001L273.707 307.928L267.928 310.184C268.195 310.977 268.451 311.744 268.698 312.486C268.945 313.227 269.188 313.978 269.427 314.738C269.666 315.497 269.902 316.295 270.134 317.13C270.352 317.891 270.52 318.564 270.64 319.15C270.759 319.736 270.809 320.257 270.789 320.713C270.776 321.167 270.675 321.585 270.487 321.968ZM285.012 317.826L285.282 313.958L276.263 305.369L277.822 304.758L285.425 312.158L286.045 301.532L287.547 300.943L286.542 317.226L285.012 317.826ZM291.92 315.116L291.261 299.485L293.126 298.754L303.271 310.663L301.808 311.237L292.21 300.018L292.764 299.8L293.383 314.542L291.92 315.116ZM292.725 310.949L292.207 309.63L299.321 306.839L299.839 308.158L292.725 310.949ZM304.369 310.232L303.877 308.98C304.24 308.874 304.526 308.747 304.733 308.6C304.937 308.446 305.067 308.233 305.122 307.962C305.184 307.687 305.185 307.316 305.126 306.846C305.064 306.37 304.951 305.763 304.787 305.026C304.613 304.226 304.421 303.437 304.211 302.659C304.008 301.878 303.788 301.092 303.552 300.302C303.319 299.503 303.066 298.69 302.793 297.863C302.52 297.036 302.233 296.182 301.931 295.3L310.623 291.89L316.025 305.659L314.62 306.211L309.747 293.789L303.818 296.115C304.031 296.789 304.25 297.479 304.476 298.185C304.708 298.889 304.933 299.613 305.152 300.359C305.377 301.102 305.595 301.873 305.806 302.673C306.021 303.464 306.223 304.289 306.413 305.149C306.551 305.801 306.653 306.416 306.717 306.994C306.789 307.569 306.77 308.084 306.661 308.538C306.559 308.991 306.327 309.365 305.965 309.661C305.61 309.955 305.078 310.146 304.369 310.232ZM318.305 304.765L312.904 290.995L314.309 290.444L316.361 295.674L320.272 294.14C320.406 294.087 320.558 294.035 320.729 293.983C320.904 293.922 321.087 293.872 321.278 293.834C322.034 293.662 322.738 293.676 323.391 293.877C324.047 294.068 324.619 294.41 325.106 294.903C325.6 295.393 325.987 295.995 326.268 296.709C326.55 297.43 326.677 298.137 326.648 298.833C326.626 299.526 326.44 300.169 326.092 300.761C325.747 301.345 325.239 301.832 324.568 302.22C324.399 302.316 324.231 302.404 324.064 302.484C323.903 302.562 323.756 302.627 323.622 302.679L318.305 304.765ZM319.182 302.865L323.055 301.346C323.176 301.298 323.311 301.238 323.459 301.166C323.607 301.093 323.749 301.015 323.886 300.932C324.311 300.647 324.62 300.302 324.814 299.895C325.007 299.488 325.1 299.058 325.091 298.605C325.08 298.146 324.991 297.703 324.824 297.276C324.656 296.849 324.421 296.466 324.12 296.128C323.818 295.791 323.458 295.538 323.039 295.372C322.621 295.205 322.159 295.162 321.654 295.242C321.494 295.268 321.336 295.304 321.178 295.352C321.02 295.399 320.88 295.446 320.759 295.494L316.886 297.013L319.182 302.865ZM329.661 300.31L324.259 286.54L325.665 285.989L328.1 292.195L335.711 289.209L333.277 283.003L334.673 282.455L340.075 296.225L338.679 296.773L336.24 290.557L328.629 293.543L331.067 299.759L329.661 300.31ZM352.785 291.239L351.369 291.794L346.939 280.501L343.786 294.769L342.371 295.324L336.969 281.554L338.385 280.999L342.811 292.283L345.968 278.024L347.383 277.469L352.785 291.239ZM355.081 290.338L349.679 276.568L351.094 276.013L355.521 287.296L358.677 273.038L360.093 272.483L365.495 286.253L364.079 286.808L359.649 275.515L356.496 289.783L355.081 290.338ZM354.516 273.258C354.063 273.436 353.605 273.487 353.141 273.411C352.684 273.333 352.271 273.153 351.903 272.871C351.532 272.582 351.258 272.212 351.081 271.759L352.247 271.301C352.387 271.658 352.635 271.914 352.99 272.069C353.345 272.224 353.701 272.232 354.058 272.092C354.421 271.949 354.677 271.702 354.826 271.349C354.981 270.994 354.988 270.638 354.848 270.281L356.015 269.823C356.192 270.276 356.243 270.734 356.168 271.198C356.096 271.653 355.916 272.065 355.627 272.436C355.339 272.807 354.968 273.081 354.516 273.258ZM230.444 364.44L229.014 360.796C229.55 360.586 229.928 360.283 230.148 359.888C230.365 359.486 230.471 359.026 230.466 358.505C230.461 357.985 230.392 357.427 230.262 356.831C230.128 356.229 229.98 355.625 229.816 355.02C229.572 354.137 229.321 353.29 229.062 352.48C228.809 351.667 228.536 350.829 228.241 349.966C227.953 349.101 227.641 348.153 227.303 347.123L235.798 343.802L240.671 356.223L241.656 355.837L243.085 359.48L241.689 360.028L240.789 357.733L230.949 361.593L231.849 363.888L230.444 364.44ZM231.701 359.742L239.265 356.775L234.921 345.701L229.142 347.958C229.409 348.75 229.666 349.518 229.912 350.259C230.159 351.001 230.402 351.752 230.641 352.511C230.88 353.271 231.116 354.068 231.348 354.904C231.566 355.665 231.734 356.338 231.854 356.924C231.973 357.51 232.023 358.031 232.004 358.487C231.99 358.941 231.89 359.359 231.701 359.742ZM254.316 352.426L252.901 352.981L248.47 341.688L245.318 355.956L243.902 356.511L238.5 342.742L239.916 342.186L244.342 353.47L247.499 339.212L248.914 338.656L254.316 352.426ZM261.133 350.083C260.196 350.451 259.329 350.632 258.533 350.628C257.744 350.622 257.041 350.482 256.426 350.208C255.809 349.928 255.289 349.569 254.868 349.131L255.856 347.883C256.179 348.256 256.577 348.556 257.048 348.783C257.52 349.01 258.058 349.127 258.663 349.132C259.269 349.137 259.932 348.998 260.652 348.716C261.398 348.423 261.983 348.058 262.406 347.619C262.837 347.178 263.102 346.692 263.202 346.16C263.302 345.627 263.241 345.078 263.018 344.51C262.773 343.886 262.433 343.46 261.999 343.233C261.564 343.006 261.067 342.922 260.509 342.979C259.948 343.03 259.354 343.167 258.728 343.391C258.255 343.554 257.919 343.671 257.719 343.743C257.519 343.814 257.387 343.862 257.323 343.887C257.259 343.912 257.199 343.936 257.141 343.958L256.609 342.6C256.653 342.583 256.771 342.536 256.962 342.461C257.154 342.386 257.358 342.306 257.574 342.221C257.789 342.13 257.958 342.056 258.083 342C258.977 341.597 259.601 341.077 259.954 340.438C260.306 339.8 260.337 339.111 260.047 338.371C259.74 337.587 259.224 337.087 258.499 336.871C257.781 336.653 256.985 336.715 256.111 337.058C255.289 337.38 254.672 337.85 254.259 338.468C253.851 339.077 253.597 339.78 253.498 340.577L252.016 340.176C252.145 339.228 252.507 338.35 253.102 337.543C253.697 336.736 254.537 336.119 255.621 335.694C256.201 335.467 256.787 335.329 257.378 335.281C257.976 335.23 258.541 335.281 259.071 335.433C259.608 335.583 260.088 335.851 260.512 336.236C260.939 336.613 261.278 337.12 261.528 337.757C261.82 338.503 261.91 339.219 261.796 339.903C261.688 340.585 261.431 341.168 261.025 341.651C261.809 341.586 262.502 341.741 263.105 342.115C263.714 342.487 264.186 343.1 264.521 343.954C264.852 344.795 264.932 345.61 264.763 346.397C264.593 347.184 264.197 347.899 263.573 348.541C262.954 349.174 262.14 349.688 261.133 350.083ZM266.685 347.574L266.026 331.943L267.891 331.212L278.035 343.121L276.572 343.695L266.974 332.476L267.529 332.259L268.148 347L266.685 347.574ZM267.489 343.408L266.971 342.088L274.086 339.297L274.603 340.617L267.489 343.408ZM279.38 342.594L273.978 328.824L275.393 328.269L279.82 339.552L282.976 325.294L284.391 324.739L289.793 338.508L288.378 339.064L283.948 327.77L280.795 342.039L279.38 342.594ZM278.814 325.514C278.362 325.692 277.904 325.743 277.44 325.667C276.983 325.589 276.57 325.409 276.202 325.127C275.831 324.838 275.557 324.467 275.379 324.015L276.546 323.557C276.686 323.914 276.934 324.17 277.289 324.325C277.644 324.48 278 324.487 278.357 324.347C278.72 324.205 278.976 323.957 279.125 323.605C279.28 323.25 279.287 322.894 279.147 322.537L280.314 322.079C280.491 322.532 280.542 322.99 280.467 323.454C280.395 323.908 280.215 324.321 279.926 324.692C279.638 325.062 279.267 325.336 278.814 325.514ZM292.09 337.608L286.688 323.838L288.093 323.286L290.528 329.492L298.14 326.506L295.705 320.3L297.101 319.753L302.503 333.522L301.107 334.07L298.669 327.855L291.057 330.841L293.495 337.056L292.09 337.608Z" fill="#707070"/>
<path d="M137.392 399.204L123.482 404.659L118.027 390.75L131.936 385.294L137.392 399.204Z" fill="#0A0A0A"/>
<path d="M142.849 413.114L128.939 418.57L123.484 404.66L137.393 399.204L142.849 413.114Z" fill="#FF3800"/>
<path d="M156.759 407.657L142.85 413.113L137.394 399.203L151.303 393.747L156.759 407.657Z" fill="#0A0A0A"/>
<path d="M113.249 344.477L99.3398 349.933L104.796 363.842L118.705 358.386L113.249 344.477Z" fill="#0A0A0A"/>
<path d="M107.792 330.567L93.8828 336.023L99.3387 349.932L113.248 344.476L107.792 330.567Z" fill="#FF3800"/>
<path d="M121.702 325.11L107.793 330.566L113.249 344.475L127.158 339.019L121.702 325.11Z" fill="#0A0A0A"/>
<path d="M397.032 297.361L410.941 291.906L405.485 277.996L391.576 283.452L397.032 297.361Z" fill="#0A0A0A"/>
<path d="M402.488 311.272L416.397 305.816L410.942 291.906L397.032 297.362L402.488 311.272Z" fill="#FF3800"/>
<path d="M388.579 316.729L402.488 311.273L397.032 297.363L383.123 302.819L388.579 316.729Z" fill="#0A0A0A"/>
<path d="M377.529 240.815L391.438 235.359L396.894 249.268L382.985 254.724L377.529 240.815Z" fill="#0A0A0A"/>
<path d="M372.072 226.905L385.981 221.449L391.437 235.358L377.528 240.814L372.072 226.905Z" fill="#FF3800"/>
<path d="M358.162 232.362L372.071 226.906L377.527 240.815L363.618 246.271L358.162 232.362Z" fill="#0A0A0A"/>
</g>
<defs>
<clipPath id="clip0_754_2303">
<rect width="398.426" height="398.426" fill="white" transform="translate(-26 145.492) rotate(-21.4177)"/>
</clipPath>
</defs>
</svg>
