<svg width="491" height="517" viewBox="0 0 491 517" fill="none" xmlns="http://www.w3.org/2000/svg">
<g clip-path="url(#clip0_754_2303)">
<path d="M72.5989 154.704L31.3809 170.872L47.5487 212.09L88.7668 195.922L72.5989 154.704Z" fill="#F8F8FF"/>
<path d="M113.808 138.544L72.5898 154.712L88.7577 195.93L129.976 179.762L113.808 138.544Z" fill="#FF3800"/>
<path d="M196.241 106.208L155.023 122.376L171.191 163.594L212.409 147.426L196.241 106.208Z" fill="#F8F8FF"/>
<path d="M278.659 73.8796L237.441 90.0475L253.609 131.266L294.827 115.098L278.659 73.8796Z" fill="#FF3800"/>
<path d="M319.879 57.7117L278.661 73.8795L294.829 115.098L336.047 98.9297L319.879 57.7117Z" fill="#F8F8FF"/>
<path d="M97.6419 97.3249L56.4238 113.493L72.5917 154.711L113.81 138.543L97.6419 97.3249Z" fill="#F8F8FF"/>
<path d="M138.856 81.1609L97.6377 97.3287L113.806 138.547L155.024 122.379L138.856 81.1609Z" fill="#F8F8FF"/>
<path d="M221.274 48.8288L180.056 64.9967L196.224 106.215L237.442 90.0469L221.274 48.8288Z" fill="#F8F8FF"/>
<path d="M262.493 32.6609L221.275 48.8287L237.443 90.0468L278.661 73.8789L262.493 32.6609Z" fill="#F8F8FF"/>
<path d="M47.5471 212.075L6.3291 228.243L22.497 269.461L63.715 253.293L47.5471 212.075Z" fill="#F8F8FF"/>
<path d="M88.76 195.911L47.542 212.079L63.7099 253.297L104.928 237.129L88.76 195.911Z" fill="#FF3800"/>
<path d="M336.04 98.9148L294.822 115.083L310.99 156.301L352.208 140.133L336.04 98.9148Z" fill="#FF3800"/>
<path d="M63.7132 253.294L22.4951 269.461L38.663 310.679L79.881 294.512L63.7132 253.294Z" fill="#F8F8FF"/>
<path d="M228.57 188.63L187.352 204.797L203.519 246.016L244.737 229.848L228.57 188.63Z" fill="#FF3800"/>
<path d="M121.099 278.344L79.8809 294.512L96.0487 335.73L137.267 319.562L121.099 278.344Z" fill="#F8F8FF"/>
<path d="M203.517 246.013L162.299 262.18L178.467 303.398L219.685 287.231L203.517 246.013Z" fill="#FF3800"/>
<path d="M244.736 229.848L203.518 246.016L219.685 287.234L260.903 271.066L244.736 229.848Z" fill="#F8F8FF"/>
<path d="M285.936 213.684L244.718 229.852L260.886 271.07L302.104 254.902L285.936 213.684Z" fill="#FF3800"/>
<path d="M368.374 181.348L327.156 197.516L343.324 238.734L384.542 222.566L368.374 181.348Z" fill="#F8F8FF"/>
<path d="M96.0413 335.712L54.8232 351.88L70.9911 393.098L112.209 376.93L96.0413 335.712Z" fill="#F8F8FF"/>
<path d="M260.903 271.047L219.685 287.215L235.852 328.433L277.07 312.266L260.903 271.047Z" fill="#FF3800"/>
<path d="M112.119 376.016L70.3916 392.384L87.214 435.27L128.942 418.903L112.119 376.016Z" fill="#F8F8FF"/>
<path d="M153.432 360.763L112.214 376.93L128.382 418.148L169.6 401.981L153.432 360.763Z" fill="#FF3800"/>
<path d="M400.702 263.77L359.484 279.938L375.652 321.156L416.87 304.988L400.702 263.77Z" fill="#FF3800"/>
<path d="M169.599 401.981L128.381 418.149L144.549 459.367L185.767 443.199L169.599 401.981Z" fill="#F8F8FF"/>
<path d="M210.798 385.821L169.58 401.989L185.748 443.207L226.966 427.039L210.798 385.821Z" fill="#FF3800"/>
<path d="M293.236 353.481L252.018 369.649L268.185 410.867L309.403 394.699L293.236 353.481Z" fill="#F8F8FF"/>
<path d="M375.659 321.157L334.441 337.325L350.609 378.543L391.827 362.375L375.659 321.157Z" fill="#FF3800"/>
<path d="M416.874 304.989L375.656 321.157L391.824 362.375L433.042 346.207L416.874 304.989Z" fill="#F8F8FF"/>
<path d="M226.96 427.02L185.742 443.188L201.91 484.406L243.128 468.238L226.96 427.02Z" fill="#F8F8FF"/>
<path d="M268.174 410.852L226.956 427.02L243.124 468.238L284.342 452.07L268.174 410.852Z" fill="#F8F8FF"/>
<path d="M350.598 378.524L309.38 394.692L325.548 435.91L366.766 419.742L350.598 378.524Z" fill="#F8F8FF"/>
<path d="M391.817 362.356L350.599 378.524L366.766 419.742L407.985 403.574L391.817 362.356Z" fill="#F8F8FF"/>
<path d="M377.245 82.7507L336.027 98.9186L352.195 140.137L393.413 123.969L377.245 82.7507Z" fill="#F8F8FF"/>
<path d="M393.407 123.969L352.189 140.137L368.357 181.355L409.575 165.188L393.407 123.969Z" fill="#F8F8FF"/>
<path d="M425.741 206.387L384.522 222.555L400.69 263.773L441.908 247.605L425.741 206.387Z" fill="#F8F8FF"/>
<path d="M441.911 247.606L400.693 263.774L416.861 304.992L458.079 288.824L441.911 247.606Z" fill="#F8F8FF"/>
<rect x="45.6309" y="211.938" width="314.075" height="222.544" transform="rotate(-21.4177 45.6309 211.938)" fill="#F8F8FF"/>
<rect x="70.9414" y="152.137" width="222.544" height="317.664" transform="rotate(-21.4177 70.9414 152.137)" fill="#F8F8FF"/>
<path d="M118.612 284.769L110.755 264.74L127.279 258.258L135.136 278.287L131.353 279.771L124.882 263.275L115.924 266.789L122.396 283.285L118.612 284.769ZM147.801 273.8C145.798 274.586 143.897 274.829 142.1 274.528C140.311 274.224 138.716 273.443 137.313 272.185C135.919 270.923 134.815 269.254 134 267.177C133.185 265.1 132.86 263.125 133.024 261.253C133.197 259.376 133.836 257.719 134.941 256.279C136.055 254.837 137.613 253.722 139.616 252.937C141.619 252.151 143.515 251.91 145.303 252.214C147.101 252.515 148.696 253.296 150.09 254.557C151.493 255.815 152.602 257.483 153.417 259.56C154.232 261.637 154.552 263.614 154.379 265.49C154.215 267.363 153.576 269.02 152.462 270.463C151.357 271.902 149.804 273.014 147.801 273.8ZM146.404 270.24C147.681 269.76 148.631 269.071 149.253 268.175C149.875 267.278 150.191 266.229 150.201 265.026C150.22 263.821 149.957 262.522 149.411 261.131C148.865 259.74 148.179 258.619 147.353 257.766C146.535 256.91 145.594 256.364 144.528 256.13C143.462 255.895 142.29 256.018 141.013 256.497C139.735 256.977 138.785 257.665 138.164 258.562C137.542 259.459 137.221 260.51 137.202 261.716C137.192 262.918 137.46 264.215 138.006 265.606C138.551 266.997 139.233 268.12 140.05 268.976C140.877 269.829 141.823 270.373 142.889 270.607C143.955 270.842 145.126 270.719 146.404 270.24ZM159.776 272.473L157.08 265.602C157.683 265.365 158.135 265.017 158.435 264.557C158.742 264.083 158.922 263.52 158.977 262.868C159.027 262.206 158.986 261.473 158.853 260.669C158.719 259.866 158.519 259.014 158.251 258.113C157.907 256.964 157.561 255.837 157.213 254.732C156.862 253.618 156.496 252.467 156.116 251.279C155.731 250.081 155.32 248.788 154.882 247.397L168.19 242.209L174.661 258.705L176.191 258.105L178.887 264.976L175.103 266.46L173.794 263.122L162.249 267.651L163.559 270.989L159.776 272.473ZM162.727 263.387L170.878 260.189L165.792 247.226L159.717 249.577C160.012 250.52 160.288 251.386 160.543 252.174C160.808 252.958 161.067 253.755 161.321 254.565C161.574 255.375 161.846 256.285 162.135 257.295C162.424 258.305 162.646 259.144 162.801 259.811C162.952 260.468 163.021 261.067 163.008 261.607C163.005 262.144 162.911 262.737 162.727 263.387ZM180.632 260.439L172.775 240.41L180.787 237.267C182.215 236.707 183.482 236.541 184.588 236.771C185.691 236.991 186.616 237.452 187.362 238.154C188.108 238.857 188.654 239.648 189 240.529C189.44 241.651 189.55 242.683 189.331 243.625C189.122 244.563 188.626 245.33 187.843 245.926L187.57 245.231C188.924 244.999 190.088 245.211 191.062 245.867C192.045 246.519 192.755 247.402 193.192 248.514C193.661 249.71 193.851 250.85 193.763 251.934C193.683 253.013 193.296 253.989 192.6 254.861C191.901 255.724 190.869 256.423 189.506 256.958L180.632 260.439ZM183.074 255.372L187.72 253.55C188.23 253.35 188.643 253.065 188.958 252.695C189.269 252.316 189.46 251.888 189.529 251.411C189.605 250.922 189.537 250.408 189.326 249.87C189.14 249.397 188.878 249.014 188.537 248.719C188.197 248.425 187.786 248.249 187.303 248.192C186.827 248.122 186.296 248.202 185.712 248.431L181.066 250.254L183.074 255.372ZM179.68 246.721L183.798 245.106C184.224 244.938 184.575 244.715 184.851 244.436C185.126 244.156 185.302 243.826 185.376 243.443C185.447 243.051 185.386 242.61 185.194 242.118C184.953 241.506 184.562 241.066 184.018 240.798C183.474 240.53 182.84 240.538 182.117 240.822L178 242.437L179.68 246.721ZM198.623 253.381L190.765 233.352L194.549 231.868L202.406 251.897L198.623 253.381ZM206.576 250.261L198.719 230.232L202.557 228.726L207.796 242.079L211.264 225.311L215.103 223.805L222.961 243.833L219.122 245.339L213.884 231.987L210.415 248.755L206.576 250.261ZM206.187 225.377C205.371 225.697 204.551 225.788 203.727 225.652C202.903 225.515 202.16 225.191 201.5 224.68C200.839 224.168 200.349 223.505 200.028 222.689L202.949 221.543C203.113 221.96 203.397 222.261 203.801 222.445C204.21 222.616 204.623 222.619 205.041 222.456C205.458 222.292 205.754 222.01 205.929 221.61C206.109 221.197 206.117 220.782 205.954 220.364L208.875 219.218C209.195 220.034 209.286 220.854 209.149 221.678C209.013 222.503 208.689 223.245 208.177 223.905C207.666 224.566 207.003 225.056 206.187 225.377ZM231.487 240.488L225.016 223.992L218.701 226.47L217.315 222.937L233.728 216.498L235.114 220.031L228.799 222.508L235.271 239.004L231.487 240.488ZM243.82 235.65L235.963 215.621L249.038 210.492L250.424 214.025L241.132 217.67L242.813 221.954L250.435 218.964L251.821 222.497L244.199 225.487L246.218 230.633L255.509 226.988L256.895 230.521L243.82 235.65ZM265.798 227.028L257.94 207L265.952 203.857C267.38 203.296 268.647 203.131 269.754 203.36C270.856 203.58 271.781 204.042 272.527 204.744C273.274 205.446 273.82 206.238 274.165 207.119C274.605 208.241 274.716 209.273 274.497 210.214C274.287 211.153 273.791 211.92 273.008 212.516L272.735 211.82C274.089 211.589 275.253 211.801 276.227 212.457C277.211 213.109 277.92 213.991 278.357 215.104C278.826 216.3 279.017 217.44 278.928 218.523C278.849 219.603 278.461 220.579 277.765 221.451C277.066 222.314 276.035 223.013 274.672 223.547L265.798 227.028ZM268.24 221.962L272.885 220.139C273.395 219.939 273.808 219.654 274.123 219.285C274.434 218.906 274.625 218.478 274.695 218.001C274.77 217.511 274.702 216.998 274.491 216.46C274.306 215.987 274.043 215.603 273.703 215.309C273.363 215.014 272.951 214.839 272.469 214.782C271.992 214.712 271.462 214.792 270.877 215.021L266.232 216.843L268.24 221.962ZM264.846 213.31L268.963 211.695C269.389 211.528 269.741 211.305 270.016 211.025C270.292 210.746 270.467 210.415 270.542 210.033C270.613 209.641 270.552 209.2 270.359 208.708C270.119 208.096 269.727 207.656 269.183 207.388C268.639 207.12 268.006 207.128 267.282 207.411L263.165 209.026L264.846 213.31ZM282.119 220.626L280.382 198.196L286.029 195.98L300.006 213.609L296.112 215.136L283.729 199.611L284.453 199.327L286.014 219.098L282.119 220.626ZM284.154 215.012L282.768 211.48L293.339 207.333L294.725 210.865L284.154 215.012ZM302.499 212.631L294.642 192.602L298.425 191.117L304.896 207.614L310.627 205.365L304.155 188.869L307.939 187.385L314.41 203.881L320.141 201.633L313.669 185.137L317.452 183.653L325.31 203.682L302.499 212.631ZM329.481 202.045L321.624 182.016L325.407 180.532L333.265 200.561L329.481 202.045ZM173.559 298.662L165.702 278.633L182.226 272.151L190.083 292.18L186.3 293.664L179.828 277.168L170.871 280.682L177.342 297.178L173.559 298.662ZM193.988 290.648L186.131 270.619L194.587 267.301C194.782 267.225 195.045 267.132 195.377 267.024C195.715 266.902 196.022 266.813 196.3 266.758C197.569 266.474 198.702 266.484 199.699 266.789C200.705 267.09 201.569 267.628 202.29 268.404C203.009 269.171 203.588 270.116 204.028 271.238C204.468 272.36 204.683 273.452 204.672 274.516C204.667 275.566 204.398 276.544 203.864 277.449C203.341 278.35 202.522 279.126 201.407 279.777C201.162 279.916 200.876 280.06 200.55 280.209C200.223 280.359 199.967 280.47 199.782 280.543L195.109 282.376L197.771 289.164L193.988 290.648ZM193.723 278.843L198.229 277.075C198.424 276.999 198.633 276.906 198.858 276.797C199.083 276.687 199.281 276.566 199.454 276.434C199.91 276.095 200.213 275.709 200.364 275.275C200.511 274.832 200.557 274.391 200.503 273.953C200.454 273.501 200.359 273.094 200.217 272.733C200.075 272.371 199.87 272.013 199.602 271.658C199.34 271.29 199.007 270.998 198.601 270.782C198.192 270.558 197.705 270.476 197.141 270.537C196.924 270.558 196.696 270.604 196.457 270.677C196.218 270.749 196.001 270.823 195.806 270.9L191.3 272.668L193.723 278.843ZM220.84 280.595C218.837 281.381 216.937 281.624 215.139 281.323C213.351 281.019 211.755 280.238 210.352 278.98C208.958 277.719 207.854 276.049 207.039 273.972C206.224 271.895 205.899 269.92 206.063 268.048C206.237 266.171 206.876 264.514 207.98 263.075C209.094 261.632 210.652 260.518 212.655 259.732C214.658 258.946 216.554 258.705 218.342 259.01C220.14 259.31 221.736 260.091 223.129 261.353C224.532 262.61 225.641 264.278 226.456 266.355C227.271 268.432 227.592 270.409 227.418 272.285C227.254 274.158 226.615 275.815 225.501 277.258C224.397 278.697 222.843 279.81 220.84 280.595ZM219.443 277.035C220.721 276.555 221.671 275.867 222.293 274.97C222.914 274.073 223.23 273.024 223.24 271.822C223.259 270.616 222.996 269.317 222.45 267.926C221.905 266.536 221.219 265.414 220.392 264.561C219.574 263.705 218.633 263.159 217.567 262.925C216.501 262.69 215.33 262.813 214.052 263.293C212.775 263.772 211.825 264.461 211.203 265.357C210.581 266.254 210.26 267.305 210.241 268.511C210.231 269.713 210.499 271.01 211.045 272.401C211.591 273.792 212.272 274.915 213.09 275.772C213.916 276.624 214.862 277.168 215.928 277.403C216.994 277.637 218.166 277.515 219.443 277.035ZM232.815 279.268L230.119 272.397C230.722 272.161 231.174 271.812 231.475 271.352C231.781 270.878 231.962 270.315 232.016 269.663C232.067 269.001 232.025 268.268 231.892 267.465C231.759 266.661 231.558 265.809 231.29 264.908C230.946 263.759 230.601 262.632 230.253 261.527C229.901 260.413 229.535 259.262 229.155 258.074C228.771 256.877 228.359 255.583 227.921 254.193L241.229 249.004L247.7 265.5L249.23 264.9L251.926 271.771L248.143 273.255L246.833 269.917L235.289 274.446L236.598 277.784L232.815 279.268ZM235.766 270.182L243.917 266.984L238.832 254.021L232.756 256.372C233.052 257.316 233.327 258.181 233.583 258.969C233.847 259.753 234.107 260.55 234.36 261.36C234.614 262.17 234.885 263.08 235.174 264.09C235.464 265.1 235.686 265.939 235.84 266.606C235.991 267.263 236.06 267.862 236.047 268.402C236.044 268.939 235.95 269.532 235.766 270.182ZM252.281 267.78L250.543 245.35L256.19 243.135L270.168 260.763L266.273 262.29L253.891 246.765L254.614 246.481L256.175 266.252L252.281 267.78ZM254.316 262.166L252.93 258.634L263.501 254.487L264.887 258.02L254.316 262.166ZM270.992 260.439L274.102 247.503L263.663 240.203L268.142 238.446L277.33 245.177L273.816 236.22L277.6 234.736L281.114 243.693L283.275 232.509L287.753 230.752L285.062 243.203L296.139 250.574L291.494 252.397L281.987 245.919L285.457 254.765L281.674 256.249L278.203 247.403L275.637 258.617L270.992 260.439ZM298.638 249.594L290.781 229.565L294.564 228.081L302.421 248.11L298.638 249.594Z" fill="#0A0A0A"/>
<path d="M160.518 366.998L157.982 360.534L158.61 360.983C158.293 361.468 157.854 361.934 157.294 362.382C156.732 362.823 156.049 363.201 155.246 363.517C154.053 363.984 153.011 364.139 152.118 363.982C151.231 363.822 150.477 363.419 149.856 362.773C149.232 362.12 148.724 361.293 148.331 360.293L146.835 356.477L148.25 355.922L149.555 359.25C149.805 359.887 150.093 360.444 150.42 360.919C150.746 361.394 151.123 361.765 151.551 362.031C151.979 362.297 152.466 362.441 153.011 362.462C153.554 362.477 154.167 362.351 154.849 362.083C155.697 361.751 156.377 361.337 156.889 360.842C157.398 360.34 157.737 359.883 157.907 359.471L158.053 360.716L155.116 353.229L156.521 352.677L161.923 366.447L160.518 366.998ZM164.218 365.547L158.816 351.777L167.422 348.401L167.951 349.749L160.751 352.574L162.619 357.336L168.672 354.961L169.201 356.31L163.148 358.684L165.095 363.647L172.295 360.822L172.824 362.171L164.218 365.547ZM174.743 361.418L169.341 347.648L174.657 345.562C174.791 345.51 174.944 345.457 175.114 345.405C175.289 345.344 175.469 345.296 175.653 345.26C176.416 345.086 177.124 345.099 177.776 345.299C178.432 345.49 179.004 345.832 179.492 346.325C179.986 346.815 180.374 347.421 180.656 348.141C180.937 348.855 181.062 349.56 181.033 350.255C181.005 350.951 180.816 351.595 180.467 352.188C180.123 352.772 179.615 353.258 178.943 353.646C178.781 353.739 178.616 353.826 178.449 353.906C178.288 353.984 178.141 354.049 178.007 354.102L174.096 355.636L176.148 360.867L174.743 361.418ZM173.571 354.297L177.444 352.778C177.559 352.733 177.69 352.674 177.838 352.601C177.986 352.528 178.127 352.447 178.261 352.358C178.693 352.071 179.002 351.725 179.189 351.321C179.383 350.914 179.475 350.484 179.467 350.031C179.465 349.576 179.38 349.135 179.212 348.708C179.045 348.28 178.807 347.899 178.499 347.564C178.195 347.22 177.834 346.964 177.415 346.798C177.003 346.628 176.541 346.585 176.029 346.668C175.87 346.694 175.713 346.734 175.557 346.787C175.399 346.834 175.263 346.881 175.148 346.926L171.275 348.445L173.571 354.297ZM185.902 357.04L180.5 343.27L189.106 339.894L189.635 341.242L182.435 344.067L184.303 348.829L190.356 346.454L190.885 347.803L184.832 350.177L186.779 355.14L193.979 352.316L194.508 353.664L185.902 357.04ZM200.369 351.696C199.432 352.063 198.565 352.245 197.769 352.241C196.979 352.235 196.277 352.095 195.662 351.821C195.045 351.541 194.525 351.182 194.103 350.744L195.092 349.496C195.415 349.869 195.812 350.169 196.284 350.396C196.755 350.623 197.294 350.739 197.899 350.745C198.504 350.75 199.167 350.611 199.888 350.329C200.633 350.036 201.218 349.671 201.642 349.232C202.072 348.791 202.338 348.305 202.438 347.773C202.538 347.24 202.477 346.691 202.254 346.123C202.009 345.499 201.669 345.073 201.235 344.846C200.8 344.619 200.303 344.535 199.745 344.592C199.183 344.643 198.59 344.78 197.964 345.004C197.491 345.167 197.155 345.284 196.955 345.356C196.754 345.427 196.622 345.475 196.559 345.5C196.495 345.525 196.434 345.549 196.377 345.571L195.844 344.213C195.889 344.196 196.007 344.149 196.198 344.074C196.389 343.999 196.593 343.919 196.81 343.834C197.024 343.743 197.194 343.669 197.319 343.613C198.213 343.21 198.837 342.69 199.189 342.051C199.542 341.413 199.573 340.724 199.283 339.984C198.975 339.2 198.459 338.7 197.735 338.484C197.016 338.266 196.221 338.328 195.347 338.67C194.525 338.993 193.907 339.463 193.495 340.081C193.087 340.69 192.833 341.393 192.733 342.19L191.252 341.789C191.38 340.841 191.742 339.963 192.338 339.156C192.933 338.349 193.773 337.732 194.856 337.307C195.437 337.08 196.022 336.942 196.614 336.894C197.212 336.843 197.776 336.894 198.307 337.046C198.844 337.196 199.324 337.463 199.747 337.849C200.175 338.226 200.513 338.733 200.764 339.37C201.056 340.116 201.146 340.831 201.032 341.516C200.924 342.198 200.667 342.781 200.261 343.264C201.045 343.199 201.738 343.354 202.341 343.728C202.95 344.1 203.422 344.712 203.757 345.567C204.087 346.408 204.168 347.223 203.998 348.01C203.829 348.797 203.433 349.512 202.809 350.154C202.189 350.787 201.376 351.301 200.369 351.696ZM210.514 347.385L205.112 333.615L206.518 333.063L211.92 346.833L210.514 347.385ZM214.404 345.859L209.002 332.089L210.408 331.537L212.843 337.743L220.454 334.757L218.02 328.551L219.416 328.004L224.818 341.773L223.422 342.321L220.983 336.106L213.372 339.092L215.81 345.307L214.404 345.859ZM227.374 343.419L225.944 339.776C226.48 339.566 226.858 339.263 227.078 338.868C227.295 338.466 227.401 338.005 227.396 337.485C227.391 336.965 227.322 336.407 227.192 335.811C227.058 335.208 226.91 334.605 226.746 333.999C226.503 333.117 226.251 332.27 225.992 331.459C225.739 330.646 225.466 329.808 225.171 328.946C224.883 328.08 224.571 327.133 224.233 326.103L232.728 322.781L237.601 335.203L238.586 334.816L240.015 338.46L238.619 339.007L237.719 336.712L227.879 340.573L228.779 342.868L227.374 343.419ZM228.631 338.722L236.195 335.754L231.851 324.681L226.072 326.937C226.339 327.73 226.596 328.497 226.842 329.239C227.089 329.981 227.332 330.731 227.571 331.491C227.81 332.25 228.046 333.048 228.278 333.884C228.496 334.644 228.664 335.318 228.784 335.903C228.903 336.489 228.953 337.01 228.934 337.467C228.92 337.92 228.82 338.339 228.631 338.722ZM251.246 331.406L249.831 331.961L245.4 320.668L242.248 334.936L240.832 335.491L235.43 321.721L236.846 321.166L241.272 332.449L244.429 318.191L245.844 317.636L251.246 331.406ZM253.542 330.505L248.14 316.735L253.457 314.649C254.228 314.347 254.963 314.242 255.662 314.336C256.361 314.429 256.976 314.685 257.507 315.102C258.036 315.512 258.428 316.042 258.683 316.693C258.973 317.432 259.035 318.169 258.867 318.905C258.697 319.633 258.324 320.239 257.748 320.723L257.546 320.262C258.538 320.166 259.414 320.338 260.174 320.775C260.935 321.212 261.492 321.884 261.847 322.789C262.16 323.586 262.261 324.341 262.151 325.053C262.038 325.76 261.737 326.389 261.247 326.941C260.758 327.494 260.108 327.929 259.299 328.247L253.542 330.505ZM254.429 328.601L258.426 327.033C258.987 326.813 259.451 326.517 259.82 326.144C260.186 325.765 260.424 325.341 260.534 324.871C260.651 324.399 260.606 323.901 260.401 323.378C260.201 322.868 259.903 322.456 259.507 322.14C259.111 321.825 258.662 321.626 258.159 321.544C257.66 321.453 257.152 321.508 256.636 321.711L252.38 323.38L254.429 328.601ZM251.859 322.051L255.751 320.524C256.191 320.352 256.553 320.095 256.839 319.755C257.123 319.409 257.301 319.019 257.374 318.586C257.453 318.15 257.402 317.703 257.222 317.244C256.967 316.593 256.533 316.153 255.921 315.923C255.314 315.69 254.664 315.71 253.969 315.982L250.077 317.509L251.859 322.051ZM265.08 325.979L259.678 312.209L261.084 311.657L266.486 325.427L265.08 325.979ZM269.23 326.999L267.8 323.356C268.336 323.146 268.714 322.843 268.934 322.448C269.151 322.046 269.257 321.585 269.252 321.065C269.246 320.545 269.178 319.987 269.047 319.391C268.914 318.788 268.766 318.184 268.602 317.579C268.358 316.696 268.107 315.85 267.848 315.039C267.595 314.226 267.322 313.388 267.027 312.525C266.739 311.66 266.426 310.713 266.089 309.683L274.584 306.361L279.457 318.783L280.442 318.396L281.871 322.04L280.475 322.587L279.575 320.292L269.735 324.152L270.635 326.447L269.23 326.999ZM270.487 322.302L278.051 319.334L273.707 308.261L267.928 310.517C268.195 311.31 268.451 312.077 268.698 312.819C268.945 313.561 269.188 314.311 269.427 315.071C269.666 315.83 269.902 316.628 270.134 317.464C270.352 318.224 270.52 318.897 270.64 319.483C270.759 320.069 270.809 320.59 270.789 321.046C270.776 321.5 270.675 321.919 270.487 322.302ZM285.012 318.159L285.282 314.291L276.263 305.702L277.822 305.091L285.425 312.491L286.045 301.865L287.547 301.276L286.542 317.559L285.012 318.159ZM291.92 315.449L291.261 299.819L293.126 299.087L303.271 310.996L301.808 311.57L292.21 300.351L292.764 300.134L293.383 314.875L291.92 315.449ZM292.725 311.283L292.207 309.963L299.321 307.172L299.839 308.492L292.725 311.283ZM304.369 310.566L303.877 309.313C304.24 309.207 304.526 309.081 304.733 308.933C304.937 308.78 305.067 308.567 305.122 308.295C305.184 308.021 305.185 307.649 305.126 307.179C305.064 306.703 304.951 306.096 304.787 305.359C304.613 304.559 304.421 303.77 304.211 302.992C304.008 302.211 303.788 301.425 303.552 300.635C303.319 299.837 303.066 299.024 302.793 298.196C302.52 297.369 302.233 296.515 301.931 295.633L310.623 292.223L316.025 305.993L314.62 306.544L309.747 294.123L303.818 296.448C304.031 297.123 304.25 297.813 304.476 298.519C304.708 299.222 304.933 299.947 305.152 300.692C305.377 301.435 305.595 302.206 305.806 303.006C306.021 303.797 306.223 304.623 306.413 305.482C306.551 306.134 306.653 306.749 306.717 307.327C306.789 307.902 306.77 308.417 306.661 308.872C306.559 309.324 306.327 309.698 305.965 309.994C305.61 310.288 305.078 310.479 304.369 310.566ZM318.305 305.098L312.904 291.328L314.309 290.777L316.361 296.008L320.272 294.473C320.406 294.421 320.558 294.368 320.729 294.316C320.904 294.255 321.087 294.205 321.278 294.167C322.034 293.995 322.738 294.01 323.391 294.21C324.047 294.401 324.619 294.743 325.106 295.236C325.6 295.726 325.987 296.328 326.268 297.042C326.55 297.763 326.677 298.471 326.648 299.166C326.626 299.859 326.44 300.502 326.092 301.095C325.747 301.679 325.239 302.165 324.568 302.553C324.399 302.649 324.231 302.737 324.064 302.817C323.903 302.895 323.756 302.96 323.622 303.013L318.305 305.098ZM319.182 303.198L323.055 301.679C323.176 301.632 323.311 301.572 323.459 301.499C323.607 301.426 323.749 301.348 323.886 301.265C324.311 300.981 324.62 300.635 324.814 300.228C325.007 299.821 325.1 299.391 325.091 298.938C325.08 298.479 324.991 298.036 324.824 297.609C324.656 297.182 324.421 296.799 324.12 296.462C323.818 296.124 323.458 295.872 323.039 295.705C322.621 295.538 322.159 295.495 321.654 295.575C321.494 295.601 321.336 295.638 321.178 295.685C321.02 295.732 320.88 295.779 320.759 295.827L316.886 297.346L319.182 303.198ZM329.661 300.643L324.259 286.873L325.665 286.322L328.1 292.528L335.711 289.542L333.277 283.336L334.673 282.788L340.075 296.558L338.679 297.106L336.24 290.89L328.629 293.876L331.067 300.092L329.661 300.643ZM352.785 291.572L351.369 292.127L346.939 280.834L343.786 295.102L342.371 295.657L336.969 281.887L338.385 281.332L342.811 292.616L345.968 278.357L347.383 277.802L352.785 291.572ZM355.081 290.671L349.679 276.901L351.094 276.346L355.521 287.63L358.677 273.371L360.093 272.816L365.495 286.586L364.079 287.141L359.649 275.848L356.496 290.116L355.081 290.671ZM354.516 273.592C354.063 273.769 353.605 273.82 353.141 273.745C352.684 273.666 352.271 273.486 351.903 273.204C351.532 272.916 351.258 272.545 351.081 272.092L352.247 271.635C352.387 271.992 352.635 272.248 352.99 272.403C353.345 272.558 353.701 272.565 354.058 272.425C354.421 272.282 354.677 272.035 354.826 271.682C354.981 271.327 354.988 270.971 354.848 270.614L356.015 270.157C356.192 270.609 356.243 271.067 356.168 271.531C356.096 271.986 355.916 272.399 355.627 272.769C355.339 273.14 354.968 273.414 354.516 273.592ZM230.444 364.773L229.014 361.129C229.55 360.919 229.928 360.617 230.148 360.221C230.365 359.82 230.471 359.359 230.466 358.839C230.461 358.319 230.392 357.76 230.262 357.164C230.128 356.562 229.98 355.958 229.816 355.353C229.572 354.47 229.321 353.624 229.062 352.813C228.809 352 228.536 351.162 228.241 350.299C227.953 349.434 227.641 348.486 227.303 347.457L235.798 344.135L240.671 356.557L241.656 356.17L243.085 359.813L241.689 360.361L240.789 358.066L230.949 361.926L231.849 364.221L230.444 364.773ZM231.701 360.075L239.265 357.108L234.921 346.035L229.142 348.291C229.409 349.084 229.666 349.851 229.912 350.593C230.159 351.334 230.402 352.085 230.641 352.845C230.88 353.604 231.116 354.402 231.348 355.237C231.566 355.998 231.734 356.671 231.854 357.257C231.973 357.843 232.023 358.364 232.004 358.82C231.99 359.274 231.89 359.693 231.701 360.075ZM254.316 352.76L252.901 353.315L248.47 342.021L245.318 356.29L243.902 356.845L238.5 343.075L239.916 342.52L244.342 353.803L247.499 339.545L248.914 338.99L254.316 352.76ZM261.133 350.416C260.196 350.784 259.329 350.966 258.533 350.962C257.744 350.955 257.041 350.815 256.426 350.541C255.809 350.261 255.289 349.902 254.868 349.465L255.856 348.216C256.179 348.59 256.577 348.89 257.048 349.117C257.52 349.344 258.058 349.46 258.663 349.465C259.269 349.47 259.932 349.332 260.652 349.049C261.398 348.756 261.983 348.391 262.406 347.953C262.837 347.512 263.102 347.025 263.202 346.493C263.302 345.961 263.241 345.411 263.018 344.844C262.773 344.219 262.433 343.793 261.999 343.566C261.564 343.34 261.067 343.255 260.509 343.312C259.948 343.363 259.354 343.5 258.728 343.724C258.255 343.887 257.919 344.005 257.719 344.076C257.519 344.147 257.387 344.195 257.323 344.22C257.259 344.245 257.199 344.269 257.141 344.291L256.609 342.933C256.653 342.916 256.771 342.87 256.962 342.795C257.154 342.72 257.358 342.64 257.574 342.555C257.789 342.463 257.958 342.389 258.083 342.333C258.977 341.931 259.601 341.41 259.954 340.772C260.306 340.133 260.337 339.444 260.047 338.705C259.74 337.92 259.224 337.42 258.499 337.205C257.781 336.986 256.985 337.048 256.111 337.391C255.289 337.713 254.672 338.184 254.259 338.801C253.851 339.41 253.597 340.113 253.498 340.91L252.016 340.509C252.145 339.561 252.507 338.684 253.102 337.876C253.697 337.069 254.537 336.453 255.621 336.028C256.201 335.8 256.787 335.662 257.378 335.614C257.976 335.563 258.541 335.614 259.071 335.766C259.608 335.916 260.088 336.184 260.512 336.569C260.939 336.946 261.278 337.453 261.528 338.091C261.82 338.837 261.91 339.552 261.796 340.236C261.688 340.919 261.431 341.501 261.025 341.984C261.809 341.92 262.502 342.074 263.105 342.448C263.714 342.82 264.186 343.433 264.521 344.287C264.852 345.129 264.932 345.943 264.763 346.73C264.593 347.518 264.197 348.232 263.573 348.874C262.954 349.507 262.14 350.021 261.133 350.416ZM266.685 347.907L266.026 332.277L267.891 331.545L278.035 343.454L276.572 344.028L266.974 332.809L267.529 332.592L268.148 347.333L266.685 347.907ZM267.489 343.741L266.971 342.421L274.086 339.63L274.603 340.95L267.489 343.741ZM279.38 342.927L273.978 329.157L275.393 328.602L279.82 339.886L282.976 325.627L284.391 325.072L289.793 338.842L288.378 339.397L283.948 328.104L280.795 342.372L279.38 342.927ZM278.814 325.847C278.362 326.025 277.904 326.076 277.44 326C276.983 325.922 276.57 325.742 276.202 325.46C275.831 325.171 275.557 324.801 275.379 324.348L276.546 323.89C276.686 324.247 276.934 324.503 277.289 324.658C277.644 324.813 278 324.821 278.357 324.681C278.72 324.538 278.976 324.291 279.125 323.938C279.28 323.583 279.287 323.227 279.147 322.87L280.314 322.412C280.491 322.865 280.542 323.323 280.467 323.787C280.395 324.242 280.215 324.654 279.926 325.025C279.638 325.396 279.267 325.67 278.814 325.847ZM292.09 337.941L286.688 324.171L288.093 323.62L290.528 329.826L298.14 326.839L295.705 320.633L297.101 320.086L302.503 333.856L301.107 334.403L298.669 328.188L291.057 331.174L293.495 337.389L292.09 337.941Z" fill="#707070"/>
<path d="M137.392 399.537L123.482 404.993L118.027 391.083L131.936 385.628L137.392 399.537Z" fill="#0A0A0A"/>
<path d="M142.849 413.447L128.939 418.903L123.484 404.994L137.393 399.538L142.849 413.447Z" fill="#FF3800"/>
<path d="M156.759 407.99L142.85 413.446L137.394 399.537L151.303 394.081L156.759 407.99Z" fill="#0A0A0A"/>
<path d="M113.249 344.81L99.3398 350.266L104.796 364.176L118.705 358.72L113.249 344.81Z" fill="#0A0A0A"/>
<path d="M107.792 330.9L93.8828 336.356L99.3387 350.265L113.248 344.81L107.792 330.9Z" fill="#FF3800"/>
<path d="M121.702 325.443L107.793 330.899L113.249 344.808L127.158 339.352L121.702 325.443Z" fill="#0A0A0A"/>
<path d="M397.032 297.695L410.941 292.239L405.485 278.33L391.576 283.785L397.032 297.695Z" fill="#0A0A0A"/>
<path d="M402.488 311.605L416.397 306.149L410.942 292.24L397.032 297.696L402.488 311.605Z" fill="#FF3800"/>
<path d="M388.579 317.062L402.488 311.606L397.032 297.697L383.123 303.153L388.579 317.062Z" fill="#0A0A0A"/>
<path d="M377.529 241.148L391.438 235.692L396.894 249.601L382.985 255.057L377.529 241.148Z" fill="#0A0A0A"/>
<path d="M372.072 227.238L385.981 221.782L391.437 235.691L377.528 241.147L372.072 227.238Z" fill="#FF3800"/>
<path d="M358.162 232.695L372.071 227.239L377.527 241.148L363.618 246.604L358.162 232.695Z" fill="#0A0A0A"/>
</g>
<defs>
<clipPath id="clip0_754_2303">
<rect width="398.426" height="398.426" fill="white" transform="translate(-26 145.825) rotate(-21.4177)"/>
</clipPath>
</defs>
</svg>
