<svg width="491" height="517" viewBox="0 0 491 517" fill="none" xmlns="http://www.w3.org/2000/svg">
<g clip-path="url(#clip0_754_2187)">
<path d="M94.3063 46.1347L50.0352 45.5088L49.4093 89.7799L93.6804 90.4058L94.3063 46.1347Z" fill="#F8F8FF"/>
<path d="M138.555 46.7633L94.2842 46.1375L93.6583 90.4086L137.929 91.0345L138.555 46.7633Z" fill="#FF3800"/>
<path d="M227.103 48.0133L182.832 47.3875L182.206 91.6586L226.477 92.2845L227.103 48.0133Z" fill="#F8F8FF"/>
<path d="M315.626 49.2633L271.354 48.6375L270.729 92.9086L315 93.5345L315.626 49.2633Z" fill="#FF3800"/>
<path d="M359.898 49.8883L315.627 49.2625L315.001 93.5336L359.272 94.1595L359.898 49.8883Z" fill="#F8F8FF"/>
<path d="M139.188 2.48989L94.917 1.86401L94.2911 46.1352L138.562 46.7611L139.188 2.48989Z" fill="#F8F8FF"/>
<path d="M183.452 3.1188L139.181 2.49292L138.555 46.7641L182.826 47.39L183.452 3.1188Z" fill="#F8F8FF"/>
<path d="M271.979 4.3688L227.708 3.74292L227.082 48.0141L271.353 48.64L271.979 4.3688Z" fill="#F8F8FF"/>
<path d="M316.253 4.9938L271.981 4.36792L271.356 48.6391L315.627 49.265L316.253 4.9938Z" fill="#F8F8FF"/>
<path d="M49.4108 89.7633L5.13965 89.1375L4.51377 133.409L48.7849 134.034L49.4108 89.7633Z" fill="#F8F8FF"/>
<path d="M93.6794 90.3883L49.4082 89.7625L48.7823 134.034L93.0535 134.659L93.6794 90.3883Z" fill="#FF3800"/>
<path d="M359.271 94.142L315 93.5161L314.374 137.787L358.645 138.413L359.271 94.142Z" fill="#FF3800"/>
<path d="M48.7829 134.033L4.51172 133.407L3.88584 177.678L48.157 178.304L48.7829 134.033Z" fill="#F8F8FF"/>
<path d="M225.852 136.541L181.581 135.915L180.955 180.186L225.226 180.812L225.852 136.541Z" fill="#FF3800"/>
<path d="M92.4294 178.927L48.1582 178.302L47.5323 222.573L91.8035 223.199L92.4294 178.927Z" fill="#F8F8FF"/>
<path d="M180.952 180.185L136.681 179.559L136.055 223.83L180.326 224.456L180.952 180.185Z" fill="#FF3800"/>
<path d="M225.225 180.806L180.954 180.18L180.328 224.452L224.599 225.077L225.225 180.806Z" fill="#F8F8FF"/>
<path d="M269.479 181.435L225.208 180.809L224.582 225.08L268.853 225.706L269.479 181.435Z" fill="#FF3800"/>
<path d="M358.021 182.685L313.75 182.059L313.124 226.33L357.395 226.956L358.021 182.685Z" fill="#F8F8FF"/>
<path d="M47.5339 222.556L3.2627 221.93L2.63682 266.202L46.908 266.827L47.5339 222.556Z" fill="#F8F8FF"/>
<path d="M224.598 225.06L180.327 224.434L179.701 268.705L223.972 269.331L224.598 225.06Z" fill="#FF3800"/>
<path d="M47.1622 265.951L2.34375 265.317L1.69253 311.381L46.511 312.014L47.1622 265.951Z" fill="#F8F8FF"/>
<path d="M91.1794 267.455L46.9082 266.829L46.2823 311.1L90.5535 311.726L91.1794 267.455Z" fill="#FF3800"/>
<path d="M356.766 271.209L312.495 270.583L311.869 314.854L356.14 315.48L356.766 271.209Z" fill="#FF3800"/>
<path d="M90.5475 311.728L46.2764 311.102L45.6505 355.373L89.9216 355.999L90.5475 311.728Z" fill="#F8F8FF"/>
<path d="M134.806 312.353L90.5352 311.727L89.9093 355.998L134.18 356.624L134.806 312.353Z" fill="#FF3800"/>
<path d="M223.347 313.603L179.076 312.977L178.45 357.248L222.721 357.874L223.347 313.603Z" fill="#F8F8FF"/>
<path d="M311.87 314.857L267.599 314.231L266.973 358.503L311.244 359.128L311.87 314.857Z" fill="#FF3800"/>
<path d="M356.144 315.482L311.873 314.856L311.247 359.127L355.518 359.753L356.144 315.482Z" fill="#F8F8FF"/>
<path d="M134.178 356.607L89.9072 355.981L89.2813 400.252L133.553 400.878L134.178 356.607Z" fill="#F8F8FF"/>
<path d="M178.447 357.228L134.176 356.602L133.55 400.873L177.821 401.499L178.447 357.228Z" fill="#F8F8FF"/>
<path d="M266.975 358.482L222.704 357.856L222.078 402.127L266.349 402.753L266.975 358.482Z" fill="#F8F8FF"/>
<path d="M311.243 359.107L266.972 358.481L266.346 402.752L310.617 403.378L311.243 359.107Z" fill="#F8F8FF"/>
<path d="M403.525 94.7711L359.254 94.1453L358.628 138.416L402.899 139.042L403.525 94.7711Z" fill="#F8F8FF"/>
<path d="M402.902 139.037L358.631 138.411L358.005 182.682L402.276 183.308L402.902 139.037Z" fill="#F8F8FF"/>
<path d="M401.647 227.564L357.376 226.938L356.75 271.209L401.021 271.835L401.647 227.564Z" fill="#F8F8FF"/>
<path d="M401.025 271.838L356.754 271.212L356.128 315.483L400.399 316.109L401.025 271.838Z" fill="#F8F8FF"/>
<rect x="47.6914" y="88.9109" width="314.075" height="222.544" transform="rotate(0.809961 47.6914 88.9109)" fill="#F8F8FF"/>
<rect x="93.7344" y="43.1296" width="222.544" height="317.664" transform="rotate(0.809961 93.7344 43.1296)" fill="#F8F8FF"/>
<path d="M121.829 145.916C119.678 145.886 117.827 145.392 116.277 144.433C114.736 143.475 113.555 142.149 112.732 140.453C111.919 138.758 111.528 136.795 111.56 134.565C111.591 132.334 112.037 130.382 112.897 128.711C113.768 127.04 114.986 125.747 116.553 124.833C118.13 123.918 119.994 123.477 122.145 123.507C124.297 123.537 126.143 124.031 127.683 124.99C129.234 125.948 130.415 127.274 131.228 128.969C132.051 130.664 132.447 132.628 132.415 134.858C132.384 137.089 131.933 139.041 131.063 140.712C130.202 142.383 128.984 143.676 127.407 144.59C125.84 145.504 123.981 145.946 121.829 145.916ZM121.883 142.092C123.248 142.131 124.387 141.853 125.302 141.258C126.217 140.663 126.906 139.811 127.37 138.702C127.844 137.593 128.092 136.292 128.113 134.798C128.134 133.304 127.923 132.006 127.48 130.904C127.047 129.802 126.382 128.941 125.484 128.321C124.587 127.7 123.456 127.371 122.091 127.331C120.727 127.292 119.588 127.57 118.673 128.165C117.758 128.76 117.064 129.611 116.59 130.72C116.126 131.83 115.883 133.131 115.862 134.625C115.841 136.119 116.047 137.417 116.48 138.519C116.922 139.621 117.593 140.482 118.49 141.102C119.388 141.723 120.519 142.052 121.883 142.092ZM139.652 145.719L139.902 128.001L133.119 127.905L133.173 124.111L150.801 124.359L150.748 128.154L143.965 128.058L143.716 145.776L139.652 145.719ZM152.899 145.906L153.202 124.393L162.285 124.521C162.495 124.524 162.773 124.538 163.122 124.563C163.48 124.578 163.798 124.612 164.076 124.666C165.358 124.883 166.403 125.321 167.211 125.98C168.028 126.639 168.624 127.464 168.999 128.456C169.374 129.437 169.552 130.531 169.535 131.736C169.518 132.941 169.304 134.034 168.892 135.014C168.489 135.985 167.87 136.788 167.035 137.423C166.209 138.059 165.157 138.468 163.879 138.649C163.6 138.685 163.281 138.71 162.922 138.725C162.563 138.74 162.284 138.746 162.085 138.743L157.065 138.673L156.963 145.963L152.899 145.906ZM157.119 134.878L161.959 134.946C162.168 134.949 162.398 134.942 162.647 134.926C162.896 134.91 163.126 134.873 163.336 134.816C163.886 134.675 164.312 134.431 164.616 134.087C164.92 133.733 165.13 133.342 165.245 132.916C165.371 132.479 165.437 132.066 165.442 131.678C165.447 131.29 165.393 130.88 165.28 130.451C165.177 130.011 164.978 129.614 164.684 129.262C164.39 128.899 163.971 128.639 163.425 128.482C163.217 128.419 162.988 128.376 162.739 128.353C162.491 128.329 162.262 128.316 162.053 128.313L157.212 128.245L157.119 134.878ZM189.931 146.428L185.807 146.37L186.01 132.028L176.455 146.238L172.332 146.18L172.635 124.667L176.759 124.725L176.556 139.067L186.111 124.857L190.234 124.915L189.931 146.428ZM194.099 146.487L194.403 124.974L198.048 125.025L204.958 139.407L212.27 125.226L215.915 125.277L215.612 146.79L211.818 146.736L211.999 133.888L205.573 146.648L204.139 146.628L198.075 133.692L197.894 146.54L194.099 146.487ZM218.312 146.828L225.188 125.408L231.254 125.493L237.524 147.099L233.341 147.04L227.752 127.984L228.529 127.995L222.495 146.887L218.312 146.828ZM222.319 142.402L222.373 138.607L233.727 138.767L233.673 142.562L222.319 142.402ZM240.202 147.136L240.505 125.624L244.628 125.682L244.426 140.024L253.98 125.813L258.104 125.872L257.8 147.384L253.677 147.326L253.879 132.984L244.325 147.195L240.202 147.136ZM249.255 123.954C248.378 123.941 247.585 123.716 246.874 123.278C246.163 122.839 245.598 122.259 245.18 121.535C244.762 120.812 244.559 120.012 244.571 119.136L247.708 119.18C247.702 119.628 247.851 120.014 248.155 120.337C248.47 120.65 248.851 120.81 249.299 120.816C249.747 120.823 250.128 120.674 250.441 120.369C250.764 120.055 250.929 119.674 250.935 119.226L254.073 119.27C254.06 120.146 253.835 120.94 253.397 121.651C252.958 122.362 252.377 122.927 251.654 123.345C250.931 123.763 250.131 123.966 249.255 123.954ZM266.959 147.514L267.209 129.795L260.426 129.7L260.48 125.905L278.108 126.154L278.055 129.948L271.272 129.853L271.022 147.571L266.959 147.514ZM280.206 147.7L280.509 126.187L294.552 126.385L294.499 130.18L284.519 130.039L284.454 134.641L292.641 134.756L292.588 138.551L284.401 138.435L284.323 143.963L294.302 144.104L294.249 147.898L280.206 147.7ZM77.5175 177.847L77.8207 156.334L95.5689 156.584L95.2656 178.097L91.2021 178.039L91.4518 160.321L81.8308 160.186L81.581 177.904L77.5175 177.847ZM108.686 178.734C106.535 178.704 104.684 178.21 103.134 177.251C101.593 176.293 100.411 174.967 99.5885 173.271C98.7756 171.576 98.3849 169.614 98.4163 167.383C98.4478 165.152 98.8937 163.2 99.754 161.529C100.624 159.858 101.843 158.565 103.41 157.651C104.987 156.736 106.851 156.295 109.002 156.325C111.153 156.355 112.999 156.849 114.54 157.808C116.09 158.766 117.272 160.092 118.085 161.787C118.908 163.483 119.303 165.446 119.272 167.677C119.24 169.907 118.79 171.859 117.919 173.53C117.059 175.201 115.84 176.494 114.263 177.408C112.697 178.322 110.837 178.764 108.686 178.734ZM108.74 174.91C110.104 174.949 111.244 174.671 112.159 174.076C113.074 173.481 113.763 172.629 114.227 171.52C114.701 170.411 114.948 169.11 114.969 167.616C114.99 166.122 114.78 164.824 114.337 163.722C113.904 162.62 113.239 161.759 112.341 161.139C111.443 160.518 110.312 160.189 108.948 160.149C107.584 160.11 106.444 160.388 105.53 160.983C104.615 161.578 103.92 162.429 103.446 163.539C102.982 164.648 102.74 165.949 102.719 167.443C102.698 168.937 102.904 170.235 103.336 171.337C103.779 172.439 104.449 173.3 105.347 173.92C106.245 174.541 107.376 174.87 108.74 174.91ZM122.103 178.475L122.406 156.962L131.011 157.083C132.545 157.105 133.78 157.431 134.718 158.062C135.655 158.683 136.337 159.46 136.762 160.392C137.187 161.324 137.393 162.264 137.38 163.21C137.363 164.415 137.075 165.412 136.516 166.201C135.967 166.99 135.217 167.513 134.267 167.768L134.278 167.021C135.618 167.319 136.616 167.956 137.269 168.931C137.933 169.907 138.256 170.992 138.239 172.188C138.221 173.472 137.966 174.599 137.475 175.569C136.993 176.538 136.265 177.295 135.291 177.839C134.317 178.373 133.098 178.63 131.634 178.609L122.103 178.475ZM126.28 174.709L131.27 174.779C131.817 174.787 132.307 174.679 132.739 174.456C133.17 174.223 133.508 173.899 133.753 173.484C134.008 173.059 134.14 172.558 134.148 171.98C134.155 171.473 134.057 171.018 133.854 170.617C133.65 170.215 133.336 169.897 132.911 169.662C132.496 169.417 131.975 169.29 131.347 169.281L126.357 169.211L126.28 174.709ZM126.411 165.416L130.833 165.479C131.291 165.485 131.7 165.411 132.061 165.257C132.422 165.102 132.709 164.862 132.923 164.537C133.137 164.201 133.248 163.769 133.255 163.241C133.264 162.584 133.068 162.028 132.666 161.575C132.264 161.121 131.675 160.888 130.898 160.877L126.476 160.815L126.411 165.416ZM141.127 178.743L141.43 157.23L145.494 157.288L145.369 166.132L154.99 166.267L155.115 157.423L159.178 157.48L158.875 178.993L154.812 178.936L154.937 170.062L145.316 169.926L145.191 178.8L141.127 178.743ZM180.668 179.301L176.545 179.242L176.747 164.9L167.193 179.111L163.07 179.052L163.373 157.54L167.496 157.598L167.294 171.94L176.848 157.73L180.971 157.788L180.668 179.301ZM184.837 179.359L185.14 157.846L189.263 157.905L189.061 172.246L198.616 158.036L202.739 158.094L202.436 179.607L198.312 179.549L198.514 165.207L188.96 179.417L184.837 179.359ZM193.89 156.177C193.014 156.164 192.22 155.939 191.509 155.501C190.798 155.062 190.233 154.481 189.815 153.758C189.397 153.035 189.194 152.235 189.206 151.359L192.344 151.403C192.337 151.851 192.486 152.237 192.79 152.56C193.105 152.873 193.486 153.033 193.934 153.039C194.382 153.046 194.763 152.897 195.076 152.592C195.399 152.278 195.564 151.897 195.57 151.449L198.708 151.493C198.695 152.369 198.47 153.163 198.032 153.874C197.593 154.585 197.013 155.15 196.289 155.568C195.566 155.986 194.766 156.189 193.89 156.177ZM221.812 180.329C219.661 180.298 217.81 179.804 216.259 178.846C214.719 177.888 213.537 176.561 212.714 174.866C211.902 173.171 211.511 171.208 211.542 168.977C211.574 166.746 212.02 164.795 212.88 163.124C213.75 161.452 214.969 160.16 216.536 159.245C218.113 158.331 219.977 157.889 222.128 157.919C224.598 157.954 226.661 158.596 228.317 159.845C229.983 161.093 231.145 162.768 231.802 164.87L227.693 165.947C227.313 164.637 226.655 163.617 225.719 162.886C224.783 162.146 223.568 161.765 222.074 161.744C220.71 161.725 219.565 162.012 218.64 162.607C217.725 163.202 217.031 164.049 216.557 165.148C216.083 166.247 215.836 167.543 215.815 169.037C215.794 170.531 216.005 171.834 216.447 172.946C216.89 174.058 217.56 174.924 218.458 175.545C219.365 176.165 220.502 176.485 221.866 176.504C223.36 176.525 224.585 176.179 225.542 175.465C226.498 174.752 227.185 173.75 227.601 172.461L231.679 173.654C230.962 175.736 229.753 177.377 228.053 178.579C226.362 179.78 224.282 180.364 221.812 180.329ZM234.878 180.065L235.182 158.552L252.93 158.802L252.626 180.315L248.563 180.258L248.813 162.539L239.192 162.404L238.942 180.122L234.878 180.065ZM256.821 180.374L257.124 158.861L271.167 159.059L271.114 162.854L261.134 162.713L261.069 167.314L269.256 167.43L269.203 171.224L261.016 171.109L260.938 176.637L270.917 176.777L270.864 180.572L256.821 180.374ZM274.445 180.622L274.748 159.109L278.812 159.167L278.672 169.087L286.998 159.282L291.958 159.352L282.815 169.832L292.223 180.873L287.084 180.801L278.646 170.879L278.508 180.68L274.445 180.622ZM299.305 180.973L299.555 163.255L292.772 163.159L292.826 159.364L310.455 159.613L310.401 163.407L303.619 163.312L303.369 181.03L299.305 180.973ZM312.552 181.16L312.855 159.647L321.939 159.775C322.148 159.778 322.426 159.792 322.775 159.816C323.133 159.831 323.452 159.866 323.73 159.919C325.012 160.137 326.056 160.575 326.864 161.234C327.682 161.893 328.278 162.718 328.652 163.71C329.027 164.691 329.206 165.784 329.189 166.989C329.172 168.195 328.957 169.287 328.545 170.268C328.143 171.238 327.524 172.041 326.688 172.677C325.862 173.313 324.81 173.722 323.533 173.903C323.253 173.939 322.934 173.964 322.575 173.979C322.216 173.994 321.937 174 321.738 173.997L316.718 173.926L316.616 181.217L312.552 181.16ZM316.772 170.132L321.612 170.2C321.822 170.203 322.051 170.196 322.3 170.18C322.549 170.163 322.779 170.127 322.989 170.07C323.539 169.928 323.966 169.685 324.269 169.341C324.573 168.986 324.783 168.596 324.898 168.169C325.024 167.733 325.09 167.32 325.095 166.932C325.101 166.543 325.047 166.134 324.933 165.704C324.83 165.264 324.631 164.868 324.337 164.515C324.044 164.153 323.624 163.893 323.078 163.736C322.87 163.673 322.641 163.63 322.393 163.606C322.144 163.583 321.915 163.57 321.706 163.567L316.865 163.499L316.772 170.132ZM142.442 211.765L142.745 190.252L160.493 190.502L160.19 212.015L156.126 211.958L156.376 194.24L146.755 194.104L146.505 211.822L142.442 211.765ZM173.611 212.653C171.459 212.622 169.608 212.128 168.058 211.17C166.517 210.212 165.336 208.885 164.513 207.19C163.7 205.495 163.309 203.532 163.341 201.301C163.372 199.07 163.818 197.119 164.678 195.447C165.549 193.776 166.767 192.483 168.334 191.569C169.911 190.655 171.775 190.213 173.926 190.243C176.078 190.274 177.924 190.768 179.464 191.726C181.015 192.684 182.196 194.011 183.009 195.706C183.832 197.401 184.228 199.364 184.196 201.595C184.165 203.826 183.714 205.777 182.844 207.448C181.983 209.12 180.765 210.412 179.188 211.327C177.621 212.241 175.762 212.683 173.611 212.653ZM173.665 208.828C175.029 208.867 176.168 208.589 177.083 207.995C177.998 207.4 178.687 206.548 179.151 205.439C179.625 204.33 179.873 203.028 179.894 201.534C179.915 200.04 179.704 198.742 179.261 197.64C178.829 196.538 178.163 195.677 177.266 195.057C176.368 194.437 175.237 194.107 173.873 194.068C172.508 194.029 171.369 194.307 170.454 194.901C169.539 195.496 168.845 196.348 168.371 197.457C167.907 198.566 167.664 199.868 167.643 201.362C167.622 202.856 167.828 204.154 168.261 205.255C168.704 206.357 169.374 207.219 170.272 207.839C171.169 208.459 172.3 208.789 173.665 208.828ZM196.253 212.972C194.102 212.941 192.251 212.447 190.701 211.489C189.16 210.531 187.978 209.204 187.156 207.509C186.343 205.814 185.952 203.851 185.983 201.62C186.015 199.389 186.461 197.438 187.321 195.767C188.191 194.095 189.41 192.803 190.977 191.888C192.554 190.974 194.418 190.532 196.569 190.563C199.039 190.597 201.102 191.239 202.758 192.488C204.424 193.736 205.586 195.411 206.244 197.513L202.134 198.59C201.754 197.28 201.096 196.26 200.16 195.529C199.224 194.789 198.009 194.408 196.515 194.387C195.151 194.368 194.006 194.655 193.081 195.25C192.166 195.845 191.472 196.692 190.998 197.791C190.525 198.89 190.277 200.186 190.256 201.68C190.235 203.174 190.446 204.477 190.888 205.589C191.331 206.701 192.001 207.567 192.899 208.188C193.807 208.808 194.943 209.128 196.307 209.147C197.801 209.168 199.026 208.822 199.983 208.108C200.939 207.395 201.626 206.393 202.042 205.104L206.12 206.297C205.403 208.379 204.194 210.021 202.494 211.222C200.804 212.423 198.723 213.007 196.253 212.972ZM207.242 212.678L207.29 209.302C207.747 209.338 208.136 209.304 208.457 209.199C208.777 209.094 209.049 208.899 209.272 208.613C209.505 208.317 209.71 207.912 209.887 207.396C210.063 206.871 210.232 206.216 210.392 205.431C210.649 204.189 210.867 202.882 211.045 201.51C211.234 200.128 211.393 198.776 211.521 197.453C211.649 196.129 211.751 194.926 211.826 193.841C211.901 192.746 211.958 191.875 211.997 191.228L226.668 191.435L226.365 212.948L222.301 212.891L222.551 195.172L215.679 195.076C215.631 195.633 215.566 196.359 215.484 197.254C215.411 198.15 215.313 199.14 215.188 200.224C215.063 201.308 214.912 202.431 214.737 203.594C214.561 204.757 214.351 205.885 214.106 206.977C213.882 208.04 213.615 208.983 213.304 209.805C212.994 210.618 212.586 211.284 212.081 211.805C211.585 212.316 210.948 212.651 210.169 212.809C209.39 212.968 208.414 212.924 207.242 212.678ZM233.131 213.043L236.204 207.05L229.072 191.469L233.674 191.534L238.386 202.807L243.593 191.674L247.926 191.735L237.464 213.104L233.131 213.043ZM249.703 213.277L250.006 191.764L264.049 191.962L263.996 195.757L254.016 195.616L253.766 213.334L249.703 213.277Z" fill="#0A0A0A"/>
<path d="M104.695 273.039L104.903 258.249L110.614 258.33C111.442 258.341 112.162 258.523 112.774 258.874C113.385 259.225 113.858 259.694 114.192 260.281C114.526 260.861 114.689 261.5 114.679 262.198C114.668 262.993 114.445 263.698 114.012 264.315C113.579 264.926 113.004 265.346 112.289 265.575L112.275 265.072C113.23 265.359 113.977 265.849 114.515 266.541C115.053 267.234 115.315 268.066 115.301 269.039C115.289 269.894 115.097 270.631 114.726 271.249C114.354 271.861 113.837 272.329 113.175 272.655C112.513 272.982 111.747 273.139 110.878 273.126L104.695 273.039ZM106.235 271.613L110.528 271.673C111.131 271.682 111.673 271.583 112.156 271.378C112.638 271.165 113.019 270.862 113.299 270.469C113.585 270.076 113.732 269.599 113.74 269.037C113.748 268.489 113.628 267.994 113.381 267.553C113.134 267.111 112.793 266.757 112.358 266.49C111.931 266.217 111.439 266.077 110.885 266.069L106.314 266.005L106.235 271.613ZM106.334 264.577L110.515 264.636C110.987 264.643 111.42 264.542 111.813 264.336C112.207 264.122 112.519 263.829 112.75 263.455C112.988 263.082 113.111 262.649 113.118 262.156C113.128 261.457 112.893 260.886 112.413 260.44C111.94 259.995 111.33 259.768 110.583 259.757L106.403 259.698L106.334 264.577ZM117.087 273.214L117.296 258.424L118.806 258.445L118.597 273.235L117.087 273.214ZM120.542 275.728L120.598 271.815C121.173 271.823 121.637 271.686 121.99 271.403C122.344 271.114 122.616 270.727 122.808 270.244C123 269.76 123.148 269.218 123.252 268.616C123.357 268.008 123.447 267.393 123.525 266.771C123.633 265.862 123.721 264.983 123.788 264.135C123.861 263.286 123.925 262.407 123.979 261.497C124.04 260.587 124.109 259.592 124.186 258.511L133.306 258.65L133.118 271.991L134.176 272.006L134.121 275.92L132.621 275.898L132.656 273.433L122.087 273.284L122.052 275.749L120.542 275.728ZM123.484 271.856L131.608 271.97L131.776 260.076L125.572 259.979C125.519 260.814 125.467 261.621 125.415 262.401C125.363 263.181 125.304 263.968 125.238 264.761C125.172 265.555 125.088 266.382 124.987 267.244C124.901 268.03 124.802 268.717 124.691 269.304C124.58 269.892 124.429 270.393 124.238 270.808C124.054 271.223 123.803 271.572 123.484 271.856ZM139.907 273.536L140.116 258.746L141.625 258.767L141.417 273.557L139.907 273.536ZM143.362 276.05L143.418 272.137C143.993 272.145 144.457 272.007 144.81 271.725C145.164 271.435 145.436 271.049 145.628 270.565C145.82 270.082 145.968 269.539 146.072 268.938C146.176 268.33 146.267 267.715 146.345 267.093C146.453 266.183 146.541 265.305 146.608 264.456C146.681 263.608 146.745 262.729 146.799 261.819C146.86 260.909 146.929 259.913 147.005 258.832L156.126 258.971L155.938 272.313L156.996 272.328L156.941 276.241L155.441 276.22L155.476 273.755L144.907 273.606L144.872 276.071L143.362 276.05ZM146.304 272.177L154.428 272.292L154.596 260.398L148.392 260.3C148.339 261.135 148.287 261.943 148.235 262.723C148.183 263.503 148.124 264.289 148.058 265.083C147.992 265.876 147.908 266.704 147.807 267.565C147.72 268.352 147.622 269.039 147.511 269.626C147.4 270.214 147.249 270.715 147.058 271.13C146.874 271.545 146.623 271.894 146.304 272.177ZM158.82 273.802L159.029 259.012L168.272 259.142L168.252 260.591L160.518 260.482L160.446 265.597L166.947 265.688L166.927 267.136L160.425 267.045L160.35 272.375L168.084 272.484L168.064 273.933L158.82 273.802ZM172.459 257.034L172.482 255.39L174.125 255.414L174.102 257.057L172.459 257.034ZM168.546 256.979L168.569 255.335L170.212 255.358L170.189 257.002L168.546 256.979ZM170.33 273.964L170.538 259.174L172.048 259.196L171.84 273.986L170.33 273.964ZM177.487 276.531L177.542 272.618C178.117 272.626 178.581 272.488 178.935 272.206C179.288 271.916 179.56 271.53 179.752 271.046C179.944 270.563 180.092 270.02 180.196 269.419C180.301 268.811 180.392 268.196 180.469 267.574C180.578 266.664 180.665 265.786 180.732 264.937C180.806 264.089 180.869 263.21 180.923 262.3C180.984 261.39 181.053 260.394 181.13 259.313L190.25 259.452L190.062 272.794L191.12 272.809L191.065 276.722L189.565 276.701L189.6 274.236L179.031 274.087L178.997 276.552L177.487 276.531ZM180.428 272.658L188.552 272.773L188.72 260.879L182.516 260.781C182.464 261.616 182.411 262.424 182.359 263.204C182.307 263.984 182.248 264.77 182.182 265.564C182.116 266.357 182.032 267.185 181.931 268.046C181.845 268.833 181.746 269.52 181.635 270.107C181.524 270.695 181.373 271.196 181.182 271.611C180.998 272.026 180.747 272.375 180.428 272.658ZM198.928 274.676C197.456 274.655 196.218 274.312 195.213 273.647C194.209 272.976 193.455 272.058 192.951 270.893C192.447 269.729 192.206 268.39 192.227 266.877C192.248 265.363 192.527 264.032 193.064 262.882C193.601 261.732 194.38 260.839 195.403 260.203C196.426 259.56 197.673 259.249 199.145 259.269C200.624 259.29 201.862 259.636 202.86 260.308C203.864 260.973 204.618 261.887 205.122 263.052C205.633 264.217 205.878 265.555 205.856 267.069C205.835 268.582 205.553 269.913 205.009 271.063C204.472 272.213 203.693 273.11 202.67 273.753C201.654 274.389 200.407 274.697 198.928 274.676ZM198.948 273.228C200.106 273.244 201.075 272.994 201.856 272.478C202.637 271.961 203.226 271.237 203.623 270.304C204.026 269.365 204.237 268.279 204.254 267.046C204.272 265.814 204.092 264.726 203.715 263.782C203.344 262.839 202.776 262.098 202.01 261.56C201.243 261.021 200.282 260.741 199.125 260.718C197.968 260.701 197.002 260.951 196.227 261.468C195.453 261.984 194.864 262.712 194.461 263.652C194.064 264.584 193.853 265.667 193.829 266.899C193.805 268.132 193.978 269.22 194.348 270.163C194.725 271.1 195.297 271.841 196.063 272.386C196.83 272.924 197.791 273.204 198.948 273.228ZM215.83 274.914C214.824 274.9 213.953 274.74 213.217 274.435C212.489 274.131 211.892 273.735 211.426 273.249C210.961 272.757 210.615 272.228 210.39 271.663L211.778 270.881C211.936 271.349 212.19 271.777 212.541 272.166C212.891 272.554 213.346 272.865 213.904 273.099C214.462 273.333 215.128 273.456 215.902 273.467C216.703 273.478 217.383 273.361 217.941 273.115C218.506 272.87 218.936 272.52 219.23 272.065C219.524 271.61 219.675 271.078 219.684 270.469C219.693 269.798 219.54 269.275 219.223 268.901C218.906 268.527 218.479 268.26 217.94 268.102C217.401 267.937 216.8 267.839 216.136 267.809C215.636 267.782 215.281 267.763 215.068 267.753C214.856 267.743 214.716 267.738 214.647 267.737C214.579 267.736 214.514 267.735 214.452 267.734L214.473 266.276C214.521 266.277 214.647 266.278 214.853 266.281C215.058 266.284 215.277 266.287 215.51 266.29C215.743 266.287 215.928 266.283 216.065 266.278C217.045 266.244 217.819 265.998 218.387 265.54C218.955 265.082 219.245 264.456 219.256 263.662C219.268 262.82 218.979 262.162 218.39 261.688C217.808 261.214 217.047 260.97 216.109 260.957C215.226 260.945 214.477 261.146 213.861 261.562C213.253 261.971 212.752 262.526 212.358 263.226L211.139 262.294C211.616 261.466 212.283 260.79 213.14 260.268C213.996 259.746 215.007 259.493 216.171 259.509C216.794 259.518 217.388 259.612 217.954 259.791C218.527 259.971 219.03 260.231 219.464 260.573C219.904 260.915 220.247 261.344 220.493 261.861C220.746 262.372 220.868 262.969 220.858 263.654C220.847 264.455 220.659 265.151 220.295 265.742C219.937 266.332 219.479 266.774 218.92 267.068C219.67 267.305 220.253 267.71 220.67 268.284C221.093 268.859 221.298 269.605 221.286 270.522C221.273 271.426 221.039 272.21 220.585 272.875C220.13 273.54 219.493 274.051 218.673 274.41C217.86 274.761 216.912 274.929 215.83 274.914ZM221.919 274.692L227.222 259.973L229.224 260.002L234.11 274.863L232.539 274.841L227.898 260.825L228.494 260.834L223.49 274.714L221.919 274.692ZM224.239 271.139L224.259 269.722L231.901 269.829L231.881 271.247L224.239 271.139ZM235.554 274.884L235.763 260.094L247.091 260.253L246.883 275.044L245.373 275.022L245.561 261.68L237.252 261.563L237.064 274.905L235.554 274.884ZM251.842 275.113L253.555 271.635L248.456 260.273L250.13 260.296L254.369 270.023L258.963 260.421L260.575 260.443L253.485 275.137L251.842 275.113ZM266.895 275.634C265.423 275.613 264.185 275.27 263.18 274.606C262.176 273.934 261.422 273.016 260.918 271.851C260.414 270.687 260.173 269.348 260.194 267.835C260.215 266.321 260.494 264.99 261.031 263.84C261.568 262.69 262.347 261.797 263.37 261.161C264.393 260.518 265.64 260.207 267.112 260.227C268.831 260.252 270.228 260.713 271.304 261.612C272.381 262.504 273.111 263.692 273.494 265.177L271.947 265.555C271.649 264.38 271.097 263.444 270.292 262.748C269.487 262.052 268.42 261.694 267.092 261.676C265.934 261.659 264.969 261.909 264.194 262.426C263.42 262.942 262.831 263.67 262.427 264.61C262.031 265.542 261.817 266.625 261.786 267.857C261.762 269.089 261.935 270.177 262.305 271.121C262.682 272.065 263.254 272.809 264.02 273.354C264.793 273.892 265.758 274.169 266.915 274.186C268.244 274.204 269.32 273.877 270.145 273.204C270.969 272.524 271.547 271.604 271.879 270.444L273.414 270.867C272.989 272.34 272.226 273.511 271.125 274.378C270.023 275.24 268.614 275.658 266.895 275.634ZM275.205 275.443L275.413 260.653L276.923 260.674L276.825 267.658L283.671 260.769L285.602 260.796L278.61 267.837L285.958 275.594L283.986 275.567L276.819 268.069L276.715 275.464L275.205 275.443ZM289.486 275.644L291.2 272.165L286.1 260.803L287.774 260.827L292.013 270.553L296.607 260.951L298.22 260.974L291.13 275.667L289.486 275.644Z" fill="#707070"/>
<path d="M61.6631 297.282L46.7236 297.071L46.9348 282.132L61.8743 282.343L61.6631 297.282Z" fill="#0A0A0A"/>
<path d="M61.4542 312.224L46.5146 312.012L46.7259 297.073L61.6654 297.284L61.4542 312.224Z" fill="#FF3800"/>
<path d="M76.3907 312.435L61.4512 312.223L61.6624 297.284L76.6019 297.495L76.3907 312.435Z" fill="#0A0A0A"/>
<path d="M60.0235 237.485L45.084 237.274L44.8728 252.214L59.8123 252.425L60.0235 237.485Z" fill="#0A0A0A"/>
<path d="M60.2325 222.548L45.293 222.337L45.0818 237.276L60.0213 237.487L60.2325 222.548Z" fill="#FF3800"/>
<path d="M75.169 222.763L60.2295 222.552L60.0183 237.491L74.9578 237.702L75.169 222.763Z" fill="#0A0A0A"/>
<path d="M340.53 301.223L355.47 301.434L355.681 286.495L340.741 286.284L340.53 301.223Z" fill="#0A0A0A"/>
<path d="M340.321 316.165L355.261 316.376L355.472 301.436L340.532 301.225L340.321 316.165Z" fill="#FF3800"/>
<path d="M325.386 315.954L340.325 316.165L340.536 301.225L325.597 301.014L325.386 315.954Z" fill="#0A0A0A"/>
<path d="M343.872 241.5L358.811 241.711L358.6 256.651L343.661 256.44L343.872 241.5Z" fill="#0A0A0A"/>
<path d="M344.081 226.562L359.02 226.774L358.809 241.713L343.869 241.502L344.081 226.562Z" fill="#FF3800"/>
<path d="M329.139 226.352L344.079 226.563L343.868 241.502L328.928 241.291L329.139 226.352Z" fill="#0A0A0A"/>
</g>
<defs>
<clipPath id="clip0_754_2187">
<rect width="398.426" height="398.426" fill="white" transform="translate(6.38965 0.614014) rotate(0.809961)"/>
</clipPath>
</defs>
</svg>
