<svg width="264" height="263" viewBox="0 0 264 263" fill="none" xmlns="http://www.w3.org/2000/svg">
<g clip-path="url(#clip0_1490_1717)">
<path d="M56.5935 45.3651L30.0492 47.9537L32.6379 74.4981L59.1822 71.9094L56.5935 45.3651Z" fill="#F8F8FF"/>
<path d="M83.1325 42.7779L56.5881 45.3666L59.1768 71.9109L85.7211 69.3223L83.1325 42.7779Z" fill="#FF3800"/>
<path d="M136.22 37.6016L109.676 40.1902L112.264 66.7346L138.809 64.1459L136.22 37.6016Z" fill="#F8F8FF"/>
<path d="M189.294 32.4253L162.75 35.014L165.338 61.5583L191.883 58.9697L189.294 32.4253Z" fill="#FF3800"/>
<path d="M215.841 29.8362L189.297 32.4249L191.885 58.9692L218.43 56.3805L215.841 29.8362Z" fill="#F8F8FF"/>
<path d="M80.5434 16.2351L53.999 18.8237L56.5877 45.3681L83.132 42.7794L80.5434 16.2351Z" fill="#F8F8FF"/>
<path d="M107.086 13.6461L80.5417 16.2347L83.1304 42.7791L109.675 40.1904L107.086 13.6461Z" fill="#F8F8FF"/>
<path d="M160.162 8.46962L133.618 11.0583L136.206 37.6026L162.751 35.014L160.162 8.46962Z" fill="#F8F8FF"/>
<path d="M186.709 5.88051L160.165 8.46918L162.753 35.0135L189.298 32.4249L186.709 5.88051Z" fill="#F8F8FF"/>
<path d="M32.6398 74.4892L6.09546 77.0779L8.68412 103.622L35.2285 101.034L32.6398 74.4892Z" fill="#F8F8FF"/>
<path d="M59.1807 71.9021L32.6364 74.4907L35.225 101.035L61.7694 98.4464L59.1807 71.9021Z" fill="#FF3800"/>
<path d="M218.43 56.3711L191.886 58.9598L194.474 85.5041L221.019 82.9155L218.43 56.3711Z" fill="#FF3800"/>
<path d="M35.227 101.032L8.68262 103.621L11.2713 130.165L37.8156 127.576L35.227 101.032Z" fill="#F8F8FF"/>
<path d="M141.396 90.6815L114.852 93.2701L117.441 119.814L143.985 117.226L141.396 90.6815Z" fill="#FF3800"/>
<path d="M64.3589 124.99L37.8146 127.578L40.4032 154.123L66.9476 151.534L64.3589 124.99Z" fill="#F8F8FF"/>
<path d="M117.437 119.811L90.8925 122.4L93.4811 148.944L120.025 146.356L117.437 119.811Z" fill="#FF3800"/>
<path d="M143.982 117.224L117.437 119.813L120.026 146.357L146.57 143.768L143.982 117.224Z" fill="#F8F8FF"/>
<path d="M170.517 114.635L143.972 117.224L146.561 143.768L173.105 141.18L170.517 114.635Z" fill="#FF3800"/>
<path d="M223.606 109.457L197.062 112.046L199.651 138.59L226.195 136.001L223.606 109.457Z" fill="#F8F8FF"/>
<path d="M40.4032 154.112L13.8589 156.701L16.4476 183.245L42.9919 180.656L40.4032 154.112Z" fill="#F8F8FF"/>
<path d="M146.573 143.757L120.028 146.346L122.617 172.89L149.161 170.302L146.573 143.757Z" fill="#FF3800"/>
<path d="M43.0901 180.109L16.2175 182.73L18.911 210.349L45.7835 207.728L43.0901 180.109Z" fill="#F8F8FF"/>
<path d="M69.5392 178.066L42.9949 180.654L45.5835 207.199L72.1279 204.61L69.5392 178.066Z" fill="#FF3800"/>
<path d="M228.779 162.537L202.234 165.125L204.823 191.67L231.367 189.081L228.779 162.537Z" fill="#FF3800"/>
<path d="M72.1263 204.613L45.5819 207.201L48.1706 233.746L74.7149 231.157L72.1263 204.613Z" fill="#F8F8FF"/>
<path d="M98.6575 202.025L72.1132 204.614L74.7018 231.158L101.246 228.57L98.6575 202.025Z" fill="#FF3800"/>
<path d="M151.749 196.845L125.205 199.434L127.793 225.978L154.338 223.389L151.749 196.845Z" fill="#F8F8FF"/>
<path d="M204.829 191.673L178.285 194.261L180.873 220.806L207.418 218.217L204.829 191.673Z" fill="#FF3800"/>
<path d="M231.372 189.082L204.827 191.67L207.416 218.215L233.96 215.626L231.372 189.082Z" fill="#F8F8FF"/>
<path d="M101.249 228.554L74.7042 231.143L77.2929 257.687L103.837 255.099L101.249 228.554Z" fill="#F8F8FF"/>
<path d="M127.789 225.969L101.245 228.558L103.834 255.102L130.378 252.514L127.789 225.969Z" fill="#F8F8FF"/>
<path d="M180.869 220.793L154.325 223.382L156.914 249.926L183.458 247.337L180.869 220.793Z" fill="#F8F8FF"/>
<path d="M207.414 218.204L180.87 220.792L183.458 247.337L210.003 244.748L207.414 218.204Z" fill="#F8F8FF"/>
<path d="M244.963 53.7841L218.419 56.3727L221.007 82.9171L247.552 80.3284L244.963 53.7841Z" fill="#F8F8FF"/>
<path d="M247.55 80.325L221.006 82.9136L223.595 109.458L250.139 106.869L247.55 80.325Z" fill="#F8F8FF"/>
<path d="M252.729 133.405L226.184 135.993L228.773 162.538L255.317 159.949L252.729 133.405Z" fill="#F8F8FF"/>
<path d="M255.318 159.95L228.773 162.538L231.362 189.083L257.906 186.494L255.318 159.95Z" fill="#F8F8FF"/>
<rect x="31.5524" y="74.0943" width="189.189" height="134.054" transform="rotate(-5.57 31.5524 74.0943)" fill="#F8F8FF"/>
<rect x="56.0548" y="43.6029" width="134.054" height="191.351" transform="rotate(-5.57 56.0548 43.6029)" fill="#F8F8FF"/>
<path d="M52.7474 104.279L51.3491 89.9474L57.4004 89.357C57.5398 89.3434 57.7262 89.3319 57.9597 89.3226C58.1992 89.3059 58.4135 89.3051 58.6025 89.3201C59.4714 89.3693 60.1989 89.583 60.7851 89.9612C61.3779 90.3388 61.8357 90.8434 62.1586 91.475C62.4808 92.1 62.6811 92.8139 62.7594 93.6168C62.8377 94.4196 62.7762 95.1625 62.5749 95.8452C62.3796 96.5207 62.0276 97.101 61.5189 97.586C61.0169 98.0704 60.3478 98.4203 59.5114 98.6359C59.3282 98.6806 59.1178 98.7212 58.8803 98.7578C58.6427 98.7943 58.4575 98.8191 58.3248 98.832L54.9807 99.1583L55.4546 104.015L52.7474 104.279ZM54.7341 96.6303L57.9588 96.3157C58.0981 96.3021 58.2501 96.2806 58.4147 96.2511C58.5792 96.2217 58.7293 96.1802 58.8647 96.1268C59.2199 95.9917 59.4857 95.7983 59.6621 95.5467C59.8379 95.2884 59.9483 95.013 59.9935 94.7206C60.0446 94.4209 60.0576 94.1416 60.0323 93.8829C60.0071 93.6241 59.9407 93.3559 59.8333 93.0784C59.7318 92.7936 59.5702 92.5447 59.3485 92.3319C59.1261 92.1125 58.8276 91.9708 58.453 91.9069C58.3098 91.8807 58.1546 91.869 57.9874 91.8719C57.8202 91.8748 57.667 91.8831 57.5276 91.8967L54.3029 92.2113L54.7341 96.6303ZM65.6938 103.016L64.2955 88.6843L73.6511 87.7715L73.8977 90.2995L67.2493 90.9482L67.5484 94.0136L73.0025 93.4815L73.2491 96.0095L67.795 96.5416L68.1543 100.224L74.8027 99.5755L75.0494 102.104L65.6938 103.016ZM82.0966 101.717C81.0814 101.816 80.1744 101.754 79.3756 101.531C78.5834 101.307 77.9026 100.988 77.3331 100.575C76.763 100.155 76.307 99.7034 75.9652 99.2209L78.099 97.4052C78.2906 97.7214 78.5482 98.0278 78.8719 98.3245C79.1955 98.6211 79.6099 98.852 80.115 99.017C80.6201 99.1821 81.2376 99.229 81.9674 99.1578C82.6575 99.0905 83.2018 98.9369 83.6004 98.6971C84.0056 98.4566 84.2859 98.1714 84.4413 97.8414C84.6033 97.5107 84.6674 97.1729 84.6338 96.8279C84.5891 96.3701 84.4188 96.0317 84.1228 95.8127C83.8334 95.5931 83.4719 95.4576 83.0382 95.4061C82.6038 95.348 82.1504 95.3353 81.6781 95.368C81.2189 95.3994 80.8862 95.4218 80.6799 95.4352C80.4802 95.448 80.3438 95.458 80.2708 95.4651C80.2045 95.4716 80.1415 95.4777 80.0817 95.4836L79.8332 92.9357C79.9194 92.9272 80.0455 92.9149 80.2114 92.8988C80.3839 92.8819 80.5564 92.8651 80.7289 92.8483C80.9074 92.8241 81.0527 92.8033 81.1649 92.7856C81.8583 92.6845 82.424 92.4752 82.8619 92.1579C83.3065 91.8399 83.5006 91.3922 83.4443 90.815C83.3925 90.2842 83.1424 89.8832 82.6939 89.6122C82.2521 89.3404 81.6829 89.2386 80.9862 89.3065C80.3293 89.3706 79.756 89.5706 79.2663 89.9064C78.7826 90.2349 78.4378 90.58 78.232 90.9417L76.1865 89.1318C76.6337 88.5657 77.2572 88.0561 78.0569 87.6029C78.8567 87.1498 79.7775 86.8724 80.8192 86.7708C81.4495 86.7093 82.0747 86.732 82.6947 86.839C83.314 86.9393 83.8824 87.135 84.3997 87.4262C84.9165 87.7107 85.3431 88.1011 85.6795 88.5974C86.0226 89.0931 86.2298 89.7059 86.301 90.4358C86.3612 91.0529 86.3087 91.6474 86.1434 92.2195C85.9776 92.785 85.7071 93.2735 85.3319 93.6852C85.955 93.8924 86.4537 94.2322 86.828 94.7048C87.2023 95.1773 87.4264 95.7918 87.5002 96.5482C87.5928 97.4971 87.4073 98.3424 86.9438 99.0842C86.4863 99.8188 85.8311 100.415 84.9783 100.874C84.132 101.331 83.1715 101.612 82.0966 101.717ZM91.2184 100.526L92.8166 96.3109L86.9139 86.4776L89.9793 86.1785L93.9522 93.3265L96.588 85.5337L99.4743 85.2521L94.1047 100.244L91.2184 100.526ZM99.8636 99.6825L99.6441 97.4332C99.9513 97.4233 100.207 97.3715 100.413 97.2778C100.618 97.1841 100.784 97.034 100.911 96.8273C101.044 96.6133 101.151 96.3284 101.23 95.9723C101.308 95.6097 101.372 95.1614 101.42 94.6275C101.498 93.7826 101.546 92.8971 101.563 91.9711C101.586 91.0378 101.59 90.1263 101.577 89.2367C101.564 88.3471 101.542 87.5388 101.512 86.8117C101.48 86.0779 101.453 85.4944 101.431 85.0612L111.205 84.1076L112.603 98.4396L109.896 98.7037L108.744 86.8998L104.166 87.3464C104.176 87.7206 104.187 88.2085 104.198 88.8102C104.217 89.4113 104.225 90.077 104.222 90.8073C104.22 91.5377 104.204 92.2962 104.173 93.0829C104.143 93.8695 104.087 94.6352 104.005 95.38C103.935 96.1036 103.828 96.7504 103.682 97.3206C103.536 97.8841 103.315 98.3578 103.017 98.7419C102.726 99.1186 102.327 99.3886 101.82 99.5519C101.314 99.7152 100.661 99.7587 99.8636 99.6825ZM115.379 98.1687L113.981 83.8368L116.688 83.5727L117.162 88.4296L120.506 88.1033C120.639 88.0904 120.825 88.0789 121.065 88.0689C121.305 88.0522 121.519 88.0514 121.708 88.0664C122.57 88.1163 123.295 88.3303 123.881 88.7085C124.474 89.0861 124.931 89.5907 125.254 90.2223C125.583 90.8466 125.787 91.5602 125.865 92.3631C125.943 93.166 125.885 93.9084 125.691 94.5906C125.495 95.2661 125.143 95.8463 124.635 96.3313C124.133 96.8157 123.46 97.166 122.617 97.3822C122.434 97.4269 122.224 97.4675 121.986 97.5041C121.755 97.54 121.57 97.5648 121.431 97.5784L115.379 98.1687ZM117.84 95.3766L121.064 95.062C121.204 95.0484 121.356 95.0269 121.52 94.9974C121.685 94.968 121.835 94.9266 121.97 94.8731C122.326 94.738 122.591 94.5446 122.768 94.293C122.944 94.0347 123.054 93.7593 123.099 93.4669C123.15 93.1672 123.163 92.8879 123.138 92.6292C123.113 92.3704 123.046 92.1022 122.939 91.8247C122.838 91.5399 122.676 91.291 122.454 91.0782C122.232 90.8588 121.933 90.7171 121.559 90.6532C121.415 90.627 121.26 90.6153 121.093 90.6182C120.926 90.6211 120.773 90.6294 120.633 90.643L117.409 90.9576L117.84 95.3766ZM131.456 96.6002L130.304 84.7963L125.786 85.2371L125.539 82.7091L137.283 81.5633L137.53 84.0913L133.011 84.5322L134.163 96.3361L131.456 96.6002ZM138.897 95.8743L141.878 81.115L145.919 80.7208L151.696 94.6255L148.909 94.8974L143.775 82.638L144.292 82.5876L141.684 95.6024L138.897 95.8743ZM141.233 92.6321L140.987 90.1041L148.551 89.3661L148.797 91.8941L141.233 92.6321ZM155.619 94.2428L154.467 82.4389L149.948 82.8797L149.702 80.3517L161.446 79.2059L161.693 81.7339L157.174 82.1747L158.326 93.9787L155.619 94.2428ZM162.524 96.2819L162.573 95.1318C162.894 95.1272 163.147 95.0489 163.333 94.8968C163.52 94.7513 163.638 94.5522 163.687 94.2996C163.743 94.053 163.733 93.7727 163.655 93.4587L162.262 93.5947L161.998 90.8875L164.705 90.6234L164.969 93.3306C165.062 94.286 164.911 95.0309 164.514 95.5653C164.117 96.0997 163.454 96.3386 162.524 96.2819ZM188.205 93.475L187.972 91.0863L186.578 91.2222L186.345 88.8336L190.446 88.4335L190.912 93.2108L188.205 93.475ZM172.744 92.572L171.346 78.24L174.053 77.9759L175.205 89.7799L179.305 89.3798L178.154 77.5758L180.861 77.3117L182.012 89.1157L186.113 88.7156L184.961 76.9117L187.668 76.6475L189.067 90.9795L172.744 92.572ZM198.46 90.3644C197.027 90.5043 195.759 90.3131 194.657 89.7911C193.561 89.2684 192.676 88.4738 192.003 87.4075C191.336 86.3406 190.93 85.0639 190.785 83.5777C190.64 82.0914 190.791 80.7604 191.239 79.5847C191.694 78.4083 192.408 77.4578 193.383 76.7331C194.363 76.0077 195.57 75.5751 197.004 75.4353C198.437 75.2955 199.701 75.4869 200.797 76.0097C201.9 76.5317 202.785 77.3262 203.451 78.3932C204.125 79.4595 204.534 80.7358 204.679 82.2221C204.824 83.7084 204.669 85.0397 204.215 86.2161C203.767 87.3918 203.052 88.3423 202.071 89.0677C201.097 89.7923 199.893 90.2246 198.46 90.3644ZM198.212 87.8165C199.122 87.7411 199.859 87.4716 200.424 87.0079C200.988 86.5443 201.383 85.9263 201.609 85.154C201.842 84.3811 201.91 83.497 201.813 82.5018C201.715 81.5065 201.479 80.6588 201.102 79.9587C200.732 79.258 200.226 78.7347 199.583 78.3888C198.939 78.043 198.163 77.9078 197.252 77.9832C196.342 78.0586 195.605 78.3282 195.04 78.7918C194.476 79.2555 194.077 79.8738 193.845 80.6467C193.619 81.419 193.554 82.3027 193.651 83.298C193.748 84.2933 193.982 85.1413 194.352 85.842C194.728 86.5421 195.238 87.0651 195.881 87.4109C196.525 87.7567 197.301 87.892 198.212 87.8165ZM57.9842 125.873L56.5859 111.541L62.3187 110.982C63.3405 110.882 64.1867 111.007 64.8572 111.357C65.527 111.7 66.038 112.166 66.3901 112.755C66.7423 113.343 66.9491 113.953 67.0106 114.583C67.0889 115.386 66.9715 116.071 66.6584 116.637C66.3519 117.203 65.8922 117.606 65.2793 117.847L65.2308 117.349C66.1446 117.447 66.8552 117.797 67.3626 118.397C67.8766 118.997 68.1724 119.694 68.2501 120.491C68.3336 121.347 68.2478 122.115 67.9928 122.797C67.7444 123.477 67.3165 124.035 66.7091 124.469C66.1011 124.897 65.3094 125.158 64.3341 125.253L57.9842 125.873ZM60.4826 123.057L63.8068 122.733C64.1717 122.697 64.4894 122.589 64.7598 122.409C65.0296 122.222 65.2305 121.981 65.3626 121.687C65.5006 121.385 65.5509 121.042 65.5133 120.657C65.4803 120.319 65.3812 120.024 65.216 119.772C65.0507 119.52 64.818 119.332 64.5178 119.207C64.2236 119.075 63.8675 119.029 63.4495 119.07L60.1253 119.394L60.4826 123.057ZM59.8786 116.866L62.8246 116.579C63.1298 116.549 63.3967 116.47 63.6252 116.34C63.8537 116.211 64.027 116.03 64.1449 115.797C64.2623 115.558 64.3038 115.262 64.2695 114.911C64.2267 114.473 64.0548 114.118 63.7536 113.846C63.4524 113.574 63.0431 113.463 62.5255 113.514L59.5795 113.801L59.8786 116.866ZM82.3828 123.492L79.6358 123.76L78.7036 114.206L73.4054 124.368L70.6584 124.636L69.2601 110.304L72.0071 110.036L72.9393 119.591L78.2375 109.429L80.9845 109.161L82.3828 123.492ZM85.1599 123.222L83.7616 108.89L95.5855 107.736L96.9837 122.068L94.2766 122.332L93.125 110.528L86.7154 111.153L87.867 122.957L85.1599 123.222ZM99.778 121.795L98.3797 107.463L104.431 106.873C104.57 106.859 104.757 106.848 104.99 106.839C105.23 106.822 105.444 106.821 105.633 106.836C106.502 106.885 107.229 107.099 107.816 107.477C108.408 107.855 108.866 108.359 109.189 108.991C109.511 109.616 109.712 110.33 109.79 111.133C109.868 111.936 109.807 112.678 109.605 113.361C109.41 114.037 109.058 114.617 108.549 115.102C108.047 115.586 107.378 115.936 106.542 116.152C106.359 116.197 106.148 116.237 105.911 116.274C105.673 116.31 105.488 116.335 105.355 116.348L102.011 116.674L102.485 121.531L99.778 121.795ZM101.765 114.146L104.989 113.832C105.129 113.818 105.281 113.797 105.445 113.767C105.61 113.738 105.76 113.696 105.895 113.643C106.25 113.508 106.516 113.314 106.693 113.063C106.868 112.804 106.979 112.529 107.024 112.237C107.075 111.937 107.088 111.658 107.063 111.399C107.038 111.14 106.971 110.872 106.864 110.594C106.762 110.31 106.601 110.061 106.379 109.848C106.157 109.628 105.858 109.487 105.484 109.423C105.34 109.397 105.185 109.385 105.018 109.388C104.851 109.391 104.698 109.399 104.558 109.413L101.333 109.727L101.765 114.146ZM110.543 120.745L113.524 105.986L117.565 105.592L123.343 119.496L120.556 119.768L115.421 107.509L115.939 107.458L113.33 120.473L110.543 120.745ZM112.879 117.503L112.633 114.975L120.197 114.237L120.444 116.765L112.879 117.503ZM125.126 119.322L123.728 104.99L129.461 104.431C130.483 104.331 131.329 104.456 131.999 104.806C132.669 105.149 133.18 105.615 133.532 106.204C133.884 106.793 134.091 107.402 134.153 108.032C134.231 108.835 134.114 109.52 133.801 110.086C133.494 110.652 133.034 111.055 132.421 111.296L132.373 110.798C133.287 110.897 133.997 111.246 134.505 111.846C135.019 112.446 135.315 113.144 135.392 113.94C135.476 114.796 135.39 115.565 135.135 116.246C134.887 116.927 134.459 117.484 133.851 117.918C133.243 118.346 132.452 118.608 131.476 118.703L125.126 119.322ZM127.625 116.506L130.949 116.182C131.314 116.146 131.632 116.038 131.902 115.858C132.172 115.671 132.373 115.43 132.505 115.136C132.643 114.834 132.693 114.491 132.655 114.106C132.622 113.768 132.523 113.473 132.358 113.221C132.193 112.969 131.96 112.781 131.66 112.656C131.366 112.524 131.01 112.479 130.592 112.519L127.267 112.844L127.625 116.506ZM127.021 110.316L129.967 110.028C130.272 109.999 130.539 109.919 130.767 109.789C130.996 109.66 131.169 109.479 131.287 109.246C131.404 109.007 131.446 108.712 131.412 108.36C131.369 107.922 131.197 107.567 130.896 107.295C130.595 107.023 130.185 106.912 129.668 106.963L126.722 107.25L127.021 110.316ZM137.237 120.552L136.758 115.635C137.189 115.593 137.544 115.452 137.821 115.21C138.105 114.961 138.324 114.632 138.479 114.222C138.632 113.805 138.739 113.325 138.8 112.784C138.861 112.242 138.888 111.656 138.88 111.027C138.869 110.225 138.852 109.436 138.83 108.661C138.808 107.88 138.782 107.072 138.755 106.237C138.726 105.396 138.698 104.488 138.67 103.512L148.186 102.604L149.338 114.408L150.433 114.301L150.912 119.218L148.205 119.482L147.972 117.093L139.712 117.899L139.945 120.288L137.237 120.552ZM140.799 115.241L146.631 114.672L145.726 105.396L141.385 105.8C141.402 106.461 141.421 107.069 141.442 107.623C141.469 108.176 141.49 108.737 141.505 109.304C141.521 109.872 141.529 110.508 141.531 111.211C141.532 111.914 141.522 112.495 141.5 112.952C141.477 113.403 141.412 113.801 141.305 114.147C141.204 114.492 141.036 114.856 140.799 115.241ZM159.046 116.314C157.613 116.454 156.345 116.263 155.242 115.741C154.146 115.218 153.261 114.424 152.588 113.357C151.921 112.29 151.515 111.014 151.37 109.528C151.225 108.041 151.377 106.71 151.825 105.535C152.279 104.358 152.994 103.408 153.968 102.683C154.949 101.958 156.156 101.525 157.589 101.385C159.022 101.245 160.287 101.437 161.383 101.96C162.485 102.482 163.37 103.276 164.037 104.343C164.71 105.409 165.119 106.686 165.264 108.172C165.409 109.658 165.255 110.99 164.8 112.166C164.352 113.342 163.638 114.292 162.657 115.018C161.683 115.742 160.479 116.175 159.046 116.314ZM158.797 113.766C159.707 113.691 160.445 113.421 161.009 112.958C161.573 112.494 161.969 111.876 162.195 111.104C162.427 110.331 162.495 109.447 162.398 108.452C162.301 107.456 162.064 106.609 161.688 105.909C161.318 105.208 160.811 104.685 160.168 104.339C159.525 103.993 158.748 103.858 157.838 103.933C156.927 104.009 156.19 104.278 155.626 104.742C155.061 105.205 154.663 105.824 154.43 106.597C154.204 107.369 154.14 108.253 154.237 109.248C154.334 110.243 154.567 111.091 154.937 111.792C155.314 112.492 155.823 113.015 156.467 113.361C157.11 113.707 157.887 113.842 158.797 113.766ZM167.95 115.144L166.552 100.812L172.285 100.253C173.307 100.153 174.153 100.278 174.823 100.628C175.493 100.971 176.004 101.437 176.356 102.026C176.708 102.614 176.915 103.224 176.977 103.854C177.055 104.657 176.938 105.342 176.625 105.908C176.318 106.474 175.858 106.877 175.246 107.118L175.197 106.62C176.111 106.719 176.821 107.068 177.329 107.668C177.843 108.268 178.139 108.966 178.216 109.762C178.3 110.618 178.214 111.386 177.959 112.068C177.711 112.748 177.283 113.306 176.675 113.74C176.067 114.168 175.276 114.429 174.3 114.525L167.95 115.144ZM170.449 112.328L173.773 112.004C174.138 111.968 174.456 111.86 174.726 111.68C174.996 111.493 175.197 111.252 175.329 110.958C175.467 110.656 175.517 110.313 175.48 109.928C175.447 109.59 175.347 109.295 175.182 109.043C175.017 108.791 174.784 108.603 174.484 108.478C174.19 108.346 173.834 108.301 173.416 108.341L170.091 108.666L170.449 112.328ZM169.845 106.138L172.791 105.85C173.096 105.82 173.363 105.741 173.591 105.611C173.82 105.482 173.993 105.301 174.111 105.068C174.228 104.829 174.27 104.534 174.236 104.182C174.193 103.744 174.021 103.389 173.72 103.117C173.419 102.845 173.009 102.734 172.492 102.785L169.546 103.072L169.845 106.138ZM181.734 113.799L183.332 109.584L177.429 99.751L180.495 99.4519L184.468 106.6L187.103 98.8071L189.99 98.5255L184.62 113.518L181.734 113.799ZM197.978 112.516C196.571 112.653 195.328 112.44 194.248 111.875C193.175 111.31 192.311 110.49 191.657 109.415C191.009 108.34 190.618 107.105 190.482 105.712C190.337 104.232 190.486 102.905 190.927 101.73C191.368 100.555 192.063 99.606 193.011 98.8839C193.964 98.1545 195.134 97.7222 196.521 97.5869C198.233 97.4198 199.691 97.7096 200.896 98.4561C202.101 99.2027 202.959 100.341 203.47 101.872L200.8 102.515C200.48 101.709 199.981 101.087 199.302 100.651C198.63 100.215 197.845 100.037 196.949 100.117C196.191 100.178 195.549 100.388 195.021 100.747C194.493 101.107 194.084 101.579 193.793 102.163C193.501 102.748 193.332 103.411 193.283 104.152L198.32 103.661L198.566 106.189L193.55 106.678C193.649 107.077 193.787 107.462 193.964 107.834C194.14 108.198 194.367 108.528 194.643 108.822C195.042 109.266 195.531 109.576 196.111 109.754C196.691 109.932 197.29 109.998 197.908 109.951C198.785 109.872 199.507 109.553 200.076 108.996C200.651 108.437 201.024 107.764 201.195 106.977L203.907 107.376C203.7 108.421 203.335 109.307 202.81 110.035C202.291 110.762 201.623 111.333 200.807 111.748C199.996 112.155 199.053 112.411 197.978 112.516ZM78.1548 146.009L76.7565 131.678L79.4637 131.413L80.8619 145.745L78.1548 146.009ZM83.8457 145.454L82.4475 131.122L85.1546 130.858L85.7295 136.75L92.139 136.125L91.5642 130.233L94.2713 129.969L95.6696 144.301L92.9625 144.565L92.3857 138.653L85.9761 139.278L86.5529 145.19L83.8457 145.454ZM98.4638 144.028L97.0656 129.696L102.798 129.137C103.82 129.037 104.666 129.162 105.337 129.512C106.007 129.855 106.518 130.321 106.87 130.91C107.222 131.498 107.429 132.108 107.49 132.738C107.569 133.541 107.451 134.226 107.138 134.792C106.831 135.358 106.372 135.761 105.759 136.002L105.71 135.504C106.624 135.602 107.335 135.952 107.842 136.552C108.356 137.152 108.652 137.85 108.73 138.646C108.813 139.502 108.727 140.27 108.472 140.952C108.224 141.632 107.796 142.19 107.189 142.624C106.581 143.052 105.789 143.313 104.814 143.409L98.4638 144.028ZM100.962 141.212L104.286 140.888C104.651 140.852 104.969 140.744 105.239 140.564C105.509 140.377 105.71 140.136 105.842 139.842C105.98 139.54 106.031 139.197 105.993 138.812C105.96 138.474 105.861 138.179 105.696 137.927C105.53 137.675 105.298 137.487 104.997 137.362C104.703 137.23 104.347 137.184 103.929 137.225L100.605 137.55L100.962 141.212ZM100.358 135.022L103.304 134.734C103.609 134.704 103.876 134.625 104.105 134.495C104.333 134.366 104.507 134.185 104.625 133.952C104.742 133.713 104.783 133.418 104.749 133.066C104.706 132.628 104.534 132.273 104.233 132.001C103.932 131.729 103.523 131.618 103.005 131.669L100.059 131.956L100.358 135.022ZM111.138 142.791L109.74 128.46L119.095 127.547L119.342 130.075L112.694 130.723L112.993 133.789L118.447 133.257L118.693 135.785L113.239 136.317L113.599 139.999L120.247 139.351L120.494 141.879L111.138 142.791ZM128.456 141.403C127.023 141.543 125.755 141.352 124.653 140.83C123.557 140.307 122.672 139.513 121.999 138.446C121.332 137.379 120.926 136.103 120.781 134.616C120.636 133.13 120.788 131.799 121.236 130.623C121.69 129.447 122.405 128.497 123.379 127.772C124.36 127.047 125.567 126.614 127 126.474C128.645 126.314 130.065 126.587 131.26 127.294C132.461 128.001 133.358 129.029 133.952 130.378L131.299 131.4C130.948 130.557 130.435 129.927 129.758 129.511C129.08 129.088 128.244 128.925 127.249 129.022C126.34 129.111 125.6 129.387 125.029 129.851C124.464 130.315 124.065 130.93 123.832 131.696C123.599 132.463 123.531 133.343 123.628 134.339C123.725 135.334 123.962 136.185 124.339 136.892C124.716 137.598 125.226 138.125 125.869 138.471C126.519 138.816 127.299 138.944 128.208 138.855C129.203 138.758 129.992 138.437 130.575 137.891C131.159 137.345 131.541 136.628 131.722 135.739L134.523 136.23C134.201 137.668 133.519 138.85 132.477 139.775C131.442 140.7 130.102 141.243 128.456 141.403ZM140.452 139.931L139.3 128.128L134.782 128.568L134.535 126.04L146.28 124.895L146.526 127.423L142.008 127.863L143.159 139.667L140.452 139.931ZM161.002 137.927L158.255 138.195L157.322 128.64L152.024 138.802L149.277 139.07L147.879 124.738L150.626 124.47L151.558 134.025L156.856 123.863L159.603 123.595L161.002 137.927ZM174.86 138.986L174.627 136.597L163.779 137.656L162.38 123.324L165.088 123.06L166.253 135.003L172.782 134.366L171.655 122.821L174.363 122.557L175.489 134.102L177.101 133.944L177.567 138.722L174.86 138.986ZM179.121 136.159L177.722 121.827L180.43 121.563L181.828 135.895L179.121 136.159ZM185.734 119.518L185.501 117.129L187.89 116.896L188.123 119.285L185.734 119.518ZM181.514 119.93L181.281 117.541L183.67 117.308L183.903 119.697L181.514 119.93ZM185.011 135.584L183.612 121.252L186.32 120.988L187.718 135.32L185.011 135.584Z" fill="#0A0A0A"/>
<path d="M85.6084 174.42L84.4897 162.954L88.9167 162.522C89.0282 162.511 89.1534 162.504 89.2925 162.502C89.4363 162.493 89.5812 162.495 89.7271 162.507C90.3357 162.539 90.8631 162.699 91.3092 162.988C91.7602 163.271 92.1159 163.649 92.3764 164.122C92.6422 164.594 92.8043 165.13 92.8629 165.73C92.9209 166.325 92.8651 166.879 92.6957 167.394C92.5262 167.909 92.2478 168.352 91.8606 168.722C91.4782 169.086 90.9941 169.342 90.4084 169.49C90.2671 169.525 90.1254 169.555 89.9831 169.58C89.8461 169.604 89.7219 169.621 89.6104 169.632L86.3539 169.95L86.7788 174.305L85.6084 174.42ZM86.2451 168.835L89.4698 168.521C89.5654 168.511 89.6763 168.495 89.8027 168.472C89.929 168.449 90.052 168.418 90.1714 168.38C90.556 168.257 90.8613 168.063 91.0875 167.8C91.319 167.537 91.4797 167.234 91.5697 166.893C91.665 166.552 91.6953 166.203 91.6606 165.847C91.6259 165.492 91.5288 165.156 91.3693 164.839C91.2145 164.516 90.9981 164.248 90.72 164.034C90.4473 163.82 90.1103 163.689 89.7092 163.642C89.5846 163.628 89.4583 163.624 89.3304 163.631C89.2019 163.633 89.0899 163.639 88.9944 163.648L85.7697 163.963L86.2451 168.835ZM95.0597 173.497L93.9411 162.032L95.1115 161.918L96.2302 173.383L95.0597 173.497ZM98.2987 173.181L97.1801 161.716L98.3505 161.602L99.3596 171.945L103.707 171.52L102.698 161.178L103.868 161.063L104.877 171.406L109.233 170.981L108.224 160.638L109.386 160.525L110.505 171.991L98.2987 173.181ZM112.412 171.805L111.293 160.339L118.459 159.64L118.569 160.763L112.573 161.347L112.96 165.313L118 164.821L118.11 165.944L113.069 166.435L113.473 170.568L119.468 169.983L119.578 171.105L112.412 171.805ZM121.175 170.95L120.056 159.484L121.227 159.37L121.731 164.537L128.069 163.919L127.565 158.751L128.727 158.638L129.846 170.104L128.683 170.217L128.179 165.042L121.841 165.66L122.346 170.835L121.175 170.95ZM131.758 169.917L130.639 158.451L131.81 158.337L132.314 163.505L138.652 162.886L138.148 157.719L139.31 157.606L140.429 169.071L139.266 169.185L138.761 164.009L132.424 164.627L132.928 169.803L131.758 169.917ZM150.152 168.122L148.989 168.236L148.564 163.881L144.75 164.253L144.335 164.197C143.47 164.115 142.778 163.778 142.259 163.186C141.74 162.593 141.439 161.864 141.355 160.999C141.296 160.399 141.351 159.842 141.521 159.327C141.69 158.812 141.966 158.373 142.349 158.008C142.736 157.638 143.223 157.379 143.808 157.231C143.954 157.19 144.096 157.16 144.234 157.141C144.37 157.117 144.495 157.1 144.606 157.089L149.033 156.657L150.152 168.122ZM143.209 168.8L141.863 168.931L143.85 163.593L145.015 163.913L143.209 168.8ZM148.456 162.766L147.98 157.893L144.748 158.208C144.657 158.217 144.546 158.233 144.415 158.257C144.288 158.275 144.165 158.303 144.045 158.341C143.661 158.464 143.353 158.658 143.121 158.922C142.895 159.185 142.737 159.49 142.648 159.836C142.558 160.177 142.53 160.525 142.565 160.881C142.599 161.237 142.694 161.573 142.848 161.89C143.002 162.207 143.216 162.473 143.489 162.688C143.767 162.902 144.106 163.032 144.507 163.079C144.632 163.093 144.759 163.1 144.887 163.098C145.021 163.096 145.133 163.09 145.223 163.081L148.456 162.766ZM154.591 169.618L154.295 166.585C154.741 166.541 155.088 166.395 155.337 166.146C155.586 165.891 155.763 165.568 155.87 165.177C155.976 164.786 156.044 164.354 156.073 163.879C156.101 163.4 156.118 162.916 156.124 162.428C156.129 161.714 156.121 161.027 156.099 160.364C156.083 159.701 156.056 159.015 156.019 158.306C155.987 157.597 155.955 156.82 155.921 155.977L162.992 155.295L164.001 165.638L164.821 165.558L165.117 168.592L163.954 168.705L163.768 166.794L155.575 167.593L155.761 169.504L154.591 169.618ZM156.532 166.367L162.83 165.752L161.931 156.532L157.121 156.993C157.152 157.644 157.182 158.273 157.209 158.882C157.236 159.49 157.258 160.104 157.276 160.724C157.294 161.344 157.3 161.991 157.297 162.667C157.298 163.283 157.281 163.823 157.246 164.288C157.211 164.752 157.137 165.153 157.026 165.491C156.919 165.828 156.755 166.12 156.532 166.367ZM165.564 166.619L165.463 165.576C165.757 165.574 165.998 165.54 166.184 165.473C166.37 165.401 166.513 165.27 166.612 165.078C166.716 164.885 166.796 164.607 166.852 164.243C166.907 163.873 166.951 163.394 166.985 162.807C167.025 162.171 167.049 161.539 167.057 160.911C167.071 160.283 167.073 159.647 167.064 159.005C167.06 158.357 167.043 157.694 167.015 157.017C166.986 156.339 166.953 155.637 166.914 154.912L174.152 154.206L175.27 165.672L174.1 165.786L173.091 155.443L168.154 155.925C168.17 156.475 168.188 157.039 168.207 157.616C168.231 158.192 168.245 158.783 168.251 159.388C168.262 159.992 168.261 160.617 168.249 161.261C168.241 161.899 168.218 162.561 168.177 163.245C168.142 163.763 168.087 164.245 168.013 164.692C167.944 165.138 167.82 165.52 167.642 165.837C167.47 166.154 167.216 166.385 166.882 166.53C166.553 166.675 166.114 166.704 165.564 166.619ZM184.988 164.724L183.825 164.837L183.4 160.482L179.586 160.854L179.171 160.798C178.306 160.716 177.614 160.379 177.095 159.787C176.576 159.194 176.275 158.466 176.19 157.6C176.132 157 176.187 156.443 176.357 155.928C176.526 155.413 176.802 154.974 177.185 154.61C177.572 154.24 178.058 153.98 178.644 153.832C178.79 153.791 178.932 153.761 179.069 153.743C179.206 153.718 179.331 153.701 179.442 153.69L183.869 153.258L184.988 164.724ZM178.045 165.401L176.699 165.532L178.686 160.194L179.851 160.515L178.045 165.401ZM183.291 159.367L182.816 154.494L179.583 154.81C179.493 154.818 179.382 154.835 179.251 154.858C179.124 154.876 179.001 154.904 178.881 154.942C178.496 155.066 178.188 155.259 177.957 155.523C177.731 155.786 177.573 156.091 177.484 156.437C177.394 156.778 177.366 157.127 177.401 157.482C177.435 157.838 177.53 158.174 177.684 158.491C177.838 158.809 178.052 159.075 178.324 159.289C178.603 159.503 178.942 159.633 179.343 159.68C179.468 159.695 179.594 159.701 179.723 159.699C179.857 159.697 179.969 159.691 180.059 159.683L183.291 159.367ZM73.811 191.647L72.6924 180.181L77.1194 179.749C77.7617 179.686 78.3346 179.765 78.8382 179.983C79.3419 180.202 79.7484 180.524 80.0578 180.949C80.3667 181.369 80.5476 181.85 80.6004 182.392C80.6605 183.007 80.5495 183.573 80.2676 184.088C79.9851 184.598 79.5769 184.972 79.0429 185.212L78.989 184.824C79.7528 184.963 80.373 185.278 80.8494 185.767C81.3258 186.257 81.6008 186.878 81.6744 187.632C81.7391 188.296 81.6544 188.883 81.4202 189.393C81.1854 189.898 80.826 190.306 80.3418 190.616C79.8576 190.925 79.2784 191.113 78.6043 191.179L73.811 191.647ZM74.8799 190.409L78.2081 190.084C78.6752 190.039 79.0865 189.915 79.442 189.715C79.797 189.509 80.0657 189.241 80.248 188.913C80.4356 188.584 80.5081 188.201 80.4657 187.766C80.4242 187.341 80.2887 186.969 80.0592 186.648C79.8296 186.328 79.5352 186.083 79.1758 185.915C78.8212 185.74 78.4289 185.674 77.9989 185.716L74.4557 186.062L74.8799 190.409ZM74.3478 184.955L77.5884 184.639C77.9546 184.603 78.281 184.488 78.5675 184.294C78.8535 184.095 79.0699 183.84 79.2165 183.531C79.3685 183.222 79.4259 182.876 79.3886 182.494C79.3358 181.952 79.1044 181.53 78.6943 181.227C78.2896 180.924 77.798 180.8 77.2194 180.857L73.9788 181.173L74.3478 184.955ZM82.4624 190.803L85.2931 178.952L86.8457 178.8L91.9136 189.88L90.6954 189.999L85.8902 179.552L86.352 179.507L83.6807 190.684L82.4624 190.803ZM83.951 187.852L83.8438 186.753L89.7677 186.175L89.8749 187.274L83.951 187.852ZM93.0329 189.771L91.9143 178.306L93.0847 178.191L94.0938 188.534L98.4412 188.11L97.4321 177.767L98.6025 177.653L99.6116 187.996L103.967 187.571L102.958 177.228L104.12 177.115L105.239 188.58L93.0329 189.771ZM111.811 188.18C110.67 188.292 109.682 188.133 108.847 187.706C108.012 187.273 107.349 186.628 106.858 185.77C106.367 184.912 106.064 183.897 105.95 182.724C105.835 181.551 105.936 180.496 106.252 179.559C106.568 178.623 107.094 177.864 107.83 177.283C108.566 176.697 109.505 176.348 110.646 176.237C111.792 176.125 112.781 176.286 113.611 176.719C114.446 177.147 115.108 177.79 115.599 178.647C116.096 179.505 116.401 180.52 116.515 181.693C116.63 182.866 116.527 183.921 116.205 184.858C115.889 185.794 115.364 186.556 114.628 187.142C113.897 187.722 112.958 188.068 111.811 188.18ZM111.702 187.058C112.599 186.97 113.327 186.693 113.887 186.225C114.447 185.758 114.84 185.146 115.067 184.39C115.298 183.628 115.367 182.769 115.273 181.814C115.18 180.859 114.947 180.032 114.573 179.334C114.205 178.636 113.701 178.112 113.061 177.762C112.422 177.411 111.653 177.277 110.755 177.36C109.858 177.447 109.133 177.724 108.578 178.191C108.023 178.658 107.63 179.272 107.399 180.034C107.173 180.79 107.104 181.646 107.192 182.602C107.28 183.558 107.508 184.386 107.876 185.084C108.249 185.776 108.755 186.3 109.396 186.656C110.035 187.006 110.804 187.14 111.702 187.058ZM118.351 187.301L117.232 175.836L124.398 175.136L124.508 176.259L118.512 176.844L119.521 187.187L118.351 187.301ZM131.142 186.294C130.001 186.406 129.013 186.247 128.178 185.82C127.342 185.387 126.679 184.742 126.188 183.884C125.697 183.026 125.395 182.011 125.28 180.838C125.166 179.665 125.267 178.61 125.582 177.673C125.898 176.737 126.425 175.978 127.161 175.397C127.897 174.811 128.835 174.462 129.977 174.351C131.123 174.239 132.111 174.4 132.941 174.833C133.776 175.261 134.439 175.904 134.93 176.761C135.426 177.619 135.732 178.634 135.846 179.807C135.961 180.98 135.857 182.035 135.536 182.972C135.22 183.908 134.694 184.67 133.958 185.256C133.227 185.836 132.288 186.182 131.142 186.294ZM131.032 185.172C131.929 185.084 132.658 184.807 133.218 184.339C133.778 183.872 134.171 183.26 134.397 182.504C134.628 181.742 134.697 180.883 134.604 179.928C134.511 178.973 134.277 178.146 133.904 177.448C133.536 176.75 133.032 176.226 132.392 175.876C131.752 175.525 130.984 175.391 130.086 175.474C129.189 175.561 128.463 175.838 127.909 176.305C127.354 176.772 126.961 177.386 126.73 178.148C126.504 178.904 126.435 179.761 126.522 180.716C126.61 181.672 126.838 182.5 127.207 183.198C127.58 183.89 128.086 184.414 128.726 184.77C129.366 185.12 130.135 185.254 131.032 185.172ZM140.551 185.135L139.432 173.67L146.511 172.979L146.62 174.102L140.712 174.678L141.038 178.014L144.294 177.696C144.406 177.686 144.531 177.679 144.67 177.676C144.814 177.667 144.959 177.667 145.104 177.674C145.701 177.696 146.222 177.849 146.668 178.132C147.119 178.415 147.477 178.793 147.743 179.265C148.014 179.737 148.178 180.265 148.235 180.849C148.292 181.433 148.233 181.982 148.058 182.498C147.889 183.013 147.61 183.452 147.223 183.817C146.84 184.181 146.358 184.432 145.777 184.569C145.635 184.599 145.493 184.626 145.351 184.651C145.214 184.675 145.089 184.692 144.978 184.703L140.551 185.135ZM141.612 183.898L144.837 183.584C144.932 183.574 145.043 183.558 145.169 183.535C145.296 183.512 145.419 183.484 145.539 183.451C146.117 183.277 146.522 182.953 146.755 182.48C146.992 182.002 147.085 181.497 147.033 180.966C146.981 180.43 146.792 179.953 146.467 179.534C146.148 179.115 145.688 178.876 145.087 178.817C144.962 178.802 144.836 178.798 144.708 178.806C144.58 178.807 144.468 178.813 144.372 178.822L141.147 179.137L141.612 183.898ZM150.002 184.213L148.884 172.747L150.054 172.633L151.173 184.099L150.002 184.213ZM156.935 183.778C156.155 183.854 155.467 183.806 154.872 183.633C154.281 183.461 153.785 183.206 153.382 182.87C152.979 182.529 152.666 182.15 152.443 181.732L153.45 181.007C153.612 181.356 153.846 181.665 154.151 181.935C154.456 182.206 154.835 182.407 155.287 182.54C155.74 182.673 156.266 182.71 156.866 182.651C157.487 182.591 158.003 182.441 158.413 182.203C158.829 181.964 159.132 181.656 159.32 181.278C159.508 180.901 159.579 180.476 159.533 180.004C159.482 179.483 159.318 179.092 159.041 178.83C158.763 178.568 158.409 178.399 157.979 178.323C157.547 178.242 157.073 178.218 156.557 178.252C156.168 178.274 155.891 178.291 155.726 178.301C155.561 178.312 155.452 178.32 155.399 178.325C155.345 178.33 155.295 178.335 155.247 178.34L155.137 177.209C155.174 177.206 155.272 177.196 155.432 177.181C155.591 177.165 155.761 177.148 155.941 177.131C156.121 177.108 156.264 177.089 156.37 177.073C157.125 176.962 157.703 176.704 158.103 176.301C158.503 175.898 158.673 175.388 158.613 174.772C158.549 174.119 158.269 173.635 157.772 173.319C157.28 173.003 156.67 172.88 155.943 172.951C155.259 173.018 154.696 173.239 154.256 173.614C153.82 173.983 153.48 174.456 153.237 175.032L152.212 174.416C152.51 173.733 152.967 173.153 153.585 172.675C154.203 172.196 154.963 171.913 155.866 171.825C156.349 171.778 156.817 171.799 157.27 171.889C157.729 171.978 158.141 172.136 158.506 172.363C158.877 172.59 159.18 172.892 159.415 173.271C159.655 173.644 159.801 174.096 159.853 174.627C159.913 175.248 159.828 175.803 159.597 176.292C159.371 176.78 159.055 177.162 158.648 177.438C159.249 177.556 159.735 177.819 160.107 178.228C160.485 178.635 160.708 179.195 160.778 179.906C160.846 180.607 160.733 181.234 160.439 181.788C160.144 182.342 159.695 182.793 159.092 183.141C158.493 183.484 157.774 183.696 156.935 183.778ZM162.425 183.001L161.306 171.535L162.477 171.421L162.981 176.589L169.319 175.97L168.814 170.803L169.977 170.69L171.096 182.155L169.933 182.269L169.428 177.093L163.09 177.711L163.595 182.887L162.425 183.001ZM173.008 181.969L171.889 170.503L179.055 169.804L179.164 170.927L173.169 171.511L173.556 175.477L178.596 174.985L178.705 176.108L173.665 176.599L174.068 180.732L180.064 180.147L180.174 181.269L173.008 181.969ZM185.954 180.947C184.813 181.058 183.825 180.9 182.99 180.472C182.155 180.039 181.492 179.394 181.001 178.536C180.51 177.678 180.207 176.663 180.093 175.49C179.978 174.317 180.079 173.262 180.395 172.326C180.711 171.389 181.237 170.631 181.973 170.05C182.709 169.463 183.648 169.115 184.789 169.003C186.121 168.873 187.243 169.109 188.154 169.712C189.064 170.309 189.732 171.166 190.157 172.282L188.993 172.709C188.66 171.825 188.152 171.148 187.468 170.679C186.785 170.21 185.928 170.025 184.898 170.126C184.001 170.213 183.276 170.491 182.721 170.957C182.166 171.424 181.773 172.038 181.542 172.8C181.316 173.557 181.244 174.413 181.327 175.37C181.415 176.326 181.643 177.153 182.011 177.851C182.384 178.549 182.891 179.075 183.531 179.431C184.176 179.78 184.948 179.911 185.845 179.824C186.874 179.723 187.679 179.377 188.259 178.785C188.838 178.187 189.206 177.425 189.362 176.499L190.587 176.693C190.386 177.87 189.896 178.842 189.119 179.609C188.342 180.371 187.286 180.817 185.954 180.947ZM193.822 179.938L194.847 177.097L189.917 168.744L191.215 168.617L195.337 175.779L198.062 167.949L199.312 167.827L195.096 179.813L193.822 179.938Z" fill="#707070"/>
<path d="M53.8653 197.898L44.9078 198.771L44.0343 189.814L52.9918 188.94L53.8653 197.898Z" fill="#0A0A0A"/>
<path d="M54.7407 206.855L45.7832 207.728L44.9096 198.771L53.8672 197.897L54.7407 206.855Z" fill="#FF3800"/>
<path d="M63.6977 205.979L54.7402 206.853L53.8667 197.896L62.8242 197.022L63.6977 205.979Z" fill="#0A0A0A"/>
<path d="M48.8772 162.213L39.9197 163.086L40.7932 172.044L49.7507 171.17L48.8772 162.213Z" fill="#0A0A0A"/>
<path d="M48.0038 153.256L39.0463 154.129L39.9198 163.087L48.8773 162.213L48.0038 153.256Z" fill="#FF3800"/>
<path d="M56.9608 152.38L48.0033 153.254L48.8769 162.211L57.8344 161.338L56.9608 152.38Z" fill="#0A0A0A"/>
<path d="M221.071 181.593L230.028 180.72L229.155 171.762L220.197 172.636L221.071 181.593Z" fill="#0A0A0A"/>
<path d="M221.946 190.55L230.903 189.677L230.03 180.719L221.072 181.593L221.946 190.55Z" fill="#FF3800"/>
<path d="M212.989 191.426L221.946 190.552L221.073 181.595L212.115 182.468L212.989 191.426Z" fill="#0A0A0A"/>
<path d="M219.073 145.615L228.03 144.741L228.904 153.699L219.946 154.573L219.073 145.615Z" fill="#0A0A0A"/>
<path d="M218.199 136.658L227.157 135.784L228.03 144.742L219.073 145.615L218.199 136.658Z" fill="#FF3800"/>
<path d="M209.242 137.531L218.2 136.658L219.073 145.615L210.116 146.489L209.242 137.531Z" fill="#0A0A0A"/>
</g>
<defs>
<clipPath id="clip0_1490_1717">
<rect width="240" height="240" fill="white" transform="translate(0.919189 24) rotate(-5.57)"/>
</clipPath>
</defs>
</svg>
