<svg width="272" height="272" viewBox="0 0 272 272" fill="none" xmlns="http://www.w3.org/2000/svg">
<g clip-path="url(#clip0_1490_1719)">
<path d="M56.9959 52.9843L30.5852 56.696L34.297 83.1068L60.7077 79.395L56.9959 52.9843Z" fill="#F8F8FF"/>
<path d="M83.4019 49.2763L56.9912 52.988L60.703 79.3988L87.1137 75.687L83.4019 49.2763Z" fill="#FF3800"/>
<path d="M136.224 41.8523L109.813 45.5641L113.525 71.9748L139.936 68.263L136.224 41.8523Z" fill="#F8F8FF"/>
<path d="M189.03 34.4302L162.62 38.142L166.332 64.5527L192.742 60.8409L189.03 34.4302Z" fill="#FF3800"/>
<path d="M215.442 30.7183L189.032 34.4301L192.744 60.8408L219.154 57.129L215.442 30.7183Z" fill="#F8F8FF"/>
<path d="M79.69 22.8662L53.2793 26.578L56.9911 52.9887L83.4018 49.2769L79.69 22.8662Z" fill="#F8F8FF"/>
<path d="M106.1 19.1542L79.6893 22.866L83.4011 49.2767L109.812 45.5649L106.1 19.1542Z" fill="#F8F8FF"/>
<path d="M158.908 11.7322L132.498 15.444L136.209 41.8547L162.62 38.1429L158.908 11.7322Z" fill="#F8F8FF"/>
<path d="M185.321 8.02015L158.91 11.7319L162.622 38.1427L189.032 34.4309L185.321 8.02015Z" fill="#F8F8FF"/>
<path d="M34.2998 83.0985L7.88904 86.8103L11.6008 113.221L38.0115 109.509L34.2998 83.0985Z" fill="#F8F8FF"/>
<path d="M60.7078 79.3886L34.2971 83.1003L38.0089 109.511L64.4196 105.799L60.7078 79.3886Z" fill="#FF3800"/>
<path d="M219.154 57.1205L192.744 60.8323L196.456 87.243L222.866 83.5312L219.154 57.1205Z" fill="#FF3800"/>
<path d="M38.0098 109.507L11.5991 113.218L15.3109 139.629L41.7216 135.917L38.0098 109.507Z" fill="#F8F8FF"/>
<path d="M143.644 94.6646L117.233 98.3763L120.945 124.787L147.356 121.075L143.644 94.6646Z" fill="#FF3800"/>
<path d="M68.1318 132.209L41.7211 135.921L45.4329 162.331L71.8436 158.619L68.1318 132.209Z" fill="#F8F8FF"/>
<path d="M120.942 124.787L94.5315 128.498L98.2433 154.909L124.654 151.197L120.942 124.787Z" fill="#FF3800"/>
<path d="M147.354 121.075L120.943 124.786L124.655 151.197L151.066 147.485L147.354 121.075Z" fill="#F8F8FF"/>
<path d="M173.754 117.363L147.344 121.074L151.055 147.485L177.466 143.773L173.754 117.363Z" fill="#FF3800"/>
<path d="M226.578 109.939L200.168 113.65L203.88 140.061L230.29 136.349L226.578 109.939Z" fill="#F8F8FF"/>
<path d="M45.4338 162.321L19.0231 166.033L22.7349 192.443L49.1456 188.732L45.4338 162.321Z" fill="#F8F8FF"/>
<path d="M151.068 147.473L124.657 151.185L128.369 177.595L154.78 173.884L151.068 147.473Z" fill="#FF3800"/>
<path d="M49.2191 188.182L22.4818 191.939L26.3439 219.419L53.0811 215.662L49.2191 188.182Z" fill="#F8F8FF"/>
<path d="M75.5578 185.019L49.1471 188.731L52.8589 215.141L79.2696 211.43L75.5578 185.019Z" fill="#FF3800"/>
<path d="M233.997 162.751L207.586 166.463L211.298 192.873L237.708 189.162L233.997 162.751Z" fill="#FF3800"/>
<path d="M79.2679 211.431L52.8572 215.143L56.569 241.553L82.9797 237.842L79.2679 211.431Z" fill="#F8F8FF"/>
<path d="M105.666 207.721L79.2554 211.433L82.9672 237.843L109.378 234.132L105.666 207.721Z" fill="#FF3800"/>
<path d="M158.49 200.295L132.079 204.007L135.791 230.417L162.202 226.706L158.49 200.295Z" fill="#F8F8FF"/>
<path d="M211.302 192.877L184.892 196.589L188.604 222.999L215.014 219.288L211.302 192.877Z" fill="#FF3800"/>
<path d="M237.711 189.163L211.3 192.875L215.012 219.285L241.422 215.574L237.711 189.163Z" fill="#F8F8FF"/>
<path d="M109.378 234.117L82.9674 237.829L86.6792 264.24L113.09 260.528L109.378 234.117Z" fill="#F8F8FF"/>
<path d="M135.786 230.407L109.375 234.119L113.087 260.53L139.498 256.818L135.786 230.407Z" fill="#F8F8FF"/>
<path d="M188.6 222.987L162.19 226.699L165.901 253.11L192.312 249.398L188.6 222.987Z" fill="#F8F8FF"/>
<path d="M215.011 219.273L188.6 222.985L192.312 249.396L218.722 245.684L215.011 219.273Z" fill="#F8F8FF"/>
<path d="M245.555 53.4104L219.144 57.1222L222.856 83.5329L249.267 79.8211L245.555 53.4104Z" fill="#F8F8FF"/>
<path d="M249.265 79.8185L222.854 83.5303L226.566 109.941L252.977 106.229L249.265 79.8185Z" fill="#F8F8FF"/>
<path d="M256.689 132.629L230.278 136.341L233.99 162.751L260.401 159.04L256.689 132.629Z" fill="#F8F8FF"/>
<path d="M260.401 159.041L233.99 162.753L237.702 189.163L264.112 185.452L260.401 159.041Z" fill="#F8F8FF"/>
<rect x="33.1974" y="82.7509" width="189.189" height="134.054" transform="rotate(-8 33.1974 82.7509)" fill="#F8F8FF"/>
<rect x="56.3831" y="51.2485" width="134.054" height="191.351" transform="rotate(-8 56.3831 51.2485)" fill="#F8F8FF"/>
<path d="M61.1986 125.444L59.1939 111.184L70.9582 109.53L72.9629 123.79L70.2694 124.169L68.6183 112.424L62.241 113.321L63.8921 125.065L61.1986 125.444ZM74.7528 123.538L77.1053 108.666L81.1258 108.101L87.4876 121.748L84.7149 122.138L79.065 110.107L79.5799 110.035L77.5256 123.149L74.7528 123.538ZM76.9495 120.2L76.5959 117.685L84.1219 116.627L84.4755 119.142L76.9495 120.2ZM89.2625 121.499L87.2578 107.239L93.2786 106.392C93.4172 106.373 93.603 106.354 93.8359 106.334C94.0745 106.307 94.2886 106.298 94.478 106.305C95.3482 106.317 96.0842 106.5 96.6858 106.853C97.2941 107.205 97.7729 107.689 98.1223 108.307C98.4707 108.918 98.701 109.622 98.8133 110.421C98.9256 111.22 98.8957 111.965 98.7235 112.655C98.557 113.339 98.2299 113.933 97.7423 114.439C97.2613 114.945 96.6076 115.323 95.7811 115.573C95.6 115.626 95.3915 115.675 95.1557 115.722C94.9199 115.769 94.736 115.801 94.6039 115.82L91.2766 116.287L91.956 121.12L89.2625 121.499ZM90.923 113.772L94.1315 113.321C94.2701 113.302 94.421 113.274 94.5842 113.237C94.7474 113.201 94.8955 113.153 95.0286 113.094C95.3778 112.944 95.6351 112.739 95.8007 112.481C95.9654 112.215 96.064 111.935 96.0967 111.641C96.1351 111.34 96.1362 111.06 96.1 110.803C96.0638 110.545 95.9862 110.28 95.867 110.007C95.7536 109.727 95.5816 109.485 95.3511 109.282C95.1196 109.072 94.8154 108.943 94.4383 108.895C94.2941 108.875 94.1386 108.87 93.9717 108.88C93.8048 108.89 93.652 108.905 93.5134 108.924L90.3049 109.375L90.923 113.772ZM105.451 119.223L103.8 107.478L99.3042 108.11L98.9506 105.595L110.636 103.952L110.989 106.468L106.494 107.1L108.145 118.844L105.451 119.223ZM114.232 117.988L112.227 103.729L114.921 103.35L115.745 109.212L122.122 108.316L121.298 102.453L123.991 102.075L125.996 116.334L123.303 116.713L122.476 110.831L116.098 111.728L116.925 117.61L114.232 117.988ZM128.776 115.944L126.772 101.684L136.08 100.375L136.434 102.891L129.819 103.82L130.247 106.87L135.674 106.108L136.028 108.623L130.601 109.386L131.116 113.05L137.731 112.12L138.085 114.635L128.776 115.944ZM140.458 114.301L138.454 100.042L144.474 99.1951C144.613 99.1756 144.799 99.1563 145.032 99.137C145.27 99.1102 145.484 99.1003 145.674 99.1073C146.544 99.1196 147.28 99.3023 147.882 99.6553C148.49 100.007 148.969 100.492 149.318 101.109C149.666 101.72 149.897 102.425 150.009 103.224C150.121 104.023 150.092 104.767 149.919 105.458C149.753 106.141 149.426 106.736 148.938 107.242C148.457 107.747 147.803 108.125 146.977 108.376C146.796 108.429 146.587 108.478 146.351 108.525C146.116 108.571 145.932 108.604 145.8 108.622L142.472 109.09L143.152 113.923L140.458 114.301ZM142.119 106.575L145.327 106.124C145.466 106.104 145.617 106.076 145.78 106.04C145.943 106.004 146.091 105.956 146.224 105.897C146.574 105.747 146.831 105.542 146.997 105.283C147.161 105.018 147.26 104.738 147.293 104.444C147.331 104.142 147.332 103.863 147.296 103.605C147.26 103.348 147.182 103.083 147.063 102.81C146.949 102.53 146.777 102.288 146.547 102.085C146.315 101.875 146.011 101.746 145.634 101.698C145.49 101.678 145.334 101.673 145.167 101.683C145.001 101.693 144.848 101.708 144.709 101.727L141.501 102.178L142.119 106.575ZM159.501 111.927C158.075 112.128 156.8 111.99 155.676 111.516C154.559 111.04 153.642 110.284 152.924 109.247C152.212 108.209 151.753 106.951 151.545 105.472C151.337 103.993 151.432 102.657 151.83 101.463C152.234 100.269 152.907 99.2887 153.85 98.5234C154.799 97.7571 155.987 97.2737 157.413 97.0733C159.05 96.8431 160.48 97.0561 161.704 97.7121C162.933 98.3673 163.874 99.3561 164.524 100.678L161.916 101.812C161.531 100.985 160.991 100.377 160.297 99.9901C159.602 99.5964 158.759 99.4691 157.769 99.6083C156.865 99.7355 156.137 100.043 155.586 100.531C155.042 101.018 154.67 101.65 154.469 102.425C154.269 103.201 154.238 104.084 154.377 105.074C154.516 106.064 154.789 106.904 155.196 107.594C155.603 108.284 156.135 108.789 156.792 109.107C157.456 109.424 158.24 109.519 159.145 109.392C160.135 109.253 160.91 108.898 161.469 108.328C162.029 107.758 162.38 107.025 162.523 106.13L165.343 106.501C165.082 107.952 164.451 109.161 163.449 110.13C162.454 111.098 161.138 111.697 159.501 111.927ZM168.096 110.416L166.092 96.1561L168.785 95.7775L169.464 100.61L172.792 100.142C172.924 100.124 173.109 100.104 173.349 100.084C173.588 100.057 173.802 100.047 173.991 100.054C174.855 100.068 175.587 100.251 176.189 100.604C176.797 100.956 177.276 101.441 177.625 102.058C177.98 102.668 178.214 103.372 178.326 104.171C178.439 104.97 178.412 105.714 178.246 106.404C178.08 107.087 177.753 107.682 177.265 108.188C176.784 108.693 176.127 109.071 175.294 109.323C175.113 109.376 174.905 109.425 174.669 109.472C174.44 109.517 174.256 109.55 174.117 109.569L168.096 110.416ZM170.436 107.522L173.645 107.071C173.783 107.051 173.934 107.023 174.097 106.987C174.26 106.951 174.409 106.903 174.542 106.844C174.891 106.694 175.148 106.489 175.314 106.23C175.478 105.965 175.577 105.685 175.61 105.391C175.648 105.089 175.649 104.81 175.613 104.552C175.577 104.295 175.499 104.03 175.38 103.757C175.267 103.477 175.095 103.235 174.864 103.032C174.633 102.822 174.328 102.693 173.951 102.645C173.807 102.625 173.652 102.62 173.485 102.63C173.318 102.64 173.165 102.655 173.026 102.674L169.818 103.125L170.436 107.522ZM181.171 108.578L179.167 94.318L181.86 93.9393L182.784 100.515L187.287 93.1764L190.574 92.7142L185.601 100.583L192.955 106.921L189.549 107.4L182.951 101.703L183.865 108.199L181.171 108.578ZM193.352 106.865L195.705 91.993L199.725 91.4278L206.087 105.075L203.314 105.465L197.664 93.4342L198.179 93.3618L196.125 106.476L193.352 106.865ZM195.549 103.527L195.195 101.012L202.721 99.9537L203.075 102.469L195.549 103.527ZM85.8087 144.503C84.3827 144.704 83.1079 144.567 81.9842 144.092C80.8671 143.616 79.9495 142.86 79.2315 141.823C78.5201 140.785 78.0605 139.527 77.8526 138.048C77.6447 136.569 77.7396 135.233 78.1373 134.04C78.5416 132.845 79.2151 131.865 80.1577 131.1C81.1069 130.333 82.2945 129.85 83.7205 129.65C85.3577 129.419 86.788 129.632 88.0112 130.288C89.2411 130.944 90.1812 131.932 90.8316 133.255L88.2241 134.389C87.8385 133.561 87.2987 132.954 86.6047 132.566C85.9097 132.173 85.0672 132.045 84.0769 132.185C83.1725 132.312 82.4449 132.619 81.8941 133.107C81.35 133.595 80.9776 134.226 80.7769 135.001C80.5762 135.777 80.5455 136.66 80.6847 137.65C80.8239 138.64 81.0969 139.48 81.5036 140.171C81.9103 140.861 82.4423 141.365 83.0997 141.683C83.7637 142 84.5479 142.096 85.4523 141.968C86.4426 141.829 87.2174 141.475 87.7769 140.904C88.3363 140.334 88.6877 139.602 88.8311 138.706L91.6502 139.077C91.3896 140.528 90.7585 141.737 89.757 142.706C88.762 143.674 87.446 144.273 85.8087 144.503ZM94.4237 142.989L92.419 128.73L104.183 127.076L106.188 141.336L103.495 141.714L101.843 129.97L95.4661 130.866L97.1172 142.611L94.4237 142.989ZM109.166 140.917L107.162 126.657L109.855 126.278L111.86 140.538L109.166 140.917ZM114.829 140.121L112.824 125.861L118.528 125.059C119.544 124.916 120.395 125.005 121.08 125.326C121.764 125.641 122.294 126.085 122.671 126.658C123.047 127.231 123.28 127.831 123.368 128.458C123.48 129.257 123.392 129.946 123.103 130.525C122.821 131.104 122.379 131.526 121.777 131.792L121.707 131.297C122.624 131.357 123.349 131.676 123.882 132.254C124.42 132.831 124.746 133.516 124.857 134.308C124.977 135.16 124.924 135.931 124.698 136.623C124.478 137.313 124.074 137.889 123.486 138.348C122.897 138.801 122.117 139.096 121.146 139.233L114.829 140.121ZM117.205 137.201L120.513 136.737C120.876 136.685 121.189 136.564 121.451 136.372C121.713 136.174 121.903 135.925 122.023 135.625C122.148 135.318 122.184 134.973 122.13 134.591C122.082 134.254 121.971 133.963 121.795 133.719C121.619 133.474 121.379 133.296 121.074 133.184C120.774 133.064 120.416 133.034 120 133.092L116.693 133.557L117.205 137.201ZM116.339 131.042L119.271 130.63C119.574 130.587 119.837 130.496 120.06 130.357C120.283 130.218 120.448 130.03 120.557 129.793C120.664 129.549 120.693 129.252 120.643 128.902C120.582 128.466 120.395 128.119 120.083 127.86C119.77 127.601 119.357 127.508 118.842 127.58L115.911 127.992L116.339 131.042ZM127.439 138.348L125.434 124.088L137.199 122.434L139.203 136.694L136.51 137.073L134.859 125.328L128.481 126.225L130.132 137.969L127.439 138.348ZM141.983 136.303L139.979 122.043L145.999 121.197C146.138 121.178 146.324 121.158 146.557 121.139C146.795 121.112 147.009 121.102 147.199 121.109C148.069 121.122 148.805 121.304 149.407 121.657C150.015 122.009 150.494 122.494 150.843 123.111C151.192 123.722 151.422 124.427 151.534 125.226C151.647 126.025 151.617 126.769 151.444 127.46C151.278 128.143 150.951 128.738 150.463 129.244C149.982 129.749 149.328 130.127 148.502 130.378C148.321 130.43 148.112 130.48 147.877 130.527C147.641 130.573 147.457 130.606 147.325 130.624L143.998 131.092L144.677 135.925L141.983 136.303ZM143.644 128.577L146.852 128.126C146.991 128.106 147.142 128.078 147.305 128.042C147.468 128.006 147.616 127.958 147.75 127.899C148.099 127.749 148.356 127.544 148.522 127.285C148.686 127.02 148.785 126.74 148.818 126.446C148.856 126.144 148.857 125.865 148.821 125.607C148.785 125.35 148.707 125.085 148.588 124.812C148.474 124.532 148.302 124.29 148.072 124.087C147.84 123.877 147.536 123.748 147.159 123.7C147.015 123.68 146.859 123.675 146.693 123.685C146.526 123.695 146.373 123.71 146.234 123.729L143.026 124.18L143.644 128.577ZM152.694 134.797L155.047 119.925L159.067 119.36L165.429 133.007L162.657 133.397L157.007 121.366L157.522 121.294L155.467 134.408L152.694 134.797ZM154.891 131.459L154.538 128.944L162.064 127.886L162.417 130.401L154.891 131.459ZM178.332 133.617L177.998 131.24L167.204 132.758L165.199 118.498L167.893 118.119L169.564 130.002L176.06 129.089L174.445 117.602L177.138 117.223L178.753 128.71L180.357 128.485L181.026 133.238L178.332 133.617ZM192.768 129.164L190.074 129.543L189.395 124.71L186.067 125.178L184.868 125.266C183.573 125.246 182.568 124.855 181.855 124.094C181.142 123.326 180.701 122.344 180.533 121.149C180.42 120.35 180.448 119.609 180.614 118.926C180.786 118.235 181.113 117.637 181.594 117.132C182.075 116.627 182.732 116.249 183.565 115.997C183.752 115.937 183.96 115.887 184.19 115.848C184.42 115.803 184.603 115.77 184.742 115.751L190.763 114.904L192.768 129.164ZM184.727 130.294L181.677 130.723L183.875 123.951L186.723 124.096L184.727 130.294ZM189.041 122.195L188.423 117.798L185.215 118.249C185.076 118.269 184.925 118.297 184.762 118.333C184.599 118.369 184.451 118.417 184.317 118.476C183.968 118.626 183.711 118.834 183.547 119.1C183.381 119.358 183.279 119.639 183.241 119.94C183.208 120.234 183.21 120.51 183.246 120.768C183.282 121.025 183.357 121.294 183.47 121.574C183.59 121.847 183.765 122.088 183.996 122.298C184.227 122.501 184.531 122.627 184.908 122.675C185.052 122.695 185.207 122.7 185.374 122.69C185.541 122.68 185.694 122.665 185.833 122.646L189.041 122.195Z" fill="#0A0A0A"/>
<path d="M68.4596 177.863L68.0353 174.844C68.4789 174.782 68.8198 174.621 69.058 174.361C69.2954 174.096 69.459 173.766 69.5489 173.371C69.6388 172.976 69.6881 172.541 69.6967 172.066C69.7045 171.585 69.7011 171.101 69.6863 170.613C69.6615 169.9 69.6242 169.214 69.5744 168.553C69.5298 167.891 69.474 167.207 69.407 166.5C69.3452 165.792 69.2794 165.018 69.2096 164.177L76.2456 163.196L77.6923 173.487L78.5083 173.372L78.9326 176.39L77.776 176.553L77.5087 174.652L69.3568 175.798L69.6241 177.699L68.4596 177.863ZM70.2614 174.531L76.5278 173.65L75.2381 164.477L70.452 165.141C70.5109 165.79 70.5668 166.418 70.6198 167.024C70.6727 167.631 70.7212 168.243 70.765 168.862C70.8089 169.481 70.8433 170.127 70.8682 170.803C70.8955 171.418 70.9014 171.958 70.8861 172.424C70.8707 172.889 70.8144 173.293 70.7171 173.635C70.625 173.977 70.4731 174.275 70.2614 174.531ZM79.296 174.4L79.1501 173.363C79.4443 173.348 79.6831 173.304 79.8665 173.229C80.0493 173.15 80.1861 173.012 80.277 172.816C80.3733 172.62 80.4414 172.338 80.4814 171.972C80.5207 171.6 80.5448 171.12 80.5536 170.532C80.5664 169.894 80.5636 169.262 80.5454 168.634C80.5325 168.006 80.5079 167.371 80.4716 166.73C80.4399 166.083 80.3953 165.421 80.338 164.745C80.2807 164.069 80.2174 163.37 80.1481 162.647L87.3493 161.635L88.953 173.043L87.7885 173.206L86.3418 162.916L81.4301 163.606C81.4696 164.155 81.5109 164.718 81.5541 165.293C81.6026 165.868 81.6424 166.458 81.6735 167.062C81.7099 167.665 81.7357 168.289 81.7508 168.933C81.7705 169.571 81.7747 170.233 81.7634 170.919C81.7501 171.438 81.7159 171.922 81.6606 172.371C81.6105 172.82 81.5033 173.207 81.3389 173.531C81.1798 173.855 80.9364 174.097 80.6087 174.256C80.2863 174.415 79.8487 174.463 79.296 174.4ZM98.6215 171.683L97.4648 171.846L96.8556 167.513L93.0609 168.046L92.6436 168.008C91.7755 167.963 91.0698 167.656 90.5265 167.086C89.9832 166.516 89.6511 165.8 89.5301 164.939C89.4462 164.343 89.478 163.783 89.6254 163.262C89.7729 162.74 90.03 162.289 90.3967 161.909C90.7679 161.523 91.2429 161.244 91.8218 161.071C91.966 161.024 92.1063 160.988 92.2429 160.963C92.3787 160.933 92.5021 160.91 92.613 160.895L97.0177 160.276L98.6215 171.683ZM91.7134 172.655L90.3746 172.843L92.1335 167.425L93.3106 167.696L91.7134 172.655ZM96.6997 166.404L96.0181 161.555L92.8017 162.007C92.712 162.02 92.6018 162.041 92.4712 162.07C92.3452 162.093 92.2233 162.126 92.1056 162.17C91.7266 162.309 91.4271 162.516 91.207 162.789C90.9922 163.062 90.8475 163.373 90.7728 163.723C90.6973 164.067 90.6845 164.416 90.7342 164.77C90.784 165.124 90.8926 165.456 91.0601 165.766C91.2276 166.077 91.4522 166.333 91.7338 166.536C92.0207 166.738 92.3655 166.854 92.7682 166.884C92.8934 166.893 93.0201 166.894 93.1484 166.887C93.2819 166.879 93.3936 166.868 93.4833 166.856L96.6997 166.404ZM103.384 171.014L101.78 159.606L102.944 159.442L103.667 164.584L109.973 163.697L109.25 158.556L110.407 158.393L112.011 169.801L110.854 169.964L110.13 164.814L103.824 165.701L104.548 170.85L103.384 171.014ZM113.121 169.645L115.446 157.685L116.991 157.468L122.524 168.323L121.312 168.494L116.069 158.26L116.528 158.195L114.333 169.475L113.121 169.645ZM114.483 166.634L114.329 165.541L120.223 164.712L120.377 165.806L114.483 166.634ZM127.981 167.798C126.845 167.958 125.851 167.842 124.999 167.45C124.146 167.053 123.456 166.436 122.929 165.6C122.403 164.764 122.057 163.762 121.893 162.595C121.729 161.428 121.785 160.37 122.061 159.421C122.337 158.472 122.83 157.692 123.541 157.08C124.252 156.463 125.175 156.075 126.31 155.915C127.636 155.729 128.766 155.917 129.702 156.481C130.637 157.039 131.34 157.866 131.812 158.963L130.667 159.439C130.297 158.57 129.761 157.916 129.058 157.476C128.355 157.036 127.492 156.888 126.467 157.032C125.575 157.158 124.861 157.465 124.327 157.955C123.792 158.445 123.426 159.076 123.227 159.847C123.033 160.612 122.998 161.47 123.121 162.423C123.249 163.374 123.512 164.191 123.91 164.873C124.312 165.554 124.841 166.059 125.496 166.387C126.155 166.709 126.931 166.807 127.824 166.681C128.848 166.537 129.638 166.157 130.192 165.541C130.745 164.919 131.08 164.142 131.197 163.21L132.429 163.352C132.278 164.536 131.83 165.528 131.086 166.328C130.341 167.122 129.306 167.612 127.981 167.798ZM137.208 166.259L135.605 154.851L136.769 154.687L137.527 160.074L141.974 153.956L143.463 153.746L138.922 159.999L145.503 165.093L143.982 165.307L137.571 160.391L138.373 166.095L137.208 166.259ZM145.507 165.092L145.361 164.054C145.655 164.04 145.894 163.996 146.077 163.921C146.26 163.842 146.397 163.704 146.488 163.508C146.584 163.312 146.652 163.03 146.692 162.663C146.732 162.292 146.756 161.812 146.764 161.223C146.777 160.586 146.774 159.954 146.756 159.326C146.743 158.698 146.719 158.063 146.682 157.422C146.651 156.775 146.606 156.113 146.549 155.437C146.492 154.761 146.428 154.062 146.359 153.339L153.56 152.327L155.164 163.735L153.999 163.898L152.553 153.607L147.641 154.298C147.68 154.847 147.722 155.41 147.765 155.985C147.813 156.56 147.853 157.149 147.884 157.754C147.921 158.357 147.946 158.981 147.962 159.625C147.981 160.263 147.986 160.925 147.974 161.611C147.961 162.13 147.927 162.614 147.871 163.063C147.821 163.512 147.714 163.899 147.55 164.223C147.391 164.547 147.147 164.789 146.82 164.948C146.497 165.106 146.06 165.154 145.507 165.092ZM157.219 163.446L155.615 152.038L156.78 151.874L158.384 163.282L157.219 163.446ZM165.26 162.558C164.135 162.716 163.145 162.586 162.289 162.167C161.433 161.749 160.741 161.119 160.214 160.278C159.686 159.436 159.355 158.46 159.22 157.348C159.07 156.162 159.132 155.095 159.408 154.146C159.689 153.197 160.178 152.42 160.874 151.816C161.575 151.211 162.481 150.83 163.59 150.674C164.873 150.494 166.001 150.685 166.975 151.249C167.948 151.812 168.665 152.7 169.126 153.911L167.962 154.252C167.622 153.363 167.087 152.701 166.358 152.264C165.629 151.828 164.775 151.674 163.796 151.801C162.971 151.906 162.296 152.178 161.771 152.619C161.245 153.059 160.867 153.623 160.635 154.313C160.409 155.002 160.328 155.767 160.393 156.609L164.576 156.021L164.733 157.138L160.55 157.726C160.647 158.23 160.796 158.712 160.996 159.174C161.195 159.631 161.491 160.058 161.887 160.455C162.308 160.886 162.801 161.177 163.367 161.329C163.937 161.475 164.531 161.51 165.151 161.434C166.061 161.317 166.807 160.959 167.391 160.359C167.98 159.76 168.337 159.004 168.462 158.092L169.653 158.232C169.56 159.031 169.323 159.735 168.94 160.344C168.561 160.946 168.059 161.437 167.434 161.816C166.809 162.194 166.084 162.442 165.26 162.558ZM171.482 161.44L169.878 150.033L171.043 149.869L171.766 155.01L178.072 154.124L177.349 148.982L178.505 148.82L180.109 160.228L178.953 160.39L178.229 155.241L171.923 156.127L172.647 161.277L171.482 161.44ZM185.046 159.534L183.599 149.243L179.614 149.803L179.457 148.686L188.591 147.402L188.748 148.519L184.764 149.079L186.21 159.37L185.046 159.534ZM199.776 157.463L198.603 157.628L197.288 148.272L192.321 158.511L191.149 158.676L189.545 147.268L190.717 147.103L192.032 156.451L197 146.22L198.172 146.055L199.776 157.463ZM203.743 152.324L203.603 151.326L210.258 150.391L210.398 151.389L203.743 152.324ZM101.754 188.911L101.545 187.43L92.6252 188.684L91.0214 177.276L92.186 177.112L93.6383 187.443L100.182 186.523L98.7441 176.295L99.9087 176.132L101.346 186.359L102.559 186.189L102.918 188.747L101.754 188.911ZM103.665 187.132L102.062 175.724L109.192 174.722L109.349 175.839L103.383 176.677L103.938 180.622L108.953 179.917L109.11 181.034L104.095 181.739L104.673 185.851L110.638 185.012L110.795 186.129L103.665 187.132ZM115.24 185.505L113.636 174.097L122.374 172.868L123.978 184.276L122.813 184.44L121.367 174.149L114.958 175.05L116.404 185.341L115.24 185.505ZM125.085 184.12L127.411 172.16L128.956 171.943L134.489 182.798L133.277 182.969L128.033 172.735L128.493 172.671L126.297 183.95L125.085 184.12ZM126.447 181.109L126.294 180.016L132.188 179.188L132.342 180.281L126.447 181.109ZM135.603 182.642L133.999 171.234L138.404 170.615C138.514 170.599 138.639 170.587 138.778 170.578C138.921 170.564 139.066 170.559 139.213 170.566C139.822 170.572 140.356 170.709 140.814 170.979C141.276 171.242 141.648 171.605 141.928 172.066C142.214 172.527 142.398 173.056 142.482 173.653C142.565 174.244 142.533 174.801 142.386 175.322C142.238 175.844 141.979 176.298 141.608 176.684C141.241 177.064 140.768 177.34 140.189 177.513C140.05 177.555 139.909 177.59 139.768 177.621C139.632 177.651 139.509 177.674 139.398 177.689L136.158 178.145L136.767 182.478L135.603 182.642ZM136.002 177.036L139.21 176.585C139.306 176.571 139.416 176.55 139.541 176.522C139.666 176.494 139.788 176.458 139.906 176.414C140.284 176.275 140.581 176.069 140.796 175.796C141.016 175.523 141.164 175.214 141.239 174.869C141.32 174.524 141.336 174.175 141.286 173.821C141.236 173.467 141.125 173.135 140.952 172.826C140.784 172.51 140.556 172.251 140.269 172.049C139.988 171.846 139.646 171.73 139.243 171.701C139.118 171.691 138.991 171.693 138.864 171.705C138.736 171.713 138.624 171.723 138.529 171.736L135.32 172.187L136.002 177.036ZM147.882 180.916L146.435 170.625L142.451 171.185L142.294 170.068L151.428 168.784L151.585 169.901L147.6 170.461L149.047 180.752L147.882 180.916ZM153.985 180.058L152.381 168.65L153.546 168.486L154.269 173.628L160.575 172.741L159.852 167.6L161.008 167.437L162.612 178.845L161.455 179.007L160.732 173.858L154.426 174.745L155.15 179.894L153.985 180.058ZM164.515 178.577L162.911 167.17L170.041 166.167L170.198 167.284L164.232 168.123L164.787 172.068L169.802 171.363L169.959 172.48L164.944 173.185L165.522 177.297L171.487 176.458L171.644 177.575L164.515 178.577ZM173.234 177.352L171.63 165.944L176.035 165.325C176.146 165.309 176.271 165.297 176.409 165.288C176.553 165.273 176.697 165.269 176.844 165.275C177.453 165.281 177.987 165.419 178.445 165.689C178.907 165.952 179.279 166.315 179.559 166.776C179.845 167.237 180.029 167.765 180.113 168.362C180.197 168.954 180.164 169.51 180.017 170.032C179.869 170.554 179.61 171.007 179.239 171.394C178.872 171.774 178.399 172.05 177.821 172.223C177.681 172.264 177.541 172.3 177.399 172.331C177.264 172.361 177.14 172.383 177.029 172.399L173.789 172.854L174.398 177.188L173.234 177.352ZM173.633 171.745L176.842 171.294C176.937 171.281 177.047 171.26 177.172 171.232C177.297 171.203 177.419 171.167 177.537 171.124C177.916 170.984 178.213 170.778 178.427 170.506C178.647 170.233 178.795 169.924 178.871 169.579C178.951 169.234 178.967 168.884 178.917 168.53C178.867 168.177 178.756 167.845 178.583 167.535C178.415 167.22 178.187 166.961 177.901 166.759C177.619 166.556 177.277 166.44 176.874 166.41C176.749 166.401 176.623 166.403 176.495 166.415C176.367 166.422 176.255 166.433 176.16 166.446L172.952 166.897L173.633 171.745ZM191.106 174.839L189.934 175.004L188.619 165.648L183.652 175.887L182.479 176.052L180.875 164.644L182.048 164.479L183.362 173.827L188.33 163.596L189.503 163.431L191.106 174.839Z" fill="#707070"/>
<path d="M60.7403 205.496L51.8279 206.749L50.5753 197.836L59.4877 196.584L60.7403 205.496Z" fill="#0A0A0A"/>
<path d="M61.9933 214.409L53.0809 215.661L51.8284 206.749L60.7408 205.497L61.9933 214.409Z" fill="#FF3800"/>
<path d="M70.9062 213.156L61.9938 214.408L60.7412 205.496L69.6536 204.243L70.9062 213.156Z" fill="#0A0A0A"/>
<path d="M54.2408 170.056L45.3284 171.309L46.5809 180.221L55.4933 178.968L54.2408 170.056Z" fill="#0A0A0A"/>
<path d="M52.9897 161.143L44.0773 162.396L45.3298 171.308L54.2422 170.056L52.9897 161.143Z" fill="#FF3800"/>
<path d="M61.9025 159.89L52.9901 161.143L54.2427 170.055L63.1551 168.803L61.9025 159.89Z" fill="#0A0A0A"/>
<path d="M227.104 182.117L236.016 180.865L234.764 171.952L225.851 173.205L227.104 182.117Z" fill="#0A0A0A"/>
<path d="M228.357 191.03L237.269 189.778L236.017 180.865L227.104 182.118L228.357 191.03Z" fill="#FF3800"/>
<path d="M219.444 192.283L228.356 191.031L227.104 182.118L218.191 183.371L219.444 192.283Z" fill="#0A0A0A"/>
<path d="M223.581 146.257L232.493 145.005L233.746 153.917L224.834 155.169L223.581 146.257Z" fill="#0A0A0A"/>
<path d="M222.33 137.344L231.242 136.092L232.495 145.004L223.582 146.257L222.33 137.344Z" fill="#FF3800"/>
<path d="M213.417 138.595L222.329 137.343L223.582 146.255L214.67 147.508L213.417 138.595Z" fill="#0A0A0A"/>
</g>
<defs>
<clipPath id="clip0_1490_1719">
<rect width="240" height="240" fill="white" transform="translate(0.467041 34) rotate(-8)"/>
</clipPath>
</defs>
</svg>
