<svg width="440" height="215" viewBox="0 0 440 215" fill="none" xmlns="http://www.w3.org/2000/svg">
<path d="M119.031 89.5382L89.5823 119.691L59.5155 90.3252L88.9645 60.1728L119.031 89.5382Z" stroke="#FF3800" stroke-width="0.2"/>
<path d="M118.293 29.6241L88.844 59.7766L58.7772 30.4111L88.2262 0.258705L118.293 29.6241Z" stroke="#FF3800" stroke-width="0.2"/>
<path d="M58.6563 90.6866L29.2073 120.839L-0.859538 91.4736L28.5895 61.3212L58.6563 90.6866Z" stroke="#FF3800" stroke-width="0.2"/>
<path d="M150.058 198.128L112.412 217.08L93.5132 179.541L131.159 160.588L150.058 198.128Z" stroke="#FF3800" stroke-width="0.2"/>
<path d="M131.187 160.638L93.5411 179.59L74.6426 142.051L112.289 123.099L131.187 160.638Z" stroke="#FF3800" stroke-width="0.2"/>
<path d="M168.788 141.707L131.142 160.659L112.243 123.12L149.889 104.168L168.788 141.707Z" stroke="#FF3800" stroke-width="0.2"/>
<path d="M317.327 98.1312L292.192 131.815L258.412 106.609L283.547 72.9254L317.327 98.1312Z" stroke="#FF3800" stroke-width="0.2"/>
<path d="M283.619 72.981L258.485 106.665L224.705 81.4591L249.84 47.7751L283.619 72.981Z" stroke="#FF3800" stroke-width="0.2"/>
<path d="M251.266 183.622L224.872 216.328L192.072 189.859L218.467 157.153L251.266 183.622Z" stroke="#FF3800" stroke-width="0.2"/>
<path d="M218.445 157.108L192.051 189.814L159.252 163.345L185.646 130.639L218.445 157.108Z" stroke="#FF3800" stroke-width="0.2"/>
<path d="M381.597 215.749H339.45V173.721H381.597V215.749Z" stroke="#FF3800" stroke-width="0.2"/>
<path d="M381.597 173.675H339.45V131.648H381.597V173.675Z" stroke="#FF3800" stroke-width="0.2"/>
<path d="M339.447 173.675H297.3V131.647H339.447V173.675Z" stroke="#FF3800" stroke-width="0.2"/>
<path d="M423.748 173.675H381.6V131.647H423.748V173.675Z" stroke="#FF3800" stroke-width="0.2"/>
<path d="M383.941 7.74863L410.257 40.5177L377.395 66.9086L351.079 34.1396L383.941 7.74863Z" stroke="#FF3800" stroke-width="0.2"/>
<path d="M351.003 34.2011L377.319 66.9701L344.457 93.361L318.141 60.592L351.003 34.2011Z" stroke="#FF3800" stroke-width="0.2"/>
<path d="M370.749 126.112L344.433 93.3431L377.295 66.9521L403.611 99.7212L370.749 126.112Z" stroke="#FF3800" stroke-width="0.2"/>
<path d="M403.695 99.652L377.379 66.883L410.242 40.4921L436.558 73.2611L403.695 99.652Z" stroke="#FF3800" stroke-width="0.2"/>
</svg>
