<svg width="269" height="268" viewBox="0 0 269 268" fill="none" xmlns="http://www.w3.org/2000/svg">
<g clip-path="url(#clip0_1490_1720)">
<path d="M79.6886 32.9681L53.2172 29.7178L49.9669 56.1892L76.4384 59.4395L79.6886 32.9681Z" fill="#F8F8FF"/>
<path d="M106.156 36.2206L79.6844 32.9703L76.4342 59.4418L102.906 62.6921L106.156 36.2206Z" fill="#FF3800"/>
<path d="M159.097 42.7211L132.625 39.4708L129.375 65.9423L155.847 69.1926L159.097 42.7211Z" fill="#F8F8FF"/>
<path d="M212.028 49.2199L185.556 45.9696L182.306 72.4411L208.778 75.6914L212.028 49.2199Z" fill="#FF3800"/>
<path d="M238.499 52.4703L212.028 49.22L208.778 75.6914L235.249 78.9417L238.499 52.4703Z" fill="#F8F8FF"/>
<path d="M109.406 9.74907L82.9349 6.49878L79.6846 32.9703L106.156 36.2205L109.406 9.74907Z" fill="#F8F8FF"/>
<path d="M135.876 12.9994L109.404 9.74915L106.154 36.2206L132.626 39.4709L135.876 12.9994Z" fill="#F8F8FF"/>
<path d="M188.807 19.4982L162.335 16.2479L159.085 42.7194L185.557 45.9697L188.807 19.4982Z" fill="#F8F8FF"/>
<path d="M215.28 22.7486L188.809 19.4983L185.558 45.9698L212.03 49.2201L215.28 22.7486Z" fill="#F8F8FF"/>
<path d="M49.9707 56.1813L23.4993 52.931L20.249 79.4025L46.7205 82.6528L49.9707 56.1813Z" fill="#F8F8FF"/>
<path d="M76.4401 59.4334L49.9686 56.1831L46.7183 82.6546L73.1898 85.9049L76.4401 59.4334Z" fill="#FF3800"/>
<path d="M235.251 78.9339L208.779 75.6836L205.529 102.155L232.001 105.405L235.251 78.9339Z" fill="#FF3800"/>
<path d="M46.7204 82.6528L20.2489 79.4025L16.9986 105.874L43.4701 109.124L46.7204 82.6528Z" fill="#F8F8FF"/>
<path d="M152.596 95.6542L126.125 92.4039L122.875 118.875L149.346 122.126L152.596 95.6542Z" fill="#FF3800"/>
<path d="M69.9414 112.376L43.47 109.126L40.2197 135.598L66.6912 138.848L69.9414 112.376Z" fill="#F8F8FF"/>
<path d="M122.872 118.873L96.401 115.623L93.1507 142.094L119.622 145.345L122.872 118.873Z" fill="#FF3800"/>
<path d="M149.344 122.126L122.872 118.875L119.622 145.347L146.094 148.597L149.344 122.126Z" fill="#F8F8FF"/>
<path d="M175.807 125.372L149.336 122.122L146.086 148.593L172.557 151.843L175.807 125.372Z" fill="#FF3800"/>
<path d="M228.75 131.873L202.279 128.622L199.028 155.094L225.5 158.344L228.75 131.873Z" fill="#F8F8FF"/>
<path d="M40.2218 135.586L13.7504 132.335L10.5001 158.807L36.9716 162.057L40.2218 135.586Z" fill="#F8F8FF"/>
<path d="M146.099 148.585L119.628 145.335L116.378 171.806L142.849 175.057L146.099 148.585Z" fill="#FF3800"/>
<path d="M37.1871 161.546L10.3883 158.256L7.00643 185.799L33.8052 189.09L37.1871 161.546Z" fill="#F8F8FF"/>
<path d="M63.4446 165.307L36.9731 162.057L33.7229 188.529L60.1943 191.779L63.4446 165.307Z" fill="#FF3800"/>
<path d="M222.249 184.806L195.778 181.555L192.528 208.027L218.999 211.277L222.249 184.806Z" fill="#FF3800"/>
<path d="M60.1943 191.781L33.7228 188.531L30.4725 215.002L56.944 218.252L60.1943 191.781Z" fill="#F8F8FF"/>
<path d="M86.652 195.029L60.1805 191.779L56.9303 218.25L83.4017 221.501L86.652 195.029Z" fill="#FF3800"/>
<path d="M139.599 201.528L113.127 198.278L109.877 224.749L136.349 227.999L139.599 201.528Z" fill="#F8F8FF"/>
<path d="M192.53 208.031L166.058 204.78L162.808 231.252L189.279 234.502L192.53 208.031Z" fill="#FF3800"/>
<path d="M219.001 211.279L192.53 208.029L189.279 234.5L215.751 237.75L219.001 211.279Z" fill="#F8F8FF"/>
<path d="M83.4056 221.487L56.9341 218.237L53.6838 244.708L80.1553 247.958L83.4056 221.487Z" fill="#F8F8FF"/>
<path d="M109.875 224.737L83.4033 221.487L80.153 247.959L106.625 251.209L109.875 224.737Z" fill="#F8F8FF"/>
<path d="M162.808 231.238L136.336 227.988L133.086 254.459L159.558 257.709L162.808 231.238Z" fill="#F8F8FF"/>
<path d="M189.281 234.49L162.81 231.24L159.56 257.711L186.031 260.962L189.281 234.49Z" fill="#F8F8FF"/>
<path d="M261.712 82.1823L235.241 78.932L231.991 105.403L258.462 108.654L261.712 82.1823Z" fill="#F8F8FF"/>
<path d="M258.462 108.65L231.991 105.399L228.74 131.871L255.212 135.121L258.462 108.65Z" fill="#F8F8FF"/>
<path d="M251.963 161.585L225.492 158.334L222.242 184.806L248.713 188.056L251.963 161.585Z" fill="#F8F8FF"/>
<path d="M248.713 188.056L222.242 184.806L218.991 211.277L245.463 214.528L248.713 188.056Z" fill="#F8F8FF"/>
<rect x="48.9979" y="55.5586" width="189.189" height="134.054" transform="rotate(7 48.9979 55.5586)" fill="#F8F8FF"/>
<rect x="79.5475" y="31.1323" width="134.054" height="191.351" transform="rotate(7 79.5475 31.1323)" fill="#F8F8FF"/>
<path d="M84.8603 91.9253C83.431 91.7499 82.2351 91.2874 81.2726 90.5379C80.3167 89.7892 79.6261 88.8212 79.201 87.6339C78.7824 86.4474 78.6641 85.113 78.846 83.6308C79.0279 82.1486 79.4654 80.8825 80.1585 79.8324C80.8582 78.7832 81.7624 78.0109 82.871 77.5156C83.9862 77.0211 85.2584 76.8616 86.6877 77.0371C88.117 77.2125 89.3096 77.6746 90.2655 78.4233C91.228 79.1728 91.9186 80.1408 92.3371 81.3273C92.7623 82.5146 92.8839 83.8493 92.702 85.3315C92.5201 86.8138 92.0793 88.0795 91.3796 89.1287C90.6865 90.1788 89.7823 90.951 88.6671 91.4455C87.5585 91.9408 86.2896 92.1008 84.8603 91.9253ZM85.1722 89.3844C86.0771 89.5089 86.8554 89.4063 87.5071 89.0766C88.1588 88.7468 88.679 88.2297 89.0677 87.5251C89.4631 86.8214 89.7216 85.9732 89.8435 84.9807C89.9653 83.9881 89.9187 83.1092 89.7036 82.344C89.4952 81.5796 89.1147 80.9586 88.5621 80.4811C88.0095 80.0035 87.2807 79.7025 86.3758 79.578C85.4709 79.4535 84.6926 79.5561 84.0409 79.8858C83.3893 80.2155 82.8657 80.7323 82.4704 81.436C82.0817 82.1406 81.8264 82.9891 81.7045 83.9817C81.5827 84.9742 81.626 85.8527 81.8344 86.6171C82.0495 87.3824 82.4333 88.0038 82.9859 88.4813C83.5385 88.9589 84.2673 89.2599 85.1722 89.3844ZM96.7336 93.0804L98.1785 81.3088L93.6723 80.7557L93.9818 78.2346L105.694 79.6722L105.384 82.1932L100.878 81.6401L99.4334 93.4118L96.7336 93.0804ZM105.535 94.1607L107.289 79.8679L113.324 80.6087C113.463 80.6257 113.647 80.6551 113.877 80.6967C114.114 80.7326 114.324 80.7784 114.505 80.8343C115.342 81.0714 116.006 81.4383 116.496 81.935C116.992 82.4325 117.329 83.0246 117.507 83.7114C117.685 84.3915 117.725 85.1319 117.627 85.9326C117.529 86.7333 117.307 87.4449 116.962 88.0675C116.624 88.6843 116.155 89.174 115.553 89.5367C114.957 89.9002 114.228 90.0962 113.365 90.1245C113.176 90.1283 112.962 90.1221 112.722 90.1061C112.482 90.0901 112.296 90.074 112.164 90.0578L108.829 89.6484L108.234 94.4921L105.535 94.1607ZM109.138 87.1273L112.354 87.5221C112.493 87.5391 112.646 87.5512 112.813 87.5582C112.98 87.5653 113.136 87.5575 113.28 87.5349C113.656 87.4803 113.957 87.3494 114.184 87.1422C114.412 86.9283 114.58 86.6836 114.687 86.408C114.802 86.1266 114.876 85.8569 114.908 85.5988C114.939 85.3407 114.933 85.0646 114.888 84.7703C114.851 84.4702 114.748 84.1922 114.578 83.9362C114.408 83.6736 114.148 83.4704 113.796 83.3265C113.662 83.2697 113.513 83.2246 113.349 83.191C113.185 83.1575 113.034 83.1322 112.895 83.1151L109.679 82.7204L109.138 87.1273ZM130.138 97.1805L127.398 96.8443L128.568 87.3158L121.185 96.0816L118.446 95.7454L120.2 81.4527L122.939 81.7889L121.77 91.3174L129.153 82.5516L131.892 82.8878L130.138 97.1805ZM132.907 97.5205L134.662 83.2277L137.083 83.525L140.643 93.5937L146.533 84.6848L148.954 84.9821L147.2 99.2748L144.679 98.9654L145.727 90.4294L140.53 98.4561L139.577 98.3392L136.476 89.294L135.428 97.8299L132.907 97.5205ZM148.994 99.4949L155.115 85.7383L159.145 86.2329L161.758 101.062L158.979 100.721L156.635 87.6376L157.151 87.7009L151.773 99.8361L148.994 99.4949ZM151.979 96.8389L152.289 94.3178L159.832 95.2437L159.523 97.7648L151.979 96.8389ZM163.537 101.28L165.291 86.9873L168.031 87.3235L166.861 96.852L174.244 88.0862L176.983 88.4224L175.229 102.715L172.49 102.379L173.659 92.8504L166.276 101.616L163.537 101.28ZM171.234 86.5077C170.652 86.4362 170.14 86.229 169.698 85.886C169.257 85.543 168.923 85.1158 168.697 84.6044C168.471 84.0931 168.393 83.5463 168.465 82.964L170.549 83.2198C170.513 83.5176 170.584 83.7849 170.763 84.0218C170.95 84.2529 171.192 84.3868 171.49 84.4233C171.787 84.4599 172.052 84.3882 172.282 84.2082C172.52 84.0225 172.657 83.7807 172.693 83.4829L174.778 83.7388C174.706 84.3211 174.499 84.833 174.156 85.2745C173.813 85.716 173.386 86.0498 172.874 86.2758C172.363 86.5019 171.816 86.5792 171.234 86.5077ZM181.314 103.462L182.759 91.6903L178.252 91.1372L178.562 88.6162L190.274 90.0537L189.965 92.5748L185.458 92.0217L184.013 103.793L181.314 103.462ZM190.115 104.542L191.869 90.2495L201.199 91.3947L200.89 93.9158L194.259 93.102L193.884 96.159L199.323 96.8266L199.014 99.3477L193.575 98.6801L193.124 102.353L199.754 103.166L199.445 105.687L190.115 104.542ZM53.0814 109.888L54.8358 95.5948L66.6273 97.0421L64.873 111.335L62.1732 111.004L63.6181 99.2319L57.2261 98.4473L55.7812 110.219L53.0814 109.888ZM73.757 112.728C72.3277 112.552 71.1318 112.09 70.1693 111.34C69.2134 110.591 68.5228 109.623 68.0976 108.436C67.6791 107.25 67.5607 105.915 67.7427 104.433C67.9246 102.951 68.3621 101.685 69.0552 100.635C69.7549 99.5855 70.659 98.8132 71.7676 98.3179C72.8829 97.8234 74.1551 97.6639 75.5844 97.8393C77.0137 98.0147 78.2062 98.4768 79.1622 99.2255C80.1247 99.975 80.8152 100.943 81.2338 102.13C81.659 103.317 81.7806 104.652 81.5987 106.134C81.4168 107.616 80.9759 108.882 80.2762 109.931C79.5831 110.981 78.679 111.753 77.5638 112.248C76.4552 112.743 75.1862 112.903 73.757 112.728ZM74.0688 110.187C74.9737 110.311 75.752 110.209 76.4037 109.879C77.0554 109.549 77.5756 109.032 77.9644 108.327C78.3597 107.624 78.6183 106.775 78.7401 105.783C78.862 104.79 78.8154 103.911 78.6003 103.146C78.3919 102.382 78.0114 101.761 77.4588 101.283C76.9062 100.806 76.1774 100.505 75.2725 100.38C74.3676 100.256 73.5893 100.358 72.9376 100.688C72.2859 101.018 71.7624 101.535 71.3671 102.238C70.9783 102.943 70.723 103.791 70.6012 104.784C70.4794 105.777 70.5227 106.655 70.7311 107.419C70.9461 108.185 71.33 108.806 71.8826 109.284C72.4352 109.761 73.1639 110.062 74.0688 110.187ZM82.7029 113.523L84.4572 99.2306L90.1743 99.9324C91.1933 100.057 91.992 100.364 92.5702 100.851C93.1493 101.332 93.5467 101.898 93.7623 102.549C93.9779 103.2 94.0471 103.84 93.97 104.469C93.8717 105.269 93.6081 105.912 93.1792 106.397C92.7569 106.882 92.2205 107.176 91.5699 107.277L91.6308 106.781C92.5014 107.076 93.1189 107.571 93.4835 108.268C93.8547 108.965 93.9915 109.71 93.8941 110.504C93.7893 111.358 93.5383 112.089 93.1411 112.699C92.7505 113.309 92.2115 113.76 91.5242 114.052C90.8377 114.337 90.0081 114.42 89.0354 114.301L82.7029 113.523ZM85.7542 111.319L89.0693 111.726C89.4333 111.77 89.7669 111.734 90.0701 111.617C90.3741 111.493 90.6226 111.302 90.8155 111.043C91.0158 110.779 91.1396 110.455 91.1867 110.071C91.2281 109.734 91.1956 109.424 91.0891 109.142C90.9826 108.861 90.7965 108.626 90.5306 108.439C90.2722 108.246 89.9345 108.124 89.5177 108.073L86.2026 107.666L85.7542 111.319ZM86.512 105.145L89.4499 105.506C89.7543 105.543 90.0321 105.523 90.2833 105.447C90.5345 105.37 90.743 105.231 90.9088 105.03C91.0754 104.822 91.1802 104.543 91.2232 104.192C91.2768 103.755 91.1862 103.371 90.9515 103.04C90.7167 102.709 90.3413 102.512 89.8252 102.449L86.8872 102.088L86.512 105.145ZM95.3424 115.075L97.0967 100.782L99.7965 101.113L99.0753 106.989L105.467 107.774L106.189 101.898L108.888 102.229L107.134 116.522L104.434 116.191L105.158 110.295L98.7658 109.51L98.0422 115.406L95.3424 115.075ZM121.613 118.299L118.873 117.963L120.043 108.435L112.66 117.2L109.921 116.864L111.675 102.571L114.414 102.908L113.245 112.436L120.628 103.67L123.367 104.007L121.613 118.299ZM124.382 118.639L126.137 104.346L128.876 104.683L127.707 114.211L135.089 105.445L137.829 105.782L136.075 120.074L133.335 119.738L134.505 110.21L127.122 118.975L124.382 118.639ZM132.079 103.867C131.497 103.795 130.985 103.588 130.544 103.245C130.102 102.902 129.768 102.475 129.542 101.964C129.316 101.452 129.239 100.905 129.31 100.323L131.395 100.579C131.358 100.877 131.43 101.144 131.609 101.381C131.795 101.612 132.037 101.746 132.335 101.783C132.633 101.819 132.897 101.747 133.127 101.567C133.365 101.382 133.502 101.14 133.539 100.842L135.623 101.098C135.552 101.68 135.344 102.192 135.001 102.634C134.658 103.075 134.231 103.409 133.72 103.635C133.208 103.861 132.662 103.938 132.079 103.867ZM148.916 121.953C147.486 121.777 146.29 121.315 145.328 120.565C144.372 119.817 143.681 118.849 143.256 117.661C142.838 116.475 142.719 115.14 142.901 113.658C143.083 112.176 143.521 110.91 144.214 109.86C144.914 108.811 145.818 108.038 146.926 107.543C148.041 107.049 149.314 106.889 150.743 107.064C152.384 107.266 153.71 107.842 154.722 108.792C155.741 109.743 156.393 110.942 156.679 112.387L153.867 112.808C153.708 111.908 153.344 111.182 152.774 110.628C152.205 110.068 151.424 109.727 150.431 109.605C149.525 109.494 148.742 109.603 148.084 109.932C147.432 110.262 146.909 110.775 146.515 111.472C146.12 112.169 145.862 113.014 145.74 114.007C145.618 114.999 145.664 115.881 145.879 116.653C146.093 117.425 146.476 118.05 147.029 118.527C147.588 119.006 148.321 119.301 149.227 119.412C150.22 119.534 151.06 119.392 151.748 118.986C152.436 118.58 152.965 117.963 153.335 117.135L155.962 118.223C155.335 119.557 154.413 120.562 153.194 121.239C151.983 121.916 150.557 122.154 148.916 121.953ZM157.629 122.72L159.383 108.427L171.175 109.875L169.42 124.167L166.721 123.836L168.166 112.064L161.774 111.28L160.329 123.051L157.629 122.72ZM172.207 124.509L173.961 110.217L183.291 111.362L182.982 113.883L176.352 113.069L175.976 116.126L181.416 116.794L181.106 119.315L175.667 118.647L175.216 122.32L181.846 123.133L181.537 125.655L172.207 124.509ZM183.916 125.947L185.67 111.654L188.37 111.985L187.561 118.576L193.809 112.653L197.105 113.057L190.264 119.371L195.727 127.396L192.313 126.977L187.415 119.767L186.616 126.278L183.916 125.947ZM200.433 127.974L201.878 116.202L197.372 115.649L197.681 113.128L209.393 114.566L209.084 117.087L204.577 116.534L203.133 128.305L200.433 127.974ZM209.234 129.054L210.988 114.761L217.023 115.502C217.162 115.519 217.346 115.548 217.576 115.59C217.814 115.626 218.023 115.672 218.204 115.728C219.042 115.965 219.705 116.332 220.195 116.828C220.691 117.326 221.028 117.918 221.206 118.605C221.384 119.285 221.425 120.025 221.326 120.826C221.228 121.627 221.006 122.338 220.661 122.961C220.324 123.578 219.854 124.067 219.252 124.43C218.656 124.794 217.927 124.99 217.064 125.018C216.875 125.022 216.661 125.016 216.421 125C216.181 124.984 215.995 124.967 215.863 124.951L212.528 124.542L211.934 129.385L209.234 129.054ZM212.838 122.021L216.053 122.415C216.192 122.432 216.345 122.445 216.512 122.452C216.679 122.459 216.835 122.451 216.979 122.428C217.355 122.374 217.656 122.243 217.883 122.036C218.111 121.822 218.279 121.577 218.386 121.301C218.502 121.02 218.575 120.75 218.607 120.492C218.638 120.234 218.632 119.958 218.588 119.664C218.55 119.364 218.447 119.086 218.277 118.83C218.108 118.567 217.847 118.364 217.495 118.22C217.361 118.163 217.212 118.118 217.048 118.084C216.885 118.051 216.733 118.026 216.594 118.009L213.378 117.614L212.838 122.021ZM93.8447 137.056L95.5991 122.763L107.391 124.211L105.636 138.503L102.937 138.172L104.381 126.4L97.9894 125.616L96.5445 137.387L93.8447 137.056ZM114.52 139.896C113.091 139.721 111.895 139.258 110.933 138.509C109.977 137.76 109.286 136.792 108.861 135.605C108.442 134.418 108.324 133.084 108.506 131.602C108.688 130.119 109.125 128.853 109.818 127.803C110.518 126.754 111.422 125.982 112.531 125.486C113.646 124.992 114.918 124.832 116.348 125.008C117.777 125.183 118.97 125.645 119.925 126.394C120.888 127.144 121.579 128.112 121.997 129.298C122.422 130.485 122.544 131.82 122.362 133.302C122.18 134.785 121.739 136.05 121.04 137.099C120.346 138.15 119.442 138.922 118.327 139.416C117.218 139.912 115.95 140.072 114.52 139.896ZM114.832 137.355C115.737 137.48 116.515 137.377 117.167 137.047C117.819 136.718 118.339 136.2 118.728 135.496C119.123 134.792 119.382 133.944 119.503 132.951C119.625 131.959 119.579 131.08 119.364 130.315C119.155 129.55 118.775 128.929 118.222 128.452C117.669 127.974 116.941 127.673 116.036 127.549C115.131 127.424 114.353 127.527 113.701 127.857C113.049 128.186 112.526 128.703 112.13 129.407C111.742 130.111 111.486 130.96 111.365 131.952C111.243 132.945 111.286 133.823 111.494 134.588C111.709 135.353 112.093 135.975 112.646 136.452C113.198 136.93 113.927 137.231 114.832 137.355ZM129.564 141.743C128.134 141.567 126.938 141.105 125.976 140.355C125.02 139.606 124.329 138.638 123.904 137.451C123.486 136.265 123.367 134.93 123.549 133.448C123.731 131.966 124.169 130.7 124.862 129.65C125.562 128.6 126.466 127.828 127.574 127.333C128.69 126.838 129.962 126.679 131.391 126.854C133.032 127.056 134.358 127.632 135.37 128.582C136.389 129.533 137.041 130.731 137.327 132.177L134.515 132.598C134.356 131.698 133.992 130.972 133.422 130.418C132.853 129.858 132.072 129.517 131.079 129.395C130.173 129.284 129.39 129.393 128.732 129.722C128.08 130.051 127.557 130.565 127.163 131.262C126.768 131.959 126.51 132.804 126.388 133.796C126.266 134.789 126.312 135.671 126.527 136.443C126.741 137.215 127.124 137.84 127.677 138.317C128.236 138.796 128.969 139.09 129.875 139.202C130.868 139.323 131.708 139.181 132.396 138.776C133.084 138.37 133.613 137.753 133.983 136.925L136.61 138.013C135.983 139.347 135.061 140.352 133.842 141.028C132.631 141.706 131.205 141.944 129.564 141.743ZM136.897 142.34L137.172 140.097C137.474 140.154 137.735 140.16 137.956 140.113C138.177 140.066 138.372 139.956 138.541 139.782C138.717 139.602 138.883 139.347 139.038 139.016C139.193 138.68 139.353 138.256 139.516 137.745C139.776 136.938 140.015 136.084 140.233 135.184C140.459 134.278 140.662 133.389 140.843 132.518C141.024 131.647 141.178 130.853 141.306 130.137C141.435 129.414 141.536 128.838 141.609 128.411L151.356 129.607L149.601 143.9L146.902 143.568L148.346 131.797L143.781 131.236C143.709 131.604 143.613 132.082 143.494 132.672C143.381 133.263 143.244 133.914 143.082 134.626C142.921 135.339 142.74 136.076 142.539 136.837C142.338 137.598 142.117 138.333 141.876 139.042C141.65 139.733 141.404 140.341 141.138 140.866C140.873 141.384 140.553 141.798 140.179 142.109C139.813 142.413 139.365 142.59 138.835 142.639C138.305 142.688 137.659 142.588 136.897 142.34ZM154.097 144.452L156.574 140.685L152.953 129.803L156.01 130.178L158.332 138.02L162.601 130.987L165.479 131.341L156.975 144.805L154.097 144.452ZM165.107 145.803L166.861 131.51L176.191 132.655L175.882 135.176L169.251 134.363L167.807 146.134L165.107 145.803Z" fill="#0A0A0A"/>
<path d="M54.0047 170.451L55.4082 159.016L59.823 159.558C60.4636 159.637 61.0058 159.838 61.4497 160.161C61.8937 160.484 62.2204 160.887 62.4298 161.369C62.6399 161.847 62.7118 162.355 62.6456 162.895C62.5702 163.509 62.3388 164.037 61.9515 164.478C61.5648 164.914 61.0848 165.191 60.5116 165.309L60.5434 164.918C61.2586 165.221 61.7954 165.663 62.1539 166.244C62.5124 166.825 62.6455 167.492 62.5533 168.244C62.472 168.905 62.2616 169.46 61.9219 169.907C61.5829 170.349 61.1433 170.669 60.6033 170.866C60.0633 171.063 59.4571 171.12 58.7848 171.037L54.0047 170.451ZM55.3173 169.475L58.6364 169.883C59.1022 169.94 59.5305 169.909 59.9212 169.791C60.3125 169.667 60.6329 169.464 60.8824 169.183C61.1371 168.903 61.2911 168.545 61.3444 168.111C61.3963 167.688 61.3452 167.295 61.1909 166.932C61.0366 166.569 60.8024 166.266 60.4883 166.024C60.1802 165.776 59.8117 165.626 59.3829 165.574L55.8495 165.14L55.3173 169.475ZM55.9849 164.036L59.2167 164.433C59.5819 164.478 59.9255 164.436 60.2474 164.309C60.5699 164.177 60.8364 163.976 61.0468 163.706C61.2625 163.437 61.3938 163.112 61.4406 162.731C61.5068 162.191 61.3728 161.729 61.0386 161.344C60.7096 160.959 60.2566 160.732 59.6796 160.661L56.4479 160.264L55.9849 164.036ZM63.5853 171.627L64.9888 160.192L66.156 160.336L64.7525 171.77L63.5853 171.627ZM66.0495 173.863L66.4209 170.838C66.8655 170.893 67.2365 170.825 67.5337 170.636C67.8317 170.442 68.0751 170.165 68.2642 169.807C68.4533 169.449 68.6134 169.041 68.7447 168.584C68.8767 168.122 68.9987 167.654 69.1107 167.179C69.2713 166.484 69.413 165.811 69.5359 165.159C69.6641 164.509 69.7873 163.833 69.9055 163.133C70.029 162.434 70.1658 161.669 70.3161 160.838L77.3663 161.712L76.1002 172.026L76.9181 172.127L76.5468 175.152L75.3875 175.01L75.6214 173.104L67.4507 172.101L67.2168 174.007L66.0495 173.863ZM68.6521 171.112L74.933 171.883L76.0616 162.688L71.2666 162.091C71.1555 162.733 71.0471 163.354 70.9413 163.954C70.8354 164.553 70.7237 165.157 70.6059 165.766C70.4882 166.375 70.354 167.009 70.2033 167.667C70.0704 168.269 69.9363 168.793 69.801 169.238C69.6657 169.684 69.5068 170.059 69.3242 170.364C69.1469 170.67 68.9229 170.92 68.6521 171.112ZM81.2273 173.792L82.6308 162.358L83.798 162.501L82.3945 173.935L81.2273 173.792ZM83.6915 176.029L84.0628 173.004C84.5075 173.058 84.8785 172.991 85.1757 172.802C85.4736 172.607 85.7171 172.331 85.9062 171.972C86.0952 171.614 86.2554 171.207 86.3867 170.75C86.5187 170.288 86.6407 169.819 86.7527 169.344C86.9132 168.649 87.055 167.976 87.1779 167.325C87.3061 166.674 87.4293 165.999 87.5475 165.299C87.6709 164.599 87.8078 163.834 87.9581 163.004L95.0082 163.877L93.7422 174.192L94.5601 174.292L94.1887 177.317L93.0294 177.175L93.2633 175.269L85.0927 174.266L84.8587 176.172L83.6915 176.029ZM86.2941 173.277L92.575 174.048L93.7036 164.853L88.9085 164.257C88.7975 164.899 88.6891 165.519 88.5832 166.119C88.4774 166.719 88.3656 167.323 88.2479 167.932C88.1302 168.541 87.996 169.174 87.8453 169.833C87.7124 170.434 87.5782 170.958 87.443 171.403C87.3077 171.849 87.1488 172.224 86.9662 172.53C86.7889 172.836 86.5649 173.085 86.2941 173.277ZM95.8488 175.587L97.2523 164.152L104.399 165.03L104.261 166.149L98.2821 165.415L97.7967 169.37L102.823 169.987L102.686 171.106L97.6593 170.489L97.1535 174.61L103.133 175.344L102.995 176.464L95.8488 175.587ZM107.817 163.749L107.973 162.478L109.244 162.634L109.088 163.905L107.817 163.749ZM104.792 163.377L104.948 162.107L106.218 162.263L106.062 163.533L104.792 163.377ZM104.747 176.679L106.15 165.245L107.318 165.388L105.914 176.822L104.747 176.679ZM110.073 179.267L110.444 176.242C110.889 176.296 111.26 176.229 111.557 176.04C111.855 175.845 112.099 175.569 112.288 175.211C112.477 174.852 112.637 174.445 112.768 173.988C112.9 173.526 113.022 173.057 113.134 172.582C113.295 171.887 113.436 171.214 113.559 170.563C113.687 169.912 113.811 169.237 113.929 168.537C114.052 167.837 114.189 167.072 114.34 166.242L121.39 167.115L120.124 177.43L120.941 177.53L120.57 180.555L119.411 180.413L119.645 178.507L111.474 177.505L111.24 179.41L110.073 179.267ZM112.675 176.516L118.956 177.286L120.085 168.091L115.29 167.495C115.179 168.137 115.07 168.758 114.965 169.357C114.859 169.957 114.747 170.561 114.629 171.17C114.512 171.779 114.377 172.412 114.227 173.071C114.094 173.673 113.96 174.196 113.824 174.642C113.689 175.087 113.53 175.463 113.348 175.768C113.17 176.074 112.946 176.323 112.675 176.516ZM126.83 179.631C125.692 179.492 124.762 179.122 124.04 178.523C123.319 177.919 122.813 177.145 122.52 176.201C122.228 175.257 122.153 174.2 122.297 173.03C122.44 171.86 122.768 170.852 123.28 170.007C123.792 169.162 124.471 168.536 125.316 168.129C126.162 167.717 127.154 167.581 128.292 167.721C129.436 167.861 130.365 168.233 131.081 168.837C131.803 169.436 132.31 170.207 132.602 171.151C132.9 172.096 132.977 173.153 132.834 174.323C132.69 175.493 132.36 176.5 131.842 177.345C131.33 178.19 130.651 178.819 129.805 179.231C128.965 179.638 127.974 179.772 126.83 179.631ZM126.968 178.512C127.862 178.621 128.634 178.509 129.282 178.175C129.93 177.841 130.447 177.329 130.832 176.641C131.224 175.947 131.478 175.124 131.595 174.171C131.712 173.218 131.664 172.361 131.451 171.598C131.244 170.837 130.866 170.215 130.318 169.734C129.77 169.253 129.049 168.955 128.155 168.84C127.26 168.73 126.491 168.843 125.848 169.178C125.206 169.513 124.688 170.027 124.297 170.72C123.912 171.409 123.658 172.23 123.535 173.182C123.413 174.134 123.456 174.991 123.663 175.752C123.877 176.509 124.257 177.131 124.804 177.617C125.353 178.098 126.074 178.397 126.968 178.512ZM139.897 181.235C139.119 181.14 138.458 180.943 137.915 180.645C137.376 180.348 136.947 179.992 136.627 179.576C136.308 179.156 136.085 178.717 135.958 178.261L137.098 177.772C137.181 178.148 137.342 178.501 137.581 178.831C137.82 179.161 138.146 179.44 138.558 179.668C138.971 179.896 139.476 180.047 140.075 180.12C140.694 180.196 141.23 180.163 141.683 180.02C142.141 179.877 142.503 179.642 142.769 179.315C143.035 178.987 143.197 178.588 143.254 178.117C143.318 177.598 143.243 177.18 143.029 176.864C142.816 176.548 142.507 176.306 142.103 176.138C141.7 175.965 141.242 175.839 140.731 175.76C140.346 175.697 140.072 175.652 139.909 175.627C139.745 175.601 139.637 175.585 139.584 175.579C139.531 175.572 139.481 175.566 139.433 175.56L139.572 174.433C139.609 174.437 139.707 174.449 139.866 174.469C140.024 174.488 140.194 174.509 140.374 174.531C140.554 174.548 140.698 174.56 140.804 174.568C141.566 174.624 142.186 174.498 142.664 174.192C143.142 173.885 143.419 173.425 143.495 172.811C143.574 172.159 143.406 171.626 142.99 171.209C142.579 170.793 142.011 170.541 141.285 170.452C140.603 170.368 140.005 170.461 139.494 170.732C138.989 170.997 138.554 171.385 138.191 171.894L137.325 171.07C137.764 170.468 138.337 170.001 139.044 169.669C139.751 169.337 140.555 169.226 141.455 169.336C141.936 169.395 142.389 169.518 142.812 169.704C143.24 169.891 143.608 170.135 143.915 170.436C144.227 170.738 144.457 171.099 144.604 171.52C144.757 171.937 144.801 172.409 144.736 172.939C144.66 173.558 144.456 174.081 144.124 174.508C143.798 174.935 143.406 175.239 142.949 175.42C143.51 175.666 143.927 176.029 144.201 176.508C144.481 176.989 144.577 177.583 144.49 178.293C144.404 178.991 144.158 179.579 143.75 180.056C143.342 180.532 142.806 180.875 142.141 181.083C141.482 181.287 140.734 181.338 139.897 181.235ZM144.63 181.574L149.972 170.623L151.521 170.814L154.056 182.731L152.841 182.582L150.424 171.34L150.885 171.396L145.845 181.723L144.63 181.574ZM146.725 179.018L146.86 177.923L152.767 178.648L152.633 179.744L146.725 179.018ZM155.172 182.868L156.575 171.434L165.333 172.509L163.93 183.943L162.763 183.8L164.029 173.485L157.605 172.697L156.339 183.011L155.172 182.868ZM167.764 184.414L169.382 181.864L166.388 172.638L167.682 172.797L170.148 180.684L174.511 173.635L175.758 173.788L169.034 184.57L167.764 184.414ZM179.375 186.081C178.237 185.941 177.307 185.572 176.586 184.973C175.864 184.368 175.358 183.594 175.065 182.65C174.773 181.706 174.698 180.649 174.842 179.479C174.985 178.309 175.313 177.302 175.825 176.457C176.337 175.611 177.016 174.985 177.861 174.579C178.707 174.167 179.699 174.03 180.837 174.17C182.166 174.333 183.209 174.808 183.967 175.594C184.726 176.375 185.191 177.356 185.363 178.538L184.134 178.701C184.001 177.766 183.653 176.995 183.088 176.389C182.523 175.782 181.727 175.416 180.7 175.29C179.805 175.18 179.036 175.292 178.394 175.627C177.751 175.962 177.233 176.476 176.842 177.17C176.457 177.859 176.2 178.679 176.073 179.63C175.95 180.583 175.993 181.439 176.2 182.201C176.413 182.963 176.793 183.588 177.341 184.074C177.894 184.556 178.618 184.851 179.513 184.961C180.54 185.087 181.401 184.924 182.096 184.472C182.791 184.015 183.316 183.351 183.67 182.481L184.823 182.937C184.37 184.042 183.681 184.884 182.756 185.464C181.831 186.038 180.704 186.244 179.375 186.081ZM185.825 186.631L187.229 175.196L188.396 175.34L187.733 180.739L193.613 175.98L195.106 176.163L189.1 181.028L194.139 187.651L192.615 187.464L187.694 181.057L186.993 186.774L185.825 186.631ZM196.867 187.986L198.485 185.436L195.491 176.211L196.785 176.369L199.251 184.257L203.614 177.208L204.861 177.361L198.137 188.142L196.867 187.986Z" fill="#707070"/>
<path d="M43.8317 181.252L34.8988 180.155L35.9956 171.222L44.9285 172.319L43.8317 181.252Z" fill="#0A0A0A"/>
<path d="M42.7359 190.186L33.803 189.089L34.8998 180.156L43.8327 181.253L42.7359 190.186Z" fill="#FF3800"/>
<path d="M51.6678 191.282L42.7349 190.185L43.8317 181.252L52.7646 182.349L51.6678 191.282Z" fill="#0A0A0A"/>
<path d="M46.7285 145.335L37.7955 144.239L36.6987 153.172L45.6316 154.268L46.7285 145.335Z" fill="#0A0A0A"/>
<path d="M47.8262 136.404L38.8933 135.307L37.7965 144.24L46.7294 145.337L47.8262 136.404Z" fill="#FF3800"/>
<path d="M56.7581 137.499L47.8252 136.403L46.7284 145.336L55.6613 146.432L56.7581 137.499Z" fill="#0A0A0A"/>
<path d="M210.578 201.727L219.511 202.824L220.608 193.891L211.675 192.794L210.578 201.727Z" fill="#0A0A0A"/>
<path d="M209.482 210.661L218.415 211.758L219.512 202.825L210.579 201.728L209.482 210.661Z" fill="#FF3800"/>
<path d="M200.548 209.565L209.481 210.662L210.578 201.729L201.645 200.632L200.548 209.565Z" fill="#0A0A0A"/>
<path d="M216.457 166.177L225.39 167.274L224.293 176.207L215.361 175.11L216.457 166.177Z" fill="#0A0A0A"/>
<path d="M217.555 157.245L226.488 158.342L225.391 167.275L216.458 166.178L217.555 157.245Z" fill="#FF3800"/>
<path d="M208.621 156.147L217.554 157.244L216.457 166.177L207.524 165.08L208.621 156.147Z" fill="#0A0A0A"/>
</g>
<defs>
<clipPath id="clip0_1490_1720">
<rect width="240" height="240" fill="white" transform="translate(30) rotate(7)"/>
</clipPath>
</defs>
</svg>
