<svg width="1920" height="498" viewBox="0 0 1920 498" fill="none" xmlns="http://www.w3.org/2000/svg">
<path fill-rule="evenodd" clip-rule="evenodd" d="M100.496 0.147461L0 0.147479L1.75713e-05 100.643L100.496 100.643L100.496 201.137L0 201.137L1.75713e-05 301.633L100.496 301.633L100.496 201.138L200.991 201.138L200.991 100.642L100.496 100.642L100.496 0.147461ZM502.479 0.147698L401.983 0.147715L401.983 100.642L301.488 100.642L301.488 201.137L200.992 201.137L200.992 301.633L301.488 301.633L301.488 201.138L401.983 201.138L401.983 100.644L502.479 100.644L502.479 0.147698ZM1106.78 0.147715L1207.27 0.147698V100.642L1306.45 100.642H1406.94V201.138H1306.45L1205.95 201.138L1205.95 301.633L1105.45 301.633V201.137L1205.95 201.137L1205.95 100.644L1106.78 100.644V0.147715ZM1607.93 0.147698L1507.44 0.147715L1507.44 100.642L1406.94 100.642V201.138L1507.44 201.138L1507.44 100.644L1607.93 100.644V0.147698ZM1719.01 0.147715L1819.5 0.147698V100.644L1719.01 100.644L1719.01 201.138L1618.51 201.138V100.642L1719.01 100.642L1719.01 0.147715ZM1920 201.137L1819.5 201.137V301.633L1920 301.633V201.137ZM502.48 100.642L602.975 100.642L602.975 0.147715L703.471 0.147698V100.642L802.644 100.642V201.138L702.149 201.138V100.644L602.975 100.644L602.975 201.138L502.48 201.138L502.48 100.642ZM904.463 0.147698L803.967 0.147715V100.644L904.463 100.644V201.137L803.967 201.137V301.633L904.463 301.633L904.463 201.138L1004.96 201.138H1105.45V100.642H1004.96L904.463 100.642L904.463 0.147698ZM610.909 315.295L711.405 315.295V415.791L610.909 415.791V315.295ZM301.488 397.28L200.992 397.28L200.992 497.775L301.488 497.775L301.488 397.28Z" fill="#0A0A0A"/>
</svg>
