<svg viewBox="0 0 1920 502" fill="none" xmlns="http://www.w3.org/2000/svg">
<rect x="616" y="317.668" width="101.333" height="101.333" fill="#0A0A0A"/>
<rect x="202.667" y="400.334" width="101.333" height="101.333" fill="#0A0A0A"/>
<rect y="0.334473" width="101.333" height="101.333" fill="#0A0A0A"/>
<rect x="405.333" y="0.334473" width="101.333" height="101.333" fill="#0A0A0A"/>
<rect x="1116" y="0.334473" width="101.333" height="101.333" fill="#0A0A0A"/>
<rect x="1520" y="0.334473" width="101.333" height="101.333" fill="#0A0A0A"/>
<rect x="1733.33" y="0.334473" width="101.333" height="101.333" fill="#0A0A0A"/>
<rect x="1834.67" y="203.004" width="101.333" height="101.333" fill="#0A0A0A"/>
<rect x="101.333" y="101.67" width="101.333" height="101.333" fill="#0A0A0A"/>
<rect y="203.004" width="101.333" height="101.333" fill="#0A0A0A"/>
<rect x="202.667" y="203.001" width="101.333" height="101.333" fill="#0A0A0A"/>
<rect x="304" y="101.668" width="101.333" height="101.333" fill="#0A0A0A"/>
<rect x="506.667" y="101.668" width="101.333" height="101.333" fill="#0A0A0A"/>
<rect x="708" y="101.668" width="101.333" height="101.333" fill="#0A0A0A"/>
<rect x="608" y="0.334473" width="101.333" height="101.333" fill="#0A0A0A"/>
<rect x="810.667" y="0.334473" width="101.333" height="101.333" fill="#0A0A0A"/>
<rect x="810.667" y="203.004" width="101.333" height="101.333" fill="#0A0A0A"/>
<rect x="1114.67" y="203.001" width="101.333" height="101.333" fill="#0A0A0A"/>
<rect x="912" y="101.67" width="101.333" height="101.333" fill="#0A0A0A"/>
<rect x="1013.33" y="101.668" width="101.333" height="101.333" fill="#0A0A0A"/>
<rect x="1216" y="101.668" width="101.333" height="101.333" fill="#0A0A0A"/>
<rect x="1317.33" y="101.67" width="101.333" height="101.333" fill="#0A0A0A"/>
<rect x="1418.67" y="101.668" width="101.333" height="101.333" fill="#0A0A0A"/>
<rect x="1632" y="101.668" width="101.333" height="101.333" fill="#0A0A0A"/>
</svg>
